<?xml version="1.0" encoding="UTF-8"?><svg id="Layer_1" xmlns="http://www.w3.org/2000/svg" viewBox="0 0 1055.68 1049.69"><defs><style>.cls-1{fill:#040304;}.cls-2{fill:#060606;}.cls-3{fill:#020202;}.cls-4{fill:#fcfcfc;}.cls-5{fill:#e3e8eb;}.cls-6{fill:#fbe78a;}.cls-7{fill:#9e9fac;}.cls-8{fill:#666774;}.cls-9{fill:#afb3be;}.cls-10{fill:#c4c7d2;}.cls-11{fill:#daab5e;}.cls-12{fill:#42424d;}.cls-13{fill:#555562;}.cls-14{fill:#31313a;}.cls-15{fill:#797989;}</style></defs><g><path class="cls-4" d="M713.14,1025.8H291.22c-.05-1.81-.12-3.63-.14-5.44-.19-15.18,.68-30.37-.18-45.55,1.15-4.22-.51-5.59-4.74-5.24-4.62,.39-9.29,.24-13.94,.32-3.67,0-7.33,0-11,0-6.65-.08-13.32-.4-19.96-.15-3.64,.13-4.37-1.13-4.29-4.5,.23-9.32-.08-18.65,.17-27.97,.09-3.57-.59-5.09-4.56-4.8-5.13,.38-10.32-.05-15.48,.15-2.82,.11-3.74-.77-3.71-3.64,.11-12.65,.18-25.31-.12-37.96-.09-4,1.37-4.57,4.88-4.52,13.15,.19,26.31-.02,39.47,.14,3.05,.04,4.01-.78,3.95-3.89-.17-8.32,.19-16.66-.02-24.98-.09-3.6,.69-5,4.62-4.8,6.98,.35,13.99-.05,20.98,.18,3.12,.1,3.94-.9,3.9-3.94-.16-12.65,.11-25.32-.15-37.97-.09-4.32,.77-5.84,5.55-5.79,27.14,.26,54.29,.13,81.43,.1,15.15-.02,30.31-.03,45.46-.26,3.3-.05,4.27,.92,4.1,4.17-.28,5.48-.13,10.98-.15,16.48-7.5,.05-14.99,.24-22.49,.09-3-.06-4.12,.73-3.98,3.88,.24,5.66-.13,11.34,.15,16.99,.19,3.78-.72,5.25-4.89,5.04-8.31-.42-16.66-.11-24.99-.33-2.81-.07-3.75,.73-3.69,3.62,.17,8.66,.34,17.34-.06,25.99-.21,4.49,1.12,5.45,5.5,5.44,39.82-.05,79.64,.21,119.46,.29,55.82,.11,111.64,.11,167.47,.27,3.23,0,4.33-.77,4.23-4.14-.24-8.49-.28-17,.01-25.49,.13-3.73-1.25-4.42-4.58-4.29-6.49,.26-13-.08-19.49,.23-3.43,.16-4.23-1.1-4.07-4.24,.23-4.49,.06-9,.05-13.49-.01-7.76-1.53-9.09-9.43-9.28-5.58-.13-13.24,2.51-16.18-1.15-2.8-3.48-.72-10.82-.94-16.46-.09-2.43,.46-3.6,3.25-3.59,21.33,.09,42.66,.08,63.99,0,2.71-.01,3.41,1.03,3.32,3.53-.15,4.49,.21,9.01-.12,13.49-.25,3.5,1.14,4.14,4.27,4.07,8.16-.19,16.33,.08,24.49-.14,3.11-.08,4,.85,3.88,3.92-.24,5.82,.19,11.68-.16,17.49-.25,4.03,1.08,5.02,5,4.96,15.49-.22,30.99,.02,46.49-.15,3.31-.04,4.32,.89,4.17,4.18-.26,5.65-.07,11.33-.07,16.99q0,9.48,9.38,10c.85,8.87,1.1,17.76,.68,26.66-.3,.13-.58,.28-.87,.45-.64,.15-1.32,.5-1.92,.4-5.78-.92-6.7,1.94-6.57,7.06,.18,7.08,.87,14.24-.65,21.28-5.46-.15-10.94-.18-16.39-.5-2.81-.16-3.75,.71-3.69,3.6,.18,7.97-.06,15.95,.13,23.91,.08,3.05-.83,4-3.91,3.93-8.63-.2-17.28,.12-25.9-.15-3.71-.12-4.76,.93-4.74,4.7,.09,16.93-.16,33.86-.29,50.79Z"/><path class="cls-1" d="M713.14,1025.8c.13-16.93,.38-33.86,.29-50.79-.02-3.76,1.02-4.81,4.74-4.7,8.63,.27,17.27-.04,25.9,.15,3.08,.07,3.98-.88,3.91-3.93-.2-7.97,.05-15.94-.13-23.91-.07-2.89,.88-3.76,3.69-3.6,5.46,.31,10.93,.35,16.39,.5,.65,.07,1.3,.19,1.95,.2,7,.07,6.98,.06,7.01-6.71,.03-7.41,.12-14.82,.18-22.24,.28-.16,.57-.31,.87-.45,7.4,.16,14.81,.31,22.21,.47,.02,7.73,.05,15.45,.07,23.18-.1,10.31-.29,20.61-.24,30.92,.01,2.76-.69,3.87-3.62,3.72-4.31-.22-8.66,.16-12.97-.11-3.21-.2-4.48,.8-4.37,4.08,.2,5.98,.26,11.98,.12,17.96-.07,2.97,1.19,3.54,3.86,3.54,32.61,0,65.22,.1,97.83,.17,6.65,.09,13.3,.26,19.95,.26,33.8,.03,67.6-.08,101.39,.13,4.77,.03,6.01-1.46,5.71-5.93-.36-5.3-.19-10.65-.04-15.98,.08-2.8-.9-3.83-3.74-3.76-6.16,.16-12.32,.1-18.48,.04-9.68-.1-8.2,1.31-8.29-8.04-.08-7.82-.17-15.65,.05-23.47,.1-3.45-.94-4.66-4.47-4.55-7.48,.24-14.99-.08-22.47,.17-3.41,.11-4.33-1.12-4.19-4.31,.21-4.99-.22-10.01,.15-14.98,.31-4.11-1.27-4.98-5.08-4.95-11.98,.11-23.95-.16-35.93-.28l-.13,.08c.2-13.16,.53-26.31,.59-39.47,.35-71.81,.65-143.63,.93-215.44,.03-6.98-.17-13.97-.27-20.95,.49-23.66,.13-47.32-.23-70.98,.55-1.68,.42-3.34-.13-4.99,.61-9.63,.59-19.26,.13-28.9,.47-14.31,.49-28.63,.11-42.95,.91-5.27,.56-10.55,.24-15.84,.82-27.14,.69-54.28,.1-81.42-.01-8.59-.02-17.19-.04-25.78,.09-10.27,.14-20.54,.31-30.81,.04-2.4-.94-3.2-3.25-3.14-6.29,.14-12.59,.15-18.89,.21-16.91-.04-33.82-.03-50.73-.16-3.26-.02-2.75,2.06-2.76,4.01-.06,10.28-.11,20.56-.17,30.85-9.66,.22-19.33,.55-28.99-.2-.03-12.6-.07-25.21-.1-37.81,.06-15.13,.08-30.25,.2-45.38,.02-2.59-.95-3.52-3.52-3.45-5.15,.13-10.32-.19-15.46,.1-3.81,.21-5.2-.81-5.11-4.91,.28-12.3,.02-24.61,.19-36.91,.05-3.21-.81-4.41-4.17-4.31-7.48,.22-14.97-.09-22.45,.14-3.45,.11-4.61-.92-4.53-4.46,.2-9.3,.02-18.61-.01-27.92-.03-3.35,2.68-6.17,1.86-9.67,14.99,.01,29.98,.18,44.97-.06,4.36-.07,6.11,.77,5.87,5.62-.47,9.64-.08,19.32-.36,28.97-.11,3.74,.66,5.31,4.85,5.09,7.31-.38,14.66,.09,21.98-.19,3.76-.15,5.04,.71,4.97,4.8-.25,16.49,.03,32.98-.13,49.47-.04,3.55,1.06,4.39,4.49,4.38,34.31-.12,68.63,.02,102.94-.17,4.45-.02,5.77,.94,5.78,5.63,.52,143.42,.57,286.84-.06,430.26-.22,50.64,0,101.28-.17,151.92-.01,4.08,.88,5.47,5.12,5.27,7.48-.36,15.02,.3,22.47-.27,5.4-.42,6.21,1.61,6.11,6.37-.3,13.99,.03,27.98-.17,41.97-.05,3.55,1.03,4.49,4.48,4.4,8.66-.23,17.32,.03,25.98-.13,2.85-.05,3.7,.82,3.66,3.68-.16,10.16-.05,20.32-.05,30.48,0,2.02-.34,4.04,2.87,3.92,9.12-.35,18.24-.52,27.36-.76v40.99c-5.38,.07-10.77,.14-16.15,.21-5.36,.01-10.71,.03-16.07,.04-5.24-.02-10.49-.05-15.73-.07-5.38,0-10.76-.01-16.13-.02-5.11,.04-11.63-1.81-14.93,.66-3.13,2.34-.64,9.28-.97,14.19-.02,.33,0,.66,0,1h-248.95Z"/><path class="cls-3" d="M94.26,285.9c1.69-1.09,3.57-.53,5.35-.53,24.8-.03,49.6-.14,74.4,.15,4.75,.05,5.62-1.44,5.55-5.79-.24-15.97,.02-31.96-.14-47.93-.03-3.3,.88-4.26,4.18-4.16,8.15,.24,16.31-.06,24.46,.13,3.08,.07,3.99-.87,3.93-3.94-.19-10.32,.06-20.64-.22-30.95-.1-3.67,.76-4.86,4.63-4.78,13.31,.26,26.63,.03,39.94,.2,3.15,.04,4.27-.66,4.19-4.05-.24-9.81,.06-19.64-.16-29.46-.07-3.33,.93-4.22,4.2-4.14,8.48,.19,16.97-.02,25.46-.06,.44,.47,.88,.94,1.33,1.41,.02,15.37,.04,30.74,.05,46.12l-.04,.19c-8.46-.04-16.93,.09-25.39-.2-3.5-.12-4.14,1.24-4.06,4.32,.2,7.96-.06,15.94,.25,23.9,.12,3.16-.83,4.07-3.84,4.01-6.14-.13-12.29,.15-18.42,0-2.85-.07-3.72,.88-3.61,3.7,.18,4.63-.05,9.27-.1,13.91-.51,.26-1.38,.44-1.46,.79-.23,1.06,.74,1.07,1.46,1.21,0,2.67,0,5.33-.01,8-2.75,.52-1.67,2.73-1.97,4.37-.85,4.64,.77,9.46-1.01,14.03-4,.38-7.99,.68-11.96-.2-.34-1.01-.69-1.01-1.04,0-1.14,.15-2.31,.58-3.4,.41-4.02-.61-5.24,1.07-4.88,4.94,.35,3.79,.2,7.63,.27,11.44,0,10.34,0,20.68,0,31.01-.08,11.94-.24,23.89-.17,35.83,.02,2.99-.8,4.07-3.91,4.01-7.63-.14-15.26,.06-22.9,.13-1.41-.47-3.08,.29-4.35-.91,.07-11.1,.13-22.2,.22-33.3,.02-1.96-.02-3.66-2.75-3.59-9.1,.24-18.21-.46-27.3,.4-8.81-.05-17.63-.11-26.44-.16-4.98-.1-9.97-.03-14.94-.35-3.51-.23-4.59,1.03-4.53,4.51,.2,11.14,.1,22.28,.11,33.42-.67,11.7,.39,23.44-.72,35.13l-.3-.15c-2.98-.37-4.11,.84-4.04,3.93,.17,7.8,.16,15.61,0,23.42-.06,2.87,1.03,3.98,3.78,3.67,.13,9.63,.27,19.26,.4,28.89-.44,9.08-.43,18.15,0,27.23-.16,.47-.45,.94-.45,1.41-.04,23.51-.05,47.02-.06,70.53-.11,1.81-.34,3.63-.32,5.44,.28,31.93,.72,63.86,.86,95.79,.17,37.77,.01,75.55,.15,113.32,.14,40.76,.45,81.53,.68,122.29-.1,2.97-.5,5.97-.22,8.9,.41,4.4-.88,5.93-5.64,5.88-17.37-.2-34.75,.12-52.12,.24-3.64-.09-7.3,.01-10.92-.33-3.4-.32-4.58,.66-4.48,4.27,.18,6.96-.2,13.93-.35,20.9-4.41,.05-8.82,.09-13.24,.14,0-18.33,0-36.66,0-54.99,14.82,.08,29.64,.1,44.46,.31,3.38,.05,2.71-2.04,2.71-3.94,.03-20.66,0-41.32,.07-61.98,.12-35.15-.02-70.31,.54-105.46,.94-58.96,0-117.93,.7-176.89,.01-.99,.21-1.97,.32-2.95,2.81-2.34,2.8-4.68,0-7.03v-1.96c3.77-2.34,2.31-4.69,0-7.03-.15-13.56-.35-27.13-.41-40.69-.04-10.09,.11-20.18,.17-30.27,.28-.1,.76-.16,.8-.32,.17-.65-.4-.61-.81-.7-.13-23.88-.26-47.76-.39-71.64-.04-8.11-.93-16.22-.17-24.33,1.06-.13,1.84-.54,1.92-1.76,.09-1.38-.54-2.13-1.92-2.24-.09-17.63-.17-35.25-.26-52.88,0-1.38-.05-2.77,1.94-2.69,8.1,.35,16.23-.73,24.31,.54,.67,1.21,1.34,1.18,2.01,0Z"/><path class="cls-3" d="M290.9,974.81c.86,15.18,0,30.36,.18,45.55,.02,1.81,.09,3.63,.14,5.44-89.67,0-179.34-.03-269.01,.1-3.52,0-4.14-.82-4.04-4.15,.28-8.97,.1-17.96,.1-26.95,2.04-.43,3.92-.84,6.19-.29,2.28,.55,5.26,1.43,7.16-1.41,4.22,.23,8.43,.47,12.65,.7,2.23,3.97,11.21,3.96,15,0h2c3.94,3.84,9.21,2.88,13.63,2.61,6.25-.38,12.33,1.02,18.76,.13,6.14-.85,13.04,.22,19.5,1.89,2.81,.72,5.63-.63,5.1-4.64,12.14-.28,24.28-.73,36.43-.81,27.15-.17,54.31-.15,81.46-.21,3.39-2.2,5.67-5.13,6.08-9.27,.11-1.12-.2-3.13,.76-3.12,4.84,.07,6.46-5.06,10.77-6.21,2.44-.65,6.77,.11,7.47-4.27,3.67,0,7.33,0,11,0-.06,3.16,2.37,4.9,4.62,4.6,4.77-.63,9.38,1.05,14.06,.31Z"/><path class="cls-9" d="M18.27,934.82c4.41-.05,8.82-.09,13.24-.14,5.25,.06,10.51,.12,15.76,.18-.03,.3-.05,.6-.04,.9-.26,2.54,1.17,3.07,3.35,3.02,3.98-.08,7.97,.09,11.95-.06,2.72-.1,3.91,.8,3.83,3.68-.17,6.14-.26,12.28-.06,18.42,.11,3.46-1.38,4.16-4.45,4.1-8.63-.18-17.26,.04-25.89-.21-3.36-.1-5.02,.87-4.82,4.33-4.29,.27-8.58,.54-12.85-.22v-33.99Z"/><path class="cls-1" d="M18.27,968.81c4.27,.76,8.56,.49,12.85,.22,1.22,8,.51,16.05,.49,24.07-1.89,2.84-4.87,1.96-7.16,1.41-2.26-.55-4.14-.14-6.19,.29v-26Z"/><path class="cls-15" d="M747.25,197.83c.03,9.31,.21,18.62,.01,27.92-.08,3.54,1.08,4.56,4.53,4.46,7.48-.23,14.97,.08,22.45-.14,3.36-.1,4.21,1.1,4.17,4.31-.17,12.3,.09,24.61-.19,36.91-.09,4.09,1.3,5.12,5.11,4.91,5.14-.29,10.31,.03,15.46-.1,2.57-.07,3.54,.86,3.52,3.45-.13,15.13-.15,30.25-.2,45.38-8.39-.06-16.78-.13-25.17-.19,.08-8.48-.1-16.98,.33-25.44,.23-4.57-1.4-5.52-5.67-5.5-30.45,.15-60.91,.05-91.36,.03,0-19.47-.16-38.94,.09-58.41,.06-4.53-1.34-5.59-5.65-5.49-20.44,.48-40.88,.58-61.32,1.01-3.95,.08-5.29-1.28-5.16-5.19,.24-7.15,.27-14.32-.02-21.46-.18-4.29,1.53-5.37,5.54-5.33,16.97,.16,33.95,.13,50.92,.02,4.61-.03,10.56,2.02,13.51-.85,3.18-3.1,.99-9.16,1.05-13.91,.17-13.16,.06-13.16-13.08-13.28-6.46-.06-7.32-.98-6.8-7.57,.12-1.48,.57-2.93,.7-4.42,.17-2,.18-3.86-2.04-5.14-9.04-5.21-17.15-11.93-26.67-16.35-1.73-.8-3.32-1.63-2.78-4.04,1.21-5.43,.24-10.94,.58-16.41,3.55-.12,7.1-.24,10.65-.36,.96,.23,1.92,.68,2.87,.67,12.4-.15,24.8-.37,37.2-.57,.11,.37,.22,.73,.33,1.1,.05,9.32,.31,18.64,.06,27.95-.11,4.04,1.23,5.09,5.11,5.03,9.3-.13,18.61-.67,27.91,.14l-.07-.1c-.07,14.28-.08,28.56-.27,42.84-.04,2.99,1.21,3.61,3.86,3.57,9.47-.14,18.94-.11,28.4-.14,.7,.23,1.4,.46,2.09,.69Z"/><path class="cls-2" d="M679.81,116.75c-12.4,.2-24.8,.41-37.2,.57-.95,.01-1.91-.43-2.87-.67-.08-9.63-.25-19.26-.18-28.89,.02-2.98-.87-4.17-3.96-4.05-5.8,.23-11.62,.15-17.43,.21l-7.99,.02c-5.14-.11-10.28-.34-15.41-.27-2.61,.04-3.48-.86-3.41-3.46,.15-5.97-.02-11.95,.09-17.93,.04-2.37-.38-3.6-3.21-3.57-23.06,.32-46.12,.5-69.18,.73-30.95,.19-61.9,.38-92.85,.57-6.63-.08-13.26-.08-19.89-.27-2.67-.08-2.89,1.37-2.86,3.45,.08,5.48-.1,10.97,.1,16.44,.1,2.81-.78,3.76-3.63,3.68-6.47-.18-12.95-.03-19.43-.04q-7.49,0-7.5,7.73c-.03,8.8-.09,17.6-.13,26.4l.11,.07c-4.26,.15-8.53,.3-12.79,.45-10.17,0-20.33,.01-30.5,.02l-.08,.08c-.04-10.32,.03-20.65-.21-30.96-.07-3.13,1.29-3.46,3.83-3.44,7.83,.09,15.66-.18,23.48,.04,3.19,.09,3.9-.98,3.83-3.97-.2-8.32,.25-16.67-.21-24.97-.27-4.85,1.5-5.76,5.84-5.59,8.31,.32,16.65-.03,24.97,.17,3.11,.08,3.99-.93,3.88-3.96-.22-5.99,.22-12-.15-17.98-.27-4.4,.83-5.82,5.57-5.77,38.96,.37,77.92,.47,116.88,.58,28.98,.08,57.95,.12,86.93-.01,3.65-.02,4.97,.77,4.78,4.64-.33,6.98-.03,13.98-.14,20.98-.04,2.33,.23,3.67,3.13,3.59,9.58-.25,19.37,1.24,28.96-4.76,0,10.98,.21,21.03-.1,31.07-.13,4.28,.83,5.81,5.43,5.63,9.98-.38,19.98-.02,29.97-.16,2.77-.04,3.79,.7,3.73,3.62-.19,9.99-.13,19.98-.17,29.97Z"/><path class="cls-3" d="M745.16,197.15c-9.47,.03-18.94,0-28.4,.14-2.65,.04-3.9-.58-3.86-3.57,.19-14.28,.2-28.56,.27-42.84,10.79-.05,21.58-.04,32.37-.2,2.57-.04,3.47,.73,3.42,3.38-.2,9.29-.18,18.59-.25,27.89-1.91,.09-2.36,1.24-2.48,2.96-.26,4.09-.7,8.16-1.07,12.24Z"/><path class="cls-3" d="M329.59,118.02l.08-.08c.13,4.34,.25,8.68,.38,13.02-1.65-.02-3.39,.52-2.66,2.4,2.15,5.56-.97,10.93-.24,16.38l.08,.38c-.31-.09-.62-.09-.94,0l-34.12-.43c-.63-.24-1.27-.49-1.9-.73-.5-7.66-.41-15.33-.04-22.99,.8-.13,1.67-.23,1.8-1.27,.17-1.33-.79-1.59-1.8-1.73,0-1,0-2,0-3l1.02-1.43c9.65-.59,19.31-.42,28.96-.05,1.66,4.08,3.34,2.02,5.03,.02,1.45-.17,2.91-.33,4.36-.5Z"/><path class="cls-1" d="M713.23,150.98c-9.3-.81-18.61-.26-27.91-.14-3.89,.05-5.22-.99-5.11-5.03,.25-9.31,0-18.63-.06-27.95,9.82-.05,19.64,.03,29.46-.21,3.16-.07,3.41,1.37,3.41,3.89-.02,9.81,.13,19.63,.22,29.44Z"/><path class="cls-12" d="M745.16,197.15c.37-4.08,.81-8.15,1.07-12.24,.11-1.72,.57-2.88,2.48-2.96l.4,6.22c.82,3.5-1.89,6.32-1.86,9.67-.7-.23-1.39-.46-2.09-.69Z"/><path class="cls-2" d="M67.09,512.88c2.3,2.35,3.77,4.69,0,7.03-.55-2.35-.54-4.69,0-7.03Z"/><path class="cls-2" d="M67.08,521.88c2.79,2.34,2.81,4.69,0,7.03-.55-2.34-.54-4.69,0-7.03Z"/><path class="cls-2" d="M325.23,118.52c-1.68,1.99-3.37,4.06-5.03-.02,1.68-.4,3.35-.41,5.03,.02Z"/><path class="cls-2" d="M66.27,340.93c1.38,.12,2.01,.86,1.92,2.24-.08,1.21-.86,1.63-1.92,1.76v-4Z"/><path class="cls-2" d="M290.27,148.97c.63,.24,1.27,.49,1.9,.73-.27,.77-.54,1.53-.81,2.3-.44-.47-.88-.94-1.33-1.41l.23-1.62Z"/><path class="cls-2" d="M290.22,122.97c1.02,.15,1.97,.4,1.8,1.73-.13,1.03-1,1.13-1.8,1.27v-3Z"/><path class="cls-2" d="M94.26,285.9c-.66,1.19-1.33,1.22-2.01,0,.67-.68,1.33-.68,2.01,0Z"/><path class="cls-2" d="M66.84,440.9c.4,.09,.98,.05,.81,.7-.04,.17-.52,.22-.8,.32,0-.34,0-.68,0-1.03Z"/><path class="cls-2" d="M291.24,118.54l-1.02,1.43c-.19-.85-.14-1.54,1.02-1.43Z"/><path class="cls-1" d="M777.25,883.67q-9.37-.51-9.38-10c0-5.67-.19-11.34,.07-16.99,.15-3.3-.86-4.22-4.17-4.18-15.5,.17-30.99-.07-46.49,.15-3.91,.05-5.24-.93-5-4.96,.36-5.81-.08-11.67,.16-17.49,.13-3.07-.76-4-3.88-3.92-8.16,.22-16.33-.06-24.49,.14-3.13,.07-4.52-.57-4.27-4.07,.32-4.48-.04-9,.12-13.49,.09-2.51-.61-3.55-3.32-3.53-21.33,.09-42.66,.1-63.99,0-2.79-.01-3.34,1.16-3.25,3.59,.22,5.64-1.86,12.98,.94,16.46,2.94,3.66,10.59,1.02,16.18,1.15,7.89,.19,9.41,1.52,9.43,9.28,0,4.5,.18,9.01-.05,13.49-.16,3.14,.64,4.4,4.07,4.24,6.49-.31,13,.03,19.49-.23,3.33-.13,4.7,.56,4.58,4.29-.29,8.49-.25,17-.01,25.49,.1,3.37-1,4.15-4.23,4.14-55.82-.16-111.64-.16-167.47-.27-39.82-.08-79.64-.34-119.46-.29-4.38,0-5.71-.95-5.5-5.44,.4-8.65,.23-17.33,.06-25.99-.06-2.89,.88-3.69,3.69-3.62,8.33,.22,16.67-.09,24.99,.33,4.16,.21,5.08-1.26,4.89-5.04-.28-5.65,.09-11.33-.15-16.99-.13-3.15,.98-3.94,3.98-3.88,7.49,.15,14.99-.04,22.49-.09l-.09-.12c.08,7.3,.32,14.6,.17,21.9-.07,3.42,.94,4.58,4.47,4.57,15.94-.05,31.87,.23,47.81,.26,7.79,.01,15.58-.28,23.36-.43,.64,.16,1.28,.46,1.93,.46,33.13,.06,66.26,.07,99.39,.15,2.85,0,3.78-1.2,3.74-3.91-.11-5.99-.28-12,.06-17.97,.24-4.2-1.52-5.04-5.25-4.97-9.65,.2-19.32-.12-28.96,.15-3.86,.11-4.93-1.22-4.7-4.86,.28-4.31-.1-8.66,.12-12.98,.18-3.54-1.23-4.58-4.67-4.52-10.49,.17-20.98,.05-31.46,.04-.28-.29-.55-.58-.83-.87,0-8.47,.14-16.95-.09-25.42-.1-3.52,1.03-4.52,4.51-4.48,10.79,.14,21.59-.07,32.38-.15,1.83,.07,3.65,.2,5.48,.2,43.92,.04,87.85,.07,131.77,.1,2.32,0,4.66-.21,6.88,.76-1.18,8.56-.31,17.17-.62,25.75-.09,2.57,1.5,2.43,3.21,2.42,10.42-.07,20.84-.12,31.26-.18,.66,.33,1.32,.66,1.97,.99-.08,6.62,.03,13.25-.32,19.86-.19,3.55,1.32,4.02,4.33,3.99,8.6-.07,17.21,.15,25.81,.25-.01,3.47,.25,6.98-.1,10.42-.48,4.76,1.01,7.24,6.14,6.9,1.56-.11,3.67-.18,3.2,2.45-1.06,5.96,2.14,6.92,7.02,6.32,2.27-.28,4.6-.1,6.9-.12,9.76,.57,19.52,.21,29.28-.03,.29,.1,.52,.28,.68,.55-.06,6.83,.19,13.68-.3,20.48-.35,4.92,.92,6.51,6.14,6.36,7.39-.21,14.89-1.21,22.25,.56-.08,7.93-.31,15.87-.15,23.8,.07,3.29-.58,4.69-4.26,4.54-7.43-.31-14.88-.13-22.32-.16-10.45-.06-20.89-.11-31.34-.17-.06-7.29-.2-14.58-.13-21.87,.02-2.48-.65-3.61-3.34-3.54-7.11,.18-14.23,.17-21.35,.23Z"/><path class="cls-1" d="M261.23,969.91c-.7,4.38-5.03,3.62-7.47,4.27-4.3,1.15-5.93,6.27-10.77,6.21-.96-.01-.65,2-.76,3.12-.41,4.15-2.69,7.07-6.08,9.27-.02-6.49-.16-12.99,0-19.48,.07-2.89-.98-3.77-3.76-3.69-5.32,.16-10.67-.23-15.98,.12-4.17,.28-5.05-1.38-4.94-5.17,.25-8.32-.12-16.66,.18-24.97,.15-4.14-.65-5.98-5.36-5.74-7.3,.37-14.65-.18-21.97-.04-3.1,.06-4.05-.95-3.94-3.99,.21-5.82-.04-11.66,.14-17.48,.09-2.81-.86-3.81-3.69-3.74-8.15,.19-16.31,.15-24.46,.2-.2-7.7-.39-15.39-.59-23.09l.46-4.88c9.55-.08,19.09-.16,28.64-.25,.82,.06,1.65,.2,2.46,.16,7.11-.31,6.64,1.39,6.83-7.07,.13-5.74-1.81-12.01,3.7-16.66,.56-.47,.31-1.89,.44-2.88,2.45-.09,4.91-.21,7.36-.25q9.26-.17,10.09-8.87c5.77-.91,11.07-3.27,16.5-5.28,8.11-3,8.16-2.87,7.8-11.4-.03-.66-.16-1.32-.24-1.98,.69-7.79-.7-15.62,.47-23.41,16.8,.02,33.61-.04,50.41,.15,3.26,.04,3.84-1.16,3.78-4.04-.15-8.32-.04-16.64-.03-24.96,.98-.14,1.97-.41,2.95-.41,67.85-.02,135.7,0,203.55-.1,3.47,0,4.14,1.29,4.1,4.37-.12,8.31,.03,16.63,.07,24.94-.1,.24-.1,.47,0,.71-1.81,.14-3.62,.41-5.43,.42-10.64,.04-21.29,.15-31.92-.07-3.6-.07-5.12,.76-4.84,4.66,.34,4.63-.03,9.31,.11,13.96,.08,2.58-.82,3.52-3.43,3.48-9.47-.16-18.95-.16-28.42-.22l.09,.12c.03-5.49-.13-11,.15-16.48,.17-3.25-.8-4.22-4.1-4.17-15.15,.23-30.31,.24-45.46,.26-27.14,.04-54.29,.16-81.43-.1-4.78-.05-5.64,1.47-5.55,5.79,.27,12.65,0,25.31,.15,37.97,.04,3.05-.79,4.05-3.9,3.94-6.99-.23-14,.17-20.98-.18-3.93-.2-4.71,1.21-4.62,4.8,.21,8.32-.15,16.65,.02,24.98,.06,3.11-.9,3.93-3.95,3.89-13.15-.16-26.31,.05-39.47-.14-3.5-.05-4.97,.52-4.88,4.52,.3,12.65,.23,25.3,.12,37.96-.02,2.87,.9,3.75,3.71,3.64,5.15-.2,10.34,.23,15.48-.15,3.96-.29,4.65,1.23,4.56,4.8-.25,9.32,.06,18.65-.17,27.97-.08,3.37,.65,4.63,4.29,4.5,6.64-.25,13.3,.07,19.96,.15Z"/><path class="cls-7" d="M777.25,883.67c7.12-.06,14.24-.04,21.35-.23,2.69-.07,3.36,1.06,3.34,3.54-.06,7.29,.07,14.58,.13,21.87-.25,1.05-.95,1.64-1.94,1.95-7.4-.16-14.81-.31-22.21-.47,.43-8.9,.17-17.79-.68-26.66Z"/><path class="cls-15" d="M777.06,910.77c-.06,7.41-.15,14.82-.18,22.24-.03,6.77,0,6.78-7.01,6.71-.65,0-1.3-.13-1.95-.2,1.52-7.05,.83-14.21,.65-21.28-.13-5.12,.78-7.98,6.57-7.06,.6,.1,1.28-.26,1.92-.4Z"/><path class="cls-1" d="M290.9,974.81c-4.69,.74-9.29-.94-14.06-.31-2.24,.3-4.68-1.44-4.62-4.6,4.65-.08,9.32,.06,13.94-.32,4.23-.35,5.89,1.01,4.74,5.24Z"/><path class="cls-15" d="M501.12,802.89c-.04-8.31-.2-16.63-.07-24.94,.05-3.08-.62-4.37-4.1-4.37-67.85,.1-135.7,.07-203.55,.1-.98,0-1.97,.27-2.95,.41-.06-7.1-.1-14.19-.19-21.29-.02-1.57,.41-3.81-2.04-3.74-8.33,.25-16.72-1.15-25,.79-8.71-.06-17.42-.12-26.14-.17,.04-10.27,.07-20.54,.11-30.8,48.42-.64,96.85,.06,145.28-.7,60.26-.95,120.55-.31,180.83-.16,4.89,.01,6.14-1.42,6.02-6.16-.32-12.15-.08-24.31-.06-36.46,11.41,.28,22.81,.01,34.22-.21,24.88-.49,49.78-.24,74.68-.3,15.81,0,31.62-.06,47.42,.08,3.32,.03,4.84-.74,4.68-4.41-.26-5.98-.17-11.98-.03-17.97,.07-2.84-1.05-3.76-3.81-3.74-16.14,.13-32.28,.13-48.41,.18-26.28-.03-52.57-.03-78.85-.09-9.97-.02-19.95-.19-29.92-.29-.02-17.59-.05-35.18-.07-52.77,1.83-.06,3.65-.17,5.48-.17,44.1-.04,88.2-.12,132.3-.02,3.92,0,5.1-1.02,5.09-5.02-.12-58.24-.12-116.48,0-174.72,0-4.57-1.52-7.3-5.98-8.29,.01-14.56,.02-29.13,.03-43.69,30.18-.02,60.37-.02,90.55-.09,1.88,0,4.04,.79,5.57-1.14,9.66,.74,19.32,.42,28.99,.2h1.04c-.7,15.31-.27,30.62-.12,45.94-.05,14.15-.12,28.29-.14,42.44-.05,43.12-.04,86.24-.13,129.35-.06,30.13-.33,60.26-.31,90.39,0,3.96-1.12,5.31-5.08,4.96-3.97-.35-7.99-.25-11.98-.09-4.13,.17-9.3-1.88-12.12,.61-2.91,2.58-.64,7.87-1.06,11.95-.02,.16-.02,.34,0,.5,.38,2.92-1.05,3.75-3.78,3.67-5.16-.15-10.33,.12-15.48-.14-3.38-.17-4.22,1.13-4.18,4.31,.11,7.31-.12,14.63-.21,21.95-2,.03-3.99,.08-5.99,.08-65.37,0-130.74,0-196.11,0q-6.39,0-6.4,6.55c0,15.8,0,31.6,0,47.41-10.79,.07-21.59,.28-32.38,.15-3.48-.05-4.61,.96-4.51,4.48,.23,8.47,.09,16.95,.09,25.42-10.41,.02-20.83,.03-31.24,.05Zm246.89-316c0,12.15,.12,24.3-.07,36.44-.05,3.51,1.04,4.58,4.53,4.54,14.31-.17,28.62-.15,42.93-.02,3.42,.03,4.69-1.06,4.68-4.58-.11-24.13-.12-48.26,0-72.39,.02-3.37-1.19-4.23-4.36-4.2-14.48,.15-28.96,.21-43.43,.03-3.74-.05-4.36,1.5-4.32,4.73,.14,11.81,.06,23.63,.05,35.44Zm51.97,104.06h.03c0-9.83-.13-19.66,.07-29.48,.07-3.45-.93-4.6-4.48-4.56-14.16,.18-28.32,.17-42.48,.01-3.64-.04-5.01,1.07-4.94,4.84,.38,19.8,.59,39.61,.75,59.42,.02,2.7,.77,3.87,3.68,3.85,14.49-.11,28.99-.12,43.48,.01,3.14,.03,3.98-1.14,3.94-4.1-.14-9.99-.05-19.99-.05-29.99Zm-28.63,83.92v.04c8.49,0,16.99-.11,25.48,.06,3.15,.06,4.52-.8,4.39-4.19-.22-5.99-.2-11.99,0-17.98,.1-3.14-1.17-3.97-4.11-3.95-16.82,.1-33.64,.11-50.47,0-3.59-.02-4.64,1.52-4.55,4.83,.15,5.66,.19,11.33-.02,16.99-.12,3.27,1.01,4.35,4.29,4.28,8.32-.19,16.65-.06,24.98-.06Z"/><path class="cls-5" d="M833.41,909.01c7.44,.02,14.89-.15,22.32,.16,3.68,.15,4.33-1.24,4.26-4.54-.16-7.93,.08-15.87,.15-23.8,2.46-.39,1.85-2.33,1.86-3.85,.05-5.08,.17-10.17-.06-15.23-.12-2.66,1.15-5.57-1.03-7.98,.17-1.47,.48-2.95,.49-4.42,.09-36.33,.16-72.65,.21-108.98,.03-20.33,.02-40.65,.02-60.98,7.15,.04,14.29,.08,21.44,.12-.01,70.04-.01,140.08-.07,210.13,0,4.96,.48,9.95-.72,14.9-.75,3.1,.57,4.53,3.99,4.38,6.31-.26,12.64-.16,18.96-.22l.13-.08c0,6.99-.09,13.98,.08,20.97,.07,2.99-.87,4.2-3.97,4.06-4.48-.2-8.99-.05-13.48-.06q-6.59-.01-6.58,6.81c0,13.98,.04,27.96-.07,41.94-.03,3.97,.56,7.98-.52,11.91-32.61-.07-65.22-.17-97.83-.17-2.67,0-3.93-.57-3.86-3.54,.14-5.98,.08-11.98-.12-17.96-.11-3.28,1.16-4.28,4.37-4.08,4.31,.27,8.66-.11,12.97,.11,2.93,.15,3.63-.96,3.62-3.72-.05-10.31,.14-20.61,.24-30.92,9.61-.08,19.21-.26,28.82-.17,3.08,.03,3.87-1.02,3.91-4.01,.1-6.93-.84-13.89,.47-20.78Z"/><path class="cls-15" d="M880.82,994.26c1.09-3.93,.49-7.94,.52-11.91,.11-13.98,.06-27.96,.07-41.94q0-6.83,6.58-6.81c4.49,0,8.99-.15,13.48,.06,3.1,.14,4.05-1.06,3.97-4.06-.17-6.99-.07-13.98-.08-20.97,11.98,.12,23.96,.39,35.93,.28,3.81-.04,5.39,.84,5.08,4.95-.37,4.97,.05,9.99-.15,14.98-.13,3.18,.78,4.42,4.19,4.31,7.48-.25,14.99,.07,22.47-.17,3.53-.11,4.57,1.09,4.47,4.55-.22,7.82-.13,15.65-.05,23.47,.09,9.34-1.39,7.94,8.29,8.04,6.16,.07,12.32,.12,18.48-.04,2.84-.07,3.82,.95,3.74,3.76-.15,5.32-.32,10.67,.04,15.98,.3,4.47-.94,5.96-5.71,5.93-33.8-.22-67.59-.1-101.39-.13-6.65,0-13.3-.17-19.95-.26Z"/><path class="cls-9" d="M905.24,908.71c-6.32,.05-12.65-.04-18.96,.22-3.42,.14-4.74-1.28-3.99-4.38,1.2-4.95,.71-9.93,.72-14.9,.05-70.04,.05-140.08,.07-210.12-.02-15.53-.04-31.06-.06-46.6,7.82-.03,15.65-.05,23.47-.08,.1,6.98,.3,13.97,.27,20.95-.28,71.81-.58,143.63-.93,215.44-.06,13.16-.39,26.31-.59,39.47Z"/><path class="cls-15" d="M883.02,632.92c.02,15.53,.04,31.07,.06,46.6-7.15-.04-14.29-.08-21.44-.13-1.27-10.1-.37-20.24-.45-30.36-.47-60.05-.84-120.1-1.24-180.16,15.56,.1,31.12,.21,46.68,.31,.32,5.28,.67,10.57-.24,15.84-5.14-.05-10.29-.12-15.43-.12-2.82,0-6.11-.78-8.34,.4-3.46,1.84-.22,5.33-.34,8.09-.41,9.78,0,19.59-.32,29.37-.14,4.27,1.36,5.4,5.4,5.22,6.29-.28,12.61-.03,18.92,0,.47,9.63,.48,19.27-.13,28.9-6.45,.04-12.9,.2-19.34,.08-3.73-.07-5.3,1.29-4.36,5.04-.9,14.72,.74,29.41,.51,44.12-.14,8.93,.04,17.87,.08,26.8Z"/><path class="cls-8" d="M802.21,362.74c-1.53,1.93-3.69,1.14-5.57,1.14-30.18,.07-60.37,.07-90.55,.09h.01c-.21-4.37-.08-8.6,3.01-12.23,.76-.9,.73-2.48,1.03-3.76,1.81-7.88,.63-15.9,1.09-23.84,19.93-.04,39.87-.09,59.8-.08,1.97,0,3.93,.45,5.9,.68l25.17,.19c.03,12.6,.07,25.21,.1,37.81Z"/><path class="cls-12" d="M906.62,469.19c-15.56-.1-31.12-.21-46.68-.31-1.5-2.09-.87-4.51-.88-6.77-.15-17.8,.4-35.61-1.06-53.38l-.19-.31c2.04,.12,4.08,.23,6.12,.35,5.73-.25,11.56,1.3,17.18-.9,.63,.08,1.27,.15,1.9,.23l.05,1.78c-.21,.25-.61,.5-.62,.75-.15,10.97-.27,21.95-.38,32.92-.03,2.46,1.72,2.45,3.45,2.45,5.33,0,10.66-.05,15.98,.03,2.4,.04,3.72-.63,3.69-3.36-.1-9.49-.09-18.98-.06-28.47,0-2.23-.74-3.32-3.15-3.4-5.63-.18-11.26-.57-16.89-.88-.03-.8-.17-1.55-.96-1.98l-.07-20.13c.19-.11,.4-.19,.61-.24,7.34,.65,14.69,.33,22.04,.21,.59,27.14,.71,54.28-.1,81.42Z"/><path class="cls-9" d="M884.69,387.55c-.21,.06-.42,.14-.61,.25-8.53-1.65-17.13-.48-25.69-.67-.07-6.45-.33-12.91-.12-19.35,.12-3.61-.85-5.02-4.69-4.88-7.1,.27-14.22,.04-21.34,.02h-1.05c.06-10.27,.11-20.56,.17-30.84,.01-1.94-.5-4.03,2.76-4.01,16.91,.13,33.82,.12,50.73,.16,.07,11.57,.14,23.13,.21,34.7-.13,8.21-.25,16.41-.38,24.62Z"/><path class="cls-10" d="M883.02,632.92c-.04-8.93-.22-17.87-.08-26.8,.23-14.72-1.41-29.4-.51-44.12,7.95-.05,15.89-.09,23.84-.14,.36,23.66,.72,47.32,.23,70.98-7.82,.03-15.65,.05-23.47,.08Z"/><path class="cls-7" d="M906.26,527.97c-6.31-.03-12.62-.28-18.92,0-4.04,.18-5.54-.95-5.4-5.22,.32-9.78-.08-19.59,.32-29.37,.11-2.76-3.12-6.25,.34-8.09,2.22-1.18,5.52-.4,8.34-.4,5.14,0,10.29,.08,15.43,.12,.38,14.32,.36,28.63-.11,42.95Z"/><path class="cls-14" d="M833.41,909.01c-1.32,6.9-.38,13.86-.47,20.78-.04,2.99-.84,4.04-3.91,4.01-9.6-.09-19.21,.09-28.82,.17-.02-7.73-.05-15.45-.07-23.18,.99-.3,1.69-.9,1.94-1.95,10.45,.06,20.89,.11,31.34,.17Z"/><path class="cls-13" d="M885.07,362.94c-.07-11.57-.14-23.13-.21-34.7,6.3-.06,12.59-.06,18.89-.21,2.3-.05,3.28,.75,3.25,3.14-.16,10.27-.21,20.54-.3,30.81-7.25-.78-14.4,1.02-21.62,.95Z"/><path class="cls-8" d="M885.07,362.94c7.22,.07,14.37-1.72,21.62-.95,.01,8.59,.02,17.19,.04,25.78-7.35,.11-14.7,.43-22.04-.21,.12-8.21,.25-16.41,.38-24.62Z"/><path class="cls-9" d="M906.27,561.86c-7.95,.05-15.89,.09-23.84,.14-.93-3.75,.64-5.11,4.37-5.04,6.45,.12,12.9-.04,19.34-.08,.55,1.65,.68,3.31,.13,4.99Z"/><path class="cls-9" d="M706.09,363.97c-.01,14.56-.02,29.13-.03,43.69-55.78,0-111.55,.07-167.32-.08-4.75-.01-6.45,.72-6.43,6.1,.11,25.13,.15,50.25-.25,75.39-.53,33.96-.27,67.93-.51,101.89-.03,3.64,.81,4.88,4.67,4.81,10.98-.21,21.97,.04,32.95,.12,.02,17.59,.05,35.18,.07,52.77-.04,.17-.1,.33-.16,.49-1.33-.07-2.66-.22-3.98-.2-36.93,.49-73.86-.04-110.8,.59-46.85,.8-93.72,.62-140.59-.43-32.78-.73-65.59-.12-98.39-.25-3.51-.01-4.14,1.41-4.08,4.46,.15,7.15,.03,14.32,.03,21.47-7.31,.1-14.63-.02-21.92,.39-4.19,.23-5.67-.68-5.62-5.32,.26-26.28,.13-52.57,.13-78.85,0-60.56,0-121.11,0-181.67,1.34-15.11-.56-30.32,1.38-45.41,7.63-.06,15.27-.27,22.9-.13,3.12,.06,3.93-1.02,3.91-4.01-.07-11.94,.09-23.89,.17-35.83,23.3-.41,46.61-.55,69.9-.67,55.95-.28,111.9-1,167.86,.45,33.64,.87,67.31,.22,100.97,.28,5.83,.01,11.65,.19,17.48,.28-.07,11.31,.06,22.62-.29,33.92-.14,4.47,1,5.93,5.74,5.91,44.08-.2,88.16-.13,132.24-.14h-.01Zm-473.87,82.89c-5.46,0-10.93,.05-16.39-.05-2.73-.05-3.78,1-3.7,3.81,.2,7.44,.17,14.89,.22,22.34-.02,8.65-.04,17.3-.06,25.95-.08,8.49-.08,16.97-.26,25.46-.07,3.18,2,2.87,4,2.87,11.32,0,22.65,0,33.97-.02q11.27-.02,10.2-11.31c.56-6.89,.99-13.78,.49-20.7,.15-1.81,.46-3.62,.43-5.43-.23-11.77-.57-23.55-.79-35.32-.19-9.8,1.25-8.58-8.43-8.41-6.56,.11-13.2-1.21-19.68,.82Zm-21.03,119.98c0,10.33-.01,20.67-.02,31-.08,7.97-.09,15.95-.27,23.92-.07,3.06,1.83,2.97,3.93,2.96,13.64-.03,27.29-.1,40.93,.04,3.12,.03,4.05-1.09,4-4.04-.13-7.48-.05-14.96-.05-22.44,1.04-12.59,.1-25.21,.66-37.79,.18-3.96-1.41-4.68-4.93-4.62-11.12,.18-22.24,.07-33.37,.05q-11.04-.02-10.88,10.93Zm80.1-68.77c0,30.81,.12,61.62-.11,92.42-.04,5.18,1.62,6.52,6.57,6.39,13.62-.36,27.26-.6,40.88-.79,35.96-.51,71.94-.3,107.91-.19,4.4,.01,5.65-1.37,5.72-5.72,.13-8.66-1.01-17.25-1.02-25.89-.02-52.79-.11-105.58,0-158.36,0-4.55-1.22-6.02-5.91-6.01-49.62,.11-99.25,.05-148.87-.13-4.25-.02-5.27,1.32-5.25,5.38,.15,30.97,.08,61.95,.08,92.92Z"/><path class="cls-5" d="M568.42,324.29c-5.83-.1-11.65-.27-17.48-.28-33.66-.06-67.33,.59-100.97-.28-55.96-1.45-111.91-.73-167.86-.45-23.29,.12-46.6,.26-69.9,.67,0-10.34,0-20.68,0-31.01,35.28-.02,70.56-.06,105.83-.04,3.09,0,5.34,.08,5.29-4.28-.24-18.47-.24-36.94-.09-55.41,.03-3.72-1.45-4.44-4.72-4.36-7.65,.19-15.31-.06-22.96,.14-3.21,.08-4.41-.88-4.33-4.22,.22-8.81,.12-17.64,.15-26.45l.04-.19c8.79,.01,17.58-.13,26.35,.12,3.63,.1,4.51-1.25,4.38-4.61-.23-5.96,.19-11.95-.15-17.9-.24-4.2,.76-6.19,5.38-5.63,3.1,.38,6.32-.18,9.44,.13,3.89,.39,4.86-1.24,4.65-4.83-.28-4.79-.09-9.61-.11-14.42,4.42-2.18,9.13-.84,13.69-1.01,6.73-.25,7.52-1.29,5.07-7.99l.05-24.03c4.26-.15,8.53-.3,12.79-.45,2.67,.99,5.41,.58,8.14,.43,5.15,0,10.31-.08,15.46-.01,4.5,.05,7.01-1.16,6.69-6.56-.46-7.78,.07-15.62-.07-23.43-.05-3.05,.97-4.14,4.01-4.03,4.98,.18,9.98-.09,14.96,.1,3.05,.12,4.09-.96,4.02-4.01-.15-6.65,.01-13.3,.04-19.95,30.95-.19,61.9-.38,92.85-.57,.06,7.16,.23,14.32,.12,21.48-.05,2.97,.8,4.27,3.95,4.05,3.32-.23,6.67,.09,9.99-.1,3.02-.17,4.12,.92,4.06,4-.17,7.99,.11,15.99-.13,23.98-.12,3.8,.82,5.36,4.96,5.16,6.98-.34,14,.14,20.98-.21,4.33-.22,5.39,1.41,5.21,5.43-.29,6.65-.08,13.32-.08,19.98q0,6.68-6.54,6.69c-38.98,0-77.95,.06-116.93-.07-3.94-.01-5.58,.75-5.48,5.15,.29,12.82,.23,25.65,.02,38.47-.07,4.11,1.19,5.59,5.4,5.49,10.79-.24,21.58-.69,32.36-.9,26.47-.51,52.96-.17,79.45-.19,2.48,0,4.96,.16,7.43-.56,3.16-.92,4.54,.28,4.46,3.75-.18,7.66-.34,15.34,.06,22.98,.25,4.84-1.28,6.1-6.09,6.09-53.47-.18-106.93-.05-160.4-.24-4.73-.02-5.82,1.35-5.75,5.85,.26,17.82,.24,35.64,.06,53.46-.04,3.76,1.04,4.84,4.77,4.77,32.28-.62,64.56,.47,96.86-.78,22.12-.86,44.3-.1,66.45-.22,3.68-.02,5.01,1.22,4.93,4.93-.19,8.66-.05,17.32-.05,25.98-.25,.12-.48,.25-.7,.41Z"/><path class="cls-5" d="M152.24,880.83l-.46,4.88c-5.13,.02-10.26,.05-15.39,.05-10.07,0-9.95,0-10.13,10.26-.08,4.4,2.02,10.06-.99,12.86-2.94,2.74-8.54,.61-12.96,.87-.85-3.36-1.97-6.64-2.21-10.18-.19-2.74-1.08-5.38-4.85-4.74-.24-40.76-.54-81.53-.68-122.29-.13-37.77,.02-75.55-.15-113.32-.14-31.93-.58-63.86-.86-95.79-.02-1.81,.21-3.63,.32-5.44,2.33-.02,4.65-.05,6.98-.05,6.38-.01,6.17-.02,6.42-6.56,.84-21.51-2.02-43.14,1.91-64.55l-.13-.35c1.78,.46,3.48,.34,5.02-.76,4.49-.45,5.32,1.75,5.3,5.91-.31,55.77,.16,111.55-1.09,167.32-.67,29.95,.16,59.9-.75,89.87-.94,30.95-.18,61.96-.16,92.94-.05,2.15,.08,4.32-.18,6.44-.46,3.78,1.12,4.89,4.78,4.73,6.44-.27,12.89-.1,19.34-.11,.23,.17,.27,.39,.14,.64-.06,5.43-.33,10.87-.12,16.3,.14,3.69-1.16,7.54,.9,11.07Zm-40.03-85.4c0-.67,.06-1.34-.01-2-.16-1.54,.49-4-1.82-3.85-1.88,.12-.99,2.45-1.06,3.79-.48,8.9,1.15,17.92-1.91,26.68-.55,1.58,0,3.62,.27,5.41,.93,5.94,.58,11.83,.06,17.81-.71,8.07-1.27,16.22,.49,24.28,.29,1.31,.34,2.92,2.14,2.79,1.71-.13,1.64-1.72,1.87-3.05,.53-2.94,1.01-5.84,.99-8.86-.14-21,.54-42.02-1.02-63Zm-3.42,93.2c.76-.1,1.21-.52,1.25-1.21,.04-.7-.39-1.32-1.09-1.13-.5,.14-1.1,.73-1.24,1.23-.19,.7,.42,1.06,1.07,1.11Z"/><path class="cls-9" d="M291.37,198.31c-.03,8.82,.06,17.64-.15,26.45-.08,3.34,1.11,4.3,4.33,4.22,7.65-.19,15.31,.05,22.96-.14,3.28-.08,4.75,.64,4.72,4.36-.14,18.47-.14,36.94,.09,55.41,.06,4.36-2.2,4.28-5.29,4.28-35.28-.03-70.56,.01-105.83,.04-.07-3.82,.08-7.65-.27-11.44-.36-3.87,.86-5.55,4.88-4.94,1.09,.17,2.26-.26,3.4-.41,.35,0,.69,0,1.04,0,3.97,.88,7.97,.58,11.96,.2,2.42,.87,3.34-.08,3.27-2.54-.15-5.28-.2-10.57-.3-15.85,0-2.67,0-5.33,.01-8v-2c.05-4.64,.28-9.28,.1-13.91-.11-2.82,.76-3.77,3.61-3.7,6.14,.15,12.28-.13,18.42,0,3.01,.06,3.96-.86,3.84-4.01-.3-7.96-.05-15.93-.25-23.9-.08-3.08,.56-4.44,4.06-4.32,8.45,.29,16.92,.16,25.39,.2Z"/><path class="cls-15" d="M185.23,363.91c-1.94,15.09-.04,30.3-1.38,45.41-5.46-.07-10.93-.34-16.39-.15-5.07,.17-10.21-.98-15.2,.76-6.09-.35-12.19,.37-18.29-.82-2.57-.5-5.62-1.04-8.13,.94-.54-.05-1.08-.11-1.61-.16,.06-7.39,.12-14.78,.19-22.17,7.76,.1,15.52,.12,23.27,.33,2.87,.08,3.72-1.12,3.65-3.83-.18-6.76-.18-13.53-.25-20.3h.39c9.8-.41,19.65,.93,29.41-.92,1.26,1.2,2.93,.44,4.35,.91Z"/><path class="cls-15" d="M341.36,150.96c.01,4.81-.17,9.63,.11,14.42,.21,3.59-.77,5.22-4.65,4.83-3.12-.31-6.33,.24-9.44-.13-4.62-.56-5.62,1.43-5.38,5.63,.34,5.95-.08,11.94,.15,17.9,.13,3.36-.75,4.71-4.38,4.61-8.78-.25-17.57-.1-26.35-.12-.02-15.37-.04-30.74-.05-46.12,.27-.77,.54-1.53,.81-2.3,11.37,.14,22.75,.29,34.12,.43,.31,.45,.62,.43,.94,0l-.08-.38,2,.13c3.91,2.21,8.17,.43,12.22,1.09Z"/><path class="cls-10" d="M105.25,894.83c3.77-.64,4.66,2.01,4.85,4.74,.24,3.54,1.35,6.81,2.21,10.18-2.03,7.99-2.29,16.13-1.88,24.31l-.1,1.72c-21.03,0-42.06-.02-63.1-.02,0-.3,.01-.6,.04-.9,0-8.34,0-16.68,0-25.02,17.38-.12,34.75-.44,52.12-.24,4.76,.05,6.05-1.47,5.64-5.88-.28-2.93,.12-5.93,.22-8.9Z"/><path class="cls-8" d="M180.89,363c-9.75,1.85-19.61,.51-29.41,.93-.14-12.47-.29-24.95-.43-37.42,9.09-.86,18.2-.15,27.3-.4,2.73-.07,2.77,1.63,2.75,3.59-.09,11.1-.15,22.2-.22,33.3Z"/><path class="cls-7" d="M151.05,326.51c.14,12.47,.28,24.95,.43,37.42h-.39c-8.76-.01-17.53-.02-26.3-.02-.2-.03-.39-.02-.59,.02l.41-37.58c8.81,.05,17.63,.11,26.44,.16Z"/><path class="cls-10" d="M119.2,486.82c-3.93,21.42-1.07,43.04-1.91,64.55-.26,6.54-.04,6.55-6.42,6.56-2.33,0-4.65,.03-6.98,.05,.01-23.51,.02-47.02,.06-70.53,0-.47,.29-.94,.45-1.41l14.81,.78Z"/><path class="cls-8" d="M124.42,387.71c-.06,7.39-.12,14.78-.19,22.17-1.35,.09-2.69,.18-4.04,.27l-3.67-1.46c-3.49-3.84-7.24-7.36-11.99-9.64,1.11-11.69,.05-23.43,.72-35.13,6.31,0,12.63,0,18.94,0,.2-.04,.39-.05,.59-.02-.85,7.92-.21,15.87-.37,23.8Z"/><path class="cls-12" d="M124.2,363.93c-6.31,0-12.63,0-18.94,0-.01-11.14,.09-22.28-.11-33.42-.06-3.48,1.02-4.74,4.53-4.51,4.97,.32,9.96,.25,14.94,.35-.14,12.53-.27,25.06-.41,37.58Z"/><path class="cls-7" d="M104.54,399.06c4.75,2.28,8.5,5.79,11.99,9.64-1.65,.07-3.31,.12-4.96,.23-.94,.06-2.17-.34-2.67,.75-.64,1.41,.72,2.02,1.53,2.75,3.56,3.2,7.74,2.71,12.32,2.28-.66-1.95-2.53-2.77-2.55-4.55,1.35-.09,2.69-.18,4.04-.27,.54,.05,1.08,.11,1.62,.16,.2,2.91,.39,5.83,.59,8.74-.14,3.07-.27,6.15-.41,9.22-1.81,.06-2.94-1.13-4.33-2.06-4.43-2.96-7.37-8.08-13.24-9.25v15.49l-.19,11.72-.11,15.2-3.77-.29c-.13-9.63-.27-19.26-.4-28.89l.26-31.01,.3,.15Z"/><path class="cls-5" d="M47.26,909.84c0,8.34,0,16.68,0,25.02-5.25-.06-10.5-.12-15.76-.18,.15-6.97,.53-13.94,.35-20.9-.1-3.61,1.08-4.6,4.48-4.27,3.62,.34,7.28,.24,10.92,.33Z"/><path class="cls-13" d="M104.39,458.81c1.26,.1,2.51,.19,3.77,.29,.68,.29,1.37,.58,2.05,.88,2.66,3.64,2.96,8.94,7.72,11.1,1.61,.73,1.37,2.12,1.36,3.41-.04,3.99-.14,7.98-.22,11.98l.13,.35c-4.94-.26-9.87-.52-14.81-.78-.43-9.08-.45-18.15,0-27.23Z"/><path class="cls-2" d="M104.24,398.91l-.26,31.01c-2.75,.31-3.83-.79-3.78-3.67,.15-7.8,.17-15.61,0-23.42-.07-3.09,1.06-4.3,4.04-3.93Z"/><path class="cls-2" d="M236.19,257.94c.09,5.28,.15,10.57,.3,15.85,.07,2.46-.85,3.41-3.27,2.54,1.77-4.57,.15-9.39,1.01-14.03,.3-1.63-.78-3.85,1.97-4.37Z"/><path class="cls-2" d="M236.2,247.95c0,.67,0,1.33,0,2-.72-.15-1.7-.15-1.46-1.21,.08-.35,.95-.53,1.46-.79Z"/><path class="cls-2" d="M221.25,276.14c-.35,0-.69,0-1.04,0,.35-1.01,.69-1.01,1.04,0Z"/><path class="cls-15" d="M110.32,935.78c.03-.57,.07-1.15,.1-1.72,10.14-.06,20.29-.14,30.43-.17,10.33-.03,10.14-.02,10.47-10.53,.15-4.85-1.39-9.87,1.05-14.57,8.16-.05,16.31-.02,24.46-.2,2.84-.07,3.78,.93,3.69,3.74-.18,5.82,.07,11.66-.14,17.48-.11,3.04,.83,4.05,3.94,3.99,7.32-.14,14.67,.41,21.97,.04,4.71-.24,5.51,1.6,5.36,5.74-.3,8.32,.07,16.65-.18,24.97-.12,3.8,.77,5.45,4.94,5.17,5.3-.36,10.65,.03,15.98-.12,2.78-.08,3.83,.8,3.76,3.69-.16,6.49-.02,12.98,0,19.48-27.15,.06-54.31,.04-81.46,.21-12.14,.08-24.29,.53-36.43,.81-2.55-.21-5.1-.43-7.65-.64l-.28-57.37Z"/><path class="cls-5" d="M110.32,935.78c.09,19.12,.19,38.25,.28,57.37-2.14,.13-4.29,.36-6.43,.38-14.3,.12-28.61,.19-42.91,.28h-2c-5-.4-10-.39-15,0-4.22-.23-8.43-.47-12.65-.7,.02-8.03,.73-16.07-.49-24.07-.2-3.47,1.46-4.43,4.82-4.33,8.62,.25,17.26,.03,25.89,.21,3.07,.06,4.56-.64,4.45-4.1-.2-6.13-.11-12.28,.06-18.42,.08-2.88-1.1-3.78-3.83-3.68-3.98,.15-7.97-.02-11.95,.06-2.17,.05-3.61-.48-3.35-3.02,21.03,0,42.06,.01,63.1,.02Z"/><path class="cls-1" d="M61.26,993.81c14.3-.09,28.61-.16,42.91-.28,2.14-.02,4.29-.25,6.43-.38,2.55,.21,5.1,.43,7.65,.64,.54,4.01-2.29,5.36-5.1,4.64-6.46-1.67-13.36-2.74-19.5-1.89-6.43,.89-12.51-.5-18.76-.13-4.42,.27-9.69,1.23-13.63-2.61Z"/><path class="cls-1" d="M44.27,993.81c5-.4,10-.41,15,0-3.79,3.97-12.77,3.97-15,0Z"/><path class="cls-9" d="M569.12,323.88c0-8.66-.14-17.33,.05-25.98,.08-3.71-1.25-4.95-4.93-4.93-22.15,.12-44.33-.64-66.45,.22-32.29,1.25-64.58,.15-96.86,.78-3.74,.07-4.81-1.01-4.77-4.77,.18-17.82,.2-35.65-.06-53.46-.07-4.5,1.03-5.87,5.75-5.85,53.47,.19,106.93,.07,160.4,.24,4.8,.02,6.34-1.25,6.09-6.09-.4-7.64-.24-15.32-.06-22.98,.08-3.47-1.3-4.68-4.46-3.75-2.47,.72-4.95,.56-7.43,.56-26.48,.03-52.97-.31-79.45,.19-10.78,.21-21.57,.66-32.36,.9-4.21,.09-5.47-1.39-5.4-5.49,.21-12.82,.26-25.65-.02-38.47-.1-4.39,1.54-5.16,5.48-5.15,38.98,.12,77.95,.07,116.93,.07q6.53,0,6.54-6.69c0-6.66-.21-13.33,.08-19.98,.18-4.02-.88-5.65-5.21-5.43-6.98,.35-14-.14-20.98,.21-4.14,.2-5.08-1.36-4.96-5.16,.24-7.99-.03-15.99,.13-23.98,.06-3.08-1.04-4.17-4.06-4-3.32,.19-6.67-.13-9.99,.1-3.16,.22-4-1.08-3.95-4.05,.11-7.16-.06-14.32-.12-21.48,23.06-.23,46.12-.41,69.18-.73,2.83-.04,3.25,1.2,3.21,3.57-.11,5.97,.06,11.95-.09,17.93-.07,2.6,.8,3.49,3.41,3.46,5.13-.07,10.27,.16,15.41,.27-.01,9.6,.08,19.2-.1,28.79-.06,3.23,.98,4.64,4.24,4.21,1.31-.17,2.63-.22,3.94-.32l10.82,.4c-.34,5.46,.63,10.98-.58,16.41-.54,2.41,1.05,3.24,2.78,4.04,9.52,4.42,17.64,11.14,26.67,16.35,2.22,1.28,2.2,3.14,2.04,5.14-.12,1.48-.58,2.93-.7,4.42-.52,6.59,.34,7.51,6.8,7.57,13.14,.12,13.25,.12,13.08,13.28-.06,4.75,2.13,10.8-1.05,13.91-2.95,2.87-8.89,.83-13.51,.85-16.97,.11-33.95,.14-50.92-.02-4.01-.04-5.71,1.04-5.54,5.33,.29,7.14,.26,14.31,.02,21.46-.13,3.91,1.2,5.27,5.16,5.19,20.44-.42,40.89-.52,61.32-1.01,4.31-.1,5.71,.96,5.65,5.49-.25,19.47-.09,38.94-.09,58.41-.36,10.04-.72,20.08-1.07,30.12-36.68-.02-73.36-.05-110.04-.07Z"/><path class="cls-7" d="M679.15,323.95c.36-10.04,.72-20.08,1.07-30.12,30.45,.02,60.91,.12,91.36-.03,4.27-.02,5.9,.93,5.67,5.5-.43,8.47-.25,16.96-.33,25.44-1.97-.24-3.93-.68-5.9-.69-19.93-.01-39.87,.04-59.8,.08-10.69-.06-21.38-.12-32.07-.18Z"/><path class="cls-8" d="M629.09,117.01c-3.61-.13-7.21-.27-10.82-.4,1.98-10.9-.11-21.8-.09-32.7,5.81-.05,11.62,.02,17.43-.21,3.09-.12,3.99,1.07,3.96,4.05-.07,9.63,.1,19.26,.18,28.89-3.55,.12-7.1,.24-10.65,.36Z"/><path class="cls-9" d="M426.2,60.02c-.03,6.65-.19,13.3-.04,19.95,.07,3.05-.97,4.13-4.02,4.01-4.98-.19-9.98,.08-14.96-.1-3.04-.11-4.06,.97-4.01,4.03,.14,7.81-.39,15.65,.07,23.43,.32,5.4-2.19,6.62-6.69,6.56-5.15-.06-10.31,0-15.46,.01-2.66-1.64-5.47-.77-8.24-.5,.05-8.8,.1-17.6,.13-26.4q.03-7.74,7.5-7.73c6.48,0,12.96-.14,19.43,.04,2.86,.08,3.73-.88,3.63-3.68-.2-5.47-.02-10.96-.1-16.44-.03-2.07,.19-3.52,2.86-3.45,6.63,.19,13.26,.19,19.89,.27Z"/><path class="cls-15" d="M360.17,117.93c-.02,8.01-.03,16.02-.05,24.03-5.6,0-11.21,.01-16.81,.02-2.23,0-5.28,.42-5.49,2.41-.59,5.63-4.24,4.65-7.76,4.49,.49-5.97,.29-11.94-.01-17.91-.13-4.34-.25-8.68-.38-13.02,10.17,0,20.33-.01,30.5-.02Z"/><path class="cls-15" d="M618.17,83.91c-.02,10.9,2.07,21.8,.09,32.7-1.31,.1-2.64,.14-3.94,.31-3.27,.43-4.3-.97-4.24-4.21,.18-9.59,.09-19.19,.1-28.79,2.66,0,5.33-.01,7.99-.02Z"/><path class="cls-8" d="M372.85,117.41c2.77-.27,5.58-1.14,8.24,.5-2.73,.15-5.47,.56-8.14-.43l-.11-.07Z"/><path class="cls-2" d="M330.05,130.96c.3,5.97,.51,11.94,.01,17.91-.31,.33-.61,.67-.92,1l-2-.13c-.73-5.46,2.39-10.82,.24-16.38-.73-1.89,1.02-2.42,2.66-2.4Z"/><path class="cls-7" d="M327.22,150.13c-.31,.43-.63,.45-.94,0,.31-.08,.62-.08,.94,0Z"/><path class="cls-3" d="M858,408.72c1.46,17.77,.9,35.59,1.06,53.38,.02,2.26-.61,4.67,.88,6.77,.4,60.05,.78,120.1,1.24,180.15,.08,10.12-.82,20.26,.45,30.36,0,20.33,0,40.65-.02,60.98-.05,36.33-.12,72.65-.21,108.98,0,1.47-.32,2.95-.49,4.42-9.62-.11-19.25-.22-28.87-.33-.16-.26-.39-.45-.68-.55-.01-7.65-.13-15.29,.02-22.94,.05-2.62-.72-3.42-3.35-3.35-8.64,.2-17.28,.17-25.92,.22l-.29-.28-.35,.2c-.21-1.62-.43-3.24-.64-4.86,.2-4.68,.4-9.36,.6-14.04,.61-.11,1.3-.23,1.3-1,0-.77-.68-.9-1.29-1.01-.14-.33-.29-.66-.43-1,.2-.78-.06-1.18-.9-1.13-7-.46-14-.48-20.99,.07-.42-.29-.84-.58-1.26-.86,.02-8.33-.09-16.66,.13-24.98,.09-3.17-1.03-3.93-4.01-3.89-8.65,.11-17.31-.07-25.96-.13-.04-5.82,.11-11.65-.18-17.45-.18-3.62,.8-5.02,4.67-4.86,7.14,.3,14.3,.03,21.45,.12,2.56,.03,4.09-.5,4.03-3.54-.21-9.8-.25-19.6-.35-29.4,.09-7.32,.33-14.64,.21-21.95-.05-3.17,.79-4.48,4.18-4.31,5.15,.26,10.32-.01,15.48,.14,2.73,.08,4.16-.75,3.78-3.67-.02-.16-.02-.33,0-.5,.42-4.08-1.86-9.37,1.06-11.95,2.81-2.49,7.98-.45,12.12-.61,3.99-.16,8.01-.26,11.98,.09,3.96,.35,5.09-1,5.08-4.96-.02-30.13,.25-60.26,.31-90.39,.09-43.12,.08-86.24,.13-129.35,.02-14.15,.09-28.29,.14-42.44l25.88-.15Z"/><path class="cls-8" d="M777.66,718.77c.1,9.8,.15,19.61,.35,29.4,.06,3.04-1.46,3.57-4.03,3.54-7.15-.09-14.31,.18-21.45-.12-3.87-.16-4.86,1.24-4.67,4.86,.29,5.81,.14,11.63,.18,17.45-.37,.12-.74,.23-1.11,.35l-33.65-.4c-2.21-.97-4.56-.76-6.88-.76-43.92-.03-87.85-.06-131.77-.1-1.83,0-3.65-.13-5.48-.2,0-15.8,0-31.6,0-47.41q0-6.55,6.4-6.55c65.37,0,130.74,0,196.11,0,2,0,3.99-.05,5.99-.08Z"/><path class="cls-13" d="M533.19,803.71c10.49,0,20.98,.13,31.46-.04,3.44-.06,4.85,.99,4.67,4.52-.22,4.32,.16,8.67-.12,12.98-.23,3.64,.84,4.97,4.7,4.86,9.65-.27,19.31,.05,28.96-.15,3.73-.08,5.49,.77,5.25,4.97-.34,5.97-.17,11.98-.06,17.97,.05,2.72-.89,3.92-3.74,3.91-33.13-.08-66.26-.1-99.39-.15-.64,0-1.28-.3-1.93-.46-.26-7.12-.47-14.25-.81-21.37-.15-3.2,.72-5.29,4.4-4.9,2.96,.31,3.93-1.09,3.42-3.85,6.47-.06,12.93-.21,19.4-.13,2.76,.04,3.88-.9,3.79-3.73-.15-4.81-.03-9.62-.02-14.43Z"/><path class="cls-15" d="M510.02,822.01c.51,2.75-.46,4.15-3.42,3.85-3.69-.38-4.56,1.7-4.4,4.9,.34,7.12,.55,14.25,.81,21.37-7.79,.15-15.58,.44-23.36,.43-15.94-.03-31.87-.31-47.81-.26-3.54,.01-4.55-1.15-4.47-4.57,.15-7.3-.09-14.6-.17-21.9,9.48,.06,18.95,.05,28.42,.22,2.61,.04,3.51-.9,3.43-3.48-.15-4.65,.22-9.33-.11-13.96-.28-3.9,1.24-4.73,4.84-4.66,10.64,.22,21.28,.1,31.92,.07,1.81,0,3.62-.27,5.43-.41,1.75,3.44,.91,7.15,1,10.74,.22,8.46-.63,7.48,7.4,7.64,.17,0,.33,.01,.5,.02Z"/><path class="cls-5" d="M713.28,773.86c11.22,.13,22.43,.27,33.65,.4,.07,9.2,.14,18.39,.2,27.59-10.42,.06-20.84,.11-31.26,.18-1.71,.01-3.3,.15-3.21-2.42,.3-8.58-.56-17.19,.62-25.75Z"/><path class="cls-9" d="M747.13,801.85c-.07-9.2-.14-18.39-.2-27.59,.37-.12,.74-.23,1.11-.35,8.65,.06,17.31,.25,25.96,.13,2.98-.04,4.09,.73,4.01,3.89-.23,8.32-.11,16.65-.13,24.98-9.59-.02-19.18-.04-28.77-.07-.66-.33-1.32-.66-1.97-.99Z"/><path class="cls-5" d="M749.11,802.85c9.59,.02,19.18,.04,28.77,.07,.42,.29,.84,.58,1.26,.86,0,3.66,.01,7.31-.03,10.97-.03,2.27,.58,4.12,3.23,4.02,6.4-.25,12.35,2.04,18.5,3.12,.21,1.62,.43,3.24,.64,4.86-7.52,.07-15.04,.14-22.56,.21-8.6-.1-17.21-.32-25.81-.25-3,.02-4.52-.44-4.33-3.99,.36-6.61,.24-13.24,.32-19.86Z"/><path class="cls-9" d="M832.05,853.44c9.62,.11,19.25,.22,28.87,.33,2.17,2.41,.91,5.32,1.03,7.98,.23,5.07,.11,10.16,.06,15.23-.01,1.52,.6,3.47-1.86,3.85-7.37-1.78-14.86-.78-22.25-.56-5.21,.15-6.48-1.44-6.14-6.36,.48-6.8,.23-13.65,.3-20.48Z"/><path class="cls-5" d="M802.11,826.82c8.64-.05,17.28-.02,25.92-.22,2.63-.06,3.41,.73,3.35,3.35-.15,7.64-.03,15.29-.02,22.94-9.76,.23-19.52,.6-29.28,.03,0-8.7,.02-17.4,.03-26.1Z"/><path class="cls-12" d="M510.02,822.01c-.17,0-.33-.02-.5-.02-8.03-.16-7.18,.82-7.4-7.64-.09-3.59,.76-7.3-1-10.74-.11-.24-.11-.47,0-.71,10.41-.02,20.83-.03,31.24-.05,.28,.29,.55,.58,.83,.87,0,4.81-.13,9.62,.02,14.43,.09,2.83-1.03,3.77-3.79,3.73-6.46-.08-12.93,.07-19.4,.13Z"/><path class="cls-9" d="M802.11,826.82c0,8.7-.02,17.4-.03,26.1-2.3,.03-4.63-.16-6.9,.12-4.89,.6-8.08-.35-7.02-6.32,.47-2.63-1.64-2.56-3.2-2.45-5.13,.35-6.62-2.14-6.14-6.9,.35-3.44,.09-6.94,.1-10.42,7.52-.07,15.04-.14,22.56-.21l.35-.2,.29,.28Z"/><path class="cls-5" d="M211.77,845.01q-.83,8.71-10.09,8.87c-2.45,.05-4.91,.17-7.36,.25-3.24-1.15-6.9,.94-9.99-1.32,.05-14.46,.19-28.91,.09-43.37-.02-3.06,.87-4.02,3.93-3.92,6.48,.21,12.97-.12,19.44,.15,3.4,.14,4.64-.7,4.51-4.33-.28-7.97,.1-15.96-.21-23.93-.13-3.47,1.07-4.2,4.2-4.11,6.64,.2,13.29,.08,19.94,.09,.02,9.85,.04,19.7,.05,29.54-1.17,7.78,.22,15.61-.47,23.41-6.93,.07-13.87,.14-20.8,.19-1.87,.01-3.72-.19-3.61,2.66,.2,5.26,.24,10.53,.35,15.8Z"/><path class="cls-9" d="M236.29,802.95c-.02-9.85-.04-19.7-.05-29.54,.23-.21,.46-.41,.69-.62,6.99,0,13.99-.22,20.97,.06,4.26,.17,5.53-1.46,5.35-5.53-.26-5.81-.03-11.65-.02-17.47,8.28-1.94,16.67-.54,25-.79,2.45-.07,2.02,2.16,2.04,3.74,.09,7.1,.13,14.19,.19,21.29,0,8.32-.12,16.64,.03,24.96,.05,2.88-.52,4.08-3.78,4.04-16.8-.19-33.61-.12-50.41-.15Z"/><path class="cls-9" d="M152.37,908.79c-2.43,4.69-.89,9.72-1.05,14.57-.34,10.51-.14,10.49-10.47,10.53-10.14,.03-20.29,.11-30.43,.17-.41-8.18-.15-16.31,1.88-24.31,4.42-.26,10.02,1.87,12.96-.87,3.01-2.8,.91-8.47,.99-12.86,.18-10.27,.06-10.26,10.13-10.26,5.13,0,10.26-.03,15.39-.05,.2,7.7,.39,15.39,.59,23.09Z"/><path class="cls-10" d="M152.24,880.83c-2.06-3.54-.76-7.39-.9-11.07-.21-5.42,.06-10.86,.12-16.3,10.26,.13,20.52,.26,30.78,.38,.33,8.95-.82,17.83-1.35,26.74-9.55,.08-19.09,.16-28.64,.25Z"/><path class="cls-12" d="M211.77,845.01c-.11-5.27-.15-10.54-.35-15.8-.11-2.85,1.74-2.65,3.61-2.66,6.93-.05,13.87-.13,20.8-.19,.08,.66,.21,1.32,.24,1.98,.36,8.53,.31,8.4-7.8,11.4-5.43,2.01-10.73,4.36-16.5,5.28Z"/><path class="cls-14" d="M180.88,880.58c.53-8.91,1.68-17.79,1.35-26.74,.7-.34,1.39-.68,2.09-1.02,3.09,2.26,6.76,.17,9.99,1.32-.13,.98,.12,2.41-.44,2.88-5.51,4.65-3.57,10.92-3.7,16.66-.19,8.47,.28,6.76-6.83,7.07-.82,.04-1.64-.1-2.46-.16Z"/><path class="cls-3" d="M569.17,595.88c-10.98-.07-21.97-.33-32.95-.12-3.86,.07-4.69-1.17-4.67-4.81,.24-33.96-.03-67.93,.51-101.89,.39-25.13,.35-50.26,.25-75.39-.02-5.37,1.68-6.11,6.43-6.1,55.77,.15,111.55,.09,167.32,.08,4.46,.99,5.99,3.72,5.98,8.29-.11,58.24-.12,116.48,0,174.72,0,4-1.18,5.03-5.09,5.02-44.1-.1-88.2-.02-132.3,.02-1.83,0-3.65,.11-5.48,.17Zm111.29-67.1c.33-20.95,.36-41.89-.12-62.84,.02-5.65-.22-11.32,.16-16.94,.27-4.07-1.2-4.95-5.04-4.94-35.32,.13-70.65,.15-105.98-.03-4.17-.02-5.26,1.08-5.23,5.24,.25,34.49,.31,68.98,.24,103.48,0,3.87,.91,5.07,4.95,5.04,29.49-.2,58.99-.12,88.48-.15,6.5,0,13-.09,19.5-.11,1.98,0,3.67-.08,3.56-2.83-.35-8.64,.71-17.3-.52-25.92Z"/><path class="cls-1" d="M184.32,852.81c-.7,.34-1.39,.68-2.09,1.02-10.26-.13-20.52-.26-30.78-.38,.14-.25,.09-.46-.14-.64,.63-3.67,.51-7.33,.04-11,.52-16.47-.32-32.93-.33-49.39-.04-105.43,.05-210.87,.09-316.3,0-1.83-.13-3.65,.98-5.25,.61-8.94,.55-17.89,.03-26.84,.04-11.37,.08-22.74,.13-34.11,4.99-1.74,10.13-.59,15.2-.76,5.45-.18,10.92,.08,16.39,.15,0,60.56,0,121.11,0,181.67,0,26.28,.13,52.57-.13,78.85-.05,4.65,1.43,5.55,5.62,5.32,7.29-.41,14.61-.29,21.92-.39,.2,.2,.45,.28,.73,.25,0,4.83,.19,9.67-.05,14.49-.16,3.18,1.08,3.94,4.02,3.87,5.66-.14,11.33,.25,16.99,.09,3.07-.09,4.03,.86,3.97,3.96-.12,7.15,.15,14.3,.26,21.45-.04,10.27-.07,20.54-.11,30.8-.06,7.7-.11,15.4-.17,23.11-.23,.21-.46,.41-.69,.62-6.65-.01-13.3,.11-19.94-.09-3.14-.1-4.33,.64-4.2,4.11,.31,7.97-.08,15.96,.21,23.93,.13,3.63-1.11,4.47-4.51,4.33-6.47-.27-12.97,.06-19.44-.15-3.06-.1-3.95,.86-3.93,3.92,.1,14.45-.04,28.91-.09,43.37Z"/><path class="cls-9" d="M237.2,718.88c-.11-7.15-.38-14.3-.26-21.45,.05-3.1-.9-4.05-3.97-3.96-5.66,.17-11.33-.22-16.99-.09-2.95,.07-4.18-.69-4.02-3.87,.24-4.82,.05-9.66,.05-14.49,1.16-.07,2.32-.19,3.49-.21,38.45-.47,76.91,.19,115.37-.63,33.1-.7,66.24-.31,99.37,.36,46.3,.94,92.62,.29,138.94,.32,.07,.17,.1,.35,.1,.53-.02,12.16-.26,24.32,.06,36.46,.12,4.74-1.12,6.18-6.02,6.16-60.28-.15-120.56-.79-180.83,.16-48.43,.76-96.86,.06-145.28,.7Z"/><path class="cls-14" d="M748.01,486.89c0-11.82,.09-23.63-.05-35.44-.04-3.23,.58-4.78,4.32-4.73,14.48,.18,28.96,.11,43.43-.03,3.18-.03,4.38,.83,4.36,4.2-.12,24.13-.11,48.26,0,72.39,.02,3.52-1.25,4.61-4.68,4.58-14.31-.13-28.62-.15-42.93,.02-3.49,.04-4.59-1.03-4.53-4.54,.19-12.14,.07-24.29,.07-36.44Z"/><path class="cls-14" d="M799.98,590.96c0,10-.08,19.99,.05,29.99,.04,2.96-.8,4.13-3.94,4.1-14.49-.13-28.99-.12-43.48-.01-2.91,.02-3.66-1.15-3.68-3.85-.17-19.81-.38-39.61-.75-59.42-.07-3.77,1.3-4.88,4.94-4.84,14.16,.16,28.32,.17,42.48-.01,3.55-.05,4.55,1.1,4.48,4.56-.2,9.82-.07,19.66-.07,29.48h-.03Z"/><path class="cls-10" d="M678.16,674.88c-24.89,.05-49.79-.19-74.68,.3-11.41,.23-22.81,.5-34.22,.21,0-.18-.03-.36-.1-.53-.03-8.58-.06-17.15-.09-25.73,.06-.16,.12-.32,.16-.49,9.97,.1,19.95,.27,29.92,.29,26.28,.06,52.57,.07,78.85,.09,.05,8.62,.1,17.23,.15,25.85Z"/><path class="cls-7" d="M771.35,674.87c-8.33,0-16.66-.13-24.98,.06-3.28,.08-4.41-1.01-4.29-4.28,.21-5.66,.17-11.33,.02-16.99-.09-3.31,.96-4.86,4.55-4.83,16.82,.11,33.64,.1,50.47,0,2.95-.02,4.21,.81,4.11,3.95-.19,5.99-.21,12,0,17.98,.13,3.39-1.24,4.25-4.39,4.19-8.49-.16-16.99-.06-25.48-.06v-.04Z"/><path class="cls-7" d="M678.16,674.88c-.05-8.62-.1-17.23-.15-25.85,16.14-.05,32.28-.05,48.41-.18,2.76-.02,3.88,.89,3.81,3.74-.14,5.99-.23,11.99,.03,17.97,.16,3.67-1.36,4.44-4.68,4.41-15.81-.14-31.61-.07-47.42-.08Z"/><path class="cls-5" d="M858,408.72l-25.88,.15c-.15-15.32-.58-30.63,.12-45.95,7.11,.02,14.24,.24,21.34-.02,3.84-.14,4.8,1.27,4.69,4.88-.21,6.44,.05,12.9,.12,19.35-1.23,7.07,.13,14.2-.57,21.28l.19,.31Z"/><path class="cls-5" d="M236.92,772.79c.06-7.7,.11-15.4,.17-23.11,8.71,.06,17.42,.11,26.14,.17-.02,5.82-.24,11.66,.02,17.47,.18,4.06-1.09,5.7-5.35,5.53-6.98-.28-13.98-.07-20.97-.06Z"/><path class="cls-15" d="M679.15,323.95c10.69,.06,21.38,.12,32.07,.18-.46,7.94,.72,15.96-1.09,23.84-.29,1.28-.26,2.87-1.03,3.76-3.09,3.63-3.22,7.86-3.01,12.24-44.08,0-88.16-.06-132.24,.14-4.73,.02-5.87-1.44-5.74-5.91,.35-11.3,.22-22.61,.29-33.92,.22-.16,.46-.29,.7-.41,36.68,.02,73.36,.05,110.04,.07Z"/><path class="cls-15" d="M885.11,409.91c5.63,.31,11.26,.7,16.89,.88,2.41,.08,3.16,1.17,3.15,3.4-.04,9.49-.05,18.98,.06,28.47,.03,2.73-1.29,3.39-3.69,3.36-5.33-.08-10.66-.03-15.98-.03-1.73,0-3.48,0-3.45-2.45,.12-10.97,.23-21.95,.38-32.92,0-.25,.4-.5,.62-.75,.68,.02,1.35,.03,2.03,.05Z"/><path class="cls-15" d="M857.82,408.41c.7-7.08-.66-14.22,.57-21.28,8.57,.19,17.17-.97,25.69,.67,.02,6.71,.05,13.42,.07,20.13-.37,.05-.75,.1-1.12,.16-.63-.08-1.27-.15-1.9-.23-1.33-1.44-2.52-3.06-4.03-4.28-4.78-3.84-8.85-2.97-12.03,2.45-.49,.84-.75,1.81-1.12,2.73-2.04-.12-4.08-.23-6.12-.35Z"/><path class="cls-13" d="M863.94,408.76c.37-.91,.63-1.89,1.12-2.73,3.18-5.42,7.25-6.29,12.03-2.45,1.51,1.22,2.7,2.84,4.03,4.28-5.63,2.2-11.45,.65-17.18,.9Z"/><path class="cls-13" d="M883.02,408.08c.37-.05,.75-.1,1.12-.16,.79,.44,.93,1.18,.96,1.98-.68-.02-1.35-.03-2.03-.05-.02-.59-.03-1.19-.05-1.78Z"/><path class="cls-5" d="M291.28,498.08c0-30.97,.07-61.95-.08-92.92-.02-4.06,1-5.4,5.25-5.38,49.62,.19,99.25,.24,148.87,.13,4.68-.01,5.91,1.47,5.91,6.01-.1,52.79-.01,105.58,0,158.36,0,8.64,1.15,17.23,1.02,25.89-.07,4.35-1.32,5.73-5.72,5.72-35.97-.11-71.94-.32-107.91,.19-13.62,.19-27.25,.43-40.88,.79-4.96,.13-6.61-1.2-6.57-6.39,.23-30.81,.11-61.61,.12-92.42Zm20.87,12.79c-.14,20.63-.22,41.25-.47,61.88-.04,3.17,1.42,3.38,3.95,3.33,9.81-.17,19.63-.18,29.45-.21,26.12-.07,52.24-.13,78.37-.15,2.5,0,4.44,.16,4.38-3.48-.31-20.79-.41-41.58-.57-62.37,.12-27.32,.22-54.64,.4-81.96,.02-2.72-.74-3.85-3.66-3.84-36.15,.08-72.31,.07-108.46,.02-2.46,0-3.6,.59-3.59,3.32,.13,27.82,.16,55.64,.21,83.45Z"/><path class="cls-5" d="M569.08,649.14c.03,8.58,.06,17.15,.09,25.73-46.31-.03-92.64,.62-138.94-.32-33.14-.67-66.27-1.07-99.37-.36-38.47,.82-76.92,.15-115.37,.63-1.16,.01-2.32,.14-3.49,.21-.28,.04-.53-.05-.73-.25,0-7.16,.13-14.32-.03-21.47-.07-3.05,.57-4.47,4.08-4.46,32.8,.13,65.61-.48,98.39,.25,46.87,1.05,93.74,1.23,140.59,.43,36.94-.63,73.87-.1,110.8-.59,1.33-.02,2.65,.13,3.98,.2Z"/><path class="cls-14" d="M259.71,598.28c0,7.48-.08,14.96,.05,22.44,.05,2.95-.88,4.07-4,4.04-13.64-.14-27.28-.06-40.93-.04-2.11,0-4,.1-3.93-2.96,.18-7.97,.19-15.95,.27-23.92,8.36,0,16.72,0,25.08,.01,7.82,.14,15.64,.28,23.46,.42Z"/><path class="cls-15" d="M259.71,598.28c-7.82-.14-15.64-.28-23.46-.42-.02-8.93-.14-17.86,.01-26.79,.06-3.22-.96-4.38-4.24-4.29-6.94,.2-13.89,.06-20.83,.07q-.16-10.96,10.88-10.93c11.12,.02,22.25,.13,33.37-.05,3.51-.06,5.1,.67,4.93,4.62-.56,12.59,.39,25.21-.66,37.79Z"/><path class="cls-14" d="M260.2,515.9q1.07,11.27-10.2,11.31c-11.32,.02-22.65,.02-33.97,.02-2,0-4.06,.31-4-2.87,.18-8.48,.19-16.97,.26-25.46,10.55,.95,20.23,4.25,29.17,10.04,5.66,3.67,12.79,3.8,18.74,6.95Z"/><path class="cls-12" d="M260.2,515.9c-5.95-3.15-13.08-3.28-18.74-6.95-8.94-5.79-18.62-9.09-29.17-10.04,.02-8.65,.04-17.3,.06-25.95,2.31,.09,4.71-.38,6.83,1.01,3.07,6.71,8.47,11.62,13.22,17.03,.63,.71,1.38,.92,2.21,.63,4.18-1.48,8.54-.24,12.78-.86,4.89,.11,9.28,1.73,13.31,4.44,.49,6.91,.06,13.81-.49,20.7Z"/><path class="cls-15" d="M260.69,495.21c-4.03-2.71-8.41-4.33-13.31-4.44-.91-5.4-4.24-10.15-4.26-15.79-1.79-5.52-2.73-11.14-3.07-16.97-.21-3.56-.48-7.91-5.85-8.46-.74-.08-1.32-1.75-1.98-2.69,6.48-2.03,13.13-.71,19.68-.82,9.67-.16,8.24-1.39,8.43,8.41,.22,11.77,.57,23.55,.79,35.32,.03,1.81-.28,3.62-.43,5.43Z"/><path class="cls-13" d="M211.19,566.85c6.95,0,13.89,.13,20.83-.07,3.28-.09,4.3,1.07,4.24,4.29-.16,8.93-.03,17.86-.01,26.79-8.36,0-16.72,0-25.08-.01,0-10.33,.01-20.67,.02-31Z"/><path class="cls-8" d="M232.22,446.86c.66,.93,1.23,2.61,1.98,2.69,5.38,.55,5.64,4.9,5.85,8.46,.35,5.83,1.29,11.45,3.08,16.96-8.01,.38-15.92-1.81-23.95-1-2.12-1.39-4.51-.92-6.83-1.01-.06-7.45-.02-14.9-.22-22.34-.08-2.81,.97-3.86,3.7-3.81,5.46,.1,10.93,.04,16.39,.05Z"/><path class="cls-7" d="M329.14,149.88c.31-.33,.61-.67,.92-1,3.52,.17,7.17,1.14,7.76-4.49,.21-1.99,3.26-2.41,5.49-2.41,5.61,0,11.21-.01,16.81-.02,2.45,6.7,1.66,7.75-5.07,7.99-4.56,.17-9.27-1.17-13.69,1.01-4.05-.66-8.31,1.13-12.22-1.09Z"/><path class="cls-9" d="M152.11,470.87c-1.11,1.6-.98,3.43-.98,5.25-.04,105.43-.13,210.87-.09,316.3,0,16.46,.84,32.93,.33,49.39-7.99-.02-15.98-.04-23.98-.06-.02-30.98-.79-61.99,.16-92.94,.91-29.97,.08-59.92,.75-89.87,1.26-55.77,.78-111.55,1.09-167.32,.02-4.17-.81-6.37-5.3-5.91,.08-.66,.2-1.32,.22-1.98,.12-4.59,4.77-10.46-3.62-12.73-.57-.15-.87-1.73-1.08-2.69-1.14-5.05-4.58-7.45-9.39-8.33-.68-.29-1.37-.59-2.05-.88,.03-5.07,.07-10.13,.1-15.2,4.15,.02,8.31,.29,12.44,0,3.87-.28,4.75,1.29,4.71,4.89-.07,6.11-.57,12.25,.38,18.37,.42,2.69,1.35,4.01,4.42,3.89,7.29-.27,14.6-.15,21.9-.18Z"/><path class="cls-10" d="M112.22,795.43c1.57,20.98,.89,42,1.02,63,.02,3.02-.47,5.92-.99,8.86-.24,1.32-.16,2.92-1.87,3.05-1.79,.13-1.85-1.48-2.14-2.79-1.76-8.06-1.21-16.2-.49-24.28,.53-5.97,.87-11.86-.06-17.81-.28-1.79-.82-3.83-.27-5.41,3.06-8.76,1.43-17.78,1.91-26.68,.07-1.34-.82-3.68,1.06-3.79,2.31-.14,1.67,2.32,1.82,3.85,.07,.66,.01,1.33,.01,2Z"/><path class="cls-10" d="M127.39,841.76c7.99,.02,15.98,.04,23.98,.06,.47,3.67,.59,7.34-.04,11-6.45,.01-12.9-.16-19.34,.11-3.66,.15-5.24-.96-4.78-4.73,.26-2.12,.13-4.29,.18-6.44Z"/><path class="cls-15" d="M110.21,459.98c4.81,.88,8.25,3.28,9.39,8.33,.22,.96,.52,2.53,1.08,2.69,8.4,2.26,3.74,8.14,3.62,12.73-.02,.66-.14,1.32-.22,1.98-1.54,1.11-3.24,1.22-5.02,.76,.08-3.99,.18-7.98,.22-11.98,.01-1.29,.25-2.68-1.36-3.41-4.76-2.16-5.06-7.46-7.72-11.1Z"/><path class="cls-10" d="M108.79,888.63c-.65-.05-1.26-.42-1.07-1.11,.14-.5,.73-1.09,1.24-1.23,.7-.19,1.13,.44,1.09,1.13-.04,.69-.49,1.11-1.25,1.21Z"/><path class="cls-9" d="M124.42,387.71c.16-7.93-.48-15.88,.37-23.8,8.77,0,17.54,0,26.3,0,.07,6.77,.07,13.54,.25,20.3,.07,2.7-.78,3.9-3.65,3.83-7.75-.21-15.51-.24-23.27-.33Z"/><path class="cls-13" d="M152.26,409.92c-.04,11.37-.08,22.74-.13,34.11-.32,.04-.61-.03-.88-.2-4.72-6.87-11.06-12.23-16.78-18.16-2.46-2.55-3.9-6.3-8.04-6.9-.2-2.91-.39-5.82-.59-8.74,2.5-1.97,5.55-1.44,8.12-.94,6.1,1.2,12.2,.48,18.29,.82Z"/><path class="cls-9" d="M120.19,410.15c.02,1.78,1.89,2.6,2.55,4.55-4.58,.43-8.76,.92-12.32-2.28-.81-.73-2.17-1.34-1.53-2.75,.5-1.09,1.73-.69,2.67-.75,1.65-.11,3.31-.15,4.96-.23,1.22,.49,2.45,.97,3.67,1.46Z"/><path class="cls-5" d="M151.26,443.83c.27,.17,.56,.24,.88,.2,.53,8.95,.58,17.89-.03,26.84-7.3,.04-14.61-.08-21.9,.18-3.08,.11-4-1.2-4.42-3.89-.95-6.11-.45-12.25-.38-18.37,.04-3.6-.83-5.17-4.71-4.89-4.13,.29-8.29,.03-12.44,0,.06-3.91,.13-7.81,.19-11.72,5.8,0,11.6,0,17.4-.01l1.42,4.74c-2.39,6.53-1.52,7.45,6.36,6.7,5.88,.08,11.76,.15,17.64,.23Z"/><path class="cls-15" d="M151.26,443.83c-5.88-.08-11.76-.15-17.64-.23-1.65-2.67-3.84-4.84-6.35-6.7-.47-1.58-.95-3.16-1.42-4.74,.06-1.39,.12-2.78,.18-4.17,.14-3.07,.27-6.15,.41-9.22,4.14,.6,5.58,4.35,8.04,6.9,5.73,5.93,12.07,11.29,16.78,18.16Z"/><path class="cls-9" d="M126.03,428c-.06,1.39-.12,2.78-.18,4.17-5.8,0-11.6,0-17.4,.01,0-5.11,0-10.22,0-15.48,5.88,1.17,8.82,6.29,13.24,9.25,1.39,.93,2.53,2.12,4.33,2.06Z"/><path class="cls-10" d="M800.84,821.88c-6.16-1.08-12.1-3.37-18.5-3.12-2.65,.1-3.25-1.75-3.23-4.02,.04-3.65,.02-7.31,.03-10.97,7-.55,13.99-.53,20.99-.07,.3,.38,.6,.75,.9,1.13,.14,.33,.29,.66,.43,1,0,.67,0,1.34-.01,2-.2,4.68-.4,9.36-.6,14.04Z"/><path class="cls-1" d="M801.44,807.84c0-.67,0-1.34,.01-2,.61,.11,1.29,.24,1.29,1.01,0,.76-.69,.89-1.3,1Z"/><path class="cls-9" d="M801.03,804.84c-.3-.38-.6-.75-.9-1.13,.84-.05,1.1,.35,.9,1.13Z"/><path class="cls-11" d="M680.46,528.77c1.23,8.62,.18,17.29,.52,25.92,.11,2.75-1.58,2.83-3.56,2.83-6.5,.01-13,.1-19.5,.11-29.49,.03-58.99-.05-88.48,.15-4.04,.03-4.96-1.18-4.95-5.04,.07-34.49,0-68.98-.24-103.48-.03-4.16,1.06-5.26,5.23-5.24,35.32,.18,70.65,.16,105.98,.03,3.84-.01,5.31,.87,5.04,4.94-.37,5.63-.13,11.29-.16,16.94-29.63-.03-59.25-.01-88.88-.14-3.22-.01-4.35,.94-4.32,4.24,.13,17.98,.14,35.95,.01,53.93-.03,3.68,1.24,4.95,4.93,4.94,29.46-.13,58.92-.11,88.38-.13Z"/><path class="cls-6" d="M680.46,528.77c-29.46,.03-58.92,0-88.38,.13-3.69,.02-4.95-1.26-4.93-4.94,.13-17.98,.12-35.95-.01-53.93-.02-3.31,1.1-4.26,4.32-4.24,29.63,.12,59.25,.11,88.88,.14,.47,20.95,.45,41.89,.12,62.84Z"/><path class="cls-13" d="M312.16,510.87c-.06-27.82-.09-55.64-.21-83.45-.01-2.74,1.13-3.33,3.59-3.32,36.15,.05,72.31,.05,108.46-.02,2.91,0,3.68,1.12,3.66,3.84-.19,27.32-.28,54.64-.4,81.96-7.03-.02-14.05-.05-21.08-.07-3.89-.86-6.35-.08-6.03,4.68,.23,3.31-.16,6.67,.1,9.97,.27,3.55-1.14,4.54-4.57,4.51-21.13-.15-42.25-.12-63.38-.15-.02-4.62-.21-9.24,0-13.85,.15-3.32-1.16-4.3-4.32-4.18-5.27,.2-10.55,.07-15.83,.08Z"/><path class="cls-14" d="M406.18,509.8c7.02,.02,14.05,.05,21.08,.07,.17,20.79,.26,41.58,.57,62.37,.05,3.64-1.88,3.48-4.38,3.48-26.12,.02-52.24,.08-78.37,.15-9.82,.03-19.63,.04-29.45,.21-2.53,.04-3.99-.16-3.95-3.33,.25-20.63,.33-41.25,.47-61.88,5.28,0,10.56,.13,15.83-.08,3.16-.12,4.48,.85,4.32,4.18-.21,4.61-.02,9.23,0,13.85-.03,7.99,.19,15.99-.17,23.96-.2,4.37,1.49,5.21,5.45,5.17,20.07-.18,40.14-.09,60.21-.1,7.5,0,7.34,0,7.45-7.39,.2-13.56,.61-27.11,.93-40.67Z"/><path class="cls-13" d="M219.17,473.97c8.03-.81,15.94,1.38,23.95,1,.01,5.64,3.35,10.39,4.26,15.79-4.23,.61-8.59-.63-12.78,.86-.83,.29-1.58,.09-2.21-.63-4.76-5.41-10.15-10.31-13.22-17.03Z"/><path class="cls-10" d="M127.27,436.91c2.52,1.85,4.7,4.03,6.35,6.7-7.87,.75-8.74-.17-6.35-6.7Z"/><path class="cls-12" d="M406.18,509.8c-.32,13.56-.73,27.11-.93,40.67-.11,7.38,.05,7.39-7.45,7.39-20.07,0-40.14-.08-60.21,.1-3.97,.04-5.65-.81-5.45-5.17,.36-7.97,.14-15.97,.17-23.96,21.13,.03,42.25,0,63.38,.15,3.43,.03,4.84-.96,4.57-4.51-.25-3.31,.13-6.66-.1-9.97-.33-4.76,2.14-5.54,6.03-4.68Z"/></g><rect class="cls-1" x="951.76" y="1004.2" width="90.44" height="21.55"/></svg>