<?xml version="1.0" encoding="UTF-8"?><svg id="Layer_1" xmlns="http://www.w3.org/2000/svg" viewBox="0 0 382.55 691.78"><defs><style>.cls-1{fill:#f7f6f6;}.cls-2{fill:#00e3fb;}.cls-3{fill:#030403;}.cls-4{fill:#060607;}.cls-5{fill:#fbfbfa;}.cls-6{fill:#fcfbfb;}.cls-7{fill:#debba8;}.cls-8{fill:#c5baa5;}.cls-9{fill:#e2bba5;}.cls-10{fill:#252625;}.cls-11{fill:#082d4b;}.cls-12{fill:#0679b4;}.cls-13{fill:#090909;}.cls-14{fill:#35b6ec;}.cls-15{fill:#0b365a;}.cls-16{fill:#459ac6;}</style></defs><path class="cls-3" d="M83.43,532.66c0-3.69,.01-7.38,.02-11.07,1.33-1.64,1.33-3.29,0-4.93,.27-3.39-.78-4.86-4.68-4.71-7.13,.27-14.28-.18-21.42-.34l-.79-.98c-.03-6.48-.28-12.96,0-19.42,.16-3.64-1.16-4.48-4.53-4.35-6.14,.23-12.3-.08-18.44,.1-2.86,.08-4.09-.45-4.07-3.75,.19-28.42,.22-56.83,.24-85.25,0-4.2,1.54-5.09,4.96-2.68,.49,.44,.95,.38,1.38-.12,3.32-2.18,7.01-.84,10.49-.93,9.49-.25,9.47-.1,9.5-9.8,.02-6.29,.13-12.59,.2-18.88,7.8-.05,15.61-.22,23.41-.08,3.05,.05,4.07-.92,3.96-3.97-.2-6.14,.1-12.29-.14-18.43-.13-3.28,.93-4.29,4.22-4.22,7.46,.17,14.93-.06,22.39-.13,1.01,7.75,.33,15.53,.37,23.29,.02,2.98,.7,4.07,3.85,3.96,6.78-.23,13.58,.04,20.36-.12,2.62-.06,3.51,.81,3.39,3.41-.23,4.79-.21,9.58-.3,14.37-3.21,.17-3.36,2.56-3.43,4.88-.07,2.25,1.29,3.18,3.42,3.16v4.96c-2.93-.02-5.98,.61-8.28-2.14-.99-1.18-2-.14-3.05,.41-2.52,1.34-3.5,3.8-3.67,6.17-.55,7.41-2.03,14.56-5.59,21.06-2.23,4.09,.82,7.57,.51,11.53-.7,8.69-5.8,17.44-.41,26.24,.15,.24,.06,.66,.03,.98-.92,9.27,2.34,17.56,6.01,25.76-2.98,.08-5.98,.39-8.94,.19-3.19-.22-3.86,1.1-3.86,4.04,.09,26.91,.07,53.83,0,80.74,0,2.62,.48,3.91,3.52,3.87,14.44-.2,28.89-.21,43.34-.29,5.31,.06,10.65-.17,15.93,.27,4.21,.35,4.86-1.36,4.84-5.08-.12-20.93,0-41.86,.04-62.79,7.3-.06,14.62,.13,21.9-.27,4.4-.24,5.9,.87,5.83,5.59-.28,19.26-.12,38.53-.05,57.79,0,1.9-1.04,4.62,2.69,4.57,14.26-.18,28.52-.28,42.78-.41,6.65,.09,13.31,.07,19.95,.31,2.69,.1,3.32-.89,3.32-3.44,0-27.47,.09-54.95,.25-82.42,.01-2.56-.61-3.55-3.34-3.46-5.82,.19-11.67-.17-17.48,.13-3.45,.18-4.04-1.1-4.02-4.21,.25-37.29,.42-74.59,.44-111.89,0-3.49,1.26-4.05,4.35-4.06,6.8-.02,13.63,.66,20.42-.38,.08,.51,.17,1.02,.25,1.54,.16,4.57,.32,9.13,.48,13.7-.63,4.94-.54,9.89-.05,14.83-.11,29.11-.21,58.22-.37,87.34-.01,2.5,1.43,2.53,3.23,2.53,15.65-.01,31.29-.04,46.94,.07,2.61,.02,3.48-.8,3.42-3.42-.19-8.48-.19-16.96-.25-25.44,.06-2.16,.16-4.32,.17-6.48,.07-18.14,.13-36.29,.19-54.43,.34-.26,.67-.52,1.01-.78,6.99,0,13.99,.09,20.98-.08,2.65-.06,3.38,.84,3.38,3.42-.05,28.47-.04,56.95,.09,85.42,.01,2.97-1.04,3.62-3.75,3.56-5.66-.13-11.35,.38-16.97-.02-4.42-.32-5.27,1.35-5,5.31,.35,5.14-.08,10.33,.15,15.48,.14,3.04-.77,4.09-3.89,3.97-5.82-.23-11.67,.17-17.48-.16-3.91-.22-5.04,.93-5.01,4.93,.18,27.97,.09,55.95,.09,83.92,0,17.98-.08,35.97,.08,53.95,.03,3.45-.43,4.91-4.49,4.88-29.14-.2-58.28-.17-87.42-.05-3.42,.01-4.65-.79-4.51-4.39,.26-6.82,.02-13.65-.02-20.48,.29-.49,.59-.98,.88-1.47,.82-.08,1.65-.22,2.47-.22,19.97-.03,39.95-.13,59.92,.02,3.44,.02,4.6-.84,4.46-4.38-.27-7.15-.23-14.32,0-21.47,.1-3.2-.72-4.28-4.1-4.26-20.14,.15-40.28,.13-60.42-.02-3.27-.02-4.26,.88-4.19,4.18,.19,8.48,0,16.97-.05,25.45l-.11,1.84c-5.31,1.12-10.66,.55-16,.34-3.58-2.24-7.71-.05-11.39-1.43,.05-8.83-.02-17.66,.2-26.48,.08-3.04-.79-3.98-3.91-3.97-19.98,.03-39.97-.1-59.95-.33-2.7-.03-3.43,.81-3.39,3.39,.14,7.99,.16,15.99,0,23.98-.05,2.77,.71,3.72,3.62,3.69,21.15-.22,42.31-.28,63.46-.39l.26,1.24c-1.29,8.07,.07,16.24-.91,24.32-1.64,.2-3.44-.58-4.91,.75h-4.16c-7.94-1.27-15.88-1.22-23.83-.03-19.44-.14-38.89-.3-58.33-.4-1.89-.01-3.05-.19-3.04-2.62,.16-34.9,.24-69.8,.34-104.7,1.57-6.31,1.48-12.63,.05-18.95Zm-.09-140c-.29,.44-.58,.89-.88,1.33,.09,.23,.05,.43-.12,.61-7.15-.07-14.29-.07-21.43-.26-2.47-.07-3.12,.93-3.09,3.22,.07,6.16-.08,12.32-.1,18.47-.05,21.8-.1,43.61-.11,65.41,0,1.99-.81,4.56,2.83,4.47,7.64-.2,15.28-.24,22.92-.35,7.5-.04,15-.21,22.49-.07,2.95,.05,4.05-.68,4.05-3.86-.02-36.32,.06-72.65,.23-108.97,.01-3.15-.69-4.48-4.14-4.32-5.99,.27-12,.26-17.99,0-3.39-.14-4.65,.74-4.52,4.36,.23,6.65-.07,13.31-.15,19.97Z"/><path class="cls-3" d="M303.06,100.79c7.49,.05,14.99,.21,22.48,.08,2.82-.05,3.77,.76,3.69,3.64-.19,6.83,.06,13.66-.1,20.49-.06,2.64,.77,3.5,3.38,3.42,6.16-.19,12.33-.03,18.49-.23,2.81-.09,4.16,.36,4.15,3.73-.12,41.82-.12,83.64-.04,125.47,0,2.94-.96,3.68-3.72,3.6-6.99-.19-13.99-.11-20.99-.14-1.72-1.63-1.04-3.75-1.05-5.66-.05-23.59-.01-47.18-.07-70.77,0-1.91,.74-4.01-.89-5.7-.11-15.57-.28-31.14-.27-46.72,0-2.75-.73-3.81-3.62-3.76-7.12,.12-14.25-.05-21.37-.1l-.86-.46-.51-26.69,1.31-.2Z"/><path class="cls-4" d="M303.06,100.79l-1.31,.2c-7.75,.07-15.5,.06-23.25,.23-9.21,.2-18.44-.6-27.65,.4,.01-6.32,.05-12.63,.03-18.95-.02-7.21-.05-7.18-7-7.21-27.95-.14-55.9-.38-83.86-.4-7.42,0-14.88-.92-22.26,.62l-.52-1.21c.26-6.96,.52-13.93,.78-20.89,12.94-.26,25.82,1.39,38.77,1.19,18.61-.28,37.23-.06,55.84-.03,1.66,0,3.37-.09,4.95,.28,4.64,1.1,9.19,.91,13.75-.31,.08,4.49,.47,9,.15,13.46-.31,4.4,.79,6,5.61,5.88,13.81-.37,27.63,0,41.44-.21,3.57-.05,4.49,1.04,4.4,4.49-.2,7.48,.05,14.98,.11,22.47Z"/><path class="cls-4" d="M55.72,261.58c-7.3-.12-14.61-.36-21.91-.31-2.8,.02-4.12-.36-4.11-3.72,.03-42.25-.06-84.51-.3-126.76-.02-2.9,1.21-2.81,3.19-2.82,8.31-.04,16.61-.15,24.92-.23l-.2-.09v51.25c0,26.15,0,52.3-.04,78.45,0,1.52,.76,3.48-1.54,4.22Z"/><path class="cls-8" d="M110.13,338.72c-7.47,.07-14.93,.29-22.39,.13-3.28-.07-4.34,.94-4.22,4.22,.24,6.14-.06,12.29,.14,18.43,.1,3.05-.92,4.03-3.96,3.97-7.8-.14-15.61,.04-23.41,.08-.3-.84-.6-1.67-.9-2.51-.04-25.03-.07-50.06-.11-75.09,.17-.57,.35-1.14,.52-1.7,8.88-.01,17.76-.02,26.64-.03,.64,.24,1.29,.48,1.93,.72-.09,7.42-.12,14.85-.29,22.27-.05,2.29,1,2.75,2.99,2.72,7.76-.12,15.51-.13,23.27-.19l-.06-.08c.09,3.11,.11,6.23,.3,9.34,.34,5.52-.86,11.12,.77,16.58-.4,.38-.81,.76-1.21,1.14Z"/><path class="cls-11" d="M328.39,178.71c1.64,1.68,.89,3.79,.89,5.7,.06,23.59,.02,47.18,.07,70.77,0,1.91-.67,4.03,1.05,5.66-1.45,8.44-.19,16.94-.62,25.41-9.32,.96-18.67,.37-28.01,.44,.91-8.69,.36-17.41,.4-26.11,.12-1.82,.33-3.64,.34-5.46,.07-23.64,.09-47.29,.16-70.93,0-1.8-.4-3.67,.47-5.41,8.42-.02,16.83-.05,25.25-.07Z"/><path class="cls-8" d="M301.77,286.68c9.34-.07,18.69,.52,28.01-.44,.14,.52,.29,1.04,.43,1.56-.9,1.51-.81,3.18-.81,4.84,0,21.91,0,43.83,.02,65.74,0,1.64-.26,3.35,.91,4.78-.2,1.01-.39,2.02-.59,3.03-9.31-.11-18.63-.21-27.94-.32,0-7.96-.09-15.92,.06-23.88,.05-2.83-.91-3.72-3.72-3.64-7.62,.21-15.25,.16-22.88,.21-.05-.1-.15-.21-.14-.3,.03-.2,.11-.39,.18-.59,0-8.68,.02-17.36,.03-26.04l-.07,.06c7.48-.07,14.96-.28,22.44-.14,3.1,.06,3.97-.98,3.92-3.99-.12-6.97,.1-13.95,.19-20.93l-.03,.05Z"/><path class="cls-15" d="M82.43,286.22c-8.88,.01-17.76,.02-26.64,.03-.02-8.22-.05-16.45-.07-24.67,2.3-.75,1.54-2.7,1.54-4.22,.04-26.15,.04-52.3,.05-78.45,8.37,.08,16.73,.17,25.1,.25,0,35.69,.02,71.38,.02,107.06Z"/><path class="cls-16" d="M330.34,363.16c-1.17-1.43-.91-3.14-.91-4.78-.01-21.91-.01-43.83-.02-65.74,0-1.66-.09-3.33,.81-4.84,7.15,.02,14.3,.13,21.45,.01,2.71-.04,3.74,.68,3.75,3.63,.07,22.62,.3,45.23,.57,67.85,.03,2.79-.9,3.8-3.73,3.76-7.31-.1-14.62,.05-21.92,.1Z"/><path class="cls-16" d="M55.27,287.95c.04,25.03,.07,50.06,.11,75.09-6.82,0-13.64-.15-20.46,.04-3.05,.08-4.18-1.07-4.18-3.99,.01-22.62,0-45.25-.07-67.87,0-2.67,1.18-3.42,3.64-3.38,6.98,.12,13.97,.08,20.96,.11Z"/><path class="cls-3" d="M137.25,74.47l.52,1.21c-.13,8.68-.25,17.35-.38,26.03-18.02,0-36.04-.02-54.06-.02l-.6-.87c-.05-7.79-.04-15.59-.19-23.38-.04-2.22,.42-3.31,2.97-3.28,17.25,.17,34.49,.22,51.74,.31Z"/><path class="cls-13" d="M301.81,365.87c9.31,.11,18.63,.21,27.94,.32,.22,9.57-.45,19.15,.47,28.71-.34,.26-.67,.52-1.01,.78-1.6-1.23-3.46-.71-5.23-.79-7.2-.29-14.41,.52-21.6-.44l.14,.1c-.1-4.3-.2-8.59-.3-12.89-.26-4.95,1.47-10.04-.97-14.85,.18-.31,.37-.63,.55-.94Z"/><path class="cls-10" d="M251.35,54.71c-4.56,1.22-9.11,1.41-13.75,.31-1.59-.38-3.3-.28-4.95-.28-18.61-.03-37.23-.25-55.84,.03-12.96,.2-25.83-1.46-38.77-1.19-.4-.94-.39-1.87,.11-2.78,.54-.25,.9-.54,.24-1.06,.38-1.04,1.29-.84,2.08-.84,36.3-.16,72.6-.31,108.9-.45,.32,0,.64,.17,.95,.26,.34,.34,.69,.69,1.03,1.03,.45,1.66,.46,3.32,0,4.98Z"/><path class="cls-13" d="M82.73,100.82l.6,.87c.02,8.66,.04,17.33,.06,25.99l-26.09-.02,.2,.09c-1.98-4.59-.59-9.41-.92-14.12-.2-2.8,.19-5.65-.08-8.44-.31-3.22,1.06-3.8,3.98-3.83,7.42-.09,14.86,.68,22.25-.54Z"/><path class="cls-13" d="M144.41,659.33c7.94-1.19,15.89-1.24,23.83,.03-7.94,.43-15.89,.64-23.83-.03Z"/><path class="cls-13" d="M83.43,532.66c1.43,6.32,1.52,12.64-.05,18.95,.02-6.32,.03-12.63,.05-18.95Z"/><path class="cls-13" d="M178.22,634.29l-.26-1.24-.04,.1c3.68,1.38,7.82-.81,11.39,1.43-3.71,.36-7.41,.55-11.09-.29Z"/><path class="cls-13" d="M83.44,516.67c1.34,1.64,1.34,3.28,0,4.93-.42-1.64-.41-3.28,0-4.93Z"/><path class="cls-13" d="M172.4,659.36c1.47-1.33,3.27-.55,4.91-.75-1.32,2.34-3.26,.57-4.91,.75Z"/><path class="cls-13" d="M36.09,395.17c-.43,.5-.89,.55-1.38,.12-.37-.47-.26-.91,.3-1.02,.6-.12,1.37-.18,1.08,.9Z"/><path class="cls-13" d="M205.3,634.24l.11-1.84c.64,.23,1.27,.46,1.91,.69-.29,.49-.59,.98-.88,1.47l-1.14-.33Z"/><path class="cls-13" d="M56.55,510.65l.79,.98c-.83,.13-.96-.3-.79-.98Z"/><path class="cls-4" d="M138.38,49.73c.65,.52,.3,.81-.24,1.06l.24-1.06Z"/><path class="cls-4" d="M251.35,49.73c-.34-.34-.69-.69-1.03-1.03,.81-.12,1.14,.23,1.03,1.03Z"/><path class="cls-5" d="M275.3,337.67c-.06,.2-.15,.39-.18,.59-.01,.09,.09,.2,.14,.3-.02,8.96-.03,17.93-.05,26.89-6.79,1.04-13.61,.36-20.42,.38-3.08,.01-4.34,.57-4.35,4.06-.02,37.3-.19,74.59-.44,111.89-.02,3.1,.57,4.39,4.02,4.21,5.81-.31,11.66,.06,17.48-.13,2.73-.09,3.36,.9,3.34,3.46-.16,27.47-.24,54.95-.25,82.42,0,2.55-.64,3.53-3.32,3.44-6.65-.24-13.3-.22-19.95-.31-.04-4.82-.1-9.65-.11-14.47-.02-9.6,0-9.79-9.7-9.59-4.11,.09-5.43-1.12-5.38-5.31,.21-18.46-.02-36.93,.17-55.39,.04-4.17-1.29-5.76-5.43-5.33-16.75,1.74-33.56,.29-50.33,.87-3.65,.13-4.48-1.29-4.39-4.63,.21-7.98,.09-15.97,.11-23.95,2.32-.01,4.68-.3,6.96,.02,3.65,.52,4.59-.95,4.44-4.38-.25-5.8,.13-11.64-.2-17.43-.23-3.99,.76-5.72,5.1-5.36,4.45,.37,8.96,.05,13.44,.04,1.31,4.4,.79,8.94,.49,13.35-.33,4.85,1.15,6.18,6,6.03,6.8-.21,13.74-1.01,20.98,1.22,0-9.13-.15-18.23,.07-27.31,.1-4.2-.12-7.14-5.51-7.82-3.66-.46-5.52-4.05-5.81-7.82-.33-4.3,3.08-8.93,7.8-11.15,1.55-.73,3.77-.5,4.28-2.82,.07-8.31,.07-16.63,.27-24.94,.06-2.67-.97-3.42-3.5-3.36-6.82,.14-13.65,.27-20.46,.01-3.49-.13-4.15,1.28-4.11,4.36,.1,7.98-.09,15.97-.17,23.95h.01c-8.29,.08-16.59,.3-24.88,.19-3.07-.04-4.09,.96-3.96,3.99,.2,4.64,.07,9.29,.03,13.94-.06,6.14-.51,6.59-6.45,6.64-2.49,.02-4.98,.1-7.47,0-3.46-.13-5.04,1.04-4.97,4.89,.2,10.78,.02,21.57-.01,32.36-6.68,1.94-13.53,.37-20.28,.93-.09-2.64-.25-5.27-.27-7.91-.11-17.36-.18-34.72-.27-52.08v-4.96c.46-2.68,.44-5.36,0-8.04,.09-4.79,.07-9.59,.3-14.37,.13-2.6-.77-3.47-3.39-3.41-6.79,.15-13.58-.11-20.36,.12-3.15,.11-3.83-.98-3.85-3.96-.04-7.76,.63-15.54-.37-23.29,.4-.38,.81-.76,1.21-1.14,28.24,.03,56.48,.06,84.73,.07,26.41,.01,52.82,0,79.24,.01Z"/><path class="cls-9" d="M138.33,456.62c6.75-.57,13.59,1.01,20.28-.94,.66,.15,1.33,.3,1.99,.45,4.84,.13,9.68,.26,14.52,.39,.38,.18,.76,.36,1.15,.54-.01,7.98,.1,15.97-.11,23.95-.09,3.33,.74,4.75,4.39,4.63,16.77-.58,33.58,.87,50.33-.87,4.14-.43,5.47,1.16,5.43,5.33-.19,18.46,.03,36.93-.17,55.39-.05,4.19,1.27,5.4,5.38,5.31,9.69-.2,9.68-.01,9.7,9.59,0,4.82,.07,9.65,.11,14.47-14.26,.13-28.52,.24-42.78,.41-3.73,.05-2.68-2.67-2.69-4.57-.07-19.26-.22-38.53,.05-57.79,.07-4.72-1.42-5.83-5.83-5.59-7.28,.4-14.6,.21-21.9,.27-1.79-5.32-.47-10.79-.7-16.18-.15-3.51-1.31-5-5.05-4.94-11.44,.17-22.88,.05-34.32,.04,.07-9.96,.15-19.93,.22-29.89Z"/><path class="cls-1" d="M82.35,394.6c.16-.18,.2-.38,.12-.61,.84-.09,1.07-.57,.88-1.33,.08-6.66,.38-13.32,.15-19.97-.13-3.62,1.13-4.5,4.52-4.36,5.99,.25,12,.26,17.99,0,3.44-.16,4.15,1.17,4.14,4.32-.17,36.32-.26,72.65-.23,108.97,0,3.18-1.1,3.91-4.05,3.86-7.49-.14-14.99,.03-22.49,.07-.89-3.73-.97-7.52-.97-11.35,.02-26.54-.03-53.07-.05-79.61Z"/><path class="cls-7" d="M328.85,456.59c.07,8.48,.06,16.96,.25,25.44,.06,2.62-.81,3.44-3.42,3.42-15.64-.11-31.29-.08-46.94-.07-1.8,0-3.24-.03-3.23-2.53,.16-29.11,.26-58.22,.37-87.34,8.89-.02,17.8,.55,26.64-.97l-.14-.1c-.03,19.66-.03,39.32-.14,58.97-.02,2.75,1.21,3.4,3.62,3.36,7.66-.12,15.32-.14,22.98-.19Z"/><path class="cls-6" d="M138.11,486.51c11.44,.01,22.88,.14,34.32-.04,3.73-.06,4.89,1.43,5.05,4.94,.24,5.39-1.09,10.86,.7,16.18-.04,20.93-.16,41.86-.04,62.79,.02,3.71-.63,5.43-4.84,5.08-5.28-.44-10.62-.21-15.93-.27-.05-6.33-.27-12.66-.08-18.98,.1-3.38-.76-4.86-4.42-4.58-3.97,.3-7.99-.04-11.99,.13-2.86,.12-3.74-1.06-3.72-3.81,.13-20.32,.15-40.64,.2-60.95,.18-.25,.42-.41,.72-.48Z"/><path class="cls-9" d="M137.39,486.99c-.05,20.32-.08,40.64-.2,60.95-.02,2.75,.86,3.93,3.72,3.81,3.99-.17,8.01,.18,11.99-.13,3.65-.28,4.52,1.2,4.42,4.58-.19,6.32,.03,12.65,.08,18.98-14.45,.08-28.89,.08-43.34,.29-3.04,.04-3.53-1.25-3.52-3.87,.07-26.91,.09-53.83,0-80.74,0-2.93,.66-4.26,3.86-4.04,2.96,.21,5.96-.1,8.94-.19,4.69,.11,9.37,.23,14.06,.34Z"/><path class="cls-7" d="M82.35,394.6c.02,26.54,.07,53.07,.05,79.61,0,3.82,.08,7.61,.97,11.34-7.64,.11-15.28,.15-22.92,.35-3.65,.09-2.84-2.48-2.83-4.47,0-21.8,.05-43.61,.11-65.41,.02-6.16,.16-12.32,.1-18.47-.02-2.29,.62-3.29,3.09-3.22,7.14,.19,14.29,.19,21.43,.26Z"/><path class="cls-1" d="M177.96,633.04c-21.15,.11-42.31,.17-63.46,.39-2.91,.03-3.67-.92-3.62-3.69,.15-7.99,.13-15.99,0-23.98-.04-2.58,.69-3.42,3.39-3.39,19.98,.23,39.97,.36,59.95,.33,3.12,0,3.98,.94,3.91,3.97-.22,8.82-.15,17.65-.2,26.48l.04-.11Z"/><path class="cls-1" d="M207.32,633.09c-.64-.23-1.27-.46-1.91-.69,.04-8.49,.24-16.97,.05-25.45-.07-3.3,.91-4.21,4.19-4.18,20.14,.15,40.28,.17,60.42,.02,3.39-.03,4.2,1.06,4.1,4.26-.23,7.15-.27,14.32,0,21.47,.13,3.55-1.02,4.41-4.46,4.38-19.97-.14-39.95-.05-59.92-.02-.82,0-1.65,.14-2.47,.22Z"/><path class="cls-13" d="M137.39,486.99c-4.69-.11-9.37-.23-14.06-.34-3.66-8.2-6.92-16.49-6.01-25.76,.03-.33,.12-.74-.03-.98-5.39-8.8-.3-17.55,.41-26.24,.32-3.96-2.74-7.44-.51-11.53,3.56-6.51,5.04-13.65,5.59-21.06,.17-2.37,1.15-4.83,3.67-6.17,1.04-.55,2.06-1.59,3.05-.41,2.3,2.75,5.35,2.12,8.29,2.14,.09,17.36,.16,34.72,.27,52.08,.02,2.64,.17,5.27,.27,7.91-.07,9.96-.15,19.93-.22,29.89-.3,.07-.54,.23-.72,.48Z"/><path class="cls-6" d="M328.85,456.59c-7.66,.06-15.32,.07-22.98,.19-2.42,.04-3.64-.61-3.62-3.36,.12-19.66,.11-39.31,.14-58.97,7.18,.96,14.4,.15,21.6,.44,1.77,.07,3.63-.44,5.23,.79-.06,18.14-.12,36.29-.19,54.43,0,2.16-.11,4.32-.17,6.48Z"/><path class="cls-4" d="M275.21,365.45c.02-8.96,.03-17.93,.05-26.89,7.63-.05,15.26,0,22.88-.21,2.81-.08,3.77,.81,3.72,3.64-.15,7.96-.05,15.92-.06,23.88-.18,.31-.37,.63-.55,.94-8.6-.11-17.2-.8-25.8,.18-.08-.51-.17-1.02-.25-1.54Z"/><path class="cls-6" d="M302.53,394.55c-8.84,1.52-17.75,.95-26.64,.97-.49-4.95-.58-9.89,.05-14.83,8.77-.02,17.56-.35,26.28,.97,.1,4.3,.2,8.59,.3,12.89Z"/><path class="cls-1" d="M302.22,381.66c-8.72-1.33-17.51-.99-26.28-.97-.16-4.57-.32-9.13-.48-13.7,8.59-.97,17.2-.28,25.8-.18,2.43,4.81,.7,9.9,.97,14.85Z"/><path class="cls-13" d="M137.8,383.64c.44,2.68,.45,5.36,0,8.04-2.13,.02-3.49-.91-3.42-3.16,.07-2.32,.22-4.71,3.43-4.88Z"/><path class="cls-13" d="M83.35,392.66c.2,.76-.04,1.25-.88,1.33,.29-.44,.58-.89,.88-1.33Z"/><path class="cls-1" d="M250.86,101.62c9.2-1,18.43-.2,27.65-.4,7.75-.17,15.5-.16,23.25-.23,.17,8.9,.34,17.79,.51,26.69-17.07-.07-34.13-.14-51.2-.21l.06,.06-.28-25.86v-.04Z"/><path class="cls-8" d="M328.39,178.71c-8.42,.02-16.83,.05-25.25,.07-.16-11.35-.32-22.7-.48-34.06,.16-5.53,.31-11.06,.47-16.59,7.12,.05,14.25,.22,21.37,.1,2.89-.05,3.62,1.01,3.62,3.76,0,15.57,.16,31.14,.27,46.72Z"/><path class="cls-12" d="M303.13,128.13c-.16,5.53-.31,11.06-.47,16.59-15.45,.01-30.91-.08-46.36,.11-3.76,.05-5.47-.77-5.13-4.92,.33-4.12-.04-8.3-.1-12.45,17.07,.07,34.13,.14,51.2,.21,.29,.15,.58,.31,.86,.46Z"/><path class="cls-5" d="M250.86,101.62v.04c-6.81-.07-13.61-.2-20.4-.19-31.03,.05-62.06,.13-93.09,.2l.03,.03c.13-8.68,.25-17.35,.38-26.03,7.38-1.54,14.85-.63,22.26-.62,27.95,.02,55.9,.26,83.86,.4,6.95,.03,6.97,0,7,7.21,.02,6.32-.02,12.63-.03,18.95Z"/><path class="cls-8" d="M57.3,127.66c8.7,0,17.39,.01,26.09,.02l.27-.29c-.05,16.55-.08,33.11-.18,49.66,0,.71-.69,1.41-1.07,2.11-8.37-.08-16.73-.17-25.1-.25,0-17.08,0-34.16,0-51.24Z"/><path class="cls-12" d="M82.41,179.15c.37-.7,1.06-1.4,1.07-2.11,.11-16.55,.14-33.11,.19-49.66,16.92,.03,33.83,.07,50.74,.07,1.56,0,3.73,.5,3.63-2.09-.3-7.9,.97-15.84-.67-23.69,31.03-.07,62.06-.16,93.09-.2,6.8-.01,13.6,.12,20.4,.19,.09,8.62,.19,17.24,.28,25.86-23.48,.08-46.96,.23-70.44,.18-3.4,0-4.92,.84-4.59,4.45,.26,2.81-.12,5.67,.1,8.49,.26,3.31-1.03,4.3-4.29,4.24-9.99-.18-19.99,.16-29.97-.15-4.53-.14-5.86,1.49-5.54,5.78,.32,4.47-.18,9.01,.15,13.48,.31,4.22-.78,6.06-5.42,5.71-5.46-.41-10.99-.02-16.48-.11-2.55-.04-3.49,.95-3.51,3.53-.14,13.81-.35,27.61-.7,41.41-.08,3.25,.96,4.43,4.27,4.29,5.65-.23,11.34,.2,16.98-.17,3.94-.25,4.73,1.24,4.66,4.83-.21,10.49,.06,20.99-.16,31.47-.07,3.6,.79,5.18,4.68,4.89,4.14-.32,8.33,.07,12.48-.11,2.96-.13,4.16,.72,4.02,3.92-.26,5.98,.17,12-.2,17.98-.27,4.33,1.36,5.28,5.39,5.2,12.32-.26,24.65-.1,36.97-.15,25.14-.1,50.28-.22,75.42-.33,.14,.12,.29,.24,.42,.37-.03,8.32-.07,16.64-.1,24.96l.07-.06c-21.94-.06-43.88-.18-65.82-.16-33.08,.02-66.16,.13-99.24,.2l.06,.08c-.05-6.96-.23-13.93-.08-20.89,.06-3.03-.89-4.08-3.96-4-7.3,.19-14.61,.08-21.92,.09-.64-.24-1.29-.48-1.93-.72,0-35.69-.01-71.38-.02-107.06Z"/><path class="cls-3" d="M110.26,311.66c33.08-.07,66.16-.18,99.24-.2,21.94-.01,43.88,.1,65.82,.16,0,8.68-.02,17.36-.03,26.04-26.41,0-52.82,0-79.24-.01-28.24-.02-56.48-.05-84.73-.07-1.63-5.46-.43-11.06-.77-16.58-.19-3.11-.21-6.23-.3-9.34Z"/><path class="cls-3" d="M84.36,286.94c7.31-.01,14.62,.1,21.92-.09,3.07-.08,4.03,.97,3.96,4-.15,6.96,.03,13.93,.08,20.89-7.76,.05-15.51,.07-23.27,.19-1.99,.03-3.04-.43-2.99-2.72,.18-7.42,.21-14.85,.29-22.27Z"/><path class="cls-2" d="M274.94,286.36c-25.14,.11-50.28,.24-75.42,.33-12.32,.05-24.65-.11-36.97,.15-4.03,.08-5.66-.87-5.39-5.2,.38-5.97-.06-11.99,.2-17.98,.14-3.2-1.06-4.05-4.02-3.92-4.16,.18-8.34-.21-12.48,.11-3.9,.3-4.76-1.28-4.68-4.89,.22-10.49-.05-20.99,.16-31.47,.07-3.59-.72-5.08-4.66-4.83-5.64,.36-11.33-.07-16.98,.17-3.31,.14-4.35-1.05-4.27-4.29,.35-13.8,.56-27.61,.7-41.41,.03-2.58,.96-3.57,3.51-3.53,5.49,.09,11.02-.31,16.48,.11,4.65,.35,5.74-1.49,5.42-5.71-.33-4.47,.17-9.01-.15-13.48-.31-4.29,1.01-5.92,5.54-5.78,9.98,.3,19.98-.03,29.97,.15,3.27,.06,4.56-.92,4.29-4.24-.22-2.81,.15-5.68-.1-8.49-.33-3.61,1.19-4.46,4.59-4.45,23.48,.05,46.96-.1,70.44-.18l-.06-.06c.06,4.15,.44,8.33,.1,12.45-.33,4.15,1.37,4.97,5.13,4.92,15.45-.19,30.91-.1,46.36-.11,.16,11.35,.32,22.7,.48,34.06-.87,1.74-.46,3.6-.47,5.41-.07,23.64-.1,47.29-.16,70.93,0,1.82-.22,3.64-.34,5.46-7.46-.01-14.92,.15-22.37-.1-3.56-.12-4.5,1.15-4.49,4.57,0,7.11,.62,14.24-.37,21.33Z"/><path class="cls-12" d="M274.94,286.36c.99-7.09,.38-14.22,.37-21.33,0-3.41,.93-4.68,4.49-4.57,7.45,.25,14.91,.09,22.37,.1-.04,8.71,.51,17.42-.4,26.11l.03-.05c-8.82-.67-17.63-.64-26.44,.1-.14-.13-.28-.25-.42-.37Z"/><path class="cls-4" d="M275.36,286.73c8.81-.74,17.62-.77,26.44-.1-.08,6.98-.31,13.96-.19,20.93,.05,3.01-.81,4.05-3.92,3.99-7.48-.14-14.96,.07-22.44,.14,.03-8.32,.07-16.64,.1-24.96Z"/><path class="cls-1" d="M137.37,101.67c1.64,7.86,.37,15.8,.67,23.69,.1,2.58-2.07,2.09-3.63,2.09-16.91,0-33.82-.04-50.74-.07,0,0-.27,.29-.27,.29-.02-8.66-.04-17.33-.06-25.99,18.02,0,36.04,.02,54.06,.02l-.03-.03Z"/><path class="cls-2" d="M160.6,456.13c-.66-.15-1.33-.3-1.99-.45,.03-10.78,.22-21.58,.02-32.36-.07-3.85,1.51-5.02,4.97-4.89,2.49,.09,4.98,.02,7.47,0,5.94-.05,6.39-.5,6.45-6.64,.04-4.65,.17-9.3-.03-13.94-.13-3.03,.89-4.03,3.96-3.99,8.29,.1,16.58-.12,24.88-.21,.02,9.76,.2,19.52-.07,29.27-.06,2.33,1.9,4.8-.25,7.04-4.48,.02-8.99,.33-13.44-.04-4.34-.36-5.33,1.37-5.1,5.36,.33,5.79-.05,11.63,.2,17.43,.15,3.43-.79,4.9-4.44,4.38-2.27-.32-4.63-.04-6.96-.02-.38-.18-.76-.36-1.14-.54-4.79-1.91-9.68-.3-14.52-.4Z"/><path class="cls-14" d="M206,429.96c2.15-2.24,.18-4.71,.25-7.04,.27-9.75,.09-19.51,.07-29.27h-.01c9.33,0,18.66,0,27.98,0-.51,2.32-2.73,2.1-4.28,2.82-4.73,2.22-8.13,6.85-7.8,11.15,.29,3.77,2.15,7.36,5.81,7.82,5.4,.68,5.61,3.61,5.51,7.82-.21,9.09-.07,18.18-.07,27.31-7.24-2.23-14.18-1.44-20.98-1.22-4.85,.15-6.33-1.18-6-6.03,.3-4.41,.82-8.95-.49-13.35Z"/><path class="cls-2" d="M234.3,393.64c-9.33,0-18.66,.01-27.98,.02,.08-7.98,.27-15.97,.17-23.95-.04-3.08,.62-4.5,4.11-4.36,6.81,.26,13.64,.13,20.46-.01,2.53-.05,3.57,.69,3.5,3.36-.19,8.31-.19,16.63-.27,24.94Z"/><path class="cls-5" d="M160.6,456.13c4.84,.1,9.73-1.52,14.52,.4-4.84-.13-9.68-.26-14.52-.4Z"/></svg>