<?xml version="1.0" encoding="UTF-8"?><svg id="Layer_1" xmlns="http://www.w3.org/2000/svg" viewBox="0 0 229 127"><defs><style>.cls-1{fill:none;stroke:#231f20;stroke-miterlimit:10;stroke-width:.74px;}.cls-2{fill:#231f20;}</style></defs><ellipse class="cls-1" cx="114.31" cy="62.85" rx="113.49" ry="62.65"/><g><path class="cls-2" d="M54.66,55.95c3.2-9.65,8.57-21.27,12.81-27.68,.14-.11,.5-.29,.83-.43,.61-1.08,1.33-2.3,2.23-3.67,1.69-1.12,4.64-1.91,7.06-1.91,1.01,0,2.12,.14,3.28,.43-4.14,5.98-8.64,14.58-10.73,20.45,2.02-.43,5.18-1.01,8.78-1.51-.54,1.66-1.94,5.26-3.31,8.42-.65,.43-2.27,1.15-3.49,1.55l-.68,1.58c-2.66,1.66-8.35,2.88-13.57,2.88-1.01,0-2.09-.04-3.2-.11Zm20.09-6.62c1.62-3.78,2.3-5.58,2.63-6.37-2.84,.4-6.52,1.12-8.85,1.69,1.94-6.01,6.55-15.26,10.58-21.27-.76-.11-1.3-.18-1.73-.18-1.8,0-4.64,.83-6.05,1.76-3.85,5.83-9.32,17.64-12.6,27.07,.9,.04,1.8,.07,2.63,.07,4.75,0,10.91-1.3,13.39-2.77Z"/><path class="cls-2" d="M74.2,54.18c-.07-3.1,4.5-15.01,9.32-24.19,.14-.04,.54-.18,1.04-.32,.61-1.3,1.22-2.63,1.98-4,1.98-.72,6.05-1.48,9.61-1.83-4.1,6.98-7.31,13.68-8.46,17.85q-.07,.36-.07,.43c0,.14,.07,.22,.25,.22,.43-.04,.97-.18,1.76-.5,2.09-4.57,4.57-9.21,6.88-13.1l.79-.32c.5-.94,1.08-1.94,2.23-3.92,.22-.11,3.89-2.05,10.73-2.63-4.86,7.96-10.69,19.94-13.89,28.47-.97,.25-2.05,.47-3.17,.72l-.9,2.34c-7.02,1.66-11.59,2.41-14.4,2.41-2.41,0-3.64-.54-3.71-1.62Zm10.22-2.66c2.74-.32,6.26-1.01,11.16-2.16,2.74-7.42,7.95-18.25,12.6-26.21-2.41,.29-5.8,1.22-7.88,2.2-3.1,5.22-6.7,12.31-8.46,16.81-1.55,.65-2.95,1.22-3.89,1.26-.94,.07-1.4-.36-1.4-1.26,0-.22,.04-.54,.11-.79,1.12-3.96,4.14-10.51,7.45-16.2-2.27,.29-5.04,.86-6.77,1.44-4.82,9.14-9.36,20.84-9.21,23.87,.04,.86,.97,1.3,2.84,1.3,.86,0,1.91-.07,3.46-.25Z"/><path class="cls-2" d="M106.89,57.03l.29-6.88c-1.04,.25-2.02,.5-3.17,.72l-.76,2.2c-2.52,.65-5.9,1.37-7.96,1.69,2.81-8.06,7.74-19.33,11.7-26.71l1.12-.29c.9-1.8,1.69-3.31,2.02-3.96l9.43-2.23c-.18,3.42-.36,6.26-.47,8.46,.43-1.01,.79-1.83,.9-2.16,.4-.11,.76-.22,1.44-.36,.58-1.3,1.12-2.81,1.22-3.46,3.02-.86,5.58-1.3,7.52-1.3,1.01,0,1.87,.11,2.7,.36-6.91,10.58-14.72,28.87-14.87,29.19l-3.1,.76c-.58,1.22-.9,1.94-1.01,2.23l-7.02,1.73Zm3.96-4.07l6.37-1.58c.86-1.8,7.88-18.14,13.89-27.54-.22,0-.5-.04-.83-.04-1.76,0-4.14,.4-6.8,1.15-.72,1.94-4.5,9.9-5.83,12.31,.11-2.74,.43-8.5,.76-14.29-1.22,.29-4.54,1.08-7.56,1.76-3.71,7.09-8.93,18.9-11.41,25.95,1.69-.25,4.75-.9,7.13-1.51,1.26-3.96,3.02-7.88,4.97-11.16l-.68,14.94Z"/><path class="cls-2" d="M132.92,48.57c-.86,.14-1.76,.29-3.02,.58-.36,.72-.94,2.12-1.19,2.84-.97,.43-2.05,.76-3.35,1.04-.29,.61-.61,1.44-.83,2.02-2.02,.83-4.46,1.3-6.66,1.3-.58,0-1.12-.04-1.37-.07,4.61-9.75,11.23-20.05,20.23-31.46,2.81-1.3,9.03-2.7,14.87-3.38-3.35,8.89-7.16,21.2-9.11,29.37-1.73,.86-2.88,1.33-3.89,1.69l-.32,1.4c-2.52,1.33-6.05,2.52-8.31,2.81,.47-1.58,1.66-4.86,2.95-8.13Zm8.64,1.48c1.73-7.34,5.58-19.91,8.39-27.32-4.82,.61-10.15,1.91-12.53,2.99-4.64,5.65-13.28,19.37-16.77,26.64,.25,0,.58,.04,.94,.04,2.12,0,4.39-.43,6.26-1.19,.29-.72,1.48-3.74,2.7-5.08,1.22-.58,4-1.22,6.55-1.58-1.19,2.95-2.48,6.37-3.02,8.1,2.3-.4,5.29-1.44,7.49-2.59Zm-2.81-18.39l3.24-1.15c-.76,2.77-2.02,6.08-2.95,7.88-2.12,.29-4.18,.68-4.97,.9,1.8-3.31,3.74-6.48,4.68-7.63Zm-1.84,5.94c.29-.76,.58-1.62,.86-2.59-.79,1.33-1.22,2.02-1.62,2.74l.76-.14Z"/><path class="cls-2" d="M150.12,50.58l-.18,.4c-.58,.04-1.84,.29-3.1,.58l-.97,2.34c-1.26,.11-4,.76-6.66,1.62,2.7-7.81,6.95-17.96,9.9-23.72,.47-.29,.97-.61,1.48-.9,.54-1.12,1.04-2.2,1.58-3.2,4.14-2.74,9.61-4.9,13.64-5.4,.61-.07,1.19-.11,1.76-.11,3.42,0,5.29,1.44,5.29,4.07,0,.5-.11,1.19-.29,1.98-.14,.54-1.8,7.23-10.51,12.74-.79,.68-1.55,1.26-2.34,1.87l3.17,6.91c-.94,1.04-2.81,2.16-4.75,2.81l.32,.65c-1.01,1.12-3.53,2.3-5.98,2.81l-2.38-5.44Zm6.19,1.4c2.05-.43,4.21-1.44,5.29-2.45l-3.49-7.63c6.77-3.38,12.42-9.21,13.43-13.93,.18-.76,.25-1.22,.25-1.66,0-2.05-1.37-3.1-4.03-3.1-.58,0-1.15,.07-1.8,.14-3.82,.47-9.07,2.52-12.96,5.08-2.7,5.18-6.7,14.72-9.61,22.89,3.24-1.01,5.18-1.3,5.83-1.4l3.02-7.16,4.07,9.21Zm1.69-21.13c2.05-1.08,3.64-1.66,4.57-1.66,.76,0,1.19,.36,1.19,1.01,0,.25-.07,.58-.22,.94-.47,1.4-4.97,4.75-9.11,6.84l3.56-7.13Zm-1.12,4.64c.83-.47,1.66-1.01,2.88-1.87-.07-.32-.32-.47-.79-.47-.29,0-.61,.07-1.01,.14l-1.08,2.2Z"/><path class="cls-2" d="M51.11,71.07c.22-.07,.5-.14,.94-.22,.83-1.66,1.51-2.92,2.2-4,1.48-.36,3.92-.97,6.48-.97,3.46,0,6.05,1.12,7.56,3.28,.97,1.44,1.48,2.99,1.48,4.68,0,2.99-1.51,6.51-4.64,10.98-1.51,2.2-4.28,4.68-7.34,6.62-5.58,4.97-12.78,7.96-18.21,7.59,3.35-10.69,8.21-22.46,11.55-27.97Zm13.1,13.14c3.06-4.36,4.46-7.63,4.46-10.37,0-1.48-.43-2.81-1.3-4.07-1.33-1.87-3.56-2.84-6.62-2.84-1.69,0-3.71,.29-5.83,.86-3.02,5-8.1,17.31-11.27,27.32,6.55,.22,16.49-5.04,20.55-10.91Zm-6.16-10.37c.32-.04,.65-.07,.94-.07,1.8,0,2.74,.83,2.74,2.45,0,.97-.32,2.12-.94,3.35-1.76,3.53-5.18,6.55-8.35,7.42,2.16-5.69,4.39-10.91,5.62-13.14Zm-1.3,9.39c.68-1.22,1.04-2.45,1.04-3.42,0-.72-.22-1.26-.65-1.62-.79,1.73-1.8,4.17-2.84,6.95,.83-.47,1.66-1.12,2.45-1.91Z"/><path class="cls-2" d="M70.48,86.98c-.83-5.51-1.48-11.73-1.48-14.47,.65-.32,1.87-.86,2.99-1.33-.07-.97-.11-1.87-.11-2.66,1.4-.83,5-2.27,8.57-3.46,0,.29-.04,1.01-.04,1.91,0,1.91,.11,4.28,.36,6.88l4.9-5.72c.22-.07,4.86-1.84,12.45-2.56-6.59,6.48-16.81,19.04-24.37,29.95-.36,.11-1.22,.29-2.3,.47l-1.73,2.48c-2.56,.65-5.79,1.12-7.59,1.08,1.15-1.91,4.68-7.2,8.35-12.56Zm2.63,7.56c6.77-9.72,15.8-21.02,22.1-27.61-2.59,.32-6.84,1.33-8.89,2.09-2.74,3.1-5.33,6.19-6.3,7.52-.5-4.03-.79-7.96-.72-9.97-3.71,1.26-5.72,2.27-6.34,2.56,.04,2.7,.65,8.71,1.48,14.36-3.42,4.97-6.59,9.72-8.06,12.09,1.58-.04,4.61-.5,6.73-1.04Z"/><path class="cls-2" d="M92.08,100.23l.29-6.88c-1.04,.25-2.02,.5-3.17,.72l-.76,2.2c-2.52,.65-5.9,1.37-7.96,1.69,2.81-8.06,7.74-19.33,11.7-26.71l1.12-.29c.9-1.8,1.69-3.31,2.02-3.96l9.43-2.23c-.18,3.42-.36,6.26-.47,8.46,.43-1.01,.79-1.84,.9-2.16,.4-.11,.76-.22,1.44-.36,.58-1.3,1.12-2.81,1.22-3.46,3.02-.86,5.58-1.3,7.52-1.3,1.01,0,1.87,.11,2.7,.36-6.91,10.58-14.72,28.87-14.87,29.19l-3.1,.76c-.58,1.22-.9,1.94-1.01,2.23l-7.02,1.73Zm3.96-4.07l6.37-1.58c.86-1.8,7.88-18.14,13.89-27.54-.22,0-.5-.04-.83-.04-1.76,0-4.14,.4-6.8,1.15-.72,1.94-4.5,9.9-5.83,12.31,.11-2.74,.43-8.5,.76-14.29-1.22,.29-4.54,1.08-7.56,1.76-3.71,7.09-8.93,18.9-11.41,25.95,1.69-.25,4.75-.9,7.13-1.51,1.26-3.96,3.02-7.88,4.97-11.16l-.68,14.94Z"/><path class="cls-2" d="M118.1,91.77c-.86,.14-1.76,.29-3.02,.58-.36,.72-.94,2.12-1.19,2.84-.97,.43-2.05,.76-3.35,1.04-.29,.61-.61,1.44-.83,2.02-2.02,.83-4.46,1.3-6.66,1.3-.58,0-1.12-.04-1.37-.07,4.61-9.75,11.23-20.05,20.23-31.46,2.81-1.3,9.03-2.7,14.87-3.38-3.35,8.89-7.16,21.2-9.11,29.37-1.73,.86-2.88,1.33-3.89,1.69l-.32,1.4c-2.52,1.33-6.05,2.52-8.31,2.81,.47-1.58,1.66-4.86,2.95-8.13Zm8.64,1.48c1.73-7.34,5.58-19.91,8.39-27.32-4.82,.61-10.15,1.91-12.53,2.99-4.64,5.65-13.28,19.37-16.77,26.64,.25,0,.58,.04,.94,.04,2.12,0,4.39-.43,6.26-1.19,.29-.72,1.48-3.74,2.7-5.08,1.22-.58,4-1.22,6.55-1.58-1.19,2.95-2.48,6.37-3.02,8.1,2.3-.4,5.29-1.44,7.49-2.59Zm-2.81-18.39l3.24-1.15c-.76,2.77-2.02,6.08-2.95,7.88-2.12,.29-4.18,.68-4.97,.9,1.8-3.31,3.74-6.48,4.68-7.63Zm-1.84,5.94c.29-.76,.58-1.62,.86-2.59-.79,1.33-1.22,2.02-1.62,2.74l.76-.14Z"/><path class="cls-2" d="M144.92,91.48c-2.63,2.81-4.9,4.82-6.59,5.9v-.04c-1.3,1.26-2.09,1.91-2.66,2.27,0-1.08,.04-2.63,.14-6.73l-.61,1.48c-.47,.14-1.55,.32-2.77,.47-.4,.72-.79,1.58-1.15,2.45-1.08,.32-3.38,.54-5.51,.54-1.12,0-1.19,0-1.48-.04,4-9.47,9.32-19.65,12.81-24.51l.36-.22c1.01-1.55,1.73-2.66,2.52-3.82,2.05-.79,5.33-1.98,9.32-1.87-.61,1.98-1.48,6.01-2.09,9.79,1.19-1.73,2.95-4.07,8.14-11.01,2.05-.86,5.36-1.51,7.88-1.51,.76,0,1.04,0,1.51,.07-4.54,11.45-8.93,23.76-10.83,30.34-.61,.43-2.3,1.15-3.49,1.48-.18,.54-.29,1.04-.47,1.55-1.73,1.19-5.11,2.02-8.1,1.98,.79-1.73,2.05-5.25,3.06-8.57Zm8.1,2.88c1.94-6.55,6.95-20.59,10.22-28.69-2.52,0-5.18,.58-7.2,1.33-4.54,5.94-8.96,12.17-10.47,14.76,.65-5.22,1.62-10.73,2.34-13.28-2.81,.14-6.16,.86-7.16,1.55-3.24,4.5-8.6,14.76-12.56,23.94,2.63,.04,5.11-.14,6.19-.47,.79-1.84,3.2-6.41,5.54-10.44-.18,1.76-.32,3.78-.4,6.62-.07,1.19-.11,3.42-.11,5.76,1.76-1.37,6.41-6.44,10.4-11.37-1.58,5.29-3.1,9.9-4.03,12.17,2.45-.04,5.51-.83,7.24-1.87Z"/><path class="cls-2" d="M155.36,91.84c0-1.51,.32-3.31,.94-5.25,1.44-4.46,3.46-8.17,6.05-11.01,3.74-6.12,9.14-9.86,14.72-10.26,.22,0,.43-.04,.65-.04,4.36,0,7.24,3.28,7.24,8.17,0,1.73-.32,3.53-.97,5.26-2.16,5.97-7.16,12.13-12.27,15.12-2.38,2.16-4.79,3.67-6.88,4.25-1.01,.25-1.98,.4-2.88,.4-4.14,0-6.59-2.48-6.59-6.62Zm12.96,2.27c5.36-1.48,12.09-8.75,14.61-15.8,.61-1.8,.94-3.46,.94-4.93,0-4.43-2.74-7.27-6.73-6.98-7.24,.5-13.82,7.02-16.88,16.7-.65,2.02-.94,3.67-.94,5.15,0,3.96,2.3,6.26,6.19,6.26,.86,0,1.84-.14,2.81-.4Zm-2.7-9.32c0-1.04,.25-2.2,.68-3.2,2.05-4.68,6.05-8.49,9.07-8.67,1.3-.07,2.02,.72,2.02,2.23,0,1.12-.4,2.63-1.22,4.43-1.73,3.71-4.35,7.13-6.23,8.1-.68,.4-1.33,.58-1.94,.58-1.44,0-2.38-1.33-2.38-3.46Zm3.82,1.91c.47-.22,.97-.61,1.48-1.15,1.58-2.63,2.56-5.26,2.56-6.88,0-1.19-.5-1.8-1.51-1.8-.58,0-1.12,.11-1.62,.29-1.19,1.4-2.34,3.28-3.06,4.86-.4,.79-.61,1.87-.61,2.84,0,1.4,.54,2.23,1.44,2.23,.4,0,.9-.14,1.33-.4Z"/></g></svg>