<?xml version="1.0" encoding="UTF-8"?><svg id="Layer_1" xmlns="http://www.w3.org/2000/svg" viewBox="0 0 247 47"><path d="M11.35,5.59v1.5h-3.44v6.9h-1.5V7.09H2.96v-1.5H11.35Z"/><path d="M20.96,5.58V13.97h-1.5v-3.85h-5.4v3.85h-1.5V5.58h1.5v3.05h5.4v-3.05h1.5Z"/><path d="M30.25,13.97h-1.68l-.77-1.5-1.83-3.6-1.83,3.6-.77,1.5h-1.68l.77-1.5,3.51-6.9,3.51,6.9,.77,1.5Z"/><path d="M36.98,5.59v1.5h-3.44v6.9h-1.5V7.09h-3.44v-1.5h8.38Z"/><path d="M38.2,7.95v-2.97h1.5v2.97h-1.5Z"/><path d="M47.34,7.9v-.05c0-.42-.35-.77-.77-.77h-3.41c-.42,0-.77,.35-.77,.77v.05c0,.42,.35,.77,.77,.77h3.02c.78,0,1.48,.34,1.96,.86,.04,.04,.06,.07,.1,.11,.37,.46,.6,1.04,.6,1.68,0,1.46-1.19,2.65-2.65,2.65h-2.63c-1.46,0-2.65-1.19-2.65-2.65h1.5c0,.64,.52,1.15,1.15,1.15h2.63c.64,0,1.16-.52,1.16-1.15s-.53-1.15-1.16-1.15h-3.02c-.61,0-1.16-.24-1.57-.64-.11-.11-.2-.23-.29-.36-.25-.36-.4-.8-.4-1.28v-.05c0-1.25,1.01-2.27,2.25-2.27h3.41c1.25,0,2.27,1.02,2.27,2.27v.05h-1.5Z"/><path d="M63.99,9.78c0,2.31-1.88,4.2-4.2,4.2s-4.2-1.88-4.2-4.2,1.88-4.2,4.2-4.2,4.2,1.88,4.2,4.2Zm-1.5,0c0-1.49-1.21-2.7-2.7-2.7s-2.7,1.21-2.7,2.7,1.21,2.7,2.7,2.7,2.7-1.21,2.7-2.7Z"/><path d="M73.3,5.59V13.99l-1.5-1.15-5.4-4.16v5.31h-1.5V5.61l1.5,1.15,5.4,4.16V5.58h1.5Z"/><path d="M76.01,7.84v.78h5.4v1.5h-5.4v1.58c0,.42,.35,.77,.77,.77h6.13v1.5h-6.13c-1.25,0-2.25-1.02-2.25-2.27v-3.86c0-1.25,1.01-2.27,2.25-2.27h6.13v1.5h-6.13c-.42,0-.77,.35-.77,.77Z"/><path d="M96.39,7.9v-.05c0-.42-.35-.77-.77-.77h-3.41c-.42,0-.77,.35-.77,.77v.05c0,.42,.35,.77,.77,.77h3.02c.78,0,1.48,.34,1.96,.86,.04,.04,.06,.07,.1,.11,.37,.46,.6,1.04,.6,1.68,0,1.46-1.19,2.65-2.65,2.65h-2.63c-1.46,0-2.65-1.19-2.65-2.65h1.5c0,.64,.52,1.15,1.15,1.15h2.63c.64,0,1.16-.52,1.16-1.15s-.53-1.15-1.16-1.15h-3.02c-.61,0-1.16-.24-1.57-.64-.11-.11-.2-.23-.29-.36-.25-.36-.4-.8-.4-1.28v-.05c0-1.25,1.01-2.27,2.25-2.27h3.41c1.25,0,2.27,1.02,2.27,2.27v.05h-1.5Z"/><path d="M107.49,5.58V13.97h-1.5v-5.35l-1.48,1.13-1.22,.95-1.22-.95-1.48-1.13v5.35h-1.5V5.58l1.5,1.15,2.7,2.08,2.7-2.08,1.5-1.15Z"/><path d="M116.78,13.97h-1.68l-.77-1.5-1.83-3.6-1.83,3.6-.77,1.5h-1.68l.77-1.5,3.51-6.9,3.51,6.9,.77,1.5Z"/><path d="M124.11,12.49v1.5h-4.26c-.42,0-.82-.1-1.18-.28-.53-.26-.96-.7-1.21-1.22-.18-.36-.28-.76-.28-1.18V5.59h1.5v5.86c.07,.53,.49,.95,1.02,1.02h4.4Z"/><path d="M132.23,12.49v1.5h-4.26c-.42,0-.82-.1-1.18-.28-.53-.26-.96-.7-1.21-1.22-.18-.36-.28-.76-.28-1.18V5.59h1.5v5.86c.07,.53,.49,.95,1.02,1.02h4.4Z"/><path d="M145.72,7.9v-.05c0-.42-.35-.77-.77-.77h-3.41c-.42,0-.77,.35-.77,.77v.05c0,.42,.35,.77,.77,.77h3.02c.78,0,1.47,.34,1.96,.86,.04,.04,.06,.07,.1,.11,.37,.46,.6,1.04,.6,1.68,0,1.46-1.19,2.65-2.65,2.65h-2.63c-1.46,0-2.65-1.19-2.65-2.65h1.5c0,.64,.52,1.15,1.15,1.15h2.63c.63,0,1.16-.52,1.16-1.15s-.53-1.15-1.16-1.15h-3.02c-.61,0-1.16-.24-1.57-.64-.11-.11-.2-.23-.29-.36-.25-.36-.4-.8-.4-1.28v-.05c0-1.25,1.01-2.27,2.25-2.27h3.41c1.25,0,2.27,1.02,2.27,2.27v.05h-1.5Z"/><path d="M156.41,5.59v1.5h-3.44v6.9h-1.5V7.09h-3.44v-1.5h8.38Z"/><path d="M159.13,7.84v.78h5.4v1.5h-5.4v1.58c0,.42,.35,.77,.77,.77h6.13v1.5h-6.13c-1.25,0-2.25-1.02-2.25-2.27v-3.86c0-1.25,1.01-2.27,2.25-2.27h6.13v1.5h-6.13c-.42,0-.77,.35-.77,.77Z"/><path d="M174.14,6.25c.41,.42,.66,.98,.66,1.61,0,.91-.54,1.7-1.32,2.06-.2,.1-.42,.16-.65,.18h-4.09v3.87h-1.5V5.58h5.29c.62,0,1.19,.25,1.59,.66h.01Zm-1.28,2.3c.28-.12,.46-.4,.46-.7,0-.28-.14-.47-.23-.55-.1-.1-.28-.22-.54-.22h-3.8v1.55h3.8c.11,0,.22-.02,.31-.07h0Z"/><path d="M190.24,5.57v1.5h-6.13c-.42,0-.77,.35-.77,.77v.78h5.4v1.5h-5.41v3.85h-1.49V7.84c0-1.25,1.01-2.27,2.25-2.27h6.14Z"/><path d="M198.49,9.78c0,2.31-1.88,4.2-4.2,4.2s-4.2-1.88-4.2-4.2,1.88-4.2,4.2-4.2,4.2,1.88,4.2,4.2Zm-1.5,0c0-1.49-1.21-2.7-2.7-2.7s-2.7,1.21-2.7,2.7,1.21,2.7,2.7,2.7,2.7-1.21,2.7-2.7Z"/><path d="M206.18,12.5l.77,1.5h-1.68l-.77-1.5-.8-1.57-.04-.07c-.26-.43-.73-.72-1.27-.72h-1.5v3.86h-1.5V5.6h5.3c.62,0,1.19,.25,1.59,.66s.66,.97,.66,1.6c0,.91-.54,1.7-1.32,2.06-.2,.1-.42,.16-.65,.18l1.2,2.4Zm-1.49-3.86c.11,0,.21-.02,.31-.07,.28-.12,.46-.4,.46-.7,0-.28-.14-.47-.23-.55-.1-.1-.28-.22-.54-.22h-3.8v1.55h3.8Z"/><path d="M222.4,5.58V13.97h-1.5v-5.35l-1.48,1.13-1.22,.95-1.22-.95-1.48-1.13v5.35h-1.5V5.58l1.5,1.15,2.7,2.08,2.7-2.08,1.5-1.15Z"/><path d="M231.69,13.97h-1.68l-.77-1.5-1.83-3.6-1.83,3.6-.77,1.5h-1.68l.77-1.5,3.51-6.9,3.51,6.9,.77,1.5Z"/><path d="M240.81,5.59V13.99l-1.5-1.15-5.4-4.16v5.31h-1.5V5.61l1.5,1.15,5.4,4.16V5.58h1.5Z"/><path d="M243.5,12.56v3h-.74l-.74-1.5v-1.5h1.49Z"/><path d="M24.08,24.18c0,2.31-1.88,4.2-4.2,4.2s-4.2-1.88-4.2-4.2,1.88-4.2,4.2-4.2,4.2,1.88,4.2,4.2Zm-1.5,0c0-1.49-1.21-2.7-2.7-2.7s-2.7,1.21-2.7,2.7,1.21,2.7,2.7,2.7,2.7-1.21,2.7-2.7Z"/><path d="M33.39,19.99v8.4l-1.5-1.15-5.4-4.16v5.31h-1.5v-8.37l1.5,1.15,5.4,4.16v-5.35h1.5Z"/><path d="M36.09,22.24v.78h5.4v1.5h-5.4v1.58c0,.42,.35,.77,.77,.77h6.13v1.5h-6.13c-1.25,0-2.25-1.02-2.25-2.27v-3.86c0-1.25,1.01-2.27,2.25-2.27h6.13v1.5h-6.13c-.42,0-.77,.35-.77,.77Z"/><path d="M51.54,24.18c0,1.49,1.21,2.7,2.7,2.7h2.7v-1.61h-2.7v-1.5h4.2v4.61h-4.2c-2.31,0-4.2-1.88-4.2-4.2s1.88-4.2,4.2-4.2h4.2v1.5h-4.2c-1.49,0-2.7,1.21-2.7,2.7Z"/><path d="M59.64,28.37v-8.4h1.5v8.4h-1.5Z"/><path d="M70.42,28.37h-1.68l-.77-1.5-1.84-3.6-1.83,3.6-.77,1.5h-1.68l.77-1.5,3.51-6.9,3.51,6.9,.77,1.5Z"/><path d="M79.54,19.99v8.4l-1.5-1.15-5.4-4.16v5.31h-1.5v-8.37l1.5,1.15,5.4,4.16v-5.35h1.5Z"/><path d="M89.13,19.99v1.5h-3.44v6.9h-1.5v-6.9h-3.44v-1.5h8.38Z"/><path d="M103.11,26.89v1.5h-4.26c-.42,0-.82-.1-1.18-.28-.53-.26-.96-.7-1.21-1.22-.18-.36-.28-.76-.28-1.18v-5.72h1.5v5.86c.07,.53,.49,.95,1.02,1.02h4.4Z"/><path d="M105.81,22.24v.78h5.4v1.5h-5.4v1.58c0,.42,.35,.77,.77,.77h6.13v1.5h-6.13c-1.25,0-2.25-1.02-2.25-2.27v-3.86c0-1.25,1.01-2.27,2.25-2.27h6.13v1.5h-6.13c-.42,0-.77,.35-.77,.77Z"/><path d="M122,28.37h-1.68l-.77-1.5-1.83-3.6-1.83,3.6-.77,1.5h-1.68l.77-1.5,3.51-6.9,3.51,6.9,.77,1.5Z"/><path d="M129.63,20.65c.41,.42,.66,.98,.66,1.61,0,.91-.54,1.7-1.32,2.06-.2,.1-.42,.16-.65,.18h-4.09v3.87h-1.5v-8.4h5.29c.62,0,1.19,.25,1.6,.66h.01Zm-1.28,2.3c.28-.12,.46-.4,.46-.7,0-.28-.14-.47-.23-.55-.1-.1-.28-.22-.54-.22h-3.8v1.55h3.8c.11,0,.22-.02,.31-.07h0Z"/><path d="M145.73,19.97v1.5h-6.13c-.42,0-.77,.35-.77,.77v.78h5.4v1.5h-5.41v3.85h-1.49v-6.12c0-1.25,1.01-2.27,2.25-2.27h6.14Z"/><path d="M153.98,24.18c0,2.31-1.88,4.2-4.2,4.2s-4.2-1.88-4.2-4.2,1.88-4.2,4.2-4.2,4.2,1.88,4.2,4.2Zm-1.5,0c0-1.49-1.21-2.7-2.7-2.7s-2.7,1.21-2.7,2.7,1.21,2.7,2.7,2.7,2.7-1.21,2.7-2.7Z"/><path d="M161.67,26.9l.77,1.5h-1.68l-.77-1.5-.8-1.57-.04-.07c-.26-.43-.73-.72-1.27-.72h-1.5v3.86h-1.5v-8.4h5.3c.62,0,1.19,.25,1.6,.66,.41,.41,.66,.97,.66,1.6,0,.91-.54,1.7-1.32,2.06-.2,.1-.42,.16-.65,.18l1.2,2.4Zm-1.49-3.86c.11,0,.22-.02,.31-.07,.28-.12,.46-.4,.46-.7,0-.28-.14-.47-.23-.55-.1-.1-.28-.22-.54-.22h-3.8v1.55h3.8Z"/><path d="M177.89,19.98v8.4h-1.5v-5.35l-1.47,1.13-1.22,.95-1.22-.95-1.47-1.13v5.35h-1.5v-8.4l1.5,1.15,2.7,2.08,2.7-2.08,1.5-1.15Z"/><path d="M187.18,28.37h-1.68l-.77-1.5-1.83-3.6-1.84,3.6-.77,1.5h-1.68l.77-1.5,3.51-6.9,3.51,6.9,.77,1.5Z"/><path d="M196.3,19.99v8.4l-1.5-1.15-5.4-4.16v5.31h-1.5v-8.37l1.5,1.15,5.4,4.16v-5.35h1.5Z"/><path d="M202.23,23.35l3.63,5.03h-1.85l-2.9-4.01-2.12,1.93v2.07h-1.5v-8.4h1.5v4.29l1.23-1.13,1.12-1.02,2.34-2.15h2.22l-3.67,3.37Z"/><path d="M207.1,28.37v-8.4h1.5v8.4h-1.5Z"/><path d="M218.2,19.99v8.4l-1.5-1.15-5.4-4.16v5.31h-1.5v-8.37l1.5,1.15,5.4,4.16v-5.35h1.5Z"/><path d="M223.59,19.99c2.31,0,4.2,1.87,4.2,4.19,0,1.03-.37,1.98-1,2.71-.07,.08-.16,.17-.24,.25-.75,.77-1.8,1.24-2.95,1.24h-4.2v-8.4h4.19Zm2.7,4.21c0-1.49-1.21-2.7-2.7-2.7h-2.7v5.4h2.7c1.49,0,2.7-1.21,2.7-2.7Z"/><path d="M229,28.46v-1.5h1.5v1.5h-1.5Z"/><path d="M57.76,39.56v-1.5h5.69v1.5h-5.69Z"/><path d="M73.04,34.39v8.4l-1.5-1.15-5.4-4.16v5.31h-1.5v-8.37l1.5,1.15,5.4,4.16v-5.35h1.5Z"/><path d="M75.75,36.65v.78h5.4v1.5h-5.4v1.58c0,.42,.35,.77,.77,.77h6.13v1.5h-6.13c-1.25,0-2.25-1.02-2.25-2.27v-3.86c0-1.25,1.01-2.27,2.25-2.27h6.13v1.5h-6.13c-.42,0-.77,.35-.77,.77Z"/><path d="M83.85,42.77v-8.4h1.5v8.4h-1.5Z"/><path d="M93.47,41.29v1.5h-4.26c-.42,0-.82-.1-1.18-.28-.53-.26-.96-.7-1.21-1.22-.18-.36-.28-.76-.28-1.18v-5.72h1.5v5.86c.07,.53,.49,.95,1.02,1.02h4.4Z"/><path d="M108.61,42.77h-1.68l-.77-1.5-1.83-3.6-1.83,3.6-.77,1.5h-1.68l.77-1.5,3.51-6.9,3.51,6.9,.77,1.5Z"/><path d="M116.11,41.3l.77,1.5h-1.68l-.77-1.5-.8-1.57-.04-.07c-.26-.43-.73-.72-1.27-.72h-1.5v3.86h-1.5v-8.4h5.3c.62,0,1.19,.25,1.6,.66s.66,.97,.66,1.6c0,.91-.54,1.7-1.32,2.06-.2,.1-.42,.16-.65,.18l1.2,2.4Zm-1.49-3.86c.11,0,.22-.02,.31-.07,.28-.12,.46-.4,.46-.7,0-.28-.14-.47-.23-.55-.1-.1-.28-.22-.54-.22h-3.8v1.55h3.8Z"/><path d="M126.49,34.38v8.4h-1.5v-5.35l-1.48,1.13-1.22,.95-1.22-.95-1.48-1.13v5.35h-1.5v-8.4l1.5,1.15,2.7,2.08,2.7-2.08,1.5-1.15Z"/><path d="M134.14,36.7v-.05c0-.42-.35-.77-.77-.77h-3.41c-.42,0-.77,.35-.77,.77v.05c0,.42,.35,.77,.77,.77h3.02c.78,0,1.48,.34,1.96,.86,.04,.04,.06,.07,.1,.11,.37,.46,.6,1.04,.6,1.68,0,1.46-1.19,2.65-2.65,2.65h-2.63c-1.46,0-2.65-1.19-2.65-2.65h1.5c0,.64,.52,1.15,1.15,1.15h2.63c.64,0,1.16-.52,1.16-1.15s-.53-1.15-1.16-1.15h-3.02c-.61,0-1.16-.24-1.57-.64-.11-.11-.2-.23-.29-.36-.25-.36-.4-.8-.4-1.28v-.05c0-1.25,1.01-2.27,2.25-2.27h3.41c1.25,0,2.27,1.02,2.27,2.27v.05h-1.5Z"/><path d="M144.83,34.39v1.5h-3.44v6.9h-1.5v-6.9h-3.44v-1.5h8.38Z"/><path d="M152.82,41.3l.77,1.5h-1.68l-.77-1.5-.8-1.57-.04-.07c-.26-.43-.73-.72-1.27-.72h-1.5v3.86h-1.5v-8.4h5.3c.62,0,1.19,.25,1.59,.66s.66,.97,.66,1.6c0,.91-.54,1.7-1.32,2.06-.2,.1-.42,.16-.65,.18l1.2,2.4Zm-1.49-3.86c.11,0,.21-.02,.31-.07,.28-.12,.46-.4,.46-.7,0-.28-.14-.47-.23-.55-.1-.1-.28-.22-.54-.22h-3.8v1.55h3.8Z"/><path d="M162.91,38.58c0,2.31-1.88,4.2-4.2,4.2s-4.2-1.88-4.2-4.2,1.88-4.2,4.2-4.2,4.2,1.88,4.2,4.2Zm-1.5,0c0-1.49-1.21-2.7-2.7-2.7s-2.7,1.21-2.7,2.7,1.21,2.7,2.7,2.7,2.7-1.21,2.7-2.7Z"/><path d="M172.22,34.39v8.4l-1.5-1.15-5.4-4.16v5.31h-1.5v-8.37l1.5,1.15,5.4,4.16v-5.35h1.5Z"/><path d="M174.93,38.58c0,1.49,1.21,2.7,2.7,2.7h2.7v-1.61h-2.7v-1.5h4.2v4.61h-4.2c-2.32,0-4.2-1.88-4.2-4.2s1.88-4.2,4.2-4.2h4.2v1.5h-4.2c-1.49,0-2.7,1.21-2.7,2.7Z"/><path d="M183.03,39.56v-1.5h5.69v1.5h-5.69Z"/></svg>