<?xml version="1.0" encoding="UTF-8"?><svg id="Layer_1" xmlns="http://www.w3.org/2000/svg" viewBox="0 0 902.99 942.93"><defs><style>.cls-1{fill:#f3ecf2;}.cls-2{fill:#f2ebf1;}.cls-3{fill:#010201;}.cls-4{fill:#030404;}.cls-5{fill:#060606;}.cls-6{fill:#fbd5dc;}.cls-7{fill:#e494a6;}.cls-8{fill:#fbfcfc;}.cls-9{fill:#6b7489;}.cls-10{fill:#b4aab9;}.cls-11{fill:#8d90a2;}.cls-12{fill:#b3a9b8;}.cls-13{fill:#a497a7;}.cls-14{fill:#0b0b0b;}.cls-15{fill:#838697;}.cls-16{fill:#a999ff;stroke:#000;stroke-miterlimit:10;}</style></defs><g><path class="cls-1" d="M338.74,169.7c8.64-1.21,17.33-.87,26.01-.96,.24,1.3,.48,2.6,.72,3.91-.97,.76-1.24,1.63,.19,1.94,1.54,.33,3.3,.54,3.6-1.82,5.65-.09,11.31-.46,16.93-.16,4.01,.22,4.98-1.07,4.95-4.98-.15-16.62,.04-33.25,.11-49.87,.52-.26,1.41-.43,1.48-.79,.23-1.08-.76-1.07-1.48-1.21v-12c.63,.18,1.43,.18,1.85,.57,2.19,2.09,4.35,1.4,6.11-.32,1.68-1.64,2.92-3.7,.82-6.05-.97-1.09-.75-2.47-.78-3.77,5.01,.01,10.03,.03,15.04,.04,.4,2.51,2.35,4.49,2.25,7.28-.05,1.34,1.67,1.87,2.98,2.08,1.07,.17,1.9-.41,2.36-1.38,.58-1.22,.02-2.2-.8-3.08-1.32-1.41-3-2.62-2.89-4.88,2.77-.57,1.8-2.79,1.82-4.41,.11-9.45,.11-18.91,.14-28.36,6.99,.02,13.99-.27,20.95,.16,4.63,.28,7.22-.72,6.68-5.85,4.01,.41,7.12,.2,6.69-5.42-.17-2.21,.96-4.36-1.24-6.22-1.38-1.17-.65-2.34,.67-3.19,2.93-1.89,3.83,.01,4.26,2.39,.58,3.19,3.22,5.46,5.23,3.53,1.89-1.81,1.75-5.91,2.1-9.04,.09-.81-1.29-1.88-2.65-1.76-4.86,.42-5.75-2.57-5.59-6.48,12.92-.6,25.85-.4,38.78-.1,.02,2.42,.04,4.85,.06,7.27-2.33,.18-5.26,.45-4.67,3.47,.56,2.82-.79,7.49,4.64,7.53-.02,1-.03,2-.05,2.99-5.6,1.42-9,6.21-7.79,11-1.32,.03-2.67,.26-3.95,.05-5.11-.86-6.48,1.27-6.24,6.24,.37,7.88-.04,15.8-.12,23.71-3.19,.19-6.46,.26-6.69,4.68l-5.99,.02c.06-1.73-.58-2.69-2.5-2.69-1.92,0-2.56,.96-2.5,2.69-2.33,0-4.66,0-6.99,0-.04-1.36-.19-2.61-2.01-2.6-1.82,0-1.97,1.26-2,2.61-1.29,.24-1.99,1.02-2.15,2.31-.66-.06-1.32-.1-1.97-.18-1.15-.13-2.89-1.75-3.27,.2-.38,1.94,1.75,1.9,3.22,1.97,.66,.03,1.32,.01,1.99,.01,0,1,0,2,0,2.99-2.05-.16-3.69,.69-4.41,2.54-1.86,4.76-4.25,9.13-8.24,12.44-1.06,.88-1.47,2.01-.79,3.04,.85,1.3,2.48,1.75,3.93,1.54,1.38-.2,1.62-1.4,1.15-2.73-.31-.88-.81-2.05,.69-2.33,.97-.18,1.63,.74,1.66,1.5,.13,4.14,2.94,4.17,5.91,4.01,0,1,0,2,0,3-1.71,.24-2.62,1.19-2.64,2.94-.02,1.85,1.24,2.04,2.64,2.06,.07,5.32,.16,10.63,.21,15.95,.01,1.33,.12,2.81-1.92,2.73-.49-1.76-.83-3.81-3.31-3.54-2.21,.24-1.51,2.17-1.69,3.54-5.97,.08-11.94,.26-17.9,.21-2.95-.02-4.11,1.05-4.05,4.1,.16,8.13,.05,16.26,.07,24.39q.03,14-14.1,13.6c-.26-.52-.43-1.4-.78-1.48-1.07-.23-1.07,.75-1.21,1.48-2.14,.03-4.3,.27-6.41,.04-4.46-.49-5.73,1.49-5.57,5.71,.25,6.41,.02,12.83,0,19.25-4.2,.64-7.35,2.67-9,6.72-2.82,.07-5.68,.48-8.44,.14-4.75-.58-5.8,1.4-5.74,5.84,.17,13.1-.13,26.21-.25,39.31-.4,.25-1.05,.42-1.15,.75-.26,.86,.48,1.06,1.14,1.21,1.15,6.82-1.03,13.57-.45,20.39,.23,2.68-1.74,2.76-3.69,2.75-6.33-.02-12.67,.26-18.98-.1-4.37-.25-5.71,1.04-5.63,5.53,.21,13.14-.1,26.29-.2,39.44-.85,.14-2.12-.22-2.2,1.08-.08,1.34,1.07,1.71,2.19,1.92,.4,2.01,.4,4.01,0,6.02-1.16,.2-2.25,.63-2.26,1.98,0,1.36,1.08,1.79,2.24,2,.97,4.01-.44,7.92-.44,11.89,0,33.93-.24,67.86,.67,101.78,.1,3.67,1.46,4.45,4.72,4.4,6.48-.1,12.97,.13,19.46,.23-.12,2.65,1.19,3.83,3.79,3.69l-.04,7.99c-2.08-.14-4.16-.28-6.49-.43,.54,2.58,3.76,4.01,2.66,6.78-1.56,3.94,.81,4.96,3.84,5.65,.14,2.96,.29,5.91,.43,8.87-.65,.52-1.4,1.27-.28,1.79,1.47,.68,1.95-.44,2.1-1.7l9-.02c.11,1.1-.29,2.62,1.31,2.82,1.93,.24,2.54-1.17,2.69-2.82,1.67,0,3.33,0,5,0-.33,3.01,1.61,3.2,3.81,3.06,.06,17.34,.51,34.68-.28,52.01-1.99,.73-1.9,1.78-.45,3.02-.02,3.32-.03,6.64-.05,9.95-1.04,.07-2.31,.32-2.48,1.31-.53,3.01-1.04,5.7-4.85,6.34-.93,.16-.59,1.73,.59,2.16,1.55,.57,4.37-.36,4.18,2.29-.21,2.78-3.24,1.41-4.88,2.2-.89,.43-1.81,.84-2.58,1.44-1.02,.8-1.13,2-.82,3.18,.27,1.03,1.09,2.13,2.06,1.65,3.76-1.86,6.08,.85,8.79,2.42,0,8.66,0,17.33,0,25.99-1.17,.25-2.65-.59-3.5,1,.85,1.59,2.33,.75,3.5,1,0,2.67,0,5.33,.01,8-2.12,1.95-3.95,12.6-2.34,14.45,.43,.49,1.54,.38,2.34,.55,.01,13.96-.05,27.92,.1,41.88,.04,3.28-1.04,4.4-4.29,4.27-5.14-.2-10.31,.11-15.45-.09-3.18-.13-4.36,.83-4.37,4.19-.01,5.65,.46,11.26,.91,16.87,.24,2.98-.78,4.46-3.94,3.88-.43-1.8,1.22-4.78-2.23-4.9-3.11-.11-5.89,.84-5.77,4.87-1,0-2,0-3,0-.08-1.22-.42-2.47-1.76-2.61-1.72-.18-2.09,1.21-2.24,2.61q-8.08,.21-8.08,8.41c0,1.66,0,3.33,0,4.99q0,11.52-11.86,11.52c-24.95,0-49.9,.08-74.85-.08-3.9-.02-5.33,1.01-5.09,5.03,.32,5.47-.02,10.98,.12,16.46,.07,2.8-.97,3.84-3.77,3.78-7.15-.14-14.3-.08-21.45-.1-.94-2.23-1.88-4.47-2.83-6.7-.24,.06-.47,.12-.71,.18-.16,2.17-.31,4.35-.47,6.52-2,0-4,0-6,.01,1.62-2.4,3.62-3.97-1.06-6.29-3.84-1.9-8.87-4.55-8.9-10.44-.02-2.84-.94-4.87-4.03-5.3,.62-4.75-1.85-6-6.04-5.4-.62,.09-1.29-.2-1.93-.31,.53-3.43-1.01-5.86-3.3-8.32-1.78-1.91-2.6-1.74-3.33,.42-1.15,3.42-2.3,2.52-3.64,.16-1.84-3.24-7.02-3.53-7.29-8.22,0-.15-1.21-.23-1.86-.34,0-.99-.01-1.98-.02-2.97,2.21,.02,3.07-1.08,3.49-3.27,.67-3.53-1.63-5.41-3.49-7.62v-1.1c1.78-.33,3.56-.94,5.34-.92,2.93,.03,4.19-1.59,4.88-4.03,.25-.87-.05-1.66-.72-2.25-.54-.47-1.37-.67-1.75-.02-2.04,3.52-4.19,1.05-6.31,.21,0-.33,0-.67,0-1,1.5-1.35,.46-1.73-.77-2.03-.26-.17-.54-.19-.83-.08,.76-4.53-1.41-5.58-5.55-5.21-4.11,.37-8.32,.48-12.4,0-4.71-.55-5.39,1.41-5.31,5.54,.22,10.25-.07,20.51-.15,30.77-5.09,2.34-2.15,6.97-3,10.52-6.94,.18-13.88,.51-20.82,.45-2.89-.02-3.65,.93-3.61,3.69,.1,7.78-.06,15.56-.11,23.33-3.81,0-7.63-.01-11.44-.02-.85-3.77-4.49-1.19-6.52-2.92-5.06-4.29-6.25-3.73-8.47,2.92-6,0-12,0-18,0-.26-.51-.43-1.39-.79-1.47-1.07-.23-1.07,.75-1.21,1.47h-4c-.06-1.27,.1-2.82-1.71-2.86-1.99-.05-3.86,.43-4.28,2.87-3.15,.11-6.3,.23-9.46,.34-.25,.03-.44-.06-.59-.26-.03-8.24-.06-16.48-.09-24.71,.94-4.35-3.11-9.98-7.96-10.35,3.89-3.32,2.79-8.35,5.1-12.1,2.12-.1,4.24-.22,6.37-.3,8.51-.34,17.04,.56,25.53-.59,4.97-2.17,7.76-7.76,5.79-12.34-1.16-2.7-1.76-5.05-.92-8.08,.92-3.36,0-6.41-4.46-6.58,.06-18.99,.12-37.98,.19-56.98,1.53-.05,3.77-.62,3.04-2.11-1.57-3.2,1.82-7.87-3.04-9.91-.39-3.66-.42-7.32,.04-10.98,4.79-.67,2.75-4.78,3.75-7.37,.69-1.79,.47-3.7-1.18-4.2-2.53-.77-2.57,1.72-3.06,3.36-2.01-.1-4.03-.2-6.04-.29,.37-4.02,3.93-6.3,5.58-9.89-2.9-1.45-5.49,1.17-8.32,.11-2.53-.95-6.31-2.03-3.55,3.34,.59,1.14-.56,1.73-1.38,2.31-1.42,1-2.51,2.21-2.36,4.11-3.27,.18-6.53,.36-9.8,.54-8.26-.28-16.51-.57-24.77-.85,.04-19.05,.08-38.09,.12-57.14,1.52,.01,2.43-.53,2.48-2.26,.05-1.8-.54-2.83-2.47-2.76-.43-11.66-.46-23.31,0-34.97,1.56-.07,3.39,.29,3.45-2.16,5.11-.11,10.23-.47,15.33-.24,3.75,.17,5.17-.7,5.01-4.81-.3-7.91,.05-15.85,.13-23.78,3.67,.2,7.31,.73,9.87,3.65,6.54,7.46,8.25-6.19,14.02-3.17,1.11,.58,1.61-2.05,1.62-3.55l1.04-1.93c2.22-.34,4.21-1.61,3.65-3.8-.56-2.22,.31-5.79-3.64-6.2,0-1.33,0-2.67,0-4,2.77-1.33,2.77-2.66,0-4,0-2.33,.02-4.67,.03-7,1.72-.02,1.92-1.24,2.01-2.55,.05-.18,0-.34-.12-.49,10.3,.09,20.6,.12,30.89,.31,2.63,.05,2.91-1.23,2.91-3.36,0-8.3,.14-16.61,.22-24.91,1.36-.06,1.98-.81,1.99-2.13l7,.14c.07,1.3-.1,2.78,1.81,2.9,2.01,.12,3.03-.93,3.19-2.89,7.29-.08,14.57-.25,21.86-.24,22.71,.04,45.41,.15,68.12,.23,.16,1.64,.8,2.99,2.69,2.76,1.58-.19,1.2-1.68,1.31-2.76,1.33,0,2.67,0,4,0,.07,1.35-.34,2.49-1.07,3.68-1.54,2.51,1.44,3.38,2.07,2.86,2.66-2.18,6.96-2.44,8-6.54,1.67,0,3.33,0,5,0,2.19,4.09,4.07,4.09,7,0h19c.13,1.06,.55,1.83,1.75,1.91,1.37,.09,2.12-.53,2.24-1.91,1.26-.53,2.85,.18,3.93-1.02,3.22,.07,5.08-1.43,5.03-4.72-.05-2.68,.17-4.88,3.41-5.67,1.38-.34,2.35-2.26,.95-3.05-2.98-1.7-4.94-5.68-9.3-4.56,0-3,0-6,0-9,2.16-.32,3.96-1.41,3.68-3.69-.24-1.98-2.35-1.08-3.68-1.31,0-6,0-12,0-18,5.96-5.27,6.43-13.01,6.41-19.66-.02-6.1-.29-11.51,3.51-16.49,3.78-.11,7.55-.29,11.33-.31,9.36-.04,9.35-.01,9.48-9.58,.01-.98,.16-1.96,.24-2.94,.8-.13,1.67-.24,1.8-1.26,.17-1.33-.78-1.59-1.8-1.74-.43-23-.42-45.99,0-68.99,.51-.26,1.39-.43,1.47-.79,.23-1.07-.75-1.07-1.47-1.21,0-2.67,0-5.33-.01-8,3.09,.17,5.63-.45,6.02-4.18,6.61-.11,13.21-.32,19.82-.29,2.47,.01,3.51-.54,3.46-3.28-.19-12.24-.17-24.49-.23-36.73v-.02c.13-5.18,.27-10.35,.4-15.53Zm-90.27,435.04c-3.52,.82-3.83,3.82-4.12,6.54-.4,3.72,.12,7.54,.41,11.19,.2,2.54-1.54,7.2,3.45,8.2v2c-1.87,0-3.82,.21-3.74,2.62,.08,2.11,1.25,3.62,3.74,3.38,.4,3,.42,6,0,9-.33,0-.7,.1-.99-.02-3.39-1.38-5.58,.25-7.24,2.96-1.84,2.98,1.14,4.03,2.46,5.69,.83,1.04,1.9,1.94,1.8,3.41-.19,3.03,1.82,3.04,3.94,2.96,0,16.76,.14,33.53-.09,50.29-.06,4.17,.66,5.74,5.32,5.59,10.61-.33,21.24,.05,31.86,.14,1.34,2.8,2.67,2.8,4,0,5.8-.09,11.61-.35,17.41-.19,3.03,.08,4.37-.75,3.89-3.88-.2-1.3-.2-2.63-.29-3.95,.09-5.12,.37-10.24,.2-15.35-.1-3.02,.72-4.35,3.84-3.89,1.3,.19,2.63,.18,3.94,.26,.29,2.06,1.86,3.07,3.49,2.54,2.93-.96,4.65,.05,6.98,1.83,3.38,2.59,7.54,.17,8.53-4.37,2.04-1.23,1.17-3.24,1.21-4.91,.18-8.03,.23-16.06,.33-24.09,3.67-1.84,7.02-3.74,3.48-8.59-1.3-1.78-.42-3.75,.15-5.63,1.01-3.33,0-5.4-3.65-5.8-.39-1.99-.41-3.99,.02-5.98,1.62-.01,3.15-.38,3.28-2.28,.16-2.22-1.46-2.71-3.3-2.75-.74-1.53-2.16-1.23-3.43-1.23-8.69,.02-17.38,.05-26.06,.08l.06-.46-.37-.27c.02-7.32-.01-14.65,.08-21.97,.03-2.1-.19-3.43-2.87-3.4-18.3,.16-36.61,.2-54.91,.28-.94,.02-1.87,.05-2.81,.07Zm-124.84,115.73c6.93-3.24,7.4-3.49,4.44-9.07-2.15-4.05-4.04,2.24-6.67,1.12-.03-.66-.02-1.32-.11-1.97-.16-1.24,.57-2.89-1.04-3.53-1.73-.69-2.04,1.29-3.02,2.03-3.77,2.83-.85,7.28-2.46,10.68-.08,.17,1.1,1.11,1.81,1.44,1.12,.53,1.93-.13,2.39-1.11,.5-1.05,.79-2.19,1.29-3.23,.5-1.05,1.12-2.26,2.59-1.67,1.4,.56,1.23,1.72,.81,2.94-.19,.56-.03,1.23-.03,2.38Zm-11.72-80.6c.45,.94,1.38,.82,2.14,.73,3.57-.43,7.95-3.28,8.93,3.39,.12,.81,1.73,.82,2.61,.15,.79-.6,.59-1.44,.2-2.23-4.06-8.39-7.45-9.01-13.9-2.52-.07,.07,0,.3,.02,.48Zm18.17,42.51c.22-4.02-1.67-6.66-4.26-6.73-2.48-.07-4.1,1.44-3.83,3.52,.3,2.27,1,5.16,4.18,5.35,1.81,.11,3.63-.44,3.9-2.15Zm-37.98-41.55c-.7-.02-6.76,6.88-6.62,7.53,.39,1.77,1.5,2.97,3.31,3.14,1.74,.16,5.54-5.1,5.5-7.41-.02-1.61-.45-2.92-2.2-3.26Zm-2.3,19.7c1.54,.04,10.08-7.91,10.11-9.54,.01-.56-.33-1.26-.74-1.67-.53-.53-1.39-.38-1.68,.26-1.61,3.64-4.96,4.41-8.3,5.48-1.37,.44-2.03,2.17-1.61,3.79,.27,1.03,1.11,1.6,2.21,1.67Zm13.13-30.2c.23-1.73-.82-2.27-1.88-2.77-.86-.41-1.98-1.17-2.49,.18-.48,1.28-1.71,2.68-.41,4.14,1.44,1.62,2.79,3.26,3.13,5.5,.2,1.31,.28,2.98,2.06,2.76,1.43-.18,1.57-1.93,2.22-3.03,.75-1.29,.38-2.25-.97-2.74-2.25-.82-4.37-1.6-1.66-4.03Zm-56.13-32.01c.59-.55,1.49-1.09,1.97-1.89,.85-1.39,.79-2.91-.48-4.08-.97-.89-2.06-1.66-3.17-2.36-1.06-.68-1.99-3.11-3.39-1.19-.9,1.23-1.28,3.87,1.03,4.6,2,.64,2.66,1.63,2.63,3.51-.01,.72,.4,1.22,1.41,1.41Zm20.48-29.58c-.14-1.53-.65-3.03-2.24-2.64-2.09,.51-2,2.8-2.32,4.44-.26,1.33,.98,2.17,2.2,1.9,1.91-.42,2.11-2.21,2.37-3.71Zm84.95,72.12c-.09-1.53-.74-2.34-1.88-1.95-1.91,.65-3.42,1.98-3.83,4.03-.25,1.23,.82,1.92,1.83,1.45,1.69-.79,3.65-1.51,3.88-3.52Zm17.89-36.21c.12-1.88-1.28-2.44-2.5-2.61-1.67-.22-2.22,1.11-2.26,2.57-.03,1.24,.35,2.5,1.7,2.62,1.75,.16,2.5-1.25,3.06-2.59Zm-55.12,71.32c2.14,2.12,1.15,5.35,3.95,6,1.04,.24,1.38-1.64,1.32-2.83-.14-2.94-2.04-3.27-5.27-3.17Zm21.56-61.07c-1.28-.13-2.25,.36-1.97,1.24,.88,2.78,3.81,1.02,5.56,2.21,.85,.58,2.31-.21,1.81-1.39-1.06-2.49-4.07-.57-5.39-2.06Zm-60.4-130.11c-.43-1.13-.63-2.74-2.18-2.83-2.13-.13-1.97,2.02-2.21,3.22-.33,1.65,1.3,2.15,2.59,2.13,1.36-.02,1.83-1.15,1.79-2.52Zm28.28,185.04c-1.85,.4-2.45,2.02-2.77,3.63-.23,1.12,.68,1.95,1.77,1.97,2.45,.04,1.97-2.3,2.58-3.64,.47-1.03-.09-1.95-1.58-1.96Zm49.12-45.39c1.03-.62,2.35-1.35,2.52-3.01,.13-1.28-.74-1.81-1.87-1.51-1.43,.38-2.87,.94-2.82,2.85,.03,1.18,.6,1.82,2.17,1.68Zm-25.57,10.89c-.59-1.26-.78-3.08-2.53-3.19-1.29-.08-1.14,1.32-1.13,2.25,.02,1.36,.26,2.74,1.94,2.87,1.15,.09,1.68-.77,1.71-1.94Zm239.2,3.98c1.18-3.04,2.81-4.74,1.42-6.96-.12-.19-1.04-.17-1.26,.06-1.68,1.76-1.31,3.69-.16,6.89Zm-243.7-79.41c-.89,.19-1.85,.55-1.84,1.74,.02,1.44,1.16,1.88,2.38,1.95,1.03,.06,2.09-.17,2.03-1.5-.06-1.44-1.4-1.63-2.57-2.19Zm-70.07-5.27c-1.18-2.43-.53-4.73-2.97-5.46-.22-.07-.89,.5-.95,.84-.39,2.31,.69,3.68,3.91,4.62Zm50.81,198.29c-.04-.82-.03-1.91-1.11-1.82-1.43,.12-2.29,1.24-2.62,2.6-.23,.94,.24,1.7,1.23,1.73,1.62,.04,2.31-1.01,2.5-2.51Zm107.02-203.64c3.05-2.1,4.07-3.85,4.82-6.56-3.16,1-4.01,2.9-4.82,6.56ZM412.03,100.73c-.19-1.03-.97-1.79-2.25-1.79-.91,0-1.47,.62-1.35,1.59,.16,1.3,1,2.04,2.27,2.05,.91,0,1.44-.6,1.32-1.84Zm-47.73,120.81c1.17,.09,1.75-.41,1.77-1.32,.03-1.05-.51-1.91-1.57-2.08-1.11-.17-1.86,.5-1.87,1.62,0,1.13,.83,1.62,1.66,1.78Zm-11.7-50.35c-.34,.44-1.02,.92-1.02,1.39,0,1.48,1.09,2.34,2.35,2.78,.7,.24,1.23-.45,1.18-1.16-.09-1.45-1.01-2.33-2.51-3.01ZM137.88,708.2c-.43-.88-1.14-1.51-2.25-1.39-1.04,.11-2.04,.62-1.84,1.8,.22,1.31,1.48,.97,2.4,.99,.86,.02,1.62-.22,1.68-1.4Zm-76.27-157.62c-.27,3.19,.89,4.25,3.72,4.98-.79-2.26-1.59-3.6-3.72-4.98Zm95.07,106.04c.79-.25,2.08-.3,2.15-1.84,.04-.87-.74-1.08-1.38-.93-1.07,.25-2.41,.41-2.55,1.83-.08,.85,.81,.84,1.78,.94ZM428.07,96.37c-.08-.96-.58-1.51-1.57-1.36-1.03,.16-1.19,1-1.16,1.84,.03,.87,.32,1.68,1.43,1.38,.87-.24,1.23-.99,1.3-1.86Zm-139.33,428.85c-.68-.35-1.45-.95-2.31-1.12-.83-.17-1.03,.66-.92,1.33,.17,1.01,1.01,1.19,1.86,1.15,.64-.03,1.32-.15,1.37-1.36Zm-82.46,212.92c-.85,.12-.89,.81-.92,1.45-.04,.89,.24,1.72,1.23,1.82,.98,.1,1.58-.44,1.21-1.5-.26-.75-.52-1.56-1.52-1.77Zm-50.73-59.25c-.79,.12-1.06,.69-1.04,1.38,.03,.77,.59,1.21,1.27,1.17,.94-.05,1.46-.64,1.23-1.64-.17-.75-.74-.99-1.46-.91Zm-41.49-81.91c-.09-.8-.66-1.1-1.34-1.09-.74,0-1.23,.52-1.21,1.23,.02,.95,.58,1.48,1.58,1.29,.77-.14,1-.71,.97-1.43Zm-20.07-13.77c1.54-.15,1.75-1.32,1.9-2.44,.02-.14-.92-.6-.99-.53-.75,.81-1.73,1.62-.91,2.97Zm-52.45-9.99c1.05,.1,1.58-.15,1.58-.97,0-.69-.28-1.29-1.06-1.36-.66-.06-1.43,.07-1.31,.94,.07,.54,.57,1.03,.79,1.39Zm145.31,147.6c-.68,.06-1.29,.28-1.36,1.07-.06,.66,.07,1.45,.92,1.31,.52-.08,1.16-.61,1.37-1.1,.29-.65-.11-1.22-.94-1.28Zm5.97,3.05c-.35-.22-.84-.72-1.38-.8-.87-.12-1,.64-.95,1.31,.06,.78,.65,1.07,1.35,1.07,.82,0,1.08-.53,.98-1.58Zm-100.5-39.35c-.21-.31-.43-1.09-.86-1.23-.89-.29-1.07,.61-1.02,1.19,.04,.55,.34,1.39,.73,1.53,.9,.31,.9-.6,1.15-1.5Zm-32.54-135.85c-.11-.88-.79-.91-1.43-.91-.64,0-1.41,.04-1.41,.9,0,.88,.77,.9,1.41,.91,.64,0,1.31-.04,1.44-.9Zm105.25,113.17c-.66,.02-1.45,.1-1.3,.96,.09,.52,.62,1.16,1.11,1.37,.66,.28,1.25-.13,1.25-.95,0-.69-.28-1.24-1.06-1.38Zm130.04-130.91c-.12-.78-.67-1.06-1.36-1.07-.82,0-1.23,.58-.96,1.24,.2,.49,.83,1.02,1.35,1.12,.85,.16,.94-.62,.97-1.28Zm76.36,120.65c.59-.16,1.46-.13,1.25-1.07-.16-.73-.9-.85-1.55-.77-.61,.08-1.46,.11-1.26,1.05,.16,.74,.9,.79,1.56,.79Zm-254.55-7.39c-.11,1.25,.64,1.38,1.23,1.33,.55-.05,1.4-.34,1.53-.72,.31-.88-.59-1.03-1.19-1.03-.56,0-1.11,.29-1.57,.42Zm-13.57,2.42c-.57-.62-.89-1.2-1.37-1.44-.62-.31-1.37-.12-1.18,.76,.11,.51,.69,.99,1.18,1.3,.19,.12,.71-.3,1.37-.62Zm7.6,29.63c.11-.91-.27-1.33-.74-1.18-.53,.17-1.16,.59-1.38,1.07-.31,.67,.17,1.3,.92,1.09,.52-.14,.92-.74,1.2-.98Zm47.36-41.77c.37-.52,.78-.85,.8-1.18,.01-.38-.26-1.03-.54-1.11-.79-.22-1.1,.41-1.04,1.06,.03,.36,.42,.68,.78,1.23ZM474.59,41.76c-.34,.38-.84,.69-.82,.98,.02,.3,.5,.76,.83,.81,.62,.09,1.32-.15,1.11-.98-.08-.31-.65-.49-1.11-.81ZM123.28,655.48c.37-.52,.78-.85,.8-1.18,.01-.38-.26-1.03-.54-1.11-.79-.22-1.1,.41-1.04,1.06,.03,.36,.42,.68,.78,1.23Zm35.8-26.74c-.49-.39-.79-.82-1.12-.84-.39-.03-1.06,.2-1.15,.47-.24,.74,.32,1.14,1,1.1,.36-.02,.71-.39,1.27-.73Zm221.17-11.73c-.38-.34-.69-.83-.98-.82-.29,.01-.76,.5-.81,.83-.09,.62,.15,1.32,.98,1.11,.31-.08,.49-.65,.81-1.11Zm-228.98-24.58c-.27-.52-.39-1.15-.68-1.24-.74-.23-1.15,.33-1.1,1,.03,.34,.42,.85,.74,.92,.26,.06,.64-.4,1.05-.68Zm-25.25,24.62c-.12,.27-.39,.61-.32,.81,.08,.2,.51,.26,.78,.38,.12-.27,.39-.61,.32-.8-.08-.2-.5-.26-.78-.38Zm242.84-58.1c-.11-.28-.15-.71-.35-.79-.19-.09-.54,.17-.82,.28,.11,.28,.15,.71,.35,.79,.19,.09,.54-.17,.82-.28Zm-260.96-3.54c-.27-.12-.61-.39-.81-.31-.2,.08-.26,.51-.38,.78,.27,.12,.61,.39,.8,.32,.2-.08,.26-.5,.38-.78Zm26.01,69.01c-.27-.12-.61-.39-.81-.31-.2,.08-.25,.5-.37,.78,.27,.12,.61,.39,.8,.31,.2-.08,.26-.5,.38-.78Zm227.94-94c-.27-.12-.61-.39-.81-.32-.2,.08-.26,.51-.38,.78,.27,.12,.61,.39,.8,.32,.2-.08,.26-.5,.38-.78Zm-220.84,101.64c-.12,.27-.39,.61-.32,.81,.08,.2,.5,.26,.78,.38,.12-.27,.39-.61,.32-.8-.08-.2-.5-.26-.78-.38Zm-20.48-101.74c.12-.27,.39-.61,.31-.81-.08-.2-.5-.25-.78-.37-.12,.27-.39,.61-.31,.8,.08,.2,.5,.26,.78,.38Zm182.11-18.36c.27,.12,.61,.39,.81,.32,.2-.08,.26-.5,.38-.78-.27-.12-.61-.39-.8-.32-.2,.08-.26,.5-.38,.78Zm-188.97,249.95c.27,.12,.61,.39,.81,.32,.2-.08,.26-.51,.38-.78-.27-.12-.61-.39-.8-.32-.2,.08-.26,.5-.38,.78Zm248.18-254.49c-.27-.12-.61-.39-.81-.32-.2,.08-.26,.51-.38,.78,.27,.12,.61,.39,.8,.32,.2-.08,.26-.5,.38-.78Zm-170.33,197.86c.12-.27,.39-.61,.31-.81-.08-.2-.5-.25-.78-.37-.12,.27-.39,.61-.31,.8,.08,.2,.5,.26,.78,.38Zm-67.63-12.9c-.27-.12-.61-.39-.81-.32-.2,.08-.26,.51-.38,.78,.27,.12,.61,.39,.8,.32,.2-.08,.26-.5,.38-.78Zm22-276.95c-.27-.12-.61-.39-.81-.32-.2,.08-.26,.5-.38,.78,.27,.12,.61,.39,.8,.32,.2-.08,.26-.5,.38-.78ZM424.82,114.48l-.82-.36c-.12,.27-.39,.61-.31,.81,.08,.2,.5,.25,.78,.37,.12-.27,.24-.55,.35-.82Z"/><path class="cls-10" d="M701.16,842.19l.16,.02c-29.34-.02-58.69-.04-88.03-.06-1.43-8.55-1.18-17.19-1.05-25.8,.05-3.28-1.48-3.83-4.26-3.79-9.31,.13-18.62,.09-27.93,.11l-.03-21.76c.05-6.64-.08-13.29,.22-19.92,.17-3.69-1.37-4.44-4.67-4.39-8.63,.13-17.27-.04-25.91-.09-.3-15.98-.43-31.95,.08-47.93,8.49-.01,16.99,.21,25.46-.13,4.37-.18,5.43,1.49,5.15,5.46-.3,4.31,.06,8.66-.1,12.98-.11,2.85,.99,3.77,3.78,3.71,7.32-.14,14.66,.2,21.97-.15,4.31-.2,5.42,1.37,5.2,5.41-.31,5.81,.06,11.65-.13,17.48-.1,3.15,.8,4.39,4.18,4.38,26.97-.1,53.94-.09,80.91,.04,3.41,.02,4.27-1.28,4.16-4.41-.19-5.32,.2-10.67-.14-15.98-.28-4.41,.84-6.36,5.69-5.94,5.12,.44,10.34-.19,15.47,.19,4.79,.36,5.85-1.57,5.84-6.03-.09-44.45,.02-88.9,.07-133.35,.05-43.95,.1-87.9,.15-131.85,7.89,1.04,15.81,.27,23.72,.41,.07,9.6,.25,19.19,.14,28.78-.03,3.05,.93,3.95,3.96,3.96,6.6,.02,13.22-.63,19.8,.39-.04,.83-.12,1.66-.11,2.49,.01,78.04,.03,156.07,.05,234.11-6.63,.07-13.26,.38-19.88,.1-3.89-.16-4.71,1.23-4.63,4.82,.18,7.45-.12,14.91-.22,22.36-6.46,0-12.92,.16-19.37-.06-3.29-.11-4.25,1-4.22,4.24,.1,13.58-.04,27.16-.1,40.74-6.96,.88-13.95,.35-20.92,.3-3.14-.02-4.36,.82-4.29,4.23,.17,8.3-.1,16.61-.19,24.91Z"/><path class="cls-3" d="M247.27,912.12c-4.99,.4-9.99,.4-14.98-.03-.46-3.92-5.32-6.16-4.77-9.97,.94-6.43-2.24-12.54-.71-18.95,.51-2.15-.76-4.18-3.43-4.55-.24-2.3-2.01-1.72-3.38-1.73-5.82-.03-11.65,.14-17.46-.08-2.96-.11-3.63,.98-3.59,3.72,.15,9.48-.04,18.96,.14,28.44,.06,3.02-.77,4.09-3.88,3.96-6.64-.28-13.29-.21-19.93-.29-.13-2.6-1.84-3.13-4.01-3.03,0-4-.01-8-.02-12,1.2-.07,2.55-.41,2.59-1.7,.05-1.69-1.57-1.14-2.59-1.3l.02-4c1.49-.03,3.42,.1,3.56-1.76,.18-2.36-1.95-2.14-3.57-2.24-.3-15.02-.47-30.03,.07-45.04l-.08,.09c23.88,.06,47.76,.02,71.64,.27,4.18,.04,5.23-1.22,5.24-5.29,.03-7.91-.95-15.88,.61-23.76,29.84-.04,59.68-.09,89.52-.13,.39,.27,.78,.54,1.18,.81,.01,8.14,.08,16.27,0,24.41-.02,2.49,.26,4.11,3.41,4.01,7.13-.25,14.26-.23,21.4-.32,5.97,.1,11.95,.27,17.92,.3,30.09,.14,60.18,.17,90.27,.46,4.25,.04,5.31-1.3,5.15-5.35-.27-6.79,.08-13.61,.16-20.42,1.87,.04,3.71,.03,4.52-2.15,12.85-.49,25.7-.46,38.55-.07,.62,.06,1.23,.13,1.85,.19,.02,7.99-.05,15.98,.12,23.97,.06,2.68-.89,3.41-3.45,3.34-5.82-.16-11.66,.04-17.48-.1-2.18-.05-3.54,.41-3.62,2.8-1.06,.13-1.86,.53-1.94,1.76-.09,1.39,.56,2.13,1.94,2.24,0,1,0,2,0,3-1.06,.13-1.86,.53-1.94,1.76-.09,1.4,.56,2.13,1.94,2.24,.08,6.29,.22,12.59,.21,18.88,0,2.15,.38,3.4,2.97,3.36,15.91-.2,31.82-.28,47.74-.41,6.35,.07,12.7,.14,19.05,.21,2,3,4,3,6,0l6.95-.39c9.01,.25,18.02,.5,27.03,.75-.04,1.42,.26,2.57,2.02,2.59,.09,9.47,.03,18.95,.33,28.41,.13,4.06-2.51,3.06-4.62,3.06-30.1,.05-60.21,.06-90.31,.07-11.14,0-22.29-.22-33.43,.08-4.11,.11-4.93-1.31-4.82-5.06,.26-8.81-.03-17.63,.15-26.44,.06-3.02-.74-3.98-3.87-3.95-11.13,.11-22.27-.11-33.41-.21-2.69-2.81-7.27-2.82-10-.02-20.11-.05-40.23-.02-60.34-.25-3.73-.04-5.14,.67-4.99,4.77,.34,9.3-.01,18.62,.17,27.93,.06,3.03-.8,4.03-3.9,3.95-7.31-.2-14.63-.05-21.95-.04-.07-21.62-.24-43.24-.11-64.86,.02-4.03-1.24-5.06-5.08-4.96-8.64,.22-17.29-.08-25.94-.04-9.62,.05-19.25,.24-28.87,.37-9.08-1-18.2-.37-27.3-.57-2.5-.05-3.05,1.14-3.03,3.34,.13,10.11,.16,20.21,.22,30.32-1.14,1.66-.56,3.54-.58,5.31-.12,9.59-.15,19.18-.22,28.77-.73,.24-1.02,.79-1.06,1.52Z"/><path class="cls-4" d="M774.98,740.55c-.02-78.04-.03-156.07-.05-234.11,0-.83,.07-1.66,.11-2.49l1.34-1.36,36.8,.12c5.66,1.56,11.32,1.56,16.97,0h13.02c1.66,1.42,3.32,1.42,4.97,0,7.34,0,14.68,0,22.02,.01,1.05,1.38,2.57,.83,3.92,.96,.11,8.31,.28,16.62,.31,24.93,.05,14.66,.18,29.33-.09,43.98-.07,4.09,1.2,5.08,5.05,4.9,6.48-.3,13,.13,19.49-.15,3.45-.15,4.15,1.1,4.13,4.27-.11,24.32-.12,48.65,0,72.98,.02,3.15-.95,3.9-3.97,3.91-8.31,0-16.63-.58-24.93,.28-1.91-1.54-1.11-3.68-1.12-5.56-.13-16.87-.17-33.73-.24-50.6,.05-7.16-.06-14.32,.23-21.47,.13-3.35-1.33-3.85-4.16-3.75-4.99,.18-10.01-.17-14.99,.12-3.51,.2-4.54-.92-4.47-4.45,.21-11.66,0-23.32,.12-34.98,.03-2.71-.59-3.75-3.53-3.71-11.99,.16-23.99,.12-35.98,.04-2.42-.02-3.57,.44-3.56,3.26,.15,30.65,.18,61.3,.25,91.95-.07,8.95-.06,17.89-.24,26.84-.05,2.55,.73,3.47,3.37,3.46,21.39-.12,42.78-.12,64.17-.16,.04,9.16-.09,18.33,.19,27.49,.11,3.64-.78,4.81-4.64,4.77-19.49-.22-38.99,0-58.48-.2-3.79-.04-4.75,1-4.69,4.72,.23,13.49-.02,26.99,.18,40.48,.05,3.44-.82,4.57-4.39,4.47-8.66-.24-17.32-.05-25.99-.03-.38-.3-.76-.6-1.14-.9Z"/><path class="cls-4" d="M82.21,718.64c-8.49,1.15-17.02,.26-25.53,.59-2.12,.08-4.24,.2-6.37,.3-4.96-.11-9.92-.18-14.88-.36-2.15-.08-2.93,.78-2.88,2.91,.15,6.79,.18,13.58,.26,20.37-.1,7.15-.13,14.31-.33,21.46-.07,2.52,1.1,3.11,3.32,3.05,5.82-.15,11.65-.19,17.47-.27,.15,.2,.34,.29,.59,.26,.17,7.88,.33,15.76,.5,23.64-.35,.86-.69,1.72-1.04,2.58-6.5-.02-13-.22-19.48,.03-3.2,.12-3.93-.99-3.82-3.97,.22-6.15-.09-12.33,.13-18.48,.11-3.06-.78-4.07-3.91-3.97-7.15,.22-14.34-.21-21.48,.19-4.17,.23-4.77-1.32-4.75-5.01,.25-46.29,.39-92.58,.48-138.87,.08-38.47,.16-76.95-.03-115.42-.02-4.59,1.31-5.6,5.56-5.36,6.48,.35,12.99-.12,19.48,.16,3.43,.14,4.19-1.09,4.1-4.27-.2-7.49,.17-15-.12-22.48-.15-3.87,.89-5.56,4.92-5.1,2.3,.26,4.64,.12,6.97,.16,2.33,1.38,4.64,1.44,6.94-.07,1.93-.05,3.87-.1,5.8-.14l1.33,1.34,.37,2.77c-.08,7.93-.43,15.87-.13,23.78,.16,4.11-1.27,4.98-5.01,4.81-5.1-.23-10.22,.13-15.33,.24-1.7-.15-4.05-1.35-3.45,2.16-.46,11.66-.44,23.31,0,34.97-.42,1.67-.42,3.35-.01,5.02-.04,19.05-.08,38.09-.12,57.14-.05,29.1-.08,58.2-.2,87.3-.01,2.75,1.19,3.36,3.62,3.32,5.65-.11,11.32-.24,16.96,.02,3.48,.16,4.51-.94,4.49-4.45-.14-28.45-.1-56.89-.11-85.34,3.27-.18,6.53-.36,9.8-.54,3.34,.43,6.68,.42,10.02,.02,2.01,.1,4.03,.2,6.04,.29l.49,8.22c-.46,3.66-.43,7.32-.04,10.98v12.02c-.07,18.99-.13,37.98-.19,56.98-.14,9-.27,18-.41,27Z"/><path class="cls-5" d="M222.28,411.71c-22.71-.08-45.41-.19-68.12-.23-7.29-.01-14.57,.15-21.86,.24h-5l-7-.15-.31-.09c-.15-1.81-.44-3.62-.44-5.42-.02-58.54,.03-117.07-.11-175.61-.01-4.22,.74-5.98,5.37-5.56,7.56,.69,15.22-.64,22.78,.75l.16,.09c.11,1.82,.31,3.63,.31,5.45,.01,49.26,.06,98.53-.1,147.79-.01,3.93,1.16,4.76,4.76,4.58,6.47-.32,12.97-.19,19.45-.25,24.43,.06,48.87,.07,73.3,.24,3.9,.03,3.19-2.44,3.19-4.66,.04-16.96,.13-33.92,0-50.88-.02-3.33,.69-4.7,4.35-4.57,8.93,.33,17.88,.25,26.81,.34l2.45,.46c-1.97,.14-4.33-.76-4.26,2.9,.23,11.2,.2,22.4,.27,33.61,0,6,0,12,0,18,0,1.67,0,3.33,0,5,0,3,0,6,0,9,0,.67,0,1.33,0,2,0,1,0,2,0,3l-.08,13c-1.09,1.21-2.67,.49-3.93,1.02-1.33,0-2.67,0-4,0h-19c-2.33,0-4.67,0-7,0-1.67,0-3.33,0-5,0-3,0-6,0-9,0-1.33,0-2.67,0-4,0-1.33,0-2.67,0-4,0Z"/><path class="cls-4" d="M523.22,29.73c7.48,.17,14.96,.55,22.43,.4,3.63-.07,4.38,1.2,4.37,4.56-.16,51.26-.25,102.53-.19,153.79,0,3.86-1.13,4.8-4.78,4.6-5.64-.31-11.33,.18-16.97-.17-4.03-.25-5.31,.74-5.27,5.06,.25,23.3,.02,46.6,.24,69.9,.04,4.17-1.08,5.48-5.22,5.2-5.3-.35-10.65,.02-15.97-.15-2.63-.09-3.48,.81-3.42,3.42,.16,5.99-.12,11.99,.11,17.97,.12,3.19-.66,4.51-4.1,4.24-3.97-.31-8,.16-11.97-.13-3.75-.28-5.4,.65-5.07,4.82,.39,4.96-.21,10,.18,14.96,.33,4.18-1.33,4.98-5.08,4.83-6.65-.27-13.31-.09-19.97,0-1.6,.02-3.34-.59-4.78,.68v.04c-.04-8.89-.1-17.79-.15-26.68,1.68-1.01,3.54-.69,5.34-.7,6.13-.03,12.28-.29,18.39,.06,4.28,.24,5.38-1.34,5.16-5.37-.33-5.95-.11-11.92-.13-17.89,5.47-.09,10.95-.44,16.4-.18,3.82,.19,4.67-1.12,4.64-4.77-.17-18.91-.01-37.82-.1-56.73-.02-5.61,.66-11.25-.36-16.85,1.13-1.85,2.97-1.12,4.52-1.16,4.99-.11,10.01-.47,14.95,.02,5.12,.5,6.18-1.28,6.15-6.22-.32-52.19-.38-104.39-.51-156.59,.38-.33,.76-.66,1.14-.99Z"/><path class="cls-3" d="M338.74,169.7c-.13,5.18-.27,10.35-.4,15.53-.11-.08-.24-.24-.32-.22-.44,.13-.44,.32,0,.46,.08,.02,.21-.14,.32-.22,.06,12.24,.04,24.49,.23,36.73,.04,2.74-.99,3.3-3.46,3.28-6.6-.04-13.21,.17-19.82,.29-1.96-.17-3.93-.33-5.89-.5-.07-.49-.13-.99-.2-1.48-.04-.5-.13-.99-.13-1.49-.01-62.67-.02-125.34-.01-188.02,0-1.47-.26-3.02,.78-4.31l-.06,.1c8.32,.05,16.64,.19,24.96,.11,2.58-.02,3.87,.34,3.86,3.44-.15,45.27-.18,90.53-.23,135.8-.12-.08-.28-.25-.36-.22-.46,.16-.45,.38,.02,.51,.09,.03,.24-.14,.36-.22l-.03,.38,.38,.04Z"/><path class="cls-4" d="M83.29,912.54c-8.46,.08-16.92,.08-25.38,.3-2.78,.07-3.73-.75-3.72-3.63,.08-31.53,.03-63.07,.02-94.6,9.73-.14,19.46-.28,29.2-.42,27.48,.04,54.96,.07,82.44,.11,1.82,0,3.67-.4,5.42,.45,0,8.97,0,17.94,0,26.9l.08-.09c-1.96,.16-3.92,.43-5.89,.45-15.71,.17-31.42,.29-47.12,.43-6.33-.4-12.65-.57-18.98,.06-3.81-.09-7.64,.03-11.43-.35-3.77-.38-4.62,.86-4.59,4.64,.17,21.91,0,43.83-.06,65.74Z"/><path class="cls-13" d="M279.24,843.44c9.62-.13,19.25-.33,28.87-.37,8.65-.04,17.3,.26,25.94,.04,3.84-.1,5.1,.93,5.08,4.96-.13,21.62,.04,43.24,.11,64.86,.22,.68-.05,.86-.68,.67-17.82-.09-35.64-.16-53.45-.31-1.94-.02-4,.55-5.84-.6-.04-9.78-.03-19.56-.17-29.33-.03-2.24,.79-4.65-.82-6.73-.08-11.07-.04-22.14,.97-33.19Z"/><path class="cls-13" d="M118.33,842.45c15.71-.14,31.42-.26,47.12-.43,1.96-.02,3.92-.3,5.89-.45-.54,15.01-.37,30.03-.07,45.04v4l-.02,4c0,1,0,2,0,3,0,4,.01,8,.02,12l-.52,3.07,.02,.39-.36,.15c-17.4,1.11-34.81,.78-52.22,.18l.05-36.7c.03-11.41,.05-22.83,.08-34.24Z"/><path class="cls-3" d="M478.34,411.74c.05-7.83,.28-15.66,.08-23.48-.09-3.68,.59-5.18,4.81-5.15,41.15,.25,82.3,.31,123.45,.28,3.1,0,3.98,.79,3.86,3.88-.31,8.14-.28,16.29-.38,24.44l.08-.08c-1.03,.79-2.23,.53-3.37,.52-41.74-.06-83.49-.13-125.23-.22-1.16,0-2.31-.21-3.47-.32l.17,.13Z"/><path class="cls-3" d="M610.16,411.71c23.92,.16,47.84,.34,71.76,.46,13.63,.07,27.26,.13,40.88-.02,3.2-.03,4.34,.75,4.25,4.15-.22,8.47,0,16.94,.03,25.42l.17-.11c-.66,.1-1.31,.3-1.97,.3-37.11,.02-74.22,0-111.32,.1-2.73,0-3.27-.98-3.3-3.47-.09-8.97,.5-17.95-.41-26.9l-.08,.08Z"/><path class="cls-3" d="M447.79,323.77v-.04c.06,18.58,.14,37.16,.2,55.74,.03,9.63,.05,19.25,0,28.88-.01,2.19-.03,3.73,3.01,3.65,9.11-.25,18.23-.2,27.35-.26l-.17-.13-.02,29.86c-8.95,.85-17.91,.79-26.87,.36-.73-1.88-.2-4.5-3.03-5.14-.08-6.95-.32-13.91-.17-20.86,.07-3.04-.77-4.01-3.88-3.93-7.95,.2-15.91,.05-23.87,.03l-.73-1.13c-.04-27.22-.05-54.43-.13-81.65-.01-3.8,2.11-5.56,5.44-5.61,7.62-.11,15.25,.13,22.87,.23Z"/><path class="cls-3" d="M613.29,842.16c29.34,.02,58.69,.04,88.03,.06,.04,9.98-.07,19.97,.2,29.95,.09,3.26-1.05,3.78-3.96,3.75-18.64-.22-37.28-.3-55.92-.34-10.14-.02-20.28,.16-30.42,.25-.07-9.97-.12-19.94-.22-29.92-.02-1.8,.17-3.33,2.3-3.75Z"/><path class="cls-7" d="M872.72,602.61c.07,16.87,.12,33.73,.24,50.6,.01,1.88-.78,4.03,1.12,5.56-.05,.33-.1,.65-.15,.98-21.39,.04-42.78,.04-64.17,.16-2.64,.01-3.42-.91-3.37-3.46,.18-8.94,.17-17.89,.24-26.84,12.48,.04,24.97,0,37.44,.19,3.35,.05,4.33-1.19,4.22-4.37-.19-5.49,.23-11-.11-16.47-.29-4.68,1.08-6.64,6.08-6.33,6.13,.37,12.31,.01,18.47-.03Z"/><path class="cls-4" d="M279.26,912.68c1.85,1.15,3.9,.58,5.84,.6,17.82,.15,35.64,.22,53.45,.31,.07,8.49,0,16.99,.27,25.48,.1,3.15-.91,3.87-3.93,3.86-27.32-.12-54.63-.12-81.95-.02-2.91,.01-4.16-.48-3.96-3.76,.53-8.78-.66-17.61,.65-26.38,9.88,.49,19.75,.67,29.63-.09Z"/><path class="cls-4" d="M118.2,913.4c17.41,.6,34.82,.93,52.22-.18,1.36,8.89,.36,17.84,.59,26.76,.09,3.44-2.78,2.19-4.44,2.18-18.6-.03-37.2-.2-55.8-.3-7.31-.04-14.63-.24-21.92,.1-4.03,.19-5.49-.73-5.3-5.07,.34-7.62-.03-15.27-.09-22.9,1.72-.89,3.58-.56,5.38-.57,9.78-.03,19.57-.02,29.35-.02Z"/><path class="cls-3" d="M309.41,3.81c.53,5.96,.53,11.93,.03,17.89-1.49,.82-3.09,1.03-4.78,1.11-3.74,.19-5.88,2-5.41,6.04-6.98,.28-13.97,.56-20.95,.84-2.14-.08-4.28-.23-6.42-.24-15.86-.08-31.73-.14-47.59-.21,0-2.48,.17-4.97-.04-7.43-.42-5.02,1.19-10.16-.94-15.06C222.83,0,222.83-.01,229.34,.03c1.97,.01,3.94,.16,5.91,.24-.06,2.41,1.53,2.53,3.35,2.52,10.96-.08,21.86,1.37,32.85,1.06,12.64-.35,25.31-.06,37.96-.04Z"/><path class="cls-3" d="M171.34,171.31c.08-23.65,.3-47.31,.13-70.96-.03-4.47,1.12-5.75,5.52-5.44,6.46,.45,12.97,.27,19.46,.35,.64,.73,1.49,.51,2.29,.49,.06,24.26,.1,48.52,.19,72.78,0,2.04-.52,3.04-2.8,2.99-8.3-.19-16.6-.25-24.9-.35l.09,.15Z"/><path class="cls-4" d="M496.04,29.49c-12.93-.3-25.85-.5-38.78,.1-3.23-1.07-6.76,.61-9.93-1.04,.05-8.15,.21-16.3,.08-24.44-.05-2.83,.77-3.68,3.63-3.66,22.79,.11,45.58,.11,68.37,.01,2.93-.01,3.69,1.05,3.65,3.78-.11,8.15,0,16.3,.03,24.45-.67,.21-1.34,.43-2.01,.64-8.35-.31-16.7-.76-25.04,.16Z"/><path class="cls-5" d="M391.25,117.75c-.07,16.62-.27,33.25-.11,49.87,.04,3.91-.94,5.2-4.95,4.98-5.63-.31-11.29,.07-16.93,.16l-3.79-.12c-.24-1.3-.48-2.6-.72-3.91-.01-22.4,.16-44.8-.18-67.19-.08-5.13,1.29-6.49,6.27-6.15,6.44,.44,12.93,.03,19.4,0,1.7,2.62,.12,5.65,1.02,8.37v12c0,.67,0,1.33,0,2Z"/><path class="cls-11" d="M613.29,842.16c-2.13,.41-2.32,1.95-2.3,3.75,.1,9.97,.15,19.94,.22,29.92,.08,.84-.22,1.46-1.02,1.79-.66,.14-1.33,.27-1.99,.41-9.01-.25-18.02-.5-27.03-.75-.06-11.98-.12-23.97-.18-35.95,.03-5.79,.2-11.58,.02-17.36-.11-3.56,1.02-7.28-1-10.68l-.18-.33,.24-.29c9.31-.02,18.62,.02,27.93-.11,2.78-.04,4.31,.51,4.26,3.79-.13,8.61-.38,17.24,1.05,25.8Z"/><path class="cls-2" d="M118.2,913.4c-9.78,0-19.57,0-29.35,.02-1.81,0-3.66-.32-5.38,.57-.06-.48-.12-.96-.18-1.44,.06-21.91,.23-43.83,.06-65.74-.03-3.78,.82-5.02,4.59-4.64,3.78,.38,7.61,.25,11.43,.35-.02,9.75,.1,19.51-.14,29.25-.09,3.6,.81,5.07,4.66,4.85,4.77-.28,9.58,.03,14.37,.08l-.05,36.7Z"/><path class="cls-14" d="M198.75,95.75c-.8,.02-1.65,.23-2.29-.49,.09-20.18,.3-40.37,.17-60.55-.03-4.2,.71-5.94,5.34-5.57,5.61,.45,11.28-.07,16.92,.13,3.14,.11,4.35-.74,4.24-4.11-.2-6.12,.09-12.26,.18-18.39,2.13,4.9,.52,10.05,.94,15.06,.21,2.46,.04,4.95,.04,7.43-2.14,1.22-1.17,3.29-1.18,4.95-.07,18.63-.1,37.25,.05,55.88,.03,3.18-.69,4.44-4.09,4.26-5.31-.27-10.64-.1-15.96-.05-1.56,.02-3.43-.63-4.35,1.44Z"/><path class="cls-14" d="M171.34,171.31l-.09-.15c-.06,16.6-.22,33.19-.1,49.79,.02,3.32-.95,4.14-4.15,4.15-6.42,.03-12.88-.85-19.25,.61l-.16-.09c.98-14.06,.12-28.15,.49-42.21,.11-4.24-1.88-9.89,.93-12.3,2.41-2.07,7.9-.66,12.02-.59,3.45,.06,6.98-.63,10.33,.79Z"/><path class="cls-2" d="M279.26,912.68c-9.87,.76-19.75,.58-29.63,.09-.51-.08-1.01-.16-1.52-.24,.07-.64,.15-1.29,.22-1.93,.06-9.59,.1-19.18,.22-28.77,.02-1.77-.55-3.65,.58-5.31,9.71,.03,19.42,.06,29.13,.1,1.62,2.07,.79,4.48,.82,6.73,.14,9.78,.13,19.56,.17,29.33Z"/><path class="cls-3" d="M726.56,812.75c.05-13.58,.2-27.16,.1-40.74-.02-3.24,.93-4.35,4.22-4.24,6.45,.22,12.92,.06,19.37,.06l.97,.8c-.02,2-.04,3.99-.05,5.99-1.6,1.48-.94,3.43-.95,5.17-.06,11.44-.04,22.89-.05,34.33-7.67,.1-15.35,.19-23.02,.29-.19-.56-.39-1.12-.58-1.68Z"/><path class="cls-4" d="M118.31,413.7c-.09,8.3-.22,16.61-.22,24.91,0,2.13-.28,3.41-2.91,3.36-10.3-.2-20.59-.22-30.89-.31-.26-.67-.75-.97-1.46-.88-.01-8.16,.17-16.33-.12-24.48-.13-3.56,1.34-4.02,4.34-4,10.16,.06,20.31-.12,30.47-.21,.26,.54,.53,1.08,.79,1.62Z"/><path class="cls-14" d="M420.15,61.46c-.04,9.46-.04,18.91-.14,28.36-.02,1.63,.95,3.84-1.82,4.41-1.3,0-2.59,0-3.89-.01-5.01-.01-10.03-.03-15.04-.04-2.72-.93-5.86,.88-8.4-1.28,.04-9.3,.23-18.61,.05-27.91-.06-3.31,.97-4.16,4.19-4.09,8.13,.19,16.28-.02,24.42-.06,.36,.05,.57,.25,.63,.61Z"/><path class="cls-14" d="M82.82,440.77c.72-.09,1.2,.21,1.46,.88,.12,.14,.16,.3,.12,.49-3.02-1-2.11,1.1-2.01,2.55,0,2.33-.02,4.67-.03,7,0,1.33,0,2.67,0,4,0,1.33,0,2.67,0,4,0,3.33-.01,6.67-.02,10l-1.04,1.93c-8.63-.05-17.27-.63-25.88,.31l-1.33-1.34c.89-8.62,.31-17.27,.31-25.9,0-3.16,.98-3.91,3.98-3.85,8.14,.16,16.29-.02,24.44-.06Z"/><path class="cls-3" d="M420.15,61.46c-.06-.36-.27-.57-.63-.61,0-8.61,.24-17.23-.13-25.82-.18-4.21,1.42-4.9,5.09-4.8,7.61,.21,15.23,0,22.84-.04,.16,8.53,.32,17.06,.47,25.58,.53,5.12-2.05,6.13-6.68,5.85-6.96-.43-13.97-.14-20.95-.16Z"/><path class="cls-14" d="M776.39,502.59c-.45,.45-.89,.91-1.34,1.36-6.58-1.02-13.21-.37-19.8-.39-3.04,0-3.99-.91-3.96-3.96,.11-9.59-.07-19.19-.14-28.78,.26-.35,.53-.7,.79-1.06,6.56,1.37,13.18,.47,19.76,.43,3.24-.02,4.15,.83,4.17,4.16,.07,9.41-.92,18.86,.52,28.24Z"/><path class="cls-4" d="M726.56,812.75c.19,.56,.39,1.12,.58,1.68-.26,8.75-.52,17.5-.77,26.25l-1.18,.85c-8.01,.22-16.02,.44-24.04,.65,.09-8.3,.36-16.61,.19-24.91-.07-3.41,1.15-4.25,4.29-4.23,6.97,.05,13.96,.58,20.92-.3Z"/><path class="cls-14" d="M751.22,768.64l-.97-.8c.1-7.45,.4-14.91,.22-22.36-.09-3.59,.74-4.98,4.63-4.82,6.61,.28,13.25-.04,19.88-.1,.38,.3,.76,.6,1.14,.9-.06,7.62-.24,15.24-.11,22.86,.05,2.81-.77,3.6-3.6,3.65-7.06,.11-14.18-1.04-21.19,.69Z"/><path class="cls-3" d="M751.93,469.76l-.79,1.06c-7.91-.14-15.83,.64-23.72-.41l-.18-28.81-.17,.11c6.91,.08,13.83,.33,20.74,.18,3.14-.07,4.36,.66,4.25,4.07-.27,7.92-.11,15.86-.13,23.8Z"/><path class="cls-15" d="M83.4,814.19c-9.73,.14-19.46,.28-29.2,.42-1.54-7.09,.15-14.31-.89-21.42,.35-.86,.69-1.72,1.04-2.58,8.1,0,16.21,.17,24.3-.09,3.8-.13,4.84,1.21,4.71,4.84-.23,6.27,0,12.56,.04,18.84Z"/><path class="cls-2" d="M447.79,55.77c-.16-8.53-.32-17.06-.47-25.58,0-.55,.01-1.09,.02-1.64,3.17,1.65,6.7-.03,9.93,1.04-.15,3.9,.74,6.89,5.59,6.48,1.36-.12,2.74,.96,2.65,1.76-.35,3.14-.21,7.24-2.1,9.04-2.02,1.93-4.66-.34-5.23-3.53-.43-2.38-1.33-4.28-4.26-2.39-1.32,.85-2.05,2.01-.67,3.19,2.2,1.87,1.07,4.01,1.24,6.22,.43,5.62-2.69,5.83-6.69,5.42Z"/><path class="cls-14" d="M309.41,3.81c-12.65-.01-25.32-.31-37.96,.04-10.99,.3-21.89-1.14-32.85-1.06-1.82,.01-3.42-.11-3.35-2.52,17.94-.59,35.88-.06,53.83,.14,5.82,.06,11.64,.13,17.45,.03,2.57-.04,3.94,.52,2.88,3.37Z"/><path class="cls-4" d="M223.39,878.61c2.67,.38,3.94,2.4,3.43,4.55-1.53,6.42,1.64,12.52,.71,18.95-.56,3.81,4.31,6.05,4.77,9.97-9.1,.79-9.15,.79-9.13-8.14,.02-8.45,.15-16.89,.23-25.34Z"/><path class="cls-2" d="M390.86,92.91c2.54,2.15,5.68,.35,8.4,1.28,.03,1.31-.2,2.68,.78,3.77,2.1,2.35,.86,4.41-.82,6.05-1.76,1.71-3.92,2.41-6.11,.32-.42-.4-1.22-.39-1.84-.57-.89-2.72,.69-5.74-1.02-8.37,.21-.83,.41-1.65,.62-2.48Z"/><path class="cls-14" d="M750.16,814.14c0-11.44-.01-22.89,.05-34.33,0-1.75-.64-3.69,.95-5.17,.07,12.63,.15,25.26,.2,37.89,0,.76,.08,1.75-1.21,1.62Z"/><path class="cls-14" d="M299.25,28.86c-.47-4.05,1.67-5.86,5.41-6.04,1.69-.09,3.29-.29,4.78-1.11,.11,2.72,.23,5.43,.34,8.15l.06-.1c-3.44-1.38-7.12,.09-10.59-.89Z"/><path class="cls-14" d="M830.16,502.72c-5.66,1.55-11.32,1.56-16.97,0h16.97Z"/><path class="cls-4" d="M430.24,876.56c2.73-2.8,7.31-2.79,10,.02-3.33,0-6.67-.01-10-.02Z"/><path class="cls-14" d="M48.3,470.73c-2.3,1.51-4.61,1.45-6.94,.07,2.31-.45,4.62-.47,6.94-.07Z"/><path class="cls-4" d="M170.76,912.68c.17-1.02,.35-2.05,.52-3.07,2.17-.1,3.88,.43,4.01,3.03-1.51,.01-3.02,.03-4.53,.04Z"/><path class="cls-14" d="M848.16,502.72c-1.66,1.42-3.32,1.42-4.97,0,1.66,0,3.32,0,4.97,0Z"/><path class="cls-14" d="M874.1,503.68c-1.35-.13-2.87,.43-3.92-.96,1.4-.05,3.06-1.19,3.92,.96Z"/><path class="cls-4" d="M608.2,878.02c.66-.14,1.33-.27,1.99-.41,.01,1,.02,2,.03,3-1.76-.02-2.07-1.17-2.02-2.59Z"/><path class="cls-2" d="M118.31,413.7c-.26-.54-.53-1.08-.79-1.62,.82-.2,1.65-.4,2.47-.61l.31,.09c-.01,1.32-.63,2.07-1.99,2.13Z"/><path class="cls-9" d="M521.08,29.34c.67-.21,1.34-.43,2.01-.64,.05,.35,.09,.69,.14,1.04-.38,.33-.76,.66-1.14,.99-.34-.46-.67-.93-1.01-1.39Z"/><path class="cls-4" d="M248.33,910.6c-.07,.64-.15,1.29-.22,1.93-.3-.09-.59-.23-.85-.41,.05-.72,.33-1.28,1.06-1.52Z"/><path class="cls-14" d="M725.19,841.54l1.18-.85c.07,.92-.45,1.02-1.18,.85Z"/><path class="cls-2" d="M338.38,169.28c-.12,.08-.27,.25-.36,.22-.47-.13-.48-.35-.02-.51,.08-.03,.24,.14,.36,.22v.08Z"/><path class="cls-10" d="M521.08,29.34c.34,.46,.67,.93,1.01,1.39,.13,52.2,.19,104.39,.51,156.59,.03,4.94-1.03,6.72-6.15,6.22-4.94-.48-9.97-.12-14.95-.02-1.55,.03-3.4-.69-4.52,1.16-5.98,.02-11.96,.13-17.93,.01-2.75-.06-3.88,.86-3.81,3.71,.59,24.37-1.1,48.76,.99,73.11-8.3,.05-16.6,.17-24.9,.12-2.61-.02-4.03,.57-3.95,3.57,.2,7.29,.18,14.59,.25,21.89,.05,8.89,.11,17.79,.16,26.68-7.63-.1-15.25-.34-22.87-.23-3.33,.05-5.45,1.81-5.44,5.61,.08,27.22,.1,54.43,.13,81.65-1.52,1.01-3.24,.55-4.86,.56-6.82,.05-13.65,.07-20.47-.02-2.31-.03-3.73,.26-3.67,3.17,.16,7.99,.07,15.98,.02,23.96-.01,1.99,.52,3.1,2.8,3.06,8.97-.16,17.95-.2,26.92-.28-.58,9.15-.46,18.29-.05,27.43-.09,.73,.28,.98,.95,.89,6.98,.08,13.97,.47,20.93,.1,3.8-.2,4.31,1.11,4.28,4.39-.31,34.92-.63,69.85-.67,104.77-.04,27.6,.29,55.2,.46,82.8-.46,1.67-.47,3.33,.02,5,.02,17,.03,34.01,.05,51.01-7.29,.04-14.59,.32-21.86,.03-3.74-.14-5.31,.55-5.06,4.72,.38,6.27,.11,12.59,.12,18.88-.41,8.43-.82,16.86-1.23,25.29-.02,.37-.03,.75-.05,1.12-7.98-.04-15.96,.02-23.94-.18-3.06-.08-4.12,.99-4,4.03,.19,4.98-.17,9.99,.12,14.96,.22,3.87-.95,5.19-4.99,5.12-14.13-.24-28.27,.03-42.4-.17-3.79-.06-4.92,1.17-4.75,4.85,.26,5.47,.02,10.97,0,16.46-29.84,.04-59.68,.09-89.52,.13-24.75-.08-49.49-.16-74.24-.23-1.53,0-3.11-.05-3.25,2.1-1.75-.84-3.6-.44-5.42-.45-27.48-.04-54.96-.08-82.44-.11-.04-6.28-.27-12.57-.04-18.84,.13-3.63-.9-4.97-4.71-4.84-8.09,.27-16.2,.09-24.3,.09-.17-7.88-.33-15.76-.5-23.64l9.46-.34c2,0,4,0,6,0,1.33,0,2.67,0,4,0,.67,0,1.33,0,2,0,6,0,12,0,18,0,5,0,10,0,15,0,3.81,0,7.63,.01,11.44,.02,9.01,.84,18.02,.67,27.04,.03,8.25-.03,16.5-.05,24.76-.08,8.88,1.45,17.76,1.31,26.64,.02,4.7,.02,9.41,.03,14.11,.05,2,0,4,0,6-.01,1.33,0,2.67,0,4,0,7.15,.02,14.3-.04,21.45,.1,2.8,.05,3.84-.98,3.77-3.78-.14-5.49,.21-10.99-.12-16.46-.24-4.02,1.19-5.05,5.09-5.03,24.95,.16,49.9,.08,74.85,.08q11.85,0,11.86-11.52c0-1.66,0-3.33,0-4.99q0-8.2,8.08-8.41h4c1,0,2,0,3,0,2.67,0,5.33,.01,8,.02,3.16,.58,4.18-.9,3.94-3.88-.45-5.61-.92-11.22-.91-16.87,0-3.36,1.18-4.31,4.37-4.19,5.14,.2,10.31-.12,15.45,.09,3.25,.13,4.33-.99,4.29-4.27-.16-13.96-.09-27.92-.1-41.88,0-5,0-10,0-15,0-2.67,0-5.33-.01-8,0-.67,0-1.33,0-2,0-8.66,0-17.33,0-25.99,0-7.67,0-15.33,0-23,.02-3.32,.03-6.64,.05-9.96,.92-.89,.89-1.93,.45-3.02,.78-17.33,.34-34.67,.28-52.01,.74-3.52-1.66-3.14-3.81-3.06-1.67,0-3.33,0-5,0-1.33,0-2.67,0-4,0-3,0-6,.01-9,.02-.6-.03-1.21-.06-1.81-.09-.14-2.96-.29-5.91-.43-8.87,0-4,0-8-.01-12,.01-2.66,.03-5.33,.04-7.99,.74-3.29-.59-4.45-3.79-3.69-6.49-.1-12.97-.33-19.46-.23-3.26,.05-4.62-.73-4.72-4.4-.91-33.92-.67-67.85-.67-101.78,0-3.97,1.42-7.88,.45-11.89,0-1.33,0-2.65,.01-3.98,.41-2.01,.4-4.01,0-6.02,0-1,0-2,0-3,.1-13.15,.41-26.3,.2-39.44-.07-4.48,1.26-5.78,5.63-5.53,6.31,.37,12.65,.09,18.98,.1,1.94,0,3.92-.07,3.69-2.75-.59-6.82,1.59-13.56,.45-20.39,0-.65,0-1.31,0-1.96,.12-13.1,.42-26.21,.25-39.31-.06-4.45,.99-6.42,5.74-5.84,2.77,.34,5.63-.07,8.44-.13q9.19,.65,9-6.72c.03-6.42,.26-12.85,0-19.25-.17-4.22,1.11-6.2,5.57-5.71,2.11,.23,4.27-.01,6.41-.04,.67,0,1.33,0,2,0q14.14,.39,14.1-13.6c-.02-8.13,.09-16.26-.07-24.39-.06-3.05,1.1-4.12,4.05-4.1,5.97,.05,11.93-.13,17.9-.21,1.67,0,3.33,0,5,0,2.04,.08,1.93-1.4,1.92-2.73-.05-5.32-.14-10.63-.2-15.95,0-1.67,0-3.33,0-5,0-1,0-2,0-3,.04-6.67,.07-13.34,.1-20.01,0-1,0-2,0-2.99,.01-.67,.02-1.34,.04-2.01,.16-1.29,.86-2.08,2.15-2.31,1.34,0,2.67,0,4.01,0,2.33,0,4.66,0,6.99,0,1.67,0,3.34,0,5.01,0,2,0,3.99-.01,5.99-.01,3.45,.18,7.83,1.69,6.69-4.68,.08-7.9,.49-15.82,.12-23.71-.23-4.97,1.14-7.1,6.24-6.24,1.28,.22,2.63-.02,3.95-.05q8.26,.22,8.01-8.06c-.03-.98-.15-1.96-.22-2.94,.02-1,.03-2,.05-2.99,0-3.67,.02-7.33,.02-11-.02-2.42-.04-4.85-.06-7.27,8.34-.92,16.69-.47,25.04-.16Z"/><path class="cls-3" d="M310.28,710.64c.09,1.32,.09,2.65,.29,3.95,.48,3.13-.86,3.96-3.89,3.88-5.8-.16-11.61,.11-17.41,.19h-4c-10.62-.09-21.25-.47-31.86-.14-4.66,.15-5.37-1.42-5.32-5.59,.23-16.76,.09-33.53,.09-50.29,.39-5,.44-10,.03-15,.41-3,.39-6,0-9,0-2,0-4,0-6v-2l.55-23.99c1.41,.05,2.51-.3,2.51-2.01,18.3-.08,36.61-.12,54.91-.28,2.67-.02,2.89,1.31,2.87,3.4-.09,7.32-.06,14.65-.08,21.97-8.81,.04-17.61,.16-26.42,.07-2.8-.03-4.19,.47-4.17,3.77,.11,18.61,.08,37.22-.07,55.83-.03,3.13,1.08,3.93,4.04,3.9,8.3-.08,16.6,.13,24.9,.22-.3,4.05,1.13,8.03,.12,12.17-.49,2.01,.09,4.37,2.9,4.93Z"/><path class="cls-4" d="M309.2,223.57c.07,.49,.13,.99,.2,1.48-.42,1.55-.57,3.1-.13,4.68,0,2.67,0,5.33,.01,8,0,.67,0,1.33,0,2-.42,23-.44,45.99,0,68.99v3c-.09,.98-.23,1.96-.24,2.94-.13,9.57-.12,9.54-9.48,9.58-3.78,.02-7.56,.2-11.33,.31-1.98-.12-3.95-.24-5.93-.35-.82-.15-1.63-.31-2.45-.46-.26-.38-.74-.77-.73-1.15,.05-31.27,.17-62.54,.16-93.81,0-3.47,1.21-4.36,4.63-4.41,8.44-.14,16.92,.89,25.31-.8Z"/><path class="cls-16" d="M56.5,603.67c.01,28.45-.03,56.89,.11,85.34,.02,3.51-1.01,4.61-4.49,4.45-5.64-.26-11.31-.13-16.96-.02-2.43,.05-3.63-.57-3.62-3.32,.12-29.1,.15-58.2,.2-87.3,8.26,.29,16.51,.57,24.77,.85Z"/><path class="cls-16" d="M307.27,693.55c-8.3-.1-16.6-.31-24.9-.22-2.96,.03-4.07-.76-4.04-3.9,.15-18.61,.18-37.22,.07-55.83-.02-3.3,1.37-3.8,4.17-3.77,8.8,.09,17.61-.03,26.42-.07l.37,.28-.06,.46c.06,19.95,.11,39.9,.21,59.84,0,1.72-.35,2.93-2.23,3.21Z"/><path class="cls-5" d="M146.78,766.67c-9.01,.64-18.02,.81-27.04-.03,.06-7.78,.22-15.56,.11-23.33-.04-2.75,.72-3.71,3.61-3.69,6.94,.06,13.88-.28,20.82-.45,1.85,.48,3.34,.44,3.24-2.11-.11-2.8-.16-5.61-.24-8.41,.08-10.26,.37-20.52,.15-30.77-.09-4.13,.6-6.09,5.31-5.54,4.08,.48,8.29,.37,12.4,0,4.14-.38,6.31,.68,5.55,5.21-.42,1.08-.42,2.16,0,3.23,.05,2.3,.11,4.59,.16,6.89v1.1c-.45,3.63-.48,7.26,0,10.89,0,.99,.01,1.98,.02,2.97-.56,5.29-.35,10.58-.1,15.88-.26,.97-.52,1.94-.78,2.92-6.48-.02-12.96,.14-19.43-.13-3.2-.14-3.89,.99-3.81,3.95,.18,7.14,.03,14.28,.01,21.43Z"/><path class="cls-4" d="M307.27,693.55c1.88-.28,2.24-1.49,2.23-3.21-.1-19.95-.15-39.9-.21-59.84,8.69-.03,17.38-.07,26.06-.08,1.27,0,2.69-.3,3.43,1.23-.4,1.68-.41,3.35,.02,5.02-.43,1.99-.42,3.98-.02,5.98-.41,6.67-.4,13.35,.02,20.02-.1,8.03-.15,16.06-.33,24.09-.04,1.68,.83,3.69-1.21,4.91-6.33-.39-12.66-.43-19,0-1.31-.08-2.64-.06-3.94-.26-3.12-.46-3.95,.87-3.84,3.89,.17,5.11-.11,10.23-.2,15.35-2.8-.56-3.39-2.91-2.9-4.93,1.02-4.14-.42-8.12-.12-12.17Z"/><path class="cls-5" d="M198.17,766.61c-8.88,1.29-17.76,1.42-26.64-.02-.03-8.31-.06-16.63-.08-24.94,.25-.81,.51-1.62,.76-2.43l18.1-.3c.65,.11,1.32,.4,1.93,.31,4.2-.6,6.66,.65,6.04,5.4-.04,7.33-.07,14.65-.11,21.98Z"/><path class="cls-13" d="M53.27,766.71c-5.82,.08-11.65,.11-17.47,.27-2.22,.06-3.39-.53-3.32-3.05,.2-7.15,.23-14.31,.33-21.46,6.78-.73,13.57-.72,20.37-.47,.03,8.24,.06,16.48,.09,24.71Z"/><path class="cls-2" d="M53.18,741.99c-6.8-.26-13.59-.26-20.37,.47-.08-6.79-.1-13.58-.26-20.37-.05-2.14,.73-2.99,2.88-2.91,4.96,.18,9.92,.25,14.88,.36-2.31,3.75-1.2,8.78-5.1,12.1,4.85,.37,8.9,6,7.96,10.35Z"/><path class="cls-2" d="M190.31,738.92l-18.1,.3c-.25-.69-.75-.87-1.42-.71-.25-5.29-.46-10.59,.1-15.88,.65,.11,1.85,.19,1.86,.34,.27,4.69,5.46,4.99,7.29,8.22,1.34,2.35,2.49,3.26,3.64-.16,.73-2.16,1.56-2.33,3.33-.42,2.29,2.46,3.83,4.89,3.3,8.32Z"/><path class="cls-2" d="M282.28,324.2c1.98,.12,3.95,.24,5.93,.35-3.8,4.98-3.53,10.4-3.51,16.49,.02,6.65-.45,14.39-6.41,19.66-.07-11.2-.03-22.41-.27-33.61-.08-3.66,2.28-2.77,4.26-2.9Z"/><path class="cls-2" d="M198.17,766.61c.04-7.33,.07-14.65,.11-21.98,3.1,.44,4.02,2.46,4.03,5.3,.03,5.89,5.06,8.53,8.9,10.44,4.68,2.32,2.68,3.88,1.06,6.29-4.7-.02-9.41-.03-14.11-.05Z"/><path class="cls-2" d="M447.05,103.75c-.03,6.67-.07,13.34-.1,20.01-2.98,.16-5.78,.14-5.92-4.01-.02-.76-.69-1.68-1.66-1.5-1.5,.28-.99,1.45-.69,2.33,.46,1.33,.23,2.52-1.15,2.73-1.44,.21-3.07-.24-3.93-1.54-.68-1.03-.27-2.16,.79-3.04,3.99-3.31,6.39-7.68,8.24-12.44,.72-1.85,2.36-2.7,4.41-2.54Z"/><path class="cls-2" d="M55.42,471.93c8.62-.94,17.25-.36,25.88-.31-.01,1.5-.51,4.13-1.62,3.55-5.78-3.01-7.49,10.64-14.02,3.17-2.56-2.92-6.2-3.46-9.87-3.65l-.37-2.77Z"/><path class="cls-2" d="M82.21,718.64c.14-9,.27-18,.41-27,4.46,.17,5.39,3.22,4.46,6.58-.83,3.03-.24,5.38,.92,8.08,1.97,4.58-.82,10.17-5.79,12.34Z"/><path class="cls-2" d="M389.29,571.67c0,7.67,0,15.33,0,23-2.71-1.57-5.03-4.28-8.79-2.42-.97,.48-1.79-.62-2.06-1.65-.31-1.18-.2-2.38,.82-3.18,.77-.6,1.69-1.02,2.58-1.44,1.64-.79,4.67,.58,4.88-2.2,.2-2.65-2.62-1.73-4.18-2.29-1.18-.43-1.52-2-.59-2.16,3.81-.64,4.32-3.33,4.85-6.34,.17-.99,1.45-1.24,2.48-1.31Z"/><path class="cls-2" d="M123.62,720.47c0-1.14-.16-1.82,.03-2.38,.43-1.23,.6-2.38-.81-2.94-1.47-.59-2.09,.62-2.59,1.67-.5,1.04-.79,2.18-1.29,3.23-.46,.98-1.28,1.64-2.39,1.11-.71-.33-1.89-1.27-1.81-1.44,1.61-3.39-1.31-7.85,2.46-10.68,.98-.73,1.29-2.71,3.02-2.03,1.61,.64,.88,2.29,1.04,3.53,.08,.65,.07,1.31,.11,1.97,2.63,1.12,4.52-5.17,6.67-1.12,2.96,5.58,2.49,5.83-4.44,9.07Z"/><path class="cls-2" d="M76.32,603.16c-3.34,.4-6.68,.41-10.02-.02-.15-1.91,.93-3.11,2.36-4.11,.82-.57,1.96-1.17,1.38-2.31-2.77-5.36,1.01-4.28,3.55-3.34,2.83,1.06,5.42-1.57,8.32-.11-1.65,3.59-5.21,5.87-5.58,9.89Z"/><path class="cls-2" d="M278.29,394.7c0-.67,0-1.33,0-2,4.36-1.13,6.32,2.86,9.3,4.56,1.39,.79,.43,2.72-.95,3.05-3.23,.79-3.45,2.99-3.41,5.67,.06,3.29-1.81,4.79-5.03,4.72l.08-13c.8-.13,1.66-.24,1.79-1.26,.17-1.32-.77-1.59-1.79-1.74Z"/><path class="cls-2" d="M248.22,647.65c.41,5,.36,10-.03,15-2.12,.09-4.13,.07-3.94-2.96,.09-1.47-.97-2.37-1.8-3.41-1.32-1.66-4.29-2.71-2.46-5.69,1.67-2.71,3.86-4.33,7.24-2.96,.29,.12,.66,.02,.99,.02Z"/><path class="cls-2" d="M248.77,606.67l-.55,23.99c-4.99-.99-3.25-5.66-3.45-8.2-.29-3.65-.81-7.47-.41-11.19,.29-2.72,.6-5.72,4.12-6.54l.3,1.94Z"/><path class="cls-2" d="M338.8,662.66c-.42-6.67-.43-13.34-.02-20.02,3.65,.4,4.66,2.48,3.65,5.8-.57,1.87-1.44,3.85-.15,5.63,3.54,4.85,.18,6.75-3.48,8.59Z"/><path class="cls-2" d="M496.02,50.76c.08,.98,.19,1.96,.22,2.94q.25,8.28-8.01,8.06c-1.21-4.79,2.19-9.57,7.79-11Z"/><path class="cls-2" d="M318.26,691.66c6.33-.42,12.66-.39,19,0-.99,4.54-5.15,6.96-8.53,4.37-2.33-1.78-4.05-2.79-6.98-1.83-1.63,.53-3.2-.48-3.49-2.54Z"/><path class="cls-2" d="M170.86,707.66c-.05-2.3-.11-4.59-.16-6.89,.53-.04,1.07-.08,1.6-.12,2.13,.84,4.28,3.31,6.31-.21,.37-.65,1.2-.45,1.75,.02,.67,.58,.97,1.38,.72,2.25-.69,2.45-1.95,4.07-4.88,4.03-1.78-.02-3.56,.59-5.35,.92Z"/><path class="cls-2" d="M111.9,639.87c0-.19-.09-.41-.02-.48,6.45-6.48,9.84-5.86,13.9,2.52,.38,.79,.59,1.63-.2,2.23-.88,.67-2.49,.66-2.61-.15-.99-6.68-5.36-3.82-8.93-3.39-.76,.09-1.69,.21-2.14-.73Z"/><path class="cls-2" d="M130.07,682.38c-.28,1.71-2.09,2.26-3.9,2.15-3.18-.2-3.88-3.09-4.18-5.35-.28-2.08,1.35-3.59,3.83-3.52,2.59,.07,4.47,2.71,4.26,6.73Z"/><path class="cls-2" d="M92.09,640.83c1.74,.34,2.17,1.65,2.2,3.26,.04,2.31-3.76,7.58-5.5,7.41-1.81-.17-2.92-1.37-3.31-3.14-.14-.65,5.92-7.55,6.62-7.53Z"/><path class="cls-2" d="M89.79,660.53c-1.11-.07-1.95-.65-2.22-1.67-.42-1.61,.24-3.35,1.61-3.79,3.34-1.07,6.68-1.84,8.3-5.48,.28-.64,1.15-.79,1.68-.26,.41,.41,.75,1.11,.74,1.67-.03,1.63-8.57,9.57-10.11,9.54Z"/><path class="cls-2" d="M366,482.68c0,4,.01,8,.01,12-3.03-.69-5.4-1.71-3.84-5.65,1.09-2.77-2.12-4.2-2.66-6.78,2.33,.16,4.41,.3,6.49,.43Z"/><path class="cls-2" d="M102.92,630.33c-2.71,2.43-.59,3.21,1.66,4.03,1.34,.49,1.72,1.45,.97,2.74-.64,1.1-.79,2.86-2.22,3.03-1.78,.22-1.86-1.45-2.06-2.76-.34-2.23-1.69-3.88-3.13-5.5-1.3-1.46-.07-2.86,.41-4.14,.51-1.34,1.63-.58,2.49-.18,1.06,.5,2.11,1.04,1.88,2.77Z"/><path class="cls-2" d="M108.3,766.62c-5,0-10,0-15,0,2.23-6.65,3.42-7.2,8.47-2.92,2.03,1.72,5.67-.86,6.52,2.92Z"/><path class="cls-2" d="M496.1,36.76c0,3.67-.01,7.33-.02,11-5.44-.04-4.09-4.72-4.64-7.53-.6-3.02,2.34-3.29,4.67-3.47Z"/><path class="cls-2" d="M390.26,217.73q.19,7.37-9,6.72c1.65-4.05,4.81-6.08,9-6.72Z"/><path class="cls-2" d="M230.28,411.7c3,0,6,0,9,0-1.04,4.1-5.34,4.35-8,6.54-.63,.52-3.61-.35-2.07-2.86,.73-1.19,1.14-2.33,1.07-3.68Z"/><path class="cls-2" d="M82.84,611.67l-.49-8.22c.49-1.64,.52-4.13,3.06-3.36,1.66,.5,1.87,2.41,1.18,4.2-1,2.59,1.03,6.7-3.75,7.37Z"/><path class="cls-2" d="M46.8,598.32c-1.01-.19-1.42-.68-1.41-1.41,.03-1.88-.64-2.87-2.63-3.51-2.31-.74-1.92-3.37-1.03-4.6,1.4-1.92,2.33,.51,3.39,1.19,1.11,.71,2.21,1.47,3.17,2.36,1.27,1.17,1.33,2.69,.48,4.08-.48,.79-1.38,1.34-1.97,1.89Z"/><path class="cls-2" d="M414.3,94.23c1.3,0,2.59,0,3.89,.01-.11,2.26,1.57,3.47,2.89,4.88,.83,.89,1.39,1.86,.8,3.08-.46,.96-1.29,1.54-2.36,1.38-1.31-.2-3.03-.73-2.98-2.08,.11-2.78-1.84-4.76-2.25-7.28Z"/><path class="cls-2" d="M82.8,634.67v-12.02c4.86,2.04,1.47,6.71,3.04,9.91,.73,1.48-1.51,2.06-3.04,2.11Z"/><path class="cls-2" d="M170.86,719.65c-.49-3.63-.45-7.26,0-10.89,1.86,2.21,4.16,4.09,3.49,7.62-.42,2.19-1.28,3.29-3.49,3.27Z"/><path class="cls-2" d="M362.26,716.66c-2.67,0-5.33-.01-8-.02-.12-4.03,2.66-4.98,5.77-4.87,3.45,.12,1.8,3.1,2.23,4.9Z"/><path class="cls-2" d="M389.3,630.65c0,5,0,10,0,15-.8-.17-1.91-.06-2.34-.55-1.61-1.85,.22-12.5,2.34-14.45Z"/><path class="cls-2" d="M82.35,469.69c0-3.33,.01-6.67,.02-10,3.94,.4,3.07,3.97,3.64,6.2,.56,2.2-1.43,3.47-3.65,3.8Z"/><path class="cls-2" d="M147.28,728.64c.08,2.8,.14,5.61,.24,8.41,.1,2.55-1.39,2.59-3.24,2.11,.85-3.55-2.1-8.18,3-10.52Z"/><path class="cls-2" d="M477.92,91.75c1.13,6.37-3.24,4.86-6.69,4.68,.23-4.42,3.5-4.49,6.69-4.68Z"/><path class="cls-2" d="M309.27,229.73c-.45-1.57-.29-3.13,.13-4.68l5.89,.5c-.39,3.73-2.93,4.35-6.02,4.18Z"/><path class="cls-2" d="M67.28,568.73c-.26,1.5-.46,3.29-2.37,3.71-1.22,.27-2.46-.57-2.2-1.9,.32-1.65,.23-3.93,2.32-4.44,1.6-.39,2.11,1.1,2.24,2.64Z"/><path class="cls-2" d="M152.22,640.86c-.23,2.01-2.19,2.73-3.88,3.52-1.01,.47-2.08-.21-1.83-1.45,.41-2.05,1.92-3.38,3.83-4.03,1.14-.39,1.79,.42,1.88,1.95Z"/><path class="cls-2" d="M170.12,604.65c-.56,1.33-1.31,2.75-3.06,2.59-1.35-.12-1.73-1.38-1.7-2.62,.04-1.46,.59-2.79,2.26-2.57,1.22,.16,2.62,.73,2.5,2.61Z"/><path class="cls-2" d="M115,675.97c3.23-.1,5.13,.23,5.27,3.17,.06,1.19-.28,3.08-1.32,2.83-2.8-.66-1.81-3.88-3.95-6Z"/><path class="cls-2" d="M136.56,614.9c1.32,1.49,4.33-.43,5.39,2.06,.5,1.18-.95,1.97-1.81,1.39-1.75-1.19-4.68,.58-5.56-2.21-.28-.88,.7-1.36,1.97-1.24Z"/><path class="cls-2" d="M76.16,484.79c.03,1.37-.44,2.49-1.79,2.52-1.29,.02-2.91-.48-2.59-2.13,.24-1.2,.08-3.35,2.21-3.22,1.54,.1,1.75,1.7,2.18,2.83Z"/><path class="cls-2" d="M104.45,669.82c1.49,.01,2.05,.93,1.58,1.96-.62,1.34-.13,3.68-2.58,3.64-1.09-.02-2-.85-1.77-1.97,.33-1.61,.93-3.23,2.77-3.63Z"/><path class="cls-2" d="M248.22,632.66c0,2,0,4,0,6-2.48,.24-3.66-1.27-3.74-3.38-.09-2.41,1.87-2.62,3.74-2.62Z"/><path class="cls-2" d="M153.57,624.43c-1.57,.14-2.14-.49-2.17-1.68-.05-1.91,1.39-2.47,2.82-2.85,1.13-.3,2,.24,1.87,1.51-.17,1.67-1.5,2.39-2.52,3.01Z"/><path class="cls-2" d="M222.28,766.65c-1.33,0-2.67,0-4,0,.16-2.17,.31-4.35,.47-6.52,.24-.06,.47-.12,.71-.18,.94,2.23,1.88,4.47,2.83,6.7Z"/><path class="cls-2" d="M127.99,635.32c-.03,1.17-.57,2.03-1.71,1.94-1.68-.13-1.93-1.51-1.94-2.87-.01-.93-.15-2.33,1.13-2.25,1.75,.11,1.93,1.93,2.53,3.19Z"/><path class="cls-2" d="M244.28,411.71c2.33,0,4.67,0,7,0-2.93,4.08-4.81,4.08-7,0Z"/><path class="cls-2" d="M338.8,636.67c-.42-1.67-.41-3.35-.02-5.02,1.84,.03,3.46,.52,3.3,2.75-.13,1.89-1.66,2.26-3.28,2.28Z"/><path class="cls-2" d="M445.23,150.43c-1.67,0-3.33,0-5,0,.18-1.37-.51-3.3,1.69-3.54,2.48-.27,2.82,1.78,3.31,3.54Z"/><path class="cls-2" d="M278.29,383.7c0-1.67,0-3.33,0-5,1.33,.23,3.45-.67,3.68,1.31,.27,2.28-1.52,3.37-3.68,3.69Z"/><path class="cls-2" d="M367.2,639.3c-1.15-3.2-1.52-5.13,.16-6.89,.22-.23,1.14-.25,1.26-.06,1.39,2.22-.24,3.91-1.42,6.96Z"/><path class="cls-2" d="M123.5,559.89c1.17,.57,2.51,.75,2.57,2.19,.06,1.33-1,1.56-2.03,1.5-1.22-.07-2.36-.51-2.38-1.95-.02-1.19,.95-1.55,1.84-1.74Z"/><path class="cls-2" d="M69.31,766.62c-2,0-4,0-6,0,.43-2.44,2.29-2.92,4.28-2.87,1.81,.04,1.65,1.6,1.71,2.86Z"/><path class="cls-2" d="M53.43,554.63c-3.23-.94-4.31-2.31-3.91-4.62,.06-.34,.72-.91,.95-.84,2.44,.73,1.79,3.03,2.97,5.46Z"/><path class="cls-2" d="M104.25,752.92c-.18,1.5-.88,2.55-2.5,2.51-.99-.02-1.46-.79-1.23-1.73,.33-1.37,1.18-2.48,2.62-2.6,1.08-.09,1.07,1,1.11,1.82Z"/><path class="cls-2" d="M211.27,549.28c.8-3.66,1.66-5.56,4.82-6.56-.75,2.71-1.76,4.46-4.82,6.56Z"/><path class="cls-2" d="M362.25,471c3.2-.76,4.53,.41,3.79,3.69-2.6,.14-3.91-1.04-3.79-3.69Z"/><path class="cls-2" d="M31.85,545.68c-.4-1.68-.41-3.35,.01-5.02,1.93-.07,2.51,.97,2.47,2.76-.04,1.73-.96,2.27-2.48,2.26Z"/><path class="cls-2" d="M465.24,96.44c-1.67,0-3.34,0-5.01,0-.06-1.73,.59-2.69,2.5-2.69,1.92,0,2.56,.97,2.5,2.69Z"/><path class="cls-2" d="M446.94,126.76c0,1.67,0,3.33,0,5-1.4-.02-2.67-.2-2.65-2.06,.02-1.75,.93-2.7,2.64-2.94Z"/><path class="cls-2" d="M412.03,100.73c.11,1.24-.41,1.85-1.32,1.84-1.27,0-2.1-.74-2.27-2.05-.12-.97,.43-1.59,1.35-1.59,1.27,0,2.06,.76,2.25,1.79Z"/><path class="cls-2" d="M127.3,411.71h5c-.16,1.97-1.18,3.02-3.19,2.9-1.91-.12-1.74-1.6-1.81-2.9Z"/><path class="cls-2" d="M447.09,98.75c-.01,.67-.02,1.34-.04,2.01-.66,0-1.33,.02-1.99-.01-1.47-.07-3.61-.03-3.22-1.97,.38-1.95,2.12-.33,3.27-.2,.66,.07,1.31,.12,1.97,.18Z"/><path class="cls-2" d="M364.31,221.54c-.83-.16-1.67-.65-1.66-1.78,0-1.12,.75-1.79,1.87-1.62,1.06,.17,1.61,1.03,1.57,2.08-.03,.92-.61,1.42-1.77,1.32Z"/><path class="cls-2" d="M352.61,171.19c1.5,.69,2.42,1.57,2.51,3.01,.04,.71-.49,1.4-1.18,1.16-1.26-.43-2.35-1.3-2.35-2.78,0-.47,.68-.95,1.02-1.39Z"/><path class="cls-2" d="M137.88,708.2c-.07,1.18-.82,1.41-1.68,1.4-.92-.02-2.18,.32-2.4-.99-.2-1.18,.8-1.69,1.84-1.8,1.11-.12,1.82,.51,2.25,1.39Z"/><path class="cls-2" d="M61.62,550.58c2.13,1.38,2.93,2.71,3.72,4.98-2.84-.73-3.99-1.79-3.72-4.98Z"/><path class="cls-2" d="M386.25,503.62c2.15-.08,4.55-.46,3.81,3.06-2.2,.14-4.14-.05-3.81-3.06Z"/><path class="cls-2" d="M156.69,656.62c-.97-.1-1.86-.09-1.78-.94,.14-1.42,1.48-1.58,2.55-1.83,.64-.15,1.42,.06,1.38,.93-.08,1.54-1.37,1.59-2.15,1.84Z"/><path class="cls-2" d="M453.24,96.43c-1.34,0-2.67,0-4.01,0,.04-1.36,.18-2.61,2-2.61,1.82,0,1.97,1.25,2.01,2.6Z"/><path class="cls-2" d="M377.25,503.62c1.33,0,2.67,0,4,0-.15,1.66-.76,3.07-2.69,2.82-1.6-.2-1.19-1.72-1.31-2.82Z"/><path class="cls-2" d="M222.28,411.71c1.33,0,2.67,0,4,0-.11,1.09,.26,2.57-1.31,2.76-1.89,.23-2.52-1.12-2.69-2.76Z"/><path class="cls-2" d="M428.08,96.37c-.08,.87-.44,1.63-1.31,1.86-1.11,.3-1.4-.51-1.43-1.38-.03-.84,.13-1.68,1.16-1.84,.99-.15,1.49,.4,1.57,1.36Z"/><path class="cls-2" d="M288.74,525.22c-.06,1.21-.73,1.33-1.37,1.36-.85,.04-1.68-.15-1.86-1.15-.11-.66,.09-1.5,.92-1.33,.86,.18,1.63,.78,2.31,1.12Z"/><path class="cls-2" d="M337.86,348.72c0,1.33,0,2.65-.01,3.98-1.16-.21-2.26-.64-2.25-2,0-1.36,1.1-1.78,2.26-1.98Z"/><path class="cls-2" d="M206.28,738.14c.99,.21,1.25,1.03,1.52,1.77,.37,1.07-.23,1.6-1.21,1.5-.98-.1-1.27-.93-1.23-1.82,.03-.64,.07-1.34,.92-1.45Z"/><path class="cls-2" d="M365.46,172.64l3.79,.12c-.3,2.37-2.06,2.16-3.6,1.82-1.44-.31-1.16-1.18-.19-1.94Z"/><path class="cls-2" d="M351.26,716.64h-4c.15-1.39,.52-2.79,2.24-2.61,1.34,.14,1.68,1.39,1.76,2.61Z"/><path class="cls-2" d="M155.56,678.89c.72-.08,1.29,.16,1.46,.91,.23,.99-.29,1.59-1.23,1.64-.68,.04-1.25-.41-1.27-1.17-.02-.69,.25-1.25,1.04-1.38Z"/><path class="cls-2" d="M114.07,596.98c.03,.72-.2,1.28-.97,1.43-1.01,.19-1.56-.34-1.58-1.29-.02-.71,.48-1.22,1.21-1.23,.68,0,1.25,.29,1.34,1.09Z"/><path class="cls-2" d="M82.36,455.69c0-1.33,0-2.67,0-4,2.76,1.34,2.76,2.67,0,4Z"/><path class="cls-2" d="M337.87,339.7c0,1,0,2,0,3-1.12-.2-2.28-.58-2.2-1.92,.08-1.3,1.35-.94,2.2-1.08Z"/><path class="cls-2" d="M94,583.21c-.83-1.36,.15-2.16,.91-2.97,.07-.08,1.01,.39,.99,.53-.15,1.13-.36,2.29-1.9,2.44Z"/><path class="cls-2" d="M41.55,573.22c-.22-.36-.71-.84-.79-1.39-.12-.87,.64-1,1.31-.94,.78,.07,1.06,.66,1.06,1.36,0,.82-.53,1.07-1.58,.97Z"/><path class="cls-2" d="M285.27,718.67c1.33,0,2.67,0,4,0-1.33,2.8-2.66,2.8-4,0Z"/><path class="cls-2" d="M186.86,720.82c.82,.06,1.22,.63,.93,1.28-.22,.49-.85,1.02-1.37,1.1-.86,.14-.98-.65-.92-1.31,.07-.79,.67-1.01,1.36-1.07Z"/><path class="cls-2" d="M192.83,723.86c.09,1.05-.16,1.58-.98,1.58-.7,0-1.29-.29-1.35-1.07-.05-.67,.08-1.43,.95-1.31,.54,.08,1.03,.58,1.38,.8Z"/><path class="cls-2" d="M389.29,620.66c0,.67,0,1.33,0,2-1.17-.25-2.65,.59-3.5-1,.85-1.59,2.33-.75,3.5-1Z"/><path class="cls-2" d="M92.33,684.52c-.25,.9-.26,1.81-1.15,1.5-.39-.14-.69-.98-.73-1.53-.05-.59,.13-1.49,1.02-1.19,.43,.14,.66,.91,.86,1.23Z"/><path class="cls-2" d="M270.27,411.71c1.33,0,2.67,0,4,0-.12,1.37-.87,1.99-2.24,1.91-1.21-.08-1.63-.86-1.75-1.91Z"/><path class="cls-2" d="M59.78,548.67c-.12,.86-.8,.91-1.44,.9-.64,0-1.41-.03-1.41-.91,0-.87,.77-.9,1.41-.9,.64,0,1.32,.03,1.43,.91Z"/><path class="cls-2" d="M31.86,505.69c-.6-3.51,1.75-2.32,3.45-2.16-.07,2.45-1.89,2.1-3.45,2.16Z"/><path class="cls-2" d="M165.03,661.85c.78,.13,1.07,.68,1.06,1.37,0,.82-.6,1.23-1.25,.95-.49-.21-1.02-.85-1.11-1.37-.15-.85,.64-.94,1.3-.96Z"/><path class="cls-2" d="M295.07,530.94c-.03,.66-.12,1.44-.97,1.28-.52-.1-1.15-.63-1.35-1.12-.27-.66,.14-1.24,.96-1.24,.69,0,1.24,.29,1.36,1.07Z"/><path class="cls-2" d="M371.43,651.59c-.66,0-1.4-.04-1.56-.78-.2-.94,.65-.97,1.26-1.05,.66-.08,1.4,.03,1.55,.77,.2,.94-.66,.9-1.25,1.06Z"/><path class="cls-2" d="M116.88,644.2c.46-.13,1.02-.42,1.57-.42,.6,0,1.5,.15,1.19,1.03-.13,.39-.98,.68-1.53,.72-.59,.05-1.34-.08-1.23-1.33Z"/><path class="cls-2" d="M103.31,646.62c-.67,.32-1.18,.73-1.37,.62-.49-.3-1.07-.79-1.18-1.3-.2-.88,.56-1.08,1.18-.76,.48,.25,.8,.82,1.37,1.44Z"/><path class="cls-2" d="M110.92,676.25c-.28,.24-.68,.83-1.2,.98-.76,.21-1.23-.42-.92-1.09,.22-.48,.85-.9,1.38-1.07,.47-.15,.85,.28,.74,1.18Z"/><path class="cls-2" d="M158.28,634.49c-.36-.55-.75-.87-.78-1.23-.06-.65,.25-1.28,1.04-1.06,.28,.08,.55,.73,.54,1.11-.01,.34-.42,.66-.8,1.18Z"/><path class="cls-2" d="M474.59,41.76c.46,.32,1.04,.5,1.11,.81,.21,.84-.48,1.07-1.11,.98-.33-.05-.81-.51-.83-.81-.01-.29,.48-.6,.82-.98Z"/><path class="cls-2" d="M366.45,503.55c.6,.03,1.21,.06,1.81,.09-.14,1.27-.63,2.39-2.1,1.7-1.12-.52-.37-1.27,.28-1.79Z"/><path class="cls-2" d="M123.28,655.48c-.36-.55-.75-.87-.78-1.23-.06-.65,.25-1.28,1.04-1.06,.28,.08,.55,.73,.54,1.11-.01,.34-.42,.66-.8,1.18Z"/><path class="cls-2" d="M159.09,628.74c-.57,.34-.91,.71-1.27,.73-.68,.04-1.24-.36-1-1.1,.09-.27,.76-.5,1.15-.47,.33,.03,.63,.45,1.12,.84Z"/><path class="cls-2" d="M389.78,558.69c.44,1.09,.47,2.13-.45,3.02-1.45-1.24-1.54-2.28,.45-3.02Z"/><path class="cls-2" d="M309.27,311.71v-3c1.02,.15,1.97,.41,1.8,1.74-.13,1.03-1,1.13-1.8,1.26Z"/><path class="cls-2" d="M82.4,444.69c-.1-1.45-1.01-3.55,2.01-2.55-.08,1.31-.29,2.53-2.01,2.55Z"/><path class="cls-2" d="M380.26,617.01c-.32,.46-.5,1.04-.81,1.11-.84,.21-1.07-.48-.98-1.11,.05-.33,.51-.82,.81-.83,.29-.01,.6,.48,.98,.82Z"/><path class="cls-2" d="M151.28,592.43c-.4,.28-.79,.74-1.05,.68-.31-.08-.71-.58-.74-.92-.05-.67,.35-1.23,1.1-1,.29,.09,.41,.72,.68,1.24Z"/><path class="cls-4" d="M248.77,606.67l-.3-1.94c.94-.02,1.87-.05,2.81-.07,0,1.71-1.1,2.06-2.51,2.01Z"/><path class="cls-2" d="M171.52,697.61c1.24,.31,2.27,.69,.77,2.03-.88-.44-.92-1.2-.77-2.03Z"/><path class="cls-2" d="M391.25,117.75c0-.67,0-1.33,0-2,.73,.15,1.72,.14,1.48,1.21-.08,.35-.96,.53-1.48,.79Z"/><path class="cls-2" d="M126.03,617.05c.27,.12,.7,.18,.78,.38,.08,.19-.2,.53-.32,.8-.27-.12-.7-.18-.78-.38-.08-.2,.2-.53,.32-.81Z"/><path class="cls-2" d="M368.87,558.94c-.28,.11-.63,.37-.82,.28-.19-.09-.24-.51-.35-.79,.28-.11,.62-.37,.82-.28,.19,.09,.24,.51,.35,.79Z"/><path class="cls-2" d="M107.91,555.4c-.12,.27-.18,.7-.38,.78-.19,.08-.53-.2-.8-.32,.12-.27,.18-.7,.38-.78,.2-.08,.53,.2,.81,.32Z"/><path class="cls-2" d="M133.93,624.41c-.12,.27-.18,.7-.38,.78-.2,.08-.53-.19-.8-.31,.12-.27,.18-.7,.37-.78,.2-.08,.53,.19,.81,.31Z"/><path class="cls-2" d="M361.87,530.41c-.12,.27-.18,.7-.38,.78-.19,.08-.53-.2-.8-.32,.12-.27,.18-.7,.38-.78,.2-.08,.53,.2,.81,.32Z"/><path class="cls-2" d="M75.31,766.62c-.67,0-1.33,0-2,0,.15-.72,.15-1.7,1.21-1.47,.35,.08,.53,.96,.79,1.47Z"/><path class="cls-2" d="M141.03,632.05c.27,.12,.7,.18,.78,.38,.08,.19-.2,.53-.32,.8-.27-.12-.7-.18-.78-.38-.08-.2,.2-.53,.32-.81Z"/><path class="cls-2" d="M120.55,530.31c-.27-.12-.7-.18-.78-.38-.08-.2,.19-.53,.31-.8,.27,.12,.7,.18,.78,.37,.08,.2-.19,.53-.31,.81Z"/><path class="cls-2" d="M302.66,511.95c.12-.27,.18-.7,.38-.78,.19-.08,.53,.2,.8,.32-.12,.27-.18,.7-.38,.78-.2,.08-.53-.2-.81-.32Z"/><path class="cls-2" d="M113.69,761.9c.12-.27,.18-.7,.38-.78,.19-.08,.53,.2,.8,.32-.12,.27-.18,.7-.38,.78-.2,.08-.53-.2-.81-.32Z"/><path class="cls-2" d="M361.87,507.41c-.12,.27-.18,.7-.38,.78-.19,.08-.53-.2-.8-.32,.12-.27,.18-.7,.38-.78,.2-.08,.53,.2,.81,.32Z"/><path class="cls-2" d="M404.25,192.73c-.67,0-1.33,0-2,0,.15-.72,.14-1.71,1.21-1.48,.35,.08,.53,.96,.78,1.48Z"/><path class="cls-2" d="M191.54,705.27c-.27-.12-.7-.18-.78-.38-.08-.2,.19-.53,.31-.8,.27,.12,.7,.18,.78,.37,.08,.2-.19,.53-.31,.81Z"/><path class="cls-2" d="M309.28,239.73c0-.67,0-1.33,0-2,.72,.15,1.71,.15,1.47,1.21-.08,.35-.96,.53-1.47,.79Z"/><path class="cls-2" d="M366.82,269.74c0,.65,0,1.31,0,1.96-.67-.15-1.4-.35-1.15-1.21,.1-.33,.75-.5,1.15-.75Z"/><path class="cls-2" d="M123.91,692.38c-.12,.27-.18,.7-.38,.78-.19,.08-.53-.2-.8-.32,.12-.27,.18-.7,.38-.78,.2-.08,.53,.2,.81,.32Z"/><path class="cls-2" d="M145.91,415.43c-.12,.27-.18,.7-.38,.78-.19,.08-.53-.2-.8-.32,.12-.27,.18-.7,.38-.78,.2-.08,.53,.2,.81,.32Z"/><path class="cls-10" d="M171.52,697.61c-.14,.83-.11,1.59,.77,2.03,0,.33,0,.67,0,1-.53,.04-1.07,.08-1.6,.12-.43-1.08-.43-2.16,0-3.23,.29-.12,.57-.09,.83,.08Z"/><path class="cls-2" d="M424.82,114.48c-.12,.27-.24,.55-.35,.82-.27-.12-.7-.18-.78-.37-.08-.2,.19-.53,.31-.81,.27,.12,.55,.24,.82,.36Z"/><path class="cls-2" d="M338.34,185.25c-.11,.08-.24,.24-.32,.22-.43-.13-.43-.32,0-.46,.08-.02,.21,.14,.32,.22v.02Z"/><path class="cls-1" d="M727.24,441.61l.18,28.81c-.05,43.95-.1,87.9-.15,131.85-.05,44.45-.16,88.9-.07,133.35,0,4.46-1.05,6.39-5.84,6.03-5.13-.39-10.35,.25-15.47-.19-4.85-.42-5.97,1.54-5.69,5.94,.34,5.31-.05,10.66,.14,15.98,.11,3.13-.74,4.42-4.16,4.41-26.97-.13-53.94-.14-80.91-.04-3.38,.01-4.28-1.22-4.18-4.38,.19-5.82-.18-11.66,.13-17.48,.21-4.04-.89-5.61-5.2-5.41-7.31,.35-14.65,0-21.97,.15-2.79,.05-3.89-.86-3.78-3.71,.17-4.32-.2-8.67,.1-12.98,.27-3.98-.78-5.64-5.15-5.46-8.48,.34-16.97,.12-25.46,.13,.06-18.09,.03-36.19,.25-54.28,.04-3.45-.85-4.58-4.4-4.48-7.46,.21-14.93-.05-22.39-.12-.03-4.16-.1-8.32-.1-12.48,0-35.45-.05-70.91,.1-106.36,.02-4.08-1.01-5.64-5.27-5.35-5.3,.35-10.65-.05-15.97,.14-3.43,.12-4.76-1.1-4.69-4.61,.17-8.49-.02-16.98,.1-25.47,.04-2.78-.88-3.87-3.73-3.81-4.99,.1-9.98-.09-14.97-.16-.13-10.82-.26-21.64-.39-32.46-.02-.31-.03-.63-.04-.94l.02-25.99c-.03-.25-.07-.5-.11-.75l.02-29.86c1.16,.11,2.31,.32,3.47,.32,41.74,.09,83.49,.16,125.23,.22,1.14,0,2.34,.27,3.37-.52,.92,8.95,.32,17.94,.41,26.9,.03,2.48,.56,3.47,3.3,3.47,37.11-.09,74.22-.07,111.32-.1,.66,0,1.31-.19,1.97-.3Zm-161.9,216.83v-.02c3.99,0,7.98-.16,11.96,.06,2.73,.15,3.37-.94,3.32-3.44-.15-6.97-.21-13.95-.06-20.93,.05-2.69-.9-3.34-3.45-3.29-7.97,.15-15.95,.17-23.92,0-2.76-.06-3.32,1.01-3.28,3.48,.13,6.97,.16,13.96-.01,20.93-.07,2.75,1.01,3.37,3.49,3.26,3.98-.17,7.97-.04,11.96-.04Z"/><path class="cls-4" d="M523.2,659.71c7.47,.07,14.94,.33,22.39,.12,3.55-.1,4.44,1.04,4.4,4.48-.22,18.09-.19,36.18-.25,54.28-.51,15.97-.38,31.95-.08,47.93-.08,6.78-.05,13.56-.3,20.32-.11,3.01,.8,3.98,3.9,3.93,8.91-.14,17.83,.07,26.75,.15l.03,21.76-.24,.29,.18,.33c-17.46,.03-34.91,.03-52.37,.14-1.67,0-3.73-.94-4.96,1.19-.62-.06-1.23-.13-1.85-.19,1.05-2.05,.61-4.25,.61-6.39,0-47.78-.02-95.57,.03-143.35,0-1.73-1.23-4.17,1.74-4.97Z"/><path class="cls-15" d="M580.02,790.92c-8.92-.08-17.84-.29-26.75-.15-3.1,.05-4.02-.92-3.9-3.93,.25-6.77,.22-13.55,.3-20.32,8.64,.05,17.27,.22,25.91,.09,3.3-.05,4.84,.7,4.67,4.39-.3,6.63-.17,13.28-.22,19.92Z"/><path class="cls-12" d="M523.2,659.71c-2.97,.81-1.73,3.25-1.74,4.97-.05,47.78-.02,95.57-.03,143.35,0,2.14,.44,4.34-.61,6.39-12.85-.4-25.7-.42-38.55,.07-1.88-.06-4.66-2.04-4.52,2.15-.09,6.81-.43,13.63-.16,20.42,.16,4.06-.9,5.39-5.15,5.35-30.09-.29-60.18-.32-90.27-.46-5.98-.03-11.95-.2-17.92-.3,0-9.35-.02-18.7-.02-28.05,6.98-.02,13.96-.23,20.93,.02,4.02,.14,5.33-1.4,5.07-5.24-.25-3.64,.16-7.32-.12-10.96-.27-3.64,.88-5.07,4.7-4.92,6.47,.26,12.96-.07,19.44,.1,3.01,.08,4.09-.86,4-3.97-.19-6.97-.04-13.96-.03-20.93,.02-.37,.03-.75,.05-1.12,8.29,.03,16.58-.07,24.87,.14,3.34,.08,4.3-1.18,4.2-4.35-.22-6.96-.14-13.92-.18-20.89,.68-7.54,.33-15.08,.2-22.62,8.45-1.06,16.94-.4,25.41-.41,3.61,0,4.82-.77,4.82-4.65,0-35.46,.25-70.91,.41-106.37,.16-35.27-.34-70.55,.67-105.82,4.99,.07,9.98,.26,14.97,.16,2.85-.06,3.77,1.04,3.73,3.81-.12,8.49,.07,16.98-.1,25.47-.07,3.51,1.26,4.73,4.69,4.61,5.32-.19,10.67,.21,15.97-.14,4.25-.28,5.28,1.27,5.27,5.35-.15,35.45-.1,70.91-.1,106.36,0,4.16,.06,8.32,.1,12.48Z"/><path class="cls-2" d="M522.68,814.61c1.23-2.13,3.29-1.18,4.96-1.19,17.46-.1,34.91-.11,52.37-.14,2.02,3.39,.89,7.11,1,10.68,.18,5.78,0,11.57-.02,17.36-8.95,.1-17.91,.45-26.84,.18-4.16-.13-4.99,1.36-4.93,5.11,.18,10.28,0,20.56-.05,30.84-15.91,.12-31.83,.21-47.74,.41-2.58,.03-2.97-1.22-2.97-3.36,0-6.29-.13-12.59-.21-18.88,0-1.33,0-2.67,0-4,0-1,0-2,0-3,0-1.33,0-2.67,0-4,.08-2.4,1.44-2.86,3.62-2.8,5.82,.15,11.66-.06,17.48,.1,2.56,.07,3.51-.66,3.45-3.34-.17-7.99-.1-15.98-.12-23.97Z"/><path class="cls-11" d="M171.25,814.75c.15-2.15,1.72-2.11,3.25-2.1,24.75,.08,49.49,.16,74.24,.24-1.56,7.88-.58,15.84-.61,23.76-.01,4.07-1.05,5.33-5.24,5.29-23.88-.25-47.76-.21-71.64-.27,0-8.97,0-17.94,0-26.9Z"/><path class="cls-9" d="M418.22,767.7c-.01,6.98-.16,13.96,.03,20.93,.09,3.11-.99,4.04-4,3.97-6.48-.17-12.97,.16-19.44-.1-3.83-.15-4.98,1.28-4.7,4.92,.27,3.64-.13,7.32,.12,10.96,.26,3.84-1.05,5.38-5.07,5.24-6.97-.24-13.95-.04-20.93-.02-6.35-.37-12.76,.8-19.08-.79-1.93-.48-3.92-.34-5.71,.75-.39-.27-.78-.54-1.18-.81,.02-5.49,.26-10.98,0-16.46-.17-3.68,.95-4.9,4.75-4.85,14.13,.21,28.27-.06,42.4,.17,4.05,.07,5.22-1.25,4.99-5.12-.29-4.97,.07-9.98-.12-14.96-.12-3.04,.95-4.1,4-4.03,7.98,.2,15.96,.14,23.94,.18Z"/><path class="cls-10" d="M549.17,877.46c.04-10.28,.22-20.56,.05-30.84-.06-3.75,.76-5.24,4.93-5.11,8.94,.27,17.9-.08,26.84-.18,.06,11.98,.12,23.96,.18,35.95l-6.95,.39c-2,0-4,0-6,0-6.35-.07-12.7-.14-19.05-.21Z"/><path class="cls-10" d="M278.27,876.62c-9.71-.03-19.42-.06-29.13-.1-.07-10.11-.1-20.21-.22-30.32-.03-2.2,.53-3.39,3.03-3.34,9.1,.2,18.22-.44,27.3,.57-1.01,11.04-1.05,22.11-.97,33.19Z"/><path class="cls-15" d="M339.44,813.56c1.79-1.09,3.78-1.24,5.71-.75,6.32,1.59,12.73,.43,19.08,.79,0,9.35,.02,18.7,.02,28.05-7.13,.09-14.27,.08-21.4,.32-3.15,.11-3.43-1.52-3.41-4.01,.08-8.13,0-16.27,0-24.41Z"/><path class="cls-4" d="M171.28,890.61v-4c1.62,.09,3.75-.13,3.56,2.24-.14,1.86-2.08,1.73-3.56,1.76Z"/><path class="cls-4" d="M477.76,816.64c-.14-4.19,2.64-2.21,4.52-2.15-.81,2.18-2.65,2.19-4.52,2.15Z"/><path class="cls-4" d="M568.22,877.67c2,0,4,0,6,0-2,3-4,3-6,0Z"/><path class="cls-4" d="M498.24,844.62c0,1.33,0,2.67,0,4-1.38-.11-2.03-.85-1.94-2.24,.08-1.22,.87-1.63,1.94-1.76Z"/><path class="cls-4" d="M171.26,897.61c0-1,0-2,0-3,1.02,.16,2.64-.39,2.59,1.3-.04,1.29-1.38,1.63-2.59,1.7Z"/><path class="cls-4" d="M498.25,851.62c0,1.33,0,2.67,0,4-1.38-.11-2.03-.85-1.94-2.24,.08-1.22,.88-1.63,1.94-1.76Z"/><path class="cls-6" d="M872.72,602.61c-6.16,.04-12.33,.4-18.47,.03-5-.3-6.37,1.66-6.08,6.33,.34,5.47-.07,10.99,.11,16.47,.11,3.18-.87,4.42-4.22,4.37-12.48-.2-24.96-.15-37.44-.19-.06-30.65-.09-61.3-.25-91.95-.01-2.82,1.14-3.27,3.56-3.26,11.99,.08,23.99,.12,35.98-.04,2.94-.04,3.56,1,3.53,3.71-.13,11.66,.09,23.33-.12,34.98-.06,3.52,.96,4.65,4.47,4.45,4.98-.29,10,.06,14.99-.12,2.83-.1,4.29,.4,4.16,3.75-.28,7.15-.17,14.32-.23,21.47Z"/><path class="cls-12" d="M309.2,223.57c-8.39,1.68-16.88,.66-25.31,.8-3.41,.05-4.63,.94-4.63,4.41,0,31.27-.11,62.54-.16,93.81,0,.38,.48,.77,.73,1.15-8.94-.09-17.88-.01-26.81-.34-3.66-.14-4.37,1.23-4.35,4.57,.13,16.96,.03,33.92,0,50.88,0,2.22,.71,4.69-3.19,4.66-24.43-.17-48.87-.18-73.3-.24,.02-18.16,.2-36.31-.06-54.47-.07-4.82,1.78-6.16,6.1-5.98,4.16,.17,8.33-.08,12.49,.07,2.82,.1,3.74-1.02,3.78-3.79,.1-7.64,.64-15.28,.68-22.92,.11-21.66,.18-43.31-.06-64.97-.05-4.53,1.33-5.75,5.66-5.5,5.81,.33,11.67-.23,17.48,.07,4.24,.22,5.26-1.33,5.27-5.41,.06-21.97,.51-43.93,.58-65.9,.01-3.83,1.24-4.94,4.89-4.72,4.65,.27,9.34-.12,13.99,.14,3.56,.2,4.5-1.15,4.52-4.58,.09-14.8,.57-29.61,.63-44.41,.01-3.79,.84-5.37,4.97-5.16,6.65,.34,13.33-.13,19.98,.17,4.08,.19,5.43-1,5.38-5.25-.23-20.32-.13-40.64-.15-60.97,6.98-.28,13.97-.56,20.95-.84,3.47,.98,7.15-.49,10.59,.89-1.04,1.3-.78,2.84-.78,4.31,0,62.67,0,125.34,.01,188.02,0,.5,.08,.99,.13,1.49Z"/><path class="cls-2" d="M278.3,29.71c.02,20.32-.08,40.65,.15,60.97,.05,4.25-1.3,5.44-5.38,5.25-6.65-.3-13.34,.16-19.98-.17-4.13-.21-4.95,1.37-4.97,5.16-.05,14.8-.54,29.61-.63,44.41-.02,3.43-.96,4.78-4.52,4.58-4.65-.26-9.34,.13-13.99-.14-3.65-.22-4.88,.89-4.89,4.72-.07,21.97-.53,43.93-.58,65.9-.01,4.08-1.03,5.63-5.27,5.41-5.81-.3-11.67,.26-17.48-.07-4.32-.25-5.71,.97-5.66,5.5,.24,21.65,.16,43.31,.06,64.97-.04,7.64-.58,15.28-.68,22.92-.04,2.78-.96,3.9-3.78,3.79-4.16-.15-8.33,.1-12.49-.07-4.31-.18-6.17,1.16-6.1,5.98,.26,18.15,.08,36.31,.06,54.47-6.49,.06-12.98-.07-19.46,.25-3.6,.18-4.77-.64-4.76-4.58,.16-49.26,.12-98.53,.1-147.79,0-1.82-.2-3.63-.31-5.45,6.37-1.46,12.84-.58,19.25-.61,3.2-.02,4.18-.83,4.15-4.15-.12-16.59,.04-33.19,.1-49.79,8.3,.11,16.6,.16,24.9,.35,2.27,.05,2.8-.95,2.8-2.99-.09-24.26-.14-48.52-.19-72.78,.91-2.07,2.78-1.43,4.35-1.44,5.32-.06,10.65-.22,15.96,.05,3.4,.17,4.12-1.09,4.09-4.26-.15-18.62-.11-37.25-.05-55.88,0-1.66-.96-3.73,1.18-4.95,15.86,.07,31.73,.12,47.59,.21,2.14,.01,4.28,.15,6.42,.24Z"/><path class="cls-1" d="M278.29,394.7c1.02,.15,1.96,.41,1.79,1.74-.13,1.02-.99,1.13-1.79,1.26,0-1,0-2,0-3Z"/><path class="cls-11" d="M476.22,271.51c-2.09-24.35-.39-48.75-.99-73.11-.07-2.85,1.06-3.77,3.81-3.71,5.98,.12,11.96,0,17.93-.01,1.03,5.59,.34,11.23,.36,16.85,.08,18.91-.08,37.82,.1,56.73,.03,3.64-.82,4.95-4.64,4.77-5.45-.27-10.93,.09-16.4,.18-.06-.56-.11-1.13-.17-1.69Z"/><path class="cls-9" d="M476.22,271.51c.06,.56,.11,1.13,.17,1.69,.02,5.97-.2,11.94,.13,17.89,.22,4.03-.87,5.61-5.16,5.37-6.11-.35-12.26-.09-18.39-.06-1.8,0-3.66-.31-5.34,.7-.07-7.3-.05-14.6-.25-21.89-.08-3,1.34-3.59,3.95-3.57,8.3,.05,16.6-.07,24.9-.12Z"/><path class="cls-10" d="M118.25,876.69c-4.79-.05-9.6-.36-14.37-.08-3.85,.23-4.75-1.24-4.66-4.85,.24-9.75,.12-19.5,.14-29.25,6.32-.63,12.65-.46,18.98-.06-.03,11.41-.05,22.83-.08,34.24Z"/><path class="cls-14" d="M420.33,441.25c-8.97,.09-17.95,.13-26.92,.29-2.28,.04-2.81-1.06-2.8-3.06,.05-7.99,.14-15.98-.02-23.96-.06-2.91,1.36-3.2,3.67-3.17,6.82,.09,13.65,.07,20.47,.02,1.63-.01,3.34,.44,4.86-.56,.24,.38,.49,.75,.73,1.13l-.16,29.09,.16,.23Z"/><path class="cls-2" d="M478.15,441.47c.04,.25,.08,.5,.11,.75-1.83,8.66-1.59,17.32-.02,25.98,0,.31,.02,.63,.04,.94-9.44,.82-18.9,.17-28.35,.34-1.57,.03-2.54-.48-2.46-2.26,.36-8.43-.7-16.9,.55-25.31,1.1,.34,2.19,.41,3.27-.09,8.97,.43,17.93,.5,26.87-.36Z"/><path class="cls-8" d="M420.18,441.02l.16-29.09c7.96,.01,15.92,.17,23.87-.03,3.11-.08,3.95,.89,3.88,3.93-.15,6.95,.09,13.91,.17,20.86-.64,1.39,.28,3.11-.96,4.37l-27.11-.04Z"/><path class="cls-14" d="M447.28,441.06c1.24-1.25,.32-2.98,.96-4.37,2.83,.64,2.3,3.26,3.03,5.14-1.08,.5-2.17,.43-3.27,.09-.24-.29-.48-.57-.73-.86Z"/><path class="cls-4" d="M447.28,441.06c.24,.29,.48,.57,.73,.86-1.25,8.42-.19,16.88-.55,25.31-.08,1.78,.89,2.29,2.46,2.26,9.45-.17,18.91,.48,28.35-.34,.13,10.82,.26,21.64,.39,32.46-1.01,35.27-.51,70.55-.67,105.82-.16,35.46-.4,70.91-.41,106.37,0,3.88-1.22,4.65-4.82,4.65-8.47,.01-16.96-.66-25.41,.41-.35-.4-.7-.8-1.05-1.2-.02-17-.03-34.01-.05-51.01,1.47-1.67,1.48-3.34-.02-5-.17-27.6-.5-55.2-.46-82.8,.05-34.92,.36-69.85,.67-104.77,.03-3.29-.48-4.59-4.28-4.39-6.95,.37-13.95-.03-20.93-.1-.32-.3-.63-.59-.95-.89-.41-9.14-.53-18.28,.05-27.43,0-.01-.16-.24-.16-.24l27.11,.04Z"/><path class="cls-15" d="M447.15,741.48c.04,6.96-.03,13.93,.18,20.89,.1,3.17-.86,4.43-4.2,4.35-8.29-.21-16.58-.11-24.87-.14,.41-8.43,.82-16.86,1.23-25.29,9.22,.06,18.44,.13,27.66,.19Z"/><path class="cls-5" d="M447.15,741.48c-9.22-.06-18.44-.13-27.66-.19,0-6.3,.26-12.61-.12-18.88-.25-4.17,1.32-4.86,5.06-4.72,7.28,.28,14.57,0,21.86-.03,.35,.4,.7,.8,1.05,1.2,.13,7.54,.49,15.09-.2,22.62Z"/><path class="cls-2" d="M171.45,741.65c.03,8.31,.06,16.63,.08,24.94l-24.76,.08c.02-7.14,.17-14.29-.01-21.43-.08-2.96,.62-4.09,3.81-3.95,6.47,.27,12.95,.11,19.43,.13,.48,.08,.96,.15,1.44,.23Z"/><path class="cls-5" d="M446.23,661.65c1.49,1.66,1.49,3.33,.02,5-.49-1.66-.48-3.33-.02-5Z"/><path class="cls-14" d="M420.29,468.69l.95,.89c-.67,.09-1.04-.16-.95-.89Z"/><path class="cls-10" d="M171.45,741.65c-.48-.08-.96-.15-1.44-.23,.26-.97,.52-1.94,.78-2.92,.67-.16,1.17,.03,1.42,.71-.25,.81-.51,1.62-.76,2.43Z"/><path class="cls-5" d="M565.34,658.44c-3.99,0-7.98-.12-11.96,.04-2.48,.1-3.56-.51-3.49-3.26,.18-6.97,.14-13.95,.01-20.93-.05-2.47,.52-3.54,3.28-3.48,7.97,.17,15.95,.16,23.92,0,2.55-.05,3.51,.6,3.45,3.29-.14,6.97-.09,13.95,.06,20.93,.05,2.51-.59,3.59-3.32,3.44-3.97-.22-7.97-.06-11.96-.06v.02Z"/><path class="cls-12" d="M478.24,468.21c-1.57-8.66-1.81-17.32,.02-25.98,0,8.66-.01,17.32-.02,25.98Z"/></g><rect class="cls-4" x="27.09" y="602.9" width="55.44" height="25.28"/></svg>