<?xml version="1.0" encoding="UTF-8"?><svg id="Layer_1" xmlns="http://www.w3.org/2000/svg" viewBox="0 0 986.66 696.45"><defs><style>.cls-1{fill:#020202;}.cls-2{fill:#999190;}.cls-3{fill:#7e787a;}.cls-4{fill:#6c676a;}.cls-5{fill:#afa6a3;}.cls-6{fill:#a69e9c;}.cls-7{fill:#444249;}.cls-8{fill:#19171b;}.cls-9{fill:#878183;}.cls-10{fill:#3b3a40;}.cls-11{fill:#49494f;}.cls-12{fill:#5d5a61;}.cls-13{fill:#797375;}.cls-14{fill:#525158;}.cls-15{fill:#515057;}</style></defs><path class="cls-14" d="M703.15,71.81c1,7.02,.56,14.05,.23,21.08,0,27,0,54-.01,81q-12-.03-12-11.44c0-8.86-1.38-9.98-10.24-8.29-.65,.12-1.26,.45-1.91,.56-7.62,1.29-8.82,.3-8.82-7.3,0-1.16-.1-2.34,.02-3.49,.3-2.98-.84-4.24-3.95-4.08-3.98,.2-8.02,.37-11.97-.03-4.93-.49-6.59,2.26-5.97,6.16,1.41,8.78,.62,17.58,.78,26.36,.05,3,1.39,3.64,3.99,3.56,3.99-.12,8.01,.27,11.97-.11,4.69-.44,6.27,1.01,6.21,5.95-.26,22.13-.04,44.26-.19,66.39-.03,3.72,1.05,4.95,4.8,4.81,7.31-.26,14.64,.04,21.96-.14,3.16-.08,4.54,.8,4.37,4.19-.83,16.62,1.39,33.18,.92,49.8-23.98,.07-47.96,.14-71.93,.21-1.21-1.68-3.02-1.12-4.61-1.14-5.66-.07-11.34-.22-16.99,.04-3.59,.16-4.63-1.21-4.48-4.62,.23-5.15-.03-10.33,.08-15.49,.06-2.59-.51-4.07-3.55-3.99-5.99,.16-11.99,.11-17.99,0-2.56-.05-3.61,.89-3.54,3.49,.12,4.49-.28,9.02,.12,13.48,.42,4.75-1.08,6.87-5.99,6.08-3.75-.6-5.31,.7-5.18,4.86,.36,11.62-1.61,23.22-.85,34.86,.21,3.25-.95,4.43-4.25,4.32-5.99-.21-12,.13-17.99-.12-3.63-.15-5.18,.85-4.89,4.72,.31,4.14,.11,8.32,.06,12.49-.13,10.19,1.38,8.73-8.6,8.85-4.66,.06-9.36,.33-13.98-.08-4.62-.41-5.77,1.43-5.45,5.69,.34,4.64,.06,9.32,.08,13.99,0,1.81-.22,3.66-2.55,3.33-5.95-.84-11.79,2.01-17.78,.25-3.23-.95-4.94,.31-4.75,4.07,.25,4.98,.07,9.99,.04,14.99-.01,1.63,.2,3.21-2.2,3.75-9.11,2.05-11.77,.05-11.77-9.2,0-3.5,.05-7-.03-10.49-.02-.98,.57-2.49-1.99-2.65,0,6.33-.11,12.6,.05,18.87,.08,3.1-1.51,3.52-4.03,3.52-2.51,0-4.17-.38-4.05-3.5,.17-4.49,.21-9-.03-13.49-.12-2.39,1.72-6.02-3.32-6.12-4.95-.1-3.55,3.38-3.57,5.89-.09,11.16-.19,22.32,.04,33.48,.08,3.8-1.2,5.2-4.87,4.7-3.02-.42-5.92,.66-8.88,.91-7.23,.63-7.3,.5-7.31-6.6,0-2.17,.02-4.33,0-6.5-.12-8.77,1.22-7.66-8.13-7.87-3.08-.07-4.65,.42-5.25,4.07-.66,4.01-.37,7.95-.63,11.91-.1,1.45,.46,3.28-1.24,4.02-2.41,1.05-2.5,3.05-3.06,5.18-1.28,4.79-.26,9.63-.75,14.41-8.78,.07-17.58,.63-26.32,.09-11.14-.7-22.25-.23-33.37-.46-4.95-.39-9.89-1.03-14.85-1.12-12.28-.21-24.52,1.61-36.82,.9-3-.18-3.66,1.31-3.59,3.93,.12,4.66-.36,9.36,.14,13.96,.58,5.35-1.59,6.37-6.45,6.23-11.47-.34-22.96-.01-34.43-.17-3.29-.05-4.37,1.06-4.27,4.31,.2,6.32-.04,12.64,.1,18.96,.06,2.76-.88,3.92-3.73,3.81-4.15-.16-8.33,.16-12.47-.09-3.57-.22-5.13,.74-4.94,4.67,.31,6.47,.12,12.97,.14,19.46h0c-7.35-.02-14.69-.02-22.04-.03-3.48,0-6.99,.3-10.42-.11-4.84-.57-5.73,1.55-5.67,5.91,.22,17.39,.09,34.78,.09,52.17-27.32-.03-54.63-.07-81.95-.1,.02-3.96,.04-7.91,.05-11.87,11.83-.01,23.65-.03,35.48-.04,13.45,0,13.22,0,13.55-13.39,.12-4.82-1.49-7.15-6.12-7.61-1.99-1.98-5.35-2.48-6.45-5.27-1.95-4.9-5.63-7.11-10.56-7.78,.01-3.65,.02-7.29,.03-10.94,7.47-.01,14.95-.25,22.41,.04,4.48,.18,5.85-1.52,5.61-5.79-.29-5.13,.13-10.3-.13-15.43-.18-3.61,.81-5.11,4.68-4.89,5.46,.31,10.96-.06,16.43,.13,3.08,.1,4.19-1.05,3.95-4.06-.56-6.92-1.36-13.85-.81-20.82,4.98-.07,9.98-.31,14.96-.16,3.1,.09,4.07-1.11,3.98-4.09-.17-5.65,.08-11.31-.1-16.96-.1-3.03,.95-4.13,4.01-4.05,6.15,.17,12.31,0,18.46,.07,2.71,.03,4.53-.57,4.5-3.8-.07-7.15-.05-14.31,0-21.46,.02-2.86-1.49-3.72-4.09-3.7-6.82,.06-13.64,.11-20.46-.01-3.21-.06-4.49,1.21-4.42,4.42,.14,5.65-.3,11.34,.13,16.96,.37,4.82-1.52,5.95-5.94,5.74-3.36-.16-6.94-1.06-10.2,.82-7.96-.09-15.91-.17-23.87-.26-.04-4.46-.1-8.92-.09-13.38,0-1.88-.4-3.21-2.67-3.25-8.13-.14-16.25,.04-24.35,.8-8.68-.09-17.36-.19-26.05-.28-1.02-5.05-1.25-10.03-.19-15.19,.56-2.7,1.24-5.92-.88-8.58,.05-4.99,.46-10,.06-14.95-.4-4.99,1.52-5.99,6.19-5.95,24.27,.21,48.55,.06,72.83,.04,.35,3.38,2.84,3.19,5.19,2.99,1.96-.17,3.89-.6,5.83-.92,10.99,0,21.98-.01,32.97-.02,5.64,.98,11.33,1.02,17.03,1.01,.02,5.99,.04,11.97,.07,17.96-2.77,4.51,.82,9.05-.05,13.6-.67,3.48,1.02,4.53,4.47,4.49,13.39-.13,26.74-1.73,40.15-1.03,2.7,.14,3.42-1.19,3.36-3.61-.1-4.47-.03-8.95-.03-13.42,4.81-.01,9.62-.22,14.41,.03,3.54,.19,7.26-1.22,10.61,.98,0,2.99,0,5.99,0,8.98,0,1.16,.13,2.33-.04,3.47-.61,4.21,.79,6.07,5.37,5.64,4.26-.4,8.59-.02,12.89-.1,9.79-.18,8.75,1.78,8.72-9.05-.04-2.99-.07-5.97-.11-8.96,.04-5.32,.4-10.66,.02-15.95-.34-4.74,1.11-6.22,6-6.16,24.77,.26,49.55,.16,74.32,.17q6.84,0,6.84-6.6c0-4.99,.11-9.98-.02-14.96-.09-3.17,1.13-4.6,4.38-4.45,3.15,.14,6.35-.25,9.47,.09,4.68,.52,6.69-.95,6.18-5.93-.4-3.95,.1-7.98-.13-11.96-.19-3.34,1.14-4.37,4.33-4.25,4.98,.18,9.98-.08,14.96,.06,2.78,.08,3.91-.89,3.78-3.73-.23-5.14-.25-10.29-.35-15.44l.71-15.88c5.33,.01,10.66,.03,16,.04q10.71,0,10.6-11.16c.08-7.6,.16-15.2,.24-22.8,6.96-.17,13.91,.26,20.88-.84,3.36-.53,4.09-1.68,4.01-4.69-.17-5.82,.06-11.66-.1-17.48-.08-2.94,.81-4.06,3.94-4.14,10.36-.25,20.87,1.45,31.04-1.92,7.92,0,15.85-.1,23.77,.08,3.16,.07,4.44-.87,4.33-4.19-.2-6.27-.05-12.54-.05-18.82,1.45-1.34,.91-3.11,.93-4.72,.05-6,.16-12-.05-17.99-.11-3.24,.94-4.44,4.25-4.33,6.32,.21,12.66-.03,18.99,.1,2.73,.06,3.89-.8,3.85-3.69-.11-8.33-.07-16.66,.05-24.99,.04-2.64-1.03-3.52-3.56-3.47-5.33,.11-10.66,.03-15.99,.03-6.44,0-6.59,0-6.49,6.41,.05,3.25-.62,4.77-4.36,4.74-18.49-.16-36.99-.13-55.48,0-3.29,.02-4.37-1.07-4.28-4.32,.15-5.65,.59-11.43-.35-16.94-.82-4.85,.59-5.88,4.95-5.84,15.49,.12,30.99,.04,46.48,.03q13.13,0,13.03-12.97c6.44-.04,12.88-.01,19.31-.15,3.32-.07,5.37-.79,5.93-5.23,.91-7.26,.43-14.46,.76-21.67,4.62-.01,9.25-.19,13.86,.02,3.32,.16,4.34-1.14,4.19-4.32-.21-4.61-.03-9.24-.11-13.86-.04-2.2,.14-4.04,3.04-3.84,4.97,.02,9.98-.29,14.91,.13,5.05,.43,5.6-2.21,4.84-5.98-1.03-5.1-.9-10.19-.25-15.3l32.27,.04Z"/><path class="cls-3" d="M604.41,141.96q.09,12.96-13.03,12.97c-15.49,0-30.99,.09-46.48-.03-4.36-.03-5.77,.99-4.95,5.84,.93,5.51,.5,11.29,.35,16.94-.09,3.25,.99,4.34,4.28,4.32,18.49-.13,36.99-.17,55.48,0,3.74,.03,4.41-1.48,4.36-4.74-.1-6.4,.05-6.41,6.49-6.41,5.33,0,10.66,.08,15.99-.03,2.53-.05,3.59,.83,3.56,3.47-.12,8.33-.16,16.66-.05,24.99,.04,2.89-1.12,3.75-3.85,3.69-6.33-.13-12.67,.11-18.99-.1-3.32-.11-4.36,1.1-4.25,4.33,.21,5.99,.1,11.99,.05,17.99-.01,1.61,.53,3.37-.93,4.72-1.46-.24-2.91-.64-4.37-.68-6.48-.18-12.94,1.6-19.47-.2-2.83-.78-4.23,.95-4.2,3.93,.06,6.63,0,13.25,0,19.88-10.17,3.38-20.67,1.67-31.04,1.92-3.13,.08-4.02,1.19-3.94,4.14,.16,5.82-.07,11.66,.1,17.48,.09,3.01-.65,4.16-4.01,4.69-6.97,1.09-13.92,.67-20.88,.84l-.44-.08c.18-18.01,.82-36.02-.7-54.01-.03-5.94-.32-11.9,0-17.82,.24-4.28-1.38-5.31-5.38-5.18-6.9,.23-13.73,1.73-20.67,1.05-13.14-.01-26.29,.07-39.43-.1-3.4-.04-4.8,.88-4.6,4.47,.27,4.64-.05,9.32,.1,13.97,.09,2.83-1.01,3.81-3.79,3.74-5.65-.14-11.32,.18-16.97-.11-3.96-.2-5.54,.79-5.47,5.16,.26,16.3,.11,32.61,.12,48.91-.96,1.63-.99,3.41-.97,5.23,.08,6.52-.38,13.07,1.06,19.52-8.9,.05-17.8,.2-26.69,.1-3.04-.03-4.84,.63-4.34,4.07-18.18,.04-36.35,.08-54.53,.13-.11-1.69-.21-3.38-.32-5.07,5.61-.04,11.22-.08,16.82-.12,.99,.01,1.99-.09,2.96,.06,4.64,.74,6.58-.93,6.07-5.83-.59-5.69-.67-11.44-.97-17.17-.01-7.79-.15-15.59,.03-23.37,.07-3.3-.7-4.86-4.39-4.67-5.46,.27-10.94,.22-16.41,0-3.25-.13-4.36,1-4.29,4.26,.18,7.62,.04,15.25,.03,22.87-6.49-.01-12.98,.21-19.45-.13-4.26-.23-5.97,.86-5.69,5.46,.38,6.13,.02,12.3-.02,18.45-.27,.04-.54,.12-.79,.24-7.32-.02-14.64-.06-21.97-.05-2.08,0-3.83,.03-3.57,3.25,.46,5.79,.2,11.62,.48,17.43,.15,3.19-.86,4.52-4.21,4.36-4.65-.23-9.32,.05-13.98-.1-2.76-.09-3.91,.85-3.81,3.71,.16,4.82-.07,9.65,.08,14.48,.08,2.76-.85,3.95-3.71,3.81-3.49-.16-7,.12-10.48-.08-3.11-.18-4.07,1.09-3.98,4.07,.17,5.99,.05,11.98,.06,17.97h.03l-31.95,.17c-1.83-.06-3.65-.16-5.48-.17-6.14-.01-6.39,.24-6.45,6.51-.05,5.82-.08,11.64-.12,17.45-24.28,.02-48.55,.17-72.83-.04-4.66-.04-6.59,.97-6.19,5.95,.4,4.95,0,9.96-.06,14.95-3.76-.22-7.53-.68-11.29-.63-10.65,.14-10.65,.22-10.73,10.61,0,.99-.06,1.98-.09,2.96-8.08,.07-16.16,.07-24.23,.24-2.22,.05-4.64-.85-6.63,.95-8.29,.02-16.58,.04-24.87,.06-.05-11.77-.23-23.55-.09-35.32,.1-8.26-.51-16.55,.6-24.79l-.11,.1c4.45,.09,8.9,.25,13.34,.27,10.45,.03,10.45,0,11.14-10.24,6.08-.35,12.15-.69,18.23-1.04,11.58-.04,23.15-.08,34.73-.13,.06,1.33,.03,2.67,.18,3.99,.75,6.76,1.21,7.17,7.94,7.17,5.99,0,11.98,0,17.98,0,.57,.31,1.13,.88,1.7,.88,7.78,.08,15.57,.02,23.35,.12,3.02,.04,2.99-1.89,2.95-3.98-.13-6.39-1.47-12.78-.01-19.17,6.96-.16,13.93,.7,20.89-.52,2.52-.44,3.32-1.52,3.24-3.94-.14-3.99,.09-7.99-.06-11.98-.12-3.28,1.31-4.44,4.47-4.35,5.15,.14,10.33-.17,15.47,.09,3.79,.19,5.44-.81,5.16-4.96-.35-5.3,.07-10.65-.14-15.97-.13-3.26,.98-4.36,4.27-4.28,9.15,.2,18.31-.09,27.45,.21,4.16,.14,5.36-1.16,5.32-5.31-.2-20.8-.09-41.6-.09-62.4q0-10.33,10.11-10.33,10.99,0,10.99-10.95,0-13.16,13.27-13.17c13.94,0,13.82,0,13.8-14.23,0-3.68-1.01-4.86-4.78-4.86-8.45,0-16.95,.89-25.35-.85-.38-5.39,1.66-10.62,.99-16.03,13.76-.04,27.53,0,41.29-.15,4.42-.05,10.08,2.13,12.92-.8,2.79-2.88,.92-8.54,.83-12.95-.07-3.82,1.22-7.88-1.23-11.48l.5-3.79c8.83,.82,17.68,.52,26.52,.16l27.13,.08c.02,1.33-.11,2.69,.1,3.99,.75,4.78-1.1,6.46-5.98,6.11-5.8-.42-11.67,.15-17.48-.18-4.5-.25-5.76,1.53-5.63,5.81,.26,8.49,0,16.99,.11,25.49,.04,2.79-.91,3.9-3.75,3.79-4.16-.17-8.33-.05-12.49-.06q-8.53-.01-7.93,8.56c.09,1.33,.02,2.66,.03,4,0,8.83,.11,17.66-.03,26.49-.05,3.03,.96,4.13,4.02,4.05,6.33-.18,12.67-.21,18.99,0,3.39,.12,4.32-1.22,4.19-4.39-.2-4.99,0-9.99-.07-14.99-.03-2.28,.33-3.81,3.19-3.82,6.47-.02,12.95-.29,19.4-.44,4.11-.1,4.35-1.37,4.35-4.42,0-6,.13-11.99,.21-17.99,9.09,1.49,13.77-4.22,17.84-10.92,6.33-.04,12.66-.09,18.99-.11,6.86-.03,7.11-.03,6.82-6.85-.18-4.22,1.22-5.38,5.35-5.29,10.11,.22,10.73-.59,10.74-10.65,0-1.17,.1-2.34,0-3.5-.25-2.76,.85-3.92,3.71-3.82,4.33,.16,8.67-.08,12.99,.07,3.27,.11,4.44-1.29,4.36-4.48-.15-5.49,.1-11-.1-16.49-.11-3.11,1.08-4.13,4.08-3.98,3.82,.19,7.67-.13,11.49,.1,3.38,.2,4.86-.8,4.64-4.44-.28-4.65-.31-9.34,0-13.99,.26-3.93-1.38-4.75-4.94-4.68-10.16,.2-20.33-.04-30.49,.13-3.31,.05-4.9-.7-4.69-4.4,.3-5.32,.15-10.66,.19-15.99,41.5-.02,83-.04,124.5-.06,.22,12.93,1.66,25.82,1.17,38.76-.13,3.46,.98,4.66,4.51,4.57,8.8-.22,17.61-.08,26.42-.08l1.19,.07c0,9.02,0,18.04,.01,27.05Zm-89.02,.4h-.03c0-7.81-.1-15.62,.05-23.43,.06-2.95-.81-4.18-3.95-4.09-6.64,.19-13.29,.16-19.93,.03-2.87-.06-4.19,.68-4.16,3.88,.12,15.78,.08,31.57-.02,47.35-.02,2.79,.94,3.83,3.75,3.78,6.64-.13,13.3-.22,19.93,.04,3.65,.14,4.5-1.31,4.42-4.64-.19-7.64-.06-15.28-.06-22.93Z"/><path class="cls-10" d="M703.35,306.82c.47-16.62-1.76-33.18-.92-49.8,.17-3.39-1.21-4.27-4.37-4.19-7.32,.18-14.65-.13-21.96,.14-3.75,.14-4.83-1.09-4.8-4.81,.15-22.13-.08-44.26,.19-66.39,.06-4.95-1.52-6.4-6.21-5.95-3.96,.37-7.98-.02-11.97,.11-2.6,.08-3.94-.56-3.99-3.56-.16-8.78,.63-17.57-.78-26.36-.63-3.9,1.04-6.65,5.97-6.16,3.95,.39,7.99,.23,11.97,.03,3.11-.16,4.25,1.1,3.95,4.08-.12,1.15-.02,2.33-.02,3.49,0,7.6,1.2,8.59,8.82,7.3,.65-.11,1.26-.44,1.91-.56,8.86-1.69,10.24-.56,10.24,8.29q0,11.41,12,11.44c.04,8.1,.18,16.2,.06,24.3-.05,3.38,1.08,4.77,4.58,4.68,6.77-.17,13.56-.01,20.33,0,8.92-.22,17.84,.47,26.75-.39l.21,.26c0,4.16-.2,8.32,.05,12.46,.23,3.88-1.17,7.93,1.01,11.64,0,16.49,.09,32.98-.04,49.47-.03,3.42,.91,4.87,4.5,4.57,5.44-.45,10.94,.51,16.39-.89,3.58-.92,5.51,.37,5.25,4.65-.36,5.81,0,11.66-.13,17.48-.07,2.8,.97,3.89,3.78,3.76,11.47-.51,22.87,1.51,34.36,1,6.65-.29,13.32,0,19.98,.02,.03,7.66,.06,15.32,.09,22.97-9.71,1.39-19.48,.77-29.22,.95-8.68-2.13-17.48-.62-26.23-.86-2.39-.07-2.72,1.99-2.72,3.96,0,5.32-.03,10.63-.04,15.95-8.9,.09-17.8,.17-26.7,.26-.09-4.97-.51-9.97-.16-14.92,.33-4.59-1.43-5.68-5.68-5.46-6.46,.33-12.94,.09-19.42,.09-.98,0-1.96,.01-2.94,.02,0-6.28-.17-12.56,.04-18.83,.11-3.33-1.15-4.27-4.31-4.19-6.6,.15-13.21-.02-19.82-.06Z"/><path class="cls-15" d="M946.91,348.84c.14,1.01,.28,2.02,.42,3.03,.01,2.49,.04,4.99,.04,7.48-.06,32.63-.16,65.25-.15,97.88,0,2.97-1.18,3.66-3.88,3.57-4.99-.17-9.99,.1-14.98-.12-3.26-.15-4.29,.99-4.3,4.26-.06,15.3-.36,30.6-.57,45.9-7.43,0-14.87,.24-22.29-.08-4.09-.18-5.06,1.34-4.94,5.12,.24,7.26,.03,14.53,0,21.8-.12,.35-.24,.71-.36,1.06l-19.59,.12q-8-.64-8-8.19c0-4.63-.01-9.26,0-13.89,0-3.38-1.3-5.1-5.05-5.01-7.93,.19-15.87,.03-23.8,.02-.05-9.65-.1-19.3-.15-28.95,.29-.39,.83-.78,.84-1.17,.09-13.11,.13-26.23,.18-39.34,0-2.41-1.67-2.49-3.43-2.49-4.15,.01-8.31,.13-12.46-.02-4.77-.17-10.94,2.08-13.95-.9-3.23-3.2-.92-9.46-1.07-14.37-.2-6.68-.05-6.69,6.65-6.7,7.15,.01,14.29,.17,21.43-.02,3.73-.1,5.06,1.35,4.88,4.98-.21,4.14,.13,8.32-.1,12.46-.19,3.39,.85,4.76,4.45,4.61,6.3-.26,12.64,.14,18.94-.16,3.86-.18,4.95,1.26,4.69,4.89-.27,3.8,.06,7.64-.1,11.46-.12,2.8,.95,3.84,3.76,3.77,5.81-.14,11.64-.17,17.45,.01,3.11,.1,4-1.12,3.96-4.08-.14-11.96-.1-23.93-.12-35.89,7.46,0,14.93-.21,22.38,.06,3.83,.14,4.77-1.26,4.72-4.87-.19-12.76-.07-25.53-.07-38.29,0-9.31-.15-18.63,.99-27.9,7.86-.01,15.73-.02,23.59-.03Z"/><path class="cls-1" d="M571.1,71.59c-41.5,.02-83,.04-124.5,.06-1.64-.15-3.27-.44-4.91-.44-14.82-.05-29.64-.05-44.46-.06-12.24,0-12.04,0-12.3,12.17-.22,10.12,.88,20.28-.63,30.37-8.52-.69-17.11,.59-25.6-.95,0-12.48,.1-24.96-.07-37.44-.04-3.24,.85-4.36,4.17-4.23,6.15,.25,12.31-.05,18.46,.12,2.81,.08,3.79-.83,3.72-3.68-.14-6.32,.1-12.65,0-18.97-.05-2.67,.19-4.02,3.59-4.29,13.62-1.08,27.24-.34,40.85-.38,1.1,1.03,2.47,.83,3.78,.83,16.47,.03,32.94,.06,49.42,.07,1.3,0,2.69,.27,3.78-.79,25.81,.06,51.62,.11,77.43,.17q6.92,.02,6.95-7.16c.01-4.66,.16-9.33-.04-13.99-.13-2.92,.99-3.64,3.75-3.63,30.47,.09,60.95,.1,91.42,.01,2.95,0,4.17,.68,4.03,3.86-.24,5.32,.17,10.67-.13,15.98-.21,3.71,1.01,5.03,4.73,4.95,8.16-.17,16.32,.14,24.48-.08,3.34-.09,4.27,.97,4.18,4.23-.21,7.82-.05,15.65-.05,23.48-10.76-.01-21.51-.03-32.27-.04l-.27-.05c-.08-2.27-.16-4.53-.24-6.8,.07-2.31,.2-4.62,.2-6.93q0-14.75-15.27-12.38c-2-.44-3.99-.54-5.97,.09-.48-.11-.97-.31-1.45-.31-24.43,.1-48.87,.25-73.3,.29-2.62,0-3.45,.9-3.42,3.47,.1,7.48-.02,14.96-.06,22.44Z"/><path class="cls-10" d="M703.47,619.54c.41,.91,.14,1.68-.47,2.38-10.55-.06-21.1-.12-31.64-.18,0-8.83-.13-17.65,.09-26.48,.09-3.56-1.17-4.61-4.6-4.5-6.82,.22-13.66-.05-20.48,.12-3.07,.08-4.23-1.03-3.99-4.06,.4-5.12-.4-10.24,.79-15.39,1.22-5.27-1.02-7.61-6.35-7.6-2.66,0-5.33,.08-7.99,.12-.13-7.75-.44-15.51-.3-23.26,.07-3.62-.88-5.01-4.7-4.84-6.43,.27-12.88,.03-19.32,0-11.66-.03-23.32-.07-34.98-.1-.02-9.66-.03-19.33-.05-28.99,1.83-.92,1.83-2.58,1.81-4.29-.06-6.49-.09-12.99-.13-19.48,5.08,.02,10.15-1.29,15.25-.16,4.26,2.17,8.8,.81,13.18,.87,3.61,.05,5.08,.92,4.89,4.78-.29,5.98,.13,12-.15,17.98-.19,4.2,1.42,5.51,5.51,5.44,11.82-.2,23.65,.06,35.47-.15,3.8-.07,5.27,.85,5.18,4.97-.2,9.08-1.49,8.02,8.24,8.1,.5,0,1-.03,1.5,0,3.78,.28,8.42-1.55,11.14,.81,2.63,2.29,.84,6.93,.92,10.52,.06,2.85,1.11,3.82,3.87,3.7,3.82-.16,7.66,.08,11.49-.08,2.81-.12,3.86,.96,3.78,3.77-.15,4.99,.2,10.01-.11,14.98-.26,4.07,.98,5.46,5.24,5.4,17.65-.23,35.3-.1,52.96-.1,7.19,0,7.81,.49,7.8,7.92,0,6.75-1.45,13.49-.06,20.24-16.41-.03-32.83,.05-49.24-.15-3.75-.05-4.89,1.11-4.75,4.82,.3,7.62,.16,15.25,.21,22.88Z"/><path class="cls-1" d="M630.49,653.81c-.01,8.34-.02,16.68-.03,25.02-19.76,.06-39.53,.1-59.29,.2-1.93,.01-4.01-.61-5.77,.8-1,0-1.99,0-2.99,0-2.67-1.28-5.34-1.28-8.01,0-38.77,.07-77.53,.13-116.3,.22-34.11,.08-68.22,.11-102.33,.36-3.95,.03-5.15-1.02-4.93-4.97,.39-7.13,.26-14.29,.34-21.43l26.26-.21c43.3,.02,86.6,.09,129.9,.05,17.65-.02,35.3-.26,52.95-.39,22.07,.47,44.15,.45,66.22,.02,7.99,.11,15.99,.22,23.98,.33Z"/><path class="cls-1" d="M116.52,593.73c27.32,.03,54.63,.07,81.95,.1,3.97,.03,7.96-.16,11.9,.14,3.85,.3,5.17-.93,5.09-4.95-.24-12.4-.06-24.81-.05-37.22,5.6,.01,11.21-.12,16.8,.09,3.15,.12,4.5-.82,4.3-4.15-.23-3.94-.02-7.9,0-11.85h0c6.68-.02,13.36-.04,20.05-.06,.03,8.69,.06,17.37,.08,26.06-.19,.22-.32,.47-.41,.74-5.14,.04-10.28,.18-15.42,.09-2.59-.04-3.51,.97-3.48,3.51,.09,7.96,.11,15.93-.01,23.89-.04,2.75,.88,3.89,3.72,3.79,5.14-.17,10.28-.09,15.42-.11,6.1,.03,12.21,.15,18.31,.06,2.65-.04,3.94,.69,3.85,3.61-.2,7.25-.2,14.51-.27,21.76-30.96-.12-61.92-.24-92.88-.37-1.76-1.41-3.85-.88-5.77-.8-8.4,.36-16.84-1.19-25.2,.59-2.02,0-4.04-.01-6.06-.02-1.98-1.25-3.95-1.25-5.93,0l-4.07-.02c-5.33-1.8-10.81-.65-16.21-.69-4.89-.04-9.89-1-14.71,.72-2.69,0-5.37,0-8.06,.01-1.6-1.26-3.25-1.07-4.92-.14-1.59-8.15-.65-16.36-.54-24.55,7.51-.08,15.02-.15,22.53-.23Z"/><path class="cls-1" d="M703.47,619.54c-.04-7.63,.09-15.26-.21-22.88-.14-3.71,1-4.86,4.75-4.82,16.41,.21,32.83,.13,49.24,.15,8.94,1.52,17.94,.31,26.9,.67,5.3,.05,10.62-.1,15.9,.2,3.7,.21,4.45-1.4,4.37-4.68-.18-7.79-.07-15.58-.07-23.37l10.77-.24c5.44,.07,10.89,.28,16.32,.15,2.34-.05,4.99,1.1,6.99-1.17,1.98,.12,3.96,.33,5.93,.33,16.73,.01,33.46-.01,50.19-.03,.04,7.99-.11,16,.22,23.98,.15,3.71-1.25,4.29-4.56,4.28-26.32-.14-52.65,.01-78.97-.2-4.12-.03-5.52,.95-5.23,5.16,.37,5.47-.3,11.02,.19,16.48,.44,4.88-1.52,5.59-5.83,5.57-30.65-.15-61.31-.04-91.96,0-1.65,0-3.3,.25-4.95,.39Z"/><path class="cls-1" d="M40.02,373.74c-1.11,8.24-.5,16.53-.6,24.79-.14,11.77,.05,23.55,.09,35.32,.03,2.66,.06,5.31,.09,7.97,.02,14.7,.04,29.41,.06,44.11-.62,7-.38,14,.07,20.99l.07,29.83c-.01,2.66-.03,5.31-.04,7.97-.13,1.8-.23,3.61-.39,5.41-.39,4.4,.93,8.9-.82,13.21-7,0-14-.24-20.98,.1-3.99,.19-4.95-1.05-4.93-4.96,.16-39.97,.11-79.94,.12-119.92,0-20.15,.08-40.31-.07-60.46-.02-3.36,.7-4.67,4.34-4.52,7.65,.31,15.32,.14,22.98,.16Z"/><path class="cls-15" d="M840.44,306.93c-6.66-.03-13.34-.31-19.98-.02-11.49,.5-22.89-1.51-34.36-1-2.81,.13-3.85-.96-3.78-3.76,.14-5.83-.23-11.68,.13-17.48,.27-4.28-1.66-5.57-5.25-4.65-5.45,1.4-10.94,.44-16.39,.89-3.58,.3-4.52-1.16-4.5-4.57,.14-16.49,.05-32.98,.04-49.47,8.7,.06,17.39,.13,26.09,.19,0,7.25,.17,14.51-.08,21.76-.14,3.97,1.45,5.45,5.2,5.07-.7,7.28,1.18,14.48,.71,21.74-.23,3.56,1.29,4.52,4.65,4.41,8.42-.26,16.86-.2,25.29-.28,6.47,.03,12.94,.03,19.4,.12,2.29,.03,4.25-.39,3.6-3.21-1.67-7.23-.43-14.53-.87-21.79,.01-.68,.02-1.36,.03-2.04,9.31,0,18.62,.02,27.93,.03l.03,1.03c-.04,15.4-.09,30.81-.13,46.21-.02,6.62-.01,6.61-6.41,6.64-7.12,.04-14.24,.12-21.36,.18Z"/><path class="cls-1" d="M923.5,510.84c.21-15.3,.51-30.6,.57-45.9,.01-3.27,1.04-4.41,4.3-4.26,4.98,.22,9.99-.05,14.98,.12,2.7,.09,3.88-.6,3.88-3.57-.01-32.63,.09-65.25,.15-97.88,0-2.49-.03-4.98-.04-7.48,6.82,.08,13.65,.27,20.47,.2,2.6-.03,3.86,.37,3.85,3.46-.11,34.12-.12,68.25-.04,102.37,0,2.77-.97,3.32-3.45,3.24-4.99-.16-10,.21-14.97-.11-3.71-.24-4.77,.84-4.74,4.65,.19,21.8-.03,43.61,.17,65.42,.04,4.19-.69,5.93-5.35,5.57-5.95-.46-11.98-.08-17.97-.07-1.47-1.87-.96-4.07-1.08-6.17-.38-6.52,.86-13.11-.72-19.59Z"/><path class="cls-1" d="M840.44,306.93c7.12-.06,14.24-.14,21.36-.18,6.4-.04,6.39-.02,6.41-6.64,.04-15.4,.08-30.81,.13-46.21,6.81,.07,13.64,.53,20.41,.09,5.1-.32,6.02,1.62,5.93,6.21-.27,13.95,.01,27.91-.17,41.86-.04,3.32,.92,4.25,4.19,4.14,7.14-.25,14.3,.17,21.42-.18,3.94-.19,4.65,1.23,4.58,4.8-.12,6.62-.58,13.27,.31,19.88-.57,.06-1.13,.12-1.7,.18-9.66-.5-19.32-.35-28.98-.01-17.65-.2-35.29-.57-52.93,.2l-.88-1.17c-.03-7.66-.06-15.32-.09-22.97Z"/><path class="cls-1" d="M330.25,142.49c2.46,3.59,1.16,7.65,1.23,11.48,.08,4.41,1.96,10.08-.83,12.95-2.84,2.92-8.5,.75-12.92,.8-13.76,.15-27.52,.12-41.29,.15-6.33-.02-12.65-.04-18.98-.05-1.62-1.27-3.52-.71-5.29-.72-13.27-.09-26.53-.11-39.8-.16-.05-6.65,.08-13.31-.24-19.95-.17-3.47,.79-4.42,4.34-4.4,26.95,.14,53.9,.05,80.85,0,10.98-.01,21.95-.07,32.93-.11Z"/><path class="cls-1" d="M728.34,202.89c-6.78-.02-13.56-.17-20.33,0-3.5,.09-4.63-1.3-4.58-4.68,.13-8.1-.02-16.2-.06-24.3,0-27,0-54,.01-81,6.96,.08,13.93,.41,20.88,.15,3.74-.14,4.72,.88,4.69,4.65-.18,22.39-.09,44.78-.07,67.17,0,1.82,.1,3.64,.15,5.46-.18,1.79-.49,3.58-.51,5.37-.1,9.06-.13,18.13-.19,27.19Z"/><path class="cls-15" d="M38.56,563.33c1.75-4.31,.43-8.81,.82-13.21,.16-1.8,.26-3.61,.39-5.41,1.73,.09,3.77-.21,3.54-2.24-.33-2.99,2.22-3.53,3.44-5.18l17.68-.58c9.69,0,19.38,.01,29.07,.02,.01,3.64,.06,7.28,.02,10.92-.03,3.21,1,4.58,4.53,3.57,4.74-1.36,9.6-2.3,14.41-3.42,.34,.01,.68,.03,1.02,.04,.26,.51,.44,1.4,.79,1.47,1.07,.23,1.06-.76,1.21-1.48,2.14,0,4.32-.24,6.43,.02,6.86,.86,13.69-1.95,20.54-.08,4.93,.67,8.62,2.88,10.56,7.78,1.11,2.79,4.47,3.29,6.45,5.27-2.04,1.62-4.03-.57-6.13-.06-1.82,.44-4-.57-5.24,1.81-3.04,5.84-9.62,5.92-14.46,6.74-5.38,.91-11.39,1.17-17.12,.49-.14-2.1,.25-5.23-2.81-4.77-7.22,1.08-14.36-.92-21.52,.01-13.61-.04-27.22-.08-40.83-.1-10.04-.01-9.97,0-10.13,9.86-.03,1.73,1.26,4.13-1.57,5.09-1.39-5.45,.09-11.09-1.09-16.56Zm79.8-1.52c2.38,1.31,4.07,1.41,5.62,.27,.45-.33,.52-1.35-.18-1.7-1.89-.95-3.3,.37-5.45,1.42Zm11.13-4.97c-.66-.32-1.18-.75-1.36-.63-.49,.31-1.08,.79-1.2,1.31-.21,.88,.55,1.09,1.18,.78,.49-.24,.81-.83,1.39-1.45Z"/><path class="cls-1" d="M671.35,621.74c10.55,.06,21.1,.12,31.64,.18-.03,8.14-.22,16.29,0,24.43,.1,3.54-.61,4.85-4.56,4.81-22.27-.22-44.55-.12-66.82-.13-2.02-1.2-1.38-3.21-1.39-4.94-.07-8.12-.05-16.25-.05-24.37,13.73,0,27.46,.01,41.19,.02Z"/><path class="cls-10" d="M894.57,563.88c-16.73,.02-33.46,.04-50.19,.03-1.98,0-3.96-.21-5.94-.33,0-11.88,0-23.77,0-35.65,.34-5.38,.67-10.75,1.01-16.13,7.93,.02,15.87,.18,23.8-.02,3.76-.09,5.06,1.63,5.05,5.01,0,4.63,0,9.26,0,13.89q0,7.55,8,8.19c.28,.95,.96,1.98,.77,2.82-1.26,5.76,2.74,5.44,6.11,5.04,4.26-.51,8.49-1.08,12.78-.94l.36,17.08c-.59,.33-1.19,.67-1.78,1Z"/><path class="cls-1" d="M782.44,227.05c-8.7-.06-17.39-.13-26.09-.19-2.18-3.71-.77-7.76-1.01-11.64-.25-4.14-.05-8.31-.05-12.46,20.95-.04,41.89-.13,62.84-.08,6.48,.02,12.83-1.49,19.35-1.14,2.76,.15,3.77,.76,3.68,3.67-.23,7.14-.14,14.29-.18,21.44-2.14,.14-4.28,.4-6.42,.41-17.37,.03-34.75,0-52.12,0Z"/><path class="cls-3" d="M782.44,227.05c17.37,0,34.75,.03,52.12,0,2.14,0,4.28-.26,6.42-.41,.18,.65,.35,1.31,.53,1.96-1.36,.84-1.25,2.2-1.24,3.51,.03,6.91,.08,13.81,.12,20.72-.01,.68-.02,1.36-.03,2.04-7.3-.68-14.6-.21-21.9,.06-1.45-1.62-3.39-1-5.13-1.01-8.58-.06-17.17-.04-25.75-.05-3.76,.38-5.34-1.1-5.2-5.07,.25-7.24,.08-14.5,.08-21.76Z"/><path class="cls-1" d="M330.47,650.52c-15.49,.01-30.98-.13-46.46,.14-4.28,.07-5.3-1.32-5.11-5.35,.37-7.81,.23-15.64,.3-23.46l25.32-.43c7.57,.1,15.14,.17,22.71,.3,1.71,.03,3.82-.59,4.26,2.1,0,1,0,2.01-.01,3.01-1.25,1.43-.76,3.16-.79,4.78-.11,6.31-.15,12.61-.22,18.92Z"/><path class="cls-1" d="M142.47,253.89c-.08-16.11-.11-32.21-.3-48.32-.03-2.54,.94-2.97,3.19-2.97,8.3,.02,16.59-.14,24.89-.24,.18,.63,.37,1.26,.55,1.88-.06,2.14-.15,4.28-.17,6.43-.13,14.35-.24,28.7-.35,43.06l-27.82,.16Z"/><path class="cls-1" d="M39.65,579.89c2.83-.96,1.55-3.36,1.57-5.09,.16-9.86,.09-9.87,10.13-9.86,13.61,.02,27.22,.07,40.83,.1,.05,8.65,.1,17.29,.14,25.94-16.65,.13-33.29,.23-49.94,.4-2.2,.02-2.9-.91-2.8-3,.13-2.82,.05-5.66,.06-8.49Z"/><path class="cls-11" d="M212.38,166.94c13.27,.04,26.53,.07,39.8,.16,1.77,.01,3.67-.55,5.29,.72,.05,5.41,.1,10.82,.16,16.23l-.08-.09c-12.74-.07-25.48-.14-38.22-.21-.29-.61-.58-1.22-.87-1.83,1.73-4.27-.33-5.1-4.18-5.07-14.6,.13-29.2,.05-43.8,.05q-.64-8.46,7.56-8.43c9.83,.02,19.65,.05,29.48,.01,1.72,0,3.78,.67,4.85-1.54Z"/><path class="cls-7" d="M304.51,621.41l-25.32,.43c-.28-.87-.56-1.74-.83-2.62,.08-7.25,.07-14.51,.27-21.76,.08-2.91-1.2-3.65-3.85-3.61-6.1,.1-12.21-.03-18.31-.06v-2.96c7.66,0,15.32,0,22.99-.01,8.32,.06,16.63,.12,24.95,.17l.12,30.42Z"/><path class="cls-3" d="M142.47,253.89c9.27-.05,18.54-.11,27.82-.16,.42,.08,.84,.15,1.25,.23-.03,8.13-.21,16.27-.03,24.39,.08,3.43-.94,4.65-4.48,4.57-8.13-.18-16.26,.03-24.39,.09l-.5-1.51,.17-1.67,.16-25.35-.25-.3,.24-.3Z"/><path class="cls-15" d="M728.34,202.89c.06-9.06,.09-18.13,.19-27.19,.02-1.79,.33-3.58,.51-5.37,6.66,.06,13.32,.37,19.97,.09,4.36-.19,6.07,.8,5.87,5.64-.36,8.8,.1,17.63,.22,26.44-8.91,.86-17.83,.17-26.75,.39Z"/><path class="cls-14" d="M630.16,621.72c.01,8.12-.01,16.25,.06,24.37,.01,1.73-.63,3.74,1.39,4.94l-1.12,2.79c-7.99-.11-15.99-.22-23.98-.33-.15-10.92-1.7-21.8-1.11-32.75,7.59-.01,15.17-.02,22.76-.03,.67,.34,1.34,.68,2,1.02Z"/><path class="cls-10" d="M923.5,510.84c1.57,6.48,.34,13.06,.72,19.59,.12,2.11-.39,4.31,1.08,6.17-.29,.42-.57,.83-.86,1.25l-28.16-.17c.02-7.27,.23-14.54,0-21.8-.12-3.79,.85-5.3,4.94-5.12,7.42,.32,14.86,.08,22.29,.08Z"/><path class="cls-7" d="M330.47,650.52c.07-6.31,.11-12.61,.22-18.92,.03-1.62-.46-3.35,.79-4.78h24.97c1.44,1.05,.85,2.61,.99,3.99,0,1,0,2,0,3v2c-1.4,1.15-1.26,2.83-.87,4.15,1.36,4.57,.67,9.22,.88,13.84l-26.26,.21c-.24-1.17-.48-2.33-.72-3.5Z"/><path class="cls-1" d="M64.63,329.89c.04-6.97,.22-13.94,.04-20.91-.08-2.93,.5-4.04,3.74-3.92,7.96,.29,15.93,.15,23.9,.19,.11,8.22,.22,16.45,.32,24.67-9.35-.03-18.7-.06-28.05-.09l.05,.06Z"/><path class="cls-1" d="M896.28,537.68l28.16,.17c.06,7.48,.04,14.97,.21,22.45,.05,2.21-.7,2.85-2.86,2.81-8.48-.16-16.96-.17-25.44-.24-.12-5.69-.24-11.39-.35-17.08,.35-2.35,.45-4.7-.08-7.04,.12-.35,.24-.71,.36-1.06Z"/><path class="cls-10" d="M92.33,590.98c-.05-8.65-.09-17.29-.14-25.94,7.16-.93,14.3,1.07,21.52,0,3.07-.46,2.67,2.67,2.81,4.77,.02,4.02,.04,8.04,.06,12.06-.02,3.96-.04,7.91-.05,11.87-7.51,.07-15.02,.15-22.53,.23-.41-1.07-.37-2.39-1.67-2.97Z"/><path class="cls-1" d="M357.27,138.86c-8.84,.36-17.68,.66-26.52-.16-.02-7,.08-14-.11-20.99-.08-2.84,.38-4.23,3.74-4.08,7.64,.35,15.3,.29,22.96,.4,.04,2.96,.08,5.92,.12,8.88-.06,5.32-.13,10.63-.19,15.95Z"/><path class="cls-1" d="M840.38,252.84c-.04-6.91-.09-13.81-.12-20.72,0-1.31-.12-2.68,1.24-3.51,7.63,.01,15.26,.17,22.89-.04,3.12-.08,3.94,.96,3.86,3.95-.17,6.78,.02,13.56,.06,20.34-9.31,0-18.62-.02-27.93-.03Z"/><path class="cls-4" d="M92.63,329.92c-.11-8.22-.22-16.45-.32-24.67l.95-.39c7.74,.18,15.49,.56,23.23-.18,.58,1.15,1.65,.84,2.61,.86,.93,8.1,.24,16.22,.37,24.32-1.03,.09-2.07,.19-3.1,.28-7.52-.02-15.04-.04-22.55-.06l-1.18-.17Z"/><path class="cls-1" d="M142.47,254.49c-.05,8.45-.11,16.9-.16,25.35-.59,.27-1.19,.54-1.78,.81-7.02,.06-14.03,.12-21.05,.19-.34-.69-.88-1.02-1.65-.99-.06-7.3-.03-14.6-.23-21.89-.07-2.68,.94-3.4,3.47-3.37,7.13,.09,14.27-.05,21.41-.1Z"/><path class="cls-1" d="M116.49,304.68c-7.74,.73-15.48,.36-23.23,.18,0-6.8,.12-13.6-.02-20.39-.05-2.59,.76-3.43,3.38-3.39,6.96,.1,13.92-.09,20.88-.16,.3,.76,.96,.94,1.67,1.03,0,6.28-.01,12.56-.01,18.85-1.96,.56-2.35,2.19-2.66,3.89Z"/><path class="cls-1" d="M64.4,363.86c-.69,10.25-.69,10.28-11.14,10.24-4.45-.01-8.9-.17-13.34-.27,.13-7.65,.26-15.3,.39-22.95,7.93-.26,15.86-.52,23.79-.78,.1,4.58,.2,9.17,.31,13.75Z"/><path class="cls-8" d="M170.81,204.25l-.55-1.88c.08-5.82,.15-11.65,.23-17.47,8.95-.02,17.91-.03,26.86-.05,.06,6.4,.12,12.81,.18,19.21-8.91,.06-17.81,.13-26.72,.19Z"/><path class="cls-7" d="M64.09,350.11c-7.93,.26-15.86,.52-23.79,.78-.11-5.8-.13-11.61-.36-17.41-.12-2.97,1.57-3.06,3.8-3.1,6.97-.14,13.96,.58,20.9-.49l-.05-.06c-.16,6.76-.33,13.52-.49,20.28Z"/><path class="cls-7" d="M923.32,330.88c.57-.06,1.13-.12,1.7-.18,6.43-.03,12.85-.01,19.28-.12,2.13-.03,2.92,.8,2.86,2.92-.16,5.11-.17,10.22-.25,15.34l-23.59,.03c-.1-1.36-.21-2.72-.31-4.08,.1-4.64,.21-9.27,.31-13.91Z"/><path class="cls-7" d="M170.49,176.9c14.6,0,29.2,.07,43.8-.05,3.85-.03,5.91,.8,4.18,5.07-6.67,0-13.33,0-20-.01-9.33,0-18.65,0-27.98,0,0-1.67,0-3.33,0-5Z"/><path class="cls-9" d="M357.46,122.91c-.04-2.96-.08-5.92-.12-8.88,.45-.43,.9-.86,1.36-1.29,8.49,1.54,17.08,.26,25.6,.95,.05,1.74,.1,3.48,.15,5.23-8.99,1.33-17.99,2.67-26.98,4Z"/><path class="cls-7" d="M565.4,679.84c1.76-1.42,3.84-.79,5.77-.8,19.76-.11,39.53-.14,59.29-.2,.03,1.19-.81,1.27-1.66,1.26-21.13-.08-42.27-.17-63.4-.26Z"/><path class="cls-10" d="M486.4,43.99c-1.09,1.07-2.48,.79-3.78,.79-16.47-.01-32.94-.04-49.42-.07-1.31,0-2.69,.2-3.78-.83,19-.46,37.99-.37,56.98,.1Z"/><path class="cls-1" d="M170.49,181.9c9.33,0,18.65,0,27.98,0,.32,.63,.63,1.25,.95,1.88-.69,.35-1.38,.71-2.07,1.06-8.95,.02-17.91,.03-26.86,.05v-2.99Z"/><path class="cls-7" d="M154.5,618.65c8.36-1.78,16.8-.23,25.2-.59,1.92-.08,4.01-.62,5.77,.8-10.33,.48-20.65,.57-30.98-.21Z"/><path class="cls-7" d="M107.51,618.64c4.82-1.72,9.82-.75,14.71-.72,5.4,.04,10.88-1.11,16.21,.69-10.31,.8-20.62,.69-30.92,.03Z"/><path class="cls-7" d="M554.4,679.84c2.67-1.28,5.34-1.28,8.01,0-2.67,.55-5.34,.55-8.01,0Z"/><path class="cls-7" d="M142.51,618.62c1.98-1.24,3.96-1.24,5.93,0-1.98,.66-3.96,.68-5.93,0Z"/><path class="cls-7" d="M94.54,618.5c1.67-.93,3.31-1.12,4.92,.14-1.66,.54-3.31,.86-4.92-.14Z"/><path class="cls-8" d="M119.17,281.94c-.71-.09-1.37-.27-1.67-1.03l.33-1.07c.76-.02,1.31,.31,1.65,.99-.1,.37-.21,.74-.31,1.11Z"/><path class="cls-10" d="M417.36,461.41c.5-4.78-.53-9.61,.75-14.41,.57-2.13,.65-4.13,3.06-5.18,1.7-.74,1.14-2.57,1.24-4.02,.26-3.96-.03-7.9,.63-11.91,.6-3.66,2.17-4.15,5.25-4.07,9.35,.22,8.01-.89,8.13,7.87,.03,2.17,0,4.33,0,6.5,0,7.1,.08,7.22,7.31,6.6,2.96-.26,5.85-1.33,8.88-.91,3.67,.51,4.95-.89,4.87-4.7-.23-11.16-.13-22.32-.04-33.48,.02-2.51-1.38-5.99,3.57-5.89,5.04,.1,3.19,3.73,3.32,6.12,.23,4.49,.2,9,.03,13.49-.12,3.12,1.54,3.49,4.05,3.5,2.52,0,4.11-.42,4.03-3.52-.16-6.27-.05-12.55-.05-18.87,2.55,.16,1.96,1.67,1.99,2.65,.08,3.5,.03,7,.03,10.49,0,9.25,2.66,11.25,11.77,9.2,2.39-.54,2.19-2.12,2.2-3.75,.03-5,.21-10-.04-14.99-.19-3.76,1.51-5.02,4.75-4.07,5.99,1.76,11.83-1.09,17.78-.25,2.33,.33,2.56-1.52,2.55-3.33-.02-4.66,.26-9.35-.08-13.99-.31-4.26,.83-6.1,5.45-5.69,4.63,.41,9.32,.14,13.98,.08,9.98-.12,8.48,1.34,8.6-8.85,.05-4.16,.24-8.35-.06-12.49-.28-3.87,1.26-4.88,4.89-4.72,5.99,.26,12-.08,17.99,.12,3.3,.11,4.46-1.06,4.25-4.32-.77-11.64,1.21-23.23,.85-34.86-.13-4.16,1.43-5.46,5.18-4.86,4.91,.79,6.41-1.33,5.99-6.08-.4-4.46,0-8.99-.12-13.48-.07-2.6,.98-3.54,3.54-3.49,5.99,.11,12,.15,17.99,0,3.04-.08,3.61,1.4,3.55,3.99-.11,5.16,.14,10.33-.08,15.49-.15,3.41,.89,4.78,4.48,4.62,5.65-.25,11.32-.1,16.99-.04,1.59,.02,3.4-.54,4.6,1.14,0,7.63,0,15.26,0,22.88-7.99,0-15.97-.04-23.96,0-1.55,0-3.99-.53-3.93,1.84,.17,6.75-1.34,13.6,.9,20.26-.03,7.95-.06,15.9-.09,23.85-5.65,0-11.3,.1-16.94-.07-2.98-.09-4.15,.89-4.08,3.98,.16,6.31,.01,12.62,0,18.93-.3,.07-.6,.15-.89,.22l-8.03-.08h-19.83c-4.16,0-8.31,.01-12.47,.02-1.81,0-3.84,.49-3.4,2.58,.7,3.31,.13,6.7,.93,9.87,.61,2.4,1.6,5.22,4.89,5.58,3.29,.35,6.58,.64,9.87,.95,1.87,5.14,1.41,5.95-3.51,6.02-2.64,.04-5.3,.18-7.93-.03-3.37-.28-4.89,.83-4.58,4.41,.26,2.95,.17,5.95,.03,8.92-.37,7.88,1.02,15.84-.97,23.65,1.01,7.29,1.12,14.61,.99,21.95-15.48,0-30.97-.02-46.45,.04-1.91,0-4.05-.68-5.65,1.11-.63-.32-1.26-.64-1.89-.96,.02-1.83,.12-3.67,.04-5.49-.21-4.96,2.08-11.36-.86-14.5-3.22-3.43-9.76-1.04-14.84-1.12-17.13-.28-34.27-.31-51.4-.44Z"/><path class="cls-3" d="M330.46,420.85c-3.35-2.2-7.08-.79-10.61-.98-4.79-.26-9.61-.04-14.41-.03-15.97,0-31.94-.01-47.9-.02-.02-5.99-.04-11.97-.07-17.96,.04-8.97,.07-17.94,.11-26.9,8.54-.04,17.09-.07,25.63-.11,5.45,.02,10.93-.28,16.34,.14,4.9,.39,6.09-1.44,6.01-6.11-.09-5.32-1.32-10.8,.9-16.02,7.16,.01,14.32,.18,21.48-.04,3.42-.1,4.82,.85,4.61,4.45-.28,4.81,.01,9.66-.18,14.48-.12,2.96,.83,4.13,3.95,4.11,15.15-.12,30.3-.1,45.46,0,2.82,.02,3.84-.99,3.75-3.79-.15-4.82,.18-9.67-.11-14.48-.23-3.76,1.07-4.98,4.8-4.79,15.79,.83,31.56-1.17,47.34-.78,4.21,.11,5.14-1.48,4.89-5.21-.26-3.81,.16-7.67-.11-11.48-.26-3.63,1.26-4.51,4.63-4.46,10.49,.15,20.98,.01,31.47-.02,2.71,1.98,5.75,.65,8.64,.86,.1,5.15,.12,10.3,.35,15.44,.13,2.84-1,3.81-3.78,3.73-4.98-.14-9.98,.12-14.96-.06-3.19-.12-4.53,.91-4.33,4.25,.23,3.98-.27,8.01,.13,11.96,.51,4.98-1.51,6.45-6.18,5.93-3.12-.34-6.32,.05-9.47-.09-3.25-.15-4.46,1.28-4.38,4.45,.13,4.98,.03,9.98,.02,14.96q0,6.6-6.84,6.6c-24.78-.02-49.55,.09-74.32-.17-4.89-.05-6.34,1.42-6,6.16,.38,5.29,.02,10.63-.02,15.95-8.94,0-17.88,.01-26.83,.02Z"/><path class="cls-3" d="M194.63,486.02c-.55,6.97,.25,13.89,.8,20.82,.24,3-.88,4.16-3.95,4.06-5.47-.18-10.97,.18-16.43-.13-3.88-.22-4.87,1.29-4.68,4.89,.26,5.13-.16,10.3,.13,15.43,.24,4.27-1.13,5.97-5.61,5.79-7.46-.3-14.94-.06-22.41-.04-3.81,0-7.63,.2-11.41-.06-4.2-.29-8.54,1.2-12.59-.96-.01-7.62-.16-15.24,.02-22.85,.08-3.28-1.05-4.37-4.29-4.25-5.46,.21-10.94-.13-16.39,.13-3.58,.17-4.56-1.19-4.46-4.59,.19-6.12-.02-12.25-.07-18.38,.16-8.06,.32-16.11,.49-24.17l.21,.12c8.16,.02,16.33,.03,24.49,.05,7.3,0,14.6-.12,21.9,.09,3.31,.09,4.38-1.11,4.23-4.32-.22-4.63-.1-9.29-.12-13.93,8.1-.76,16.22-.94,24.35-.8,2.27,.04,2.68,1.37,2.67,3.25,0,4.46,.06,8.92,.09,13.38-.28,.41-.79,.81-.8,1.21-.12,7.58-.21,15.17-.24,22.75-.01,2.45,1.87,2.31,3.54,2.31,6.77,0,13.54-.03,20.31-.05l.23,.25Z"/><path class="cls-10" d="M256.56,535.82c-6.68,.02-13.36,.05-20.05,.07-.02-6.49,.17-12.99-.14-19.46-.19-3.92,1.37-4.89,4.94-4.67,4.14,.25,8.32-.06,12.47,.09,2.85,.11,3.79-1.05,3.73-3.81-.13-6.32,.1-12.65-.1-18.96-.1-3.25,.98-4.36,4.27-4.31,11.48,.16,22.97-.17,34.43,.17,4.86,.14,7.03-.88,6.45-6.23-.5-4.6-.02-9.31-.14-13.96-.07-2.62,.59-4.11,3.59-3.93,12.3,.72,24.54-1.11,36.82-.9,4.95,.09,9.9,.73,14.84,1.12-.03,7.49-.06,14.99-.09,22.48-.39,.11-.78,.22-1.17,.33-4.14,0-8.28-.02-12.42-.02-13.52,0-13.63,0-13.44,13.29,.05,3.69-1.23,7.6,1.09,11.09-.37,.55-.73,1.1-1.1,1.65-6.65,0-13.31,.15-19.95-.09-3.72-.13-5.44,.7-5.22,4.91,.35,6.8,.11,13.63,.12,20.45-.31,.26-.61,.52-.92,.78-16.01-.03-32.02-.06-48.02-.08Z"/><path class="cls-1" d="M357.58,483.51c.03-7.49,.06-14.99,.09-22.48,11.12,.23,22.24-.23,33.38,.46,8.74,.55,17.54-.02,26.32-.09,17.14,.12,34.27,.16,51.41,.44,5.08,.08,11.62-2.31,14.84,1.12,2.95,3.14,.66,9.54,.86,14.5,.08,1.83-.02,3.66-.04,5.49-22.66,.39-45.33-.56-67.98,.75-19.62-.07-39.25-.13-58.87-.2Z"/><path class="cls-1" d="M631.42,329.91c0-7.63,0-15.26,0-22.88,23.98-.07,47.96-.14,71.93-.21,6.61,.04,13.22,.21,19.82,.06,3.16-.07,4.43,.86,4.31,4.19-.22,6.27-.05,12.55-.04,18.83-8.01,.59-16.09-.87-24.06,.81-10.33,.05-20.67,.09-31,.14-13.63,.1-27.27,.2-40.9,.3l-.05-1.24Z"/><path class="cls-3" d="M195.47,459.79c3.26-1.88,6.83-.97,10.2-.82,4.42,.21,6.31-.92,5.94-5.74-.43-5.62,0-11.31-.13-16.96-.08-3.21,1.2-4.48,4.42-4.42,6.82,.13,13.64,.08,20.46,.01,2.6-.02,4.11,.83,4.09,3.7-.05,7.15-.08,14.31,0,21.46,.03,3.23-1.79,3.83-4.5,3.8-6.15-.07-12.31,.1-18.46-.07-3.06-.09-4.11,1.02-4.01,4.05,.18,5.65-.07,11.31,.1,16.96,.09,2.98-.88,4.17-3.98,4.09-4.98-.14-9.97,.09-14.96,.16l-.23-.25c.36-8.66,.71-17.32,1.07-25.98Z"/><path class="cls-7" d="M215.42,551.81c-.02,12.41-.19,24.82,.05,37.22,.08,4.02-1.24,5.25-5.09,4.95-3.95-.31-7.93-.12-11.9-.14,0-17.39,.13-34.78-.09-52.17-.05-4.35,.84-6.48,5.67-5.91,3.43,.4,6.95,.1,10.42,.11,.47,5.3-1.09,10.73,.94,15.94Z"/><path class="cls-2" d="M487.06,331.71c-2.89-.2-5.93,1.12-8.64-.86-.38-7.76,.84-15.57-.9-23.29-.35-1.57-.33-3.68,2.11-3.65,7.37,.08,7.2-4.77,6.84-9.96-.18-2.48,.19-5-.08-7.46-.43-3.89,1.3-4.78,4.88-4.68,7.63,.22,15.26,.04,22.9,.03l.44,.08c-.08,7.6-.16,15.2-.24,22.8-5.47,.07-10.95,.19-16.42,.21q-10.96,.03-10.17,10.91l-.71,15.88Z"/><path class="cls-3" d="M651.38,92.92c-2.89-.2-3.08,1.64-3.04,3.84,.09,4.62-.1,9.25,.11,13.86,.15,3.17-.87,4.47-4.19,4.32-4.61-.22-9.24-.04-13.86-.02-.34,0-.68,0-1.02,0,0-4.16,.21-8.33-.07-12.47-.24-3.54,1.28-7.29-1.05-10.62,.06-5.31,.27-10.63,.11-15.94-.09-3.11,1.09-4.05,4.07-3.96,5.64,.17,11.29,.05,16.94,.05,1.25,6.93,1.72,13.93,1.99,20.95Z"/><path class="cls-4" d="M257.52,419.82c15.97,0,31.94,.01,47.9,.02,0,4.47-.07,8.95,.03,13.42,.05,2.43-.66,3.75-3.36,3.61-13.41-.7-26.76,.9-40.15,1.03-3.45,.03-5.13-1.01-4.47-4.49,.87-4.55-2.72-9.08,.05-13.6Z"/><path class="cls-7" d="M208.49,375c10.65-.06,21.3-.12,31.95-.18,0,8.68,0,17.36-.01,26.03-10.99,0-21.98,.01-32.97,.02,2.08-8.55,.51-17.25,1.03-25.87Z"/><path class="cls-11" d="M116.58,581.87c-.02-4.02-.04-8.04-.06-12.06,5.73,.69,11.74,.42,17.12-.49,4.84-.82,11.43-.9,14.46-6.74,1.24-2.38,3.42-1.37,5.24-1.81,2.1-.51,4.09,1.67,6.13,.06,4.63,.46,6.24,2.79,6.12,7.61-.32,13.39-.1,13.39-13.55,13.39-11.83,0-23.65,.03-35.48,.04Z"/><path class="cls-9" d="M629.39,114.91c.34,0,.68,0,1.02,0-.33,7.21,.15,14.41-.76,21.67-.56,4.44-2.61,5.16-5.93,5.23-6.44,.14-12.87,.11-19.31,.15,0-9.02,0-18.03-.01-27.05,8.33,0,16.66,0,24.99,0Z"/><path class="cls-4" d="M574.37,252.85c.01-6.63,.07-13.25,0-19.88-.03-2.98,1.37-4.71,4.2-3.93,6.53,1.8,12.99,.02,19.47,.2,1.46,.04,2.92,.44,4.37,.68,0,6.27-.15,12.55,.05,18.82,.11,3.32-1.17,4.26-4.33,4.19-7.92-.18-15.85-.07-23.77-.08Z"/><path class="cls-6" d="M195.47,459.79c-.36,8.66-.71,17.32-1.07,25.98-6.77,.02-13.54,.04-20.31,.04-1.66,0-3.55,.13-3.54-2.31,.03-7.58,.12-15.17,.24-22.75,0-.41,.52-.81,.8-1.21,7.96,.08,15.91,.17,23.87,.25Z"/><path class="cls-10" d="M95.25,432.6c.03-.99,.08-1.98,.09-2.96,.08-10.39,.08-10.47,10.73-10.61,3.76-.05,7.53,.41,11.29,.63,2.11,2.66,1.43,5.87,.88,8.58-1.06,5.16-.83,10.14,.19,15.19-.32,.14-.63,.27-.95,.41l-21.94-.32c-.1-3.64-.2-7.28-.29-10.92Z"/><path class="cls-5" d="M117.48,443.84c.32-.14,.63-.27,.95-.41,8.68,.09,17.36,.19,26.05,.28,.02,4.64-.1,9.3,.12,13.93,.16,3.21-.92,4.41-4.23,4.32-7.29-.21-14.6-.08-21.9-.09-1.84-5.93-.67-12.02-.99-18.03Z"/><path class="cls-12" d="M240.43,400.85c0-8.68,0-17.35,.01-26.03h-.03c5.72,.06,11.44,.1,17.16,.14-.04,8.97-.07,17.94-.11,26.9-5.7,.01-11.39-.03-17.03-1.01Z"/><path class="cls-9" d="M651.38,92.92c-.26-7.02-.73-14.02-1.99-20.95,.02-1.32,.04-2.63,.06-3.95,2.55,1.47,3.88,5.34,7.86,4.01,4.47,1.52,8.91,1.58,13.3-.31l.27,.05c-.65,5.11-.77,10.2,.25,15.3,.76,3.77,.22,6.41-4.84,5.98-4.94-.42-9.94-.12-14.91-.13Z"/><path class="cls-10" d="M215.42,551.81c-2.03-5.21-.47-10.64-.94-15.94,7.35,0,14.69,.01,22.04,.02-.02,3.95-.22,7.92,0,11.86,.19,3.34-1.15,4.27-4.3,4.15-5.59-.21-11.2-.08-16.8-.09Z"/><path class="cls-4" d="M118.48,535.82c4.05,2.16,8.4,.67,12.59,.96,3.79,.26,7.61,.06,11.41,.06-.01,3.65-.02,7.29-.03,10.94-6.85-1.87-13.68,.93-20.55,.08-2.11-.26-4.28-.03-6.43-.02h-2c-.34,0-.68-.02-1.02-.03,.03-3.87,.06-7.73,.09-11.6l5.93-.38Z"/><path class="cls-11" d="M208.49,375c-.52,8.62,1.05,17.31-1.03,25.87-1.94,.32-3.88,.75-5.83,.92-2.35,.2-4.84,.39-5.19-2.99,.04-5.82,.07-11.64,.12-17.45,.06-6.27,.31-6.52,6.45-6.51,1.83,0,3.65,.11,5.48,.17Z"/><path class="cls-11" d="M487.77,315.84q-.79-10.9,10.17-10.91c5.47-.02,10.95-.14,16.42-.21q.12,11.16-10.6,11.16c-5.33,0-10.66-.02-16-.04Z"/><path class="cls-13" d="M330.46,420.85c8.94,0,17.88-.01,26.83-.02,.04,2.99,.07,5.97,.11,8.96-8.98,.01-17.96,.03-26.94,.04,0-2.99,0-5.99,0-8.98Z"/><path class="cls-12" d="M330.46,429.83c8.98-.01,17.96-.03,26.94-.04,.03,10.83,1.07,8.87-8.72,9.05-4.3,.08-8.62-.3-12.89,.1-4.58,.43-5.98-1.43-5.37-5.64,.16-1.13,.03-2.31,.04-3.47Z"/><path class="cls-5" d="M514.16,281.84c-7.63,.01-15.27,.19-22.9-.03-3.58-.1-5.31,.79-4.88,4.68,.27,2.46-.09,4.98,.08,7.46,.37,5.19,.54,10.05-6.84,9.96-2.45-.03-2.47,2.08-2.11,3.65,1.75,7.72,.52,15.53,.9,23.29-10.49,.03-20.98,.16-31.47,.02-3.37-.05-4.89,.83-4.63,4.46,.27,3.81-.14,7.67,.11,11.48,.25,3.73-.68,5.32-4.89,5.21-15.78-.4-31.55,1.61-47.34,.78-3.73-.2-5.03,1.03-4.8,4.79,.29,4.81-.04,9.66,.11,14.48,.09,2.8-.93,3.81-3.75,3.79-15.15-.09-30.3-.12-45.46,0-3.12,.02-4.07-1.14-3.95-4.11,.19-4.82-.1-9.67,.18-14.48,.21-3.6-1.19-4.56-4.61-4.45-7.15,.22-14.32,.05-21.48,.04,.14-1.88-.14-3.66-1.19-5.28,.08-3.24,.17-6.47,.25-9.71,3.34-.78,4.13-3.59,5-6.32,5.73-.93,11.5-.35,17.24-.34,2.94,0,4.12-.87,4.04-3.94-.14-5.43,.06-10.86,.12-16.29,18.18-.04,36.35-.08,54.53-.12,.02,5.82,.16,11.64,0,17.45-.07,2.61,.81,3.52,3.41,3.49,8.81-.1,17.62-.08,26.43,0,2.38,.02,3.14-.93,3.13-3.27-.02-5.48,.2-10.96,.32-16.44,6.63-.05,13.25-.14,19.88-.15,2.21,0,3.9-.25,3.87-3.13-.07-7.43,1.26-14.81,.95-22.28-.14-3.41-1.26-4.74-4.7-4.67-7.46,.16-14.92,.06-22.37,.06,0-16.31,.14-32.61-.12-48.91-.07-4.37,1.51-5.36,5.47-5.16,5.64,.29,11.31-.03,16.97,.11,2.78,.07,3.89-.91,3.79-3.74-.15-4.65,.17-9.33-.1-13.97-.21-3.59,1.2-4.52,4.6-4.47,13.14,.17,26.29,.09,39.43,.1,0,6.11,.1,12.23-.04,18.34-.06,2.81,1.02,3.76,3.78,3.71,7.43-.14,14.87-.08,22.3-.1,1.52,17.99,.88,36,.7,54.01Z"/><path class="cls-5" d="M142.64,283.01c8.13-.05,16.27-.27,24.39-.09,3.55,.08,4.56-1.15,4.48-4.57-.18-8.13,0-16.26,.03-24.39,5.62-.15,11.25-.3,16.87-.45,1.64,.1,3.29,.1,4.91,.31,3.99,.53,5.54-.88,5.33-5.13-.35-6.9-.1-13.84-.1-20.76,.3-.09,.59-.22,.85-.39,5.31,.07,10.63-.02,15.93,.28,3.49,.2,4.14-1.36,4.08-4.42-.11-6.14,.12-12.28,.21-18.42,11.25,0,22.5-.09,33.75,.08,3.23,.05,4.38-.95,4.25-4.23-.23-5.62-.08-11.25-.09-16.87l.08,.09c5.94-.05,11.89-.1,17.83-.15,8.4,1.74,16.9,.85,25.35,.85,3.77,0,4.77,1.19,4.78,4.86,.02,14.23,.15,14.23-13.8,14.23q-13.26,0-13.27,13.17,0,10.95-10.99,10.95-10.11,0-10.11,10.33c0,20.8-.11,41.6,.09,62.4,.04,4.16-1.16,5.45-5.32,5.31-9.14-.31-18.3-.01-27.45-.21-3.29-.07-4.4,1.02-4.27,4.28,.21,5.32-.21,10.67,.14,15.97,.28,4.15-1.37,5.15-5.16,4.96-5.14-.26-10.32,.04-15.47-.09-3.16-.08-4.6,1.08-4.47,4.35,.15,3.99-.08,7.99,.06,11.98,.08,2.43-.71,3.5-3.24,3.94-6.96,1.22-13.93,.36-20.89,.52-.29-.27-.57-.55-.86-.82-.01-5.33-.16-10.67,.02-15.99,.1-3.06-.99-4.09-4.04-4.02-7.66,.17-15.32,.07-22.99,.08-2.69-.04-5.38-.08-8.06-.12-.03-3.46,.72-7.16-.27-10.33-1.7-5.47,.98-8.52,4.7-11.23,1.62-1.18,2.76-2.26,2.57-4.33,.04-7.31,.09-14.62,.13-21.93Z"/><path class="cls-5" d="M384.44,118.91c-.05-1.74-.1-3.48-.15-5.23,1.52-10.09,.41-20.25,.63-30.37,.27-12.17,.06-12.18,12.3-12.17,14.82,.01,29.64,.01,44.46,.06,1.64,0,3.27,.29,4.91,.44-.04,5.33,.11,10.67-.19,15.99-.21,3.7,1.38,4.46,4.69,4.4,10.16-.16,20.33,.07,30.49-.13,3.56-.07,5.21,.74,4.94,4.68-.31,4.64-.28,9.34,0,13.99,.22,3.65-1.26,4.65-4.64,4.44-3.82-.23-7.67,.08-11.49-.1-2.99-.15-4.19,.87-4.08,3.98,.19,5.49-.05,11,.1,16.49,.08,3.18-1.09,4.59-4.36,4.48-4.33-.14-8.67,.09-12.99-.07-2.86-.1-3.96,1.06-3.71,3.82,.1,1.16,.01,2.33,0,3.5-.01,10.06-.63,10.87-10.74,10.65-4.13-.09-5.53,1.07-5.35,5.29,.29,6.82,.04,6.82-6.82,6.85-6.33,.03-12.66,.08-18.99,.11-2.46-.05-4.93-.12-7.39-.13q-10.98-.03-10.45,11.05c-.08,6-.22,11.99-.21,17.99,0,3.05-.24,4.32-4.35,4.42-6.45,.15-12.93,.42-19.4,.44-2.86,.01-3.22,1.54-3.19,3.82,.07,5-.13,10,.07,14.99,.13,3.16-.8,4.51-4.19,4.39-6.32-.22-12.66-.19-18.99,0-3.07,.09-4.07-1.02-4.02-4.05,.14-8.83,.04-17.66,.03-26.49,0-1.33,.06-2.67-.03-4q-.58-8.58,7.93-8.56c4.17,0,8.33-.11,12.49,.06,2.84,.11,3.79-1,3.75-3.79-.12-8.5,.15-17-.11-25.49-.13-4.28,1.13-6.06,5.63-5.81,5.81,.32,11.68-.24,17.48,.18,4.88,.35,6.73-1.33,5.98-6.11-.2-1.3-.08-2.66-.1-3.99,.01-6.68,.03-13.35,.04-20.03Z"/><path class="cls-5" d="M649.45,68.02c-.02,1.32-.04,2.63-.06,3.95-5.65,0-11.3,.12-16.94-.05-2.98-.09-4.16,.85-4.07,3.96,.16,5.31-.05,10.62-.11,15.94-7.09,0-14.19,.1-21.28-.03-2.79-.05-3.77,1-3.73,3.76,.1,6.43-.03,12.86-.06,19.3-8.81,0-17.62-.14-26.42,.08-3.53,.09-4.64-1.11-4.51-4.57,.49-12.94-.95-25.84-1.17-38.76,.03-7.48,.15-14.96,.06-22.44-.03-2.57,.8-3.46,3.42-3.47,24.43-.04,48.87-.19,73.3-.29,.48,0,.97,.2,1.45,.31,.04,7.44,.08,14.88,.12,22.32Z"/><path class="cls-15" d="M305.51,337.87c-.08,3.24-.17,6.47-.25,9.71-5.43,3.59-11.38,4.98-17.84,4.16-3.32-.42-4.27,1.11-4.19,4.27,.16,6.27-.01,12.56-.04,18.83-8.54,.03-17.09,.07-25.63,.11-5.72-.04-11.44-.08-17.16-.12,0-5.99,.11-11.99-.06-17.97-.08-2.98,.88-4.25,3.98-4.07,3.48,.2,6.99-.08,10.48,.08,2.86,.13,3.8-1.05,3.71-3.81-.15-4.82,.08-9.65-.08-14.48-.1-2.86,1.05-3.8,3.81-3.71,4.65,.15,9.33-.13,13.98,.1,3.36,.16,4.37-1.16,4.21-4.36-.28-5.81-.02-11.64-.48-17.43-.25-3.22,1.49-3.24,3.57-3.25,7.32-.02,14.64,.03,21.97,.05,0,8.4,.01,16.79,.02,25.19,0,2.24,0,4.47,0,6.71Z"/><path class="cls-14" d="M515.38,142.37c0,7.64-.13,15.29,.06,22.93,.08,3.34-.77,4.79-4.42,4.64-6.64-.26-13.29-.17-19.93-.04-2.81,.05-3.77-.99-3.75-3.78,.1-15.78,.13-31.57,.02-47.35-.02-3.2,1.3-3.94,4.16-3.88,6.64,.13,13.29,.16,19.93-.03,3.14-.09,4,1.13,3.95,4.09-.15,7.81-.05,15.62-.05,23.43h.03Z"/><path class="cls-15" d="M95.25,432.6c.1,3.64,.2,7.28,.29,10.92-.38,.1-.76,.2-1.14,.3-8.75-2.31-17.6-.38-26.4-.53-2.09-.03-3.78,2.29-3.33,4.27,1.13,4.95-1.1,9.8,.02,14.67,1.1,7.82,.43,15.68,.59,23.51-.24,.02-.47,.09-.69,.2l-24.92-.03c-.02-14.7-.04-29.41-.06-44.11,6.49,0,13-.28,19.47,.12,4.56,.28,6.1-1.36,5.41-5.65-.13-.82-.08-1.66-.11-2.49,1.99-1.8,4.41-.9,6.63-.95,8.07-.17,16.15-.17,24.23-.24Z"/><path class="cls-4" d="M143.45,373.85c-5.99,0-11.98,0-17.98,0-6.72,0-7.19-.41-7.94-7.17-.15-1.32-.12-2.66-.18-3.99-.24-4.55-.49-9.1-.73-13.66,2.32-.03,4.69-.35,6.97-.04,4.86,.64,6.73-1.31,5.97-6.06-.1-.64,.04-1.33,.06-1.99,1.33-.03,2.69-.24,3.99-.06,4.67,.63,6.52-1.41,5.91-5.95,1.7-.51,1.75-3.19,3.96-3.03,1.06,3.96,1.74,8.73,6.37,9.7,5.55,1.17,6.58,4.61,6.62,9.23-2.8-.01-5.62,.19-8.38-.09-3.85-.39-4.77,1.29-4.64,4.84,.23,6.08,.02,12.17,0,18.26Z"/><path class="cls-5" d="M116.62,349.04c.24,4.55,.49,9.11,.73,13.66-11.58,.04-23.15,.08-34.73,.12-.03-1.33-.08-2.66-.08-3.98-.02-7.41-.02-7.56,7.48-7.84,3-.11,3.57-1.4,3.55-3.99-.04-5.64,.15-11.28,.24-16.92,7.52,.02,15.04,.04,22.55,.06,.09,6.3,.17,12.59,.25,18.89Z"/><path class="cls-13" d="M93.81,330.09c-.09,5.64-.28,11.28-.24,16.92,.02,2.59-.56,3.88-3.55,3.99-7.5,.27-7.5,.43-7.48,7.84,0,1.33,.05,2.66,.08,3.98-6.07,.35-12.15,.69-18.23,1.04-.1-4.58-.2-9.17-.31-13.75,.16-6.76,.33-13.52,.49-20.28,9.35,.03,18.7,.06,28.05,.09,.39,.06,.79,.11,1.18,.17Z"/><path class="cls-12" d="M419.75,312.09c-.12,5.48-.35,10.96-.32,16.44,0,2.34-.75,3.29-3.13,3.27-8.81-.08-17.62-.1-26.43,0-2.6,.03-3.47-.88-3.41-3.49,.15-5.81,.01-11.64,0-17.45-.5-3.44,1.3-4.11,4.34-4.07,8.9,.1,17.79-.05,26.69-.1,3.22,.77,1.43,3.64,2.27,5.4Z"/><path class="cls-9" d="M419.75,312.09c-.84-1.77,.94-4.64-2.27-5.4-1.44-6.45-.98-13-1.06-19.53-.02-1.82,.01-3.61,.97-5.23,7.46,0,14.92,.1,22.37-.06,3.44-.07,4.56,1.26,4.7,4.67,.31,7.47-1.02,14.84-.95,22.28,.03,2.88-1.67,3.13-3.87,3.13-6.63,0-13.25,.09-19.88,.15Z"/><path class="cls-12" d="M331.45,281.96c.01-7.63,.15-15.25-.03-22.88-.08-3.27,1.04-4.39,4.29-4.26,5.46,.21,10.95,.26,16.41,0,3.68-.18,4.46,1.38,4.39,4.67-.17,7.79-.04,15.58-.03,23.37-3.68,0-7.36,.02-11.04,.02-4.66,0-9.33,0-13.99,0,0-.31,0-.62,0-.93Z"/><path class="cls-6" d="M143.45,373.85c.02-6.09,.23-12.18,0-18.26-.13-3.55,.79-5.23,4.64-4.84,2.77,.28,5.59,.08,8.38,.09,4.7,.01,9.4,.03,14.1,.04,.29,.28,.57,.55,.86,.82-1.45,6.39-.12,12.78,.01,19.17,.04,2.1,.07,4.02-2.95,3.98-7.78-.1-15.57-.04-23.35-.12-.57,0-1.13-.57-1.7-.88Z"/><path class="cls-10" d="M305.52,331.16c0-8.4-.01-16.8-.02-25.19,.25-.12,.51-.2,.79-.24,8.05,.04,16.09,.08,24.14,.12,.39,.02,.78,.04,1.17,.06,.1,1.69,.21,3.38,.32,5.07-.06,5.43-.26,10.87-.12,16.29,.08,3.07-1.1,3.95-4.04,3.94-5.75-.01-11.51-.59-17.24,.33-1.66-.13-3.33-.26-4.99-.39Z"/><path class="cls-13" d="M603.21,114.84c.04-6.43,.16-12.87,.06-19.3-.04-2.76,.94-3.81,3.73-3.76,7.09,.12,14.19,.03,21.28,.03,2.33,3.33,.8,7.08,1.04,10.62,.28,4.14,.07,8.31,.07,12.47-8.33,0-16.66,0-24.99,0-.4-.02-.79-.04-1.19-.07Z"/><path class="cls-14" d="M330.43,305.85c-8.05-.04-16.09-.08-24.14-.12,.04-6.15,.4-12.32,.02-18.45-.29-4.6,1.43-5.68,5.69-5.46,6.47,.34,12.97,.11,19.45,.13,0,.31-.01,.62,0,.93-.44,7.65,1.02,15.38-1.01,22.96Z"/><path class="cls-2" d="M513.47,227.83c-7.43,.02-14.87-.04-22.3,.1-2.76,.05-3.84-.9-3.78-3.71,.13-6.11,.04-12.22,.04-18.34,6.94,.68,13.77-.81,20.67-1.05,3.99-.14,5.62,.9,5.38,5.18-.33,5.92-.04,11.88,0,17.82Z"/><path class="cls-2" d="M384.44,118.91c-.01,6.68-.03,13.35-.04,20.03-9.04-.03-18.09-.05-27.13-.08,.06-5.32,.13-10.63,.19-15.95,8.99-1.33,17.99-2.67,26.98-4Z"/><path class="cls-11" d="M330.43,305.85c2.03-7.58,.57-15.31,1.01-22.96,4.66,0,9.33,0,13.99,0,1.81,7.53,3.68,15.06,2.98,22.91-5.61,.04-11.22,.08-16.82,.12-.39-.02-.78-.04-1.17-.06Z"/><path class="cls-4" d="M275.45,183.9c-5.94,.05-11.89,.1-17.83,.15-.05-5.41-.1-10.82-.15-16.23,6.33,.02,12.65,.04,18.98,.05,.67,5.4-1.38,10.64-.99,16.03Z"/><path class="cls-15" d="M348.42,305.8c.7-7.86-1.17-15.38-2.98-22.91,3.68,0,7.36-.02,11.04-.02,.3,5.72,.38,11.47,.97,17.17,.51,4.9-1.43,6.57-6.07,5.83-.96-.15-1.97-.05-2.96-.06Z"/><path class="cls-4" d="M64.39,433.79c.03,.83-.02,1.68,.11,2.49,.68,4.29-.86,5.93-5.41,5.65-6.47-.4-12.98-.11-19.47-.12-.03-2.66-.06-5.31-.09-7.97,8.29-.02,16.58-.04,24.87-.06Z"/><path class="cls-9" d="M385.62,180.94q-.52-11.07,10.45-11.05c2.46,0,4.93,.08,7.39,.13-4.08,6.7-8.76,12.41-17.84,10.92Z"/><path class="cls-15" d="M730.38,329.88c6.47,0,12.96,.24,19.42-.09,4.25-.22,6.01,.88,5.68,5.46-.36,4.94,.07,9.94,.15,14.91-.06,15.89-.12,31.78-.18,47.68-8.06,.03-16.13,.07-24.19,.1-9.02-.01-18.05-.03-27.07-.04,.01-6.69,.03-13.37,.04-20.06,7.47,0,14.93-.06,22.4,.06,2.73,.04,3.88-.85,3.81-3.71-.15-6.3-.05-12.61-.05-18.92,0-1.53,.09-3.09-2.01-3.36,1.11-7.3,.36-14.77,1.99-22.03Z"/><path class="cls-1" d="M755.45,397.84c.06-15.89,.12-31.79,.18-47.68,8.9-.08,17.8-.17,26.7-.26h0c.35,22.84-.35,45.71,.94,68.55-9.19,.47-18.39,.44-27.58,.02-.07-6.88-.15-13.75-.22-20.63Z"/><path class="cls-8" d="M840.53,329.91c.29,.39,.59,.78,.88,1.17,.15,6.33,.3,12.65,.45,18.98-.23,.22-.41,.47-.56,.74l-29.79-.19c-.07-6.58-.14-13.17-.21-19.75,9.74-.17,19.51,.44,29.22-.95Z"/><path class="cls-11" d="M811.31,330.85c.07,6.58,.14,13.17,.21,19.75-1.41,.08-2.82,.15-4.24,.23-1.62-.99-3.42-.99-5.24-.98-6.57,.04-13.15,.03-19.72,.03h0c.01-5.31,.04-10.62,.04-15.94,0-1.97,.32-4.03,2.72-3.96,8.74,.24,17.55-1.27,26.23,.86Z"/><path class="cls-11" d="M730.38,329.88c-1.64,7.25-.89,14.73-1.99,22.03-8.39-.01-16.78-.02-25.17-.03,.06-7.05,.11-14.11,.17-21.16,7.97-1.68,16.05-.22,24.06-.81,.98,0,1.96-.01,2.94-.02Z"/><path class="cls-3" d="M807.28,350.84c1.41-.08,2.82-.15,4.24-.23,9.93,.06,19.86,.13,29.79,.19,.03,13.95,.11,27.89,.07,41.84,0,2.7,.38,4.34,3.73,4.3,16.6-.2,33.2-.21,49.8-.29l.4,23.23c.03,11.96-.02,23.93,.12,35.89,.04,2.97-.85,4.18-3.96,4.08-5.81-.19-11.63-.15-17.45-.01-2.81,.07-3.87-.97-3.76-3.77,.16-3.82-.17-7.66,.1-11.46,.26-3.63-.83-5.07-4.69-4.89-6.3,.3-12.63-.1-18.94,.16-3.6,.15-4.64-1.22-4.45-4.61,.23-4.14-.11-8.31,.1-12.46,.18-3.64-1.14-5.08-4.88-4.98-7.14,.19-14.29,.03-21.43,.02-.21-5.63-.51-11.25-.6-16.88-.04-2.43-1.05-3.4-3.33-3.02-4.37,.74-4.81-1.69-4.78-5.23,.1-13.97-.03-27.93-.07-41.9Z"/><path class="cls-10" d="M807.28,350.84c.04,13.97,.17,27.93,.07,41.9-.02,3.54,.41,5.96,4.78,5.23,2.28-.38,3.29,.59,3.33,3.02,.08,5.63,.39,11.25,.6,16.88-6.7,.01-6.85,.02-6.65,6.7,.15,4.91-2.17,11.17,1.07,14.37,3.01,2.98,9.18,.73,13.95,.9,4.15,.15,8.3,.04,12.46,.02,1.76,0,3.44,.08,3.43,2.49-.05,13.11-.09,26.23-.18,39.34,0,.39-.54,.78-.84,1.17-8,0-15.99,0-23.99-.01-1.65,0-3.31,0-4.96,0,1.78-5.49,.62-11.16,1.03-16.74,.24-3.2-.9-4.4-4.2-4.32-7.61,.19-15.23,.07-22.84,.07-1.48-1.31-.94-3.07-.96-4.66-.06-5.45-.03-10.89-.04-16.34-.03-7.47-.06-14.94-.09-22.41-1.28-22.84-.59-45.7-.94-68.55,6.57,0,13.14,0,19.72-.03,1.82,0,3.62-.01,5.24,.98Z"/><path class="cls-1" d="M815.31,482.84c8,0,15.99,0,23.99,.01,.05,9.65,.1,19.3,.15,28.95-.33,5.38-.67,10.75-1.01,16.13-4.25-.66-4.32,2.86-5,5.35-.91,3.32-2.34,5.04-6.15,4.65-3.93-.4-7.93-.12-11.9-.13l-.35,.08c.09-18.35,.17-36.69,.26-55.04Z"/><path class="cls-10" d="M895.3,419.88c-.13-7.74-.26-15.49-.4-23.23,.1-6.66,.2-13.32,.3-19.98,9.04,.03,18.08,.07,27.12,.1,0,12.77-.12,25.53,.07,38.29,.05,3.62-.89,5.01-4.72,4.87-7.45-.27-14.92-.07-22.38-.06Z"/><path class="cls-13" d="M922.33,376.77c-9.04-.03-18.08-.07-27.12-.1,.02-1.94,.05-3.88,.07-5.81,6.27-3.35,10.76-8.44,14.06-14.62,1.2-2.25,1.84-6.64,3.01-6.73,4.3-.35,6.7-4.24,10.67-4.72,.1,1.36,.21,2.72,.31,4.08-1.14,9.27-.99,18.59-.99,27.9Z"/><path class="cls-7" d="M895.92,538.75c.54,2.34,.43,4.69,.08,7.04-4.3-.14-8.53,.43-12.79,.94-3.37,.41-7.37,.73-6.11-5.04,.18-.84-.49-1.88-.77-2.82,6.53-.04,13.06-.08,19.59-.12Z"/><path class="cls-9" d="M655.3,45.62q15.27-2.37,15.27,12.38c0,2.31-.13,4.62-.2,6.93-3.64-.04-7.28-.09-10.92-.13,1.19-6.95-3.01-12.73-4.15-19.17Z"/><path class="cls-6" d="M655.3,45.62c1.14,6.44,5.34,12.23,4.14,19.18-2.61,1.85-2.03,4.65-2.13,7.24-3.98,1.33-5.31-2.54-7.86-4.01-.04-7.44-.08-14.88-.12-22.32,1.98-.63,3.97-.53,5.97-.09Z"/><path class="cls-5" d="M657.31,72.03c.1-2.59-.48-5.39,2.13-7.24,3.64,.04,7.28,.09,10.92,.13,.08,2.27,.16,4.53,.24,6.8-4.39,1.89-8.83,1.83-13.3,.31Z"/><path class="cls-15" d="M815.31,482.84c-.09,18.35-.17,36.69-.26,55.04-10.23,0-20.46-.01-30.68-.02-6.79,0-13.59,.18-20.37-.1-3.83-.16-4.87,1.25-4.7,4.87,.26,5.62,.26,11.27,0,16.89-.18,3.68,1.39,4.47,4.68,4.38,6.79-.19,13.58-.05,20.37-.05l.15,1.12c-.12,9.24-.23,18.47-.35,27.71-8.96-.37-17.97,.85-26.9-.67-1.4-6.75,.05-13.49,.05-20.24,0-7.43-.61-7.92-7.8-7.92-17.65,0-35.31-.13-52.96,.1-4.26,.05-5.49-1.33-5.24-5.4,.31-4.98-.03-9.99,.11-14.98,.08-2.81-.97-3.88-3.78-3.77-3.82,.16-7.66-.08-11.49,.08-2.76,.11-3.81-.85-3.87-3.7-.07-3.59,1.72-8.23-.92-10.52-2.71-2.36-7.35-.53-11.14-.81-.5-.04-1,0-1.5,0-9.73-.09-8.44,.98-8.24-8.1,.09-4.12-1.38-5.04-5.18-4.97-11.82,.21-23.65-.06-35.47,.15-4.1,.07-5.7-1.24-5.51-5.44,.27-5.98-.15-12,.15-17.98,.19-3.86-1.28-4.73-4.89-4.78-4.38-.06-8.93,1.3-13.18-.87,0-6.14,0-12.29,0-18.43,0-2.07-.02-4.3-2.76-4.44-3.13-.16-6.43-.5-9.41,.24-12.26,3.03-24.52,1.85-36.81,.62,1.99-7.81,.6-15.77,.97-23.65,.14-2.97,.22-5.97-.03-8.92-.31-3.58,1.21-4.69,4.58-4.41,2.63,.22,5.28,.07,7.93,.03,4.92-.07,5.38-.88,3.51-6.02,.06-6.33,.13-12.66,.19-19h19.83c.02,2.68,.05,5.36,.07,8.04-.04,3.33,.28,6.71-.23,9.97-.32,2.05,2.62,2.5,1.59,4.26-4.13,7.05,.53,12.58,3.13,18.43,.7,1.58,2.59,1.3,4.06,1.21,4.13-.25,8.26-.61,12.38-.92,3,0,6,0,9,0,2.15,.93,1.96,2.84,1.96,4.68,0,3.83,.27,7.68-.07,11.47-.37,4.13,1.33,5.18,5.14,4.97,4.97-.28,9.98,.06,14.96-.12,2.96-.1,4.23,.83,4.1,3.96-.2,4.82,.21,9.66-.13,14.46-.3,4.23,.83,5.75,5.43,5.71,30.44-.21,60.87-.17,91.31-.02,4.06,.02,5.42-1,5.37-5.24-.23-20.29-.12-40.58-.13-60.87,7.62,1.41,15.33,.96,23.01,.98,.01,5.77,.04,11.55,.03,17.32,0,1.94,.08,3.81,2.73,3.66,8.42-.48,16.84,1.63,25.26,.04,0,5.45-.02,10.89,.04,16.34,.02,1.59-.52,3.35,.96,4.65-.35,4.6,3.39,7.61,4.56,11.72,2.67,9.37,2.99,9.28,12.51,9.28,2.98,0,5.96,0,8.94,0,1.65,0,3.31,0,4.96,0Z"/><path class="cls-14" d="M357.44,653.8c-.2-4.61,.48-9.26-.88-13.84-.39-1.33-.53-3,.87-4.15,4.21,.25,8.43,.35,12.61,.79,4.13,.43,3.93-3.39,4.71-5.31,1.05-2.56-1.87-2.58-3.57-2.42-5.53,.53-4.21-2.98-3.75-6.05,2.67,0,5.33,0,8,0,.17,3.89,1.28,6.2,5.7,3.73,.94-.53,2.19-.5,3.3-.73,0,4.3,.2,8.62-.04,12.91-.22,3.95,1.39,5.22,5.23,5.15,9.93-.19,19.86-.08,29.79-.08,13.55-.64,27.04,1.06,40.57,1.1,3.48,.01,4.64-1.07,4.52-4.54-.22-6.11-.04-12.24-.02-18.36,8.29-.07,16.57-.14,24.86-.22,7.12,.02,14.24-.05,21.35,.09,2.78,.05,3.85-.95,3.76-3.75-.16-5.13-.09-10.26-.11-15.39-.11-4.4-.23-8.8-.34-13.2,.04-.91,.08-1.83,.12-2.74,5.78,0,11.55-.11,17.33,.06,2.99,.09,4.09-.93,4.03-3.97-.13-6.93,.04-13.86,.08-20.79,2.7-.51,1.96-2.66,1.99-4.34,.11-6.61,.15-13.22,.21-19.83,2.59-.34,5.33-1.38,7.75-.88,6.57,1.37,13.13,.46,19.69,.75,1.71,.08,3.8,.57,4.34-2.03,11.66,.03,23.32,.07,34.98,.1-.09,8.97-.18,17.94-.26,26.91-9.58-1.59-19.24-.55-28.85-.99-3.96-.18-5.13,1.08-5.08,5.05,.2,16.65-.05,33.31,.17,49.97,.06,4.47-1.11,6.35-5.89,6.1-6.81-.35-13.66,.11-20.48-.17-3.83-.16-4.61,1.25-4.8,4.87-.46,8.68,1.56,17.22,.98,25.87-17.65,.14-35.3,.38-52.95,.39-43.3,.04-86.6-.03-129.9-.05Z"/><path class="cls-1" d="M604.24,562.76c.09-8.97,.18-17.94,.26-26.91,6.44,.02,12.89,.26,19.32,0,3.82-.16,4.76,1.23,4.7,4.84-.14,7.75,.17,15.51,.3,23.26-.08,3.98-.17,7.96-.23,11.94-.24,14.94,.44,29.88-.43,44.81-7.59,.01-15.17,.02-22.76,.03-1.29-1.94-.95-4.14-.96-6.28-.08-17.23-.13-34.46-.19-51.69Z"/><path class="cls-1" d="M486.32,483.92c1.6-1.79,3.73-1.1,5.65-1.11,15.48-.06,30.97-.04,46.45-.04,10.91,.07,21.83,.14,32.74,.22,.04,6.49,.07,12.99,.13,19.48,.02,1.71,.01,3.38-1.81,4.29-8.87-.24-17.74-.5-26.61-.71-1.94-.05-4.01-.4-5.49,1.42-16.89-1.48-33.82-.64-50.73-.88-.11-7.56-.21-15.11-.32-22.67Z"/><path class="cls-15" d="M628.16,620.7c.87-14.93,.19-29.88,.43-44.81,.07-3.98,.15-7.96,.23-11.94,2.67-.04,5.33-.11,7.99-.12,5.33,0,7.57,2.34,6.35,7.6-1.19,5.15-.39,10.28-.79,15.39-.24,3.02,.92,4.13,3.99,4.06,6.82-.17,13.66,.1,20.48-.12,3.43-.11,4.69,.93,4.6,4.5-.22,8.82-.09,17.65-.09,26.48-13.73,0-27.46-.01-41.19-.02-.67-.34-1.34-.68-2.01-1.02Z"/><path class="cls-7" d="M571.16,482.99c-10.91-.07-21.83-.14-32.74-.22,.13-7.34,.02-14.66-.99-21.95,12.29,1.23,24.55,2.41,36.81-.62,2.98-.74,6.27-.4,9.41-.24,2.74,.14,2.77,2.36,2.76,4.44,0,6.14,0,12.29,0,18.43-5.09-1.14-10.16,.17-15.25,.16Z"/><path class="cls-4" d="M537.37,507.46c1.48-1.81,3.55-1.46,5.49-1.42,8.87,.21,17.74,.47,26.61,.71,.02,9.66,.03,19.33,.05,28.99-.53,2.61-2.62,2.11-4.34,2.03-6.55-.29-13.12,.62-19.69-.75-2.42-.51-5.16,.54-7.75,.88-.13-10.15-.25-20.29-.38-30.44Z"/><path class="cls-10" d="M604.24,562.76c.06,17.23,.12,34.46,.19,51.69,0,2.13-.33,4.33,.96,6.28-.59,10.95,.96,21.83,1.11,32.75-22.07,.43-44.15,.44-66.22-.02,.58-8.65-1.44-17.19-.98-25.87,.19-3.61,.97-5.02,4.8-4.87,6.82,.28,13.67-.19,20.48,.17,4.77,.25,5.95-1.63,5.89-6.1-.21-16.65,.04-33.31-.17-49.97-.05-3.97,1.12-5.23,5.08-5.05,9.61,.44,19.28-.59,28.85,.99Z"/><path class="cls-14" d="M256.56,535.82c16.01,.03,32.02,.06,48.02,.08-.03,2.65-.06,5.3-.09,7.95-6.43-.44-12.88,.56-19.34-.74-3.3-.66-6.07,.66-5.76,5.21,.33,4.79,.04,9.63,.02,14.45h-.02c-7.6,.14-15.19,.08-22.75-.89-.03-8.69-.06-17.37-.08-26.06Z"/><path class="cls-4" d="M256.64,561.88c7.56,.97,15.15,1.03,22.75,.9,.02,9.35,.04,18.7,.06,28.05-7.67,0-15.33,0-23,.01-.07-9.41-.14-18.81-.21-28.22,.08-.28,.22-.52,.41-.74Z"/><path class="cls-10" d="M256.24,562.62c.07,9.41,.14,18.81,.21,28.22,0,.99,0,1.97,.01,2.96-5.14,.02-10.29-.06-15.42,.11-2.84,.09-3.76-1.04-3.72-3.79,.12-7.96,.1-15.92,.01-23.89-.03-2.55,.89-3.56,3.48-3.51,5.14,.09,10.28-.05,15.42-.09Z"/><path class="cls-10" d="M784.38,537.85c10.23,0,20.46,.01,30.68,.02l.35-.08c-.09,8.93-.18,17.86-.28,26.8l-10.77,.24-19.86,.14c-.05-.37-.1-.75-.15-1.12,0-8.66,.02-17.33,.03-25.99Z"/><path class="cls-8" d="M815.13,564.59c.09-8.93,.18-17.86,.28-26.8,3.97,.02,7.97-.27,11.9,.13,3.81,.39,5.24-1.33,6.15-4.65,.68-2.49,.75-6.01,5-5.35,0,11.89,0,23.77,0,35.65-2,2.26-4.65,1.11-6.99,1.17-5.44,.12-10.88-.08-16.32-.15Z"/><path class="cls-8" d="M784.5,564.96l19.86-.14c0,7.79-.11,15.58,.07,23.37,.08,3.28-.68,4.89-4.37,4.68-5.29-.3-10.6-.16-15.9-.2,.11-9.24,.23-18.47,.35-27.71Z"/><path class="cls-6" d="M64.43,536.72c-5.89,.19-11.78,.38-17.68,.57-2.31-.19-4.63-.37-6.94-.55-.02-9.94-.05-19.89-.07-29.83,7.92,0,15.85-.01,23.77-.02,0,1.99-.17,3.99,.02,5.96,.44,4.68-1.22,9.53,1.05,14.07l-.14,9.8Z"/><path class="cls-3" d="M63.51,506.89c-7.92,0-15.85,.01-23.77,.02-.45-7-.69-13.99-.07-20.99,8.31,0,16.62,.02,24.92,.03-.03,2.14,.09,4.29-.11,6.42-.45,4.84,1.17,9.81-.97,14.53Z"/><path class="cls-3" d="M39.81,536.74c2.31,.18,4.63,.37,6.94,.55-1.22,1.65-3.77,2.19-3.44,5.18,.22,2.03-1.81,2.32-3.54,2.24,.01-2.66,.03-5.31,.04-7.97Z"/><path class="cls-2" d="M787.57,253.88c8.58,0,17.17-.02,25.75,.05,1.74,.01,3.68-.61,5.13,1.01-.08,8.27-.15,16.55-.23,24.82-8.43,.07-16.86,.02-25.29,.28-3.37,.1-4.88-.86-4.65-4.41,.47-7.26-1.41-14.46-.71-21.74Z"/><path class="cls-4" d="M818.22,279.76c.08-8.27,.15-16.55,.23-24.82,7.3-.27,14.6-.74,21.9-.06,.45,7.25-.8,14.56,.87,21.79,.65,2.82-1.3,3.25-3.6,3.21-6.47-.09-12.93-.09-19.4-.12Z"/><path class="cls-13" d="M841.86,350.06c-.15-6.33-.3-12.65-.45-18.98,17.64-.78,35.29-.4,52.93-.2l-.02,19.09c-17.49,.03-34.97,.06-52.46,.09Z"/><path class="cls-9" d="M894.32,349.96l.02-19.09c9.66-.34,19.32-.49,28.98,.01-.1,4.64-.2,9.27-.31,13.91-3.97,.48-6.37,4.37-10.67,4.72-1.16,.09-1.81,4.48-3.01,6.73-3.3,6.18-7.79,11.27-14.06,14.62-1.95-6.89-.31-13.94-.95-20.89Z"/><path class="cls-9" d="M64.43,536.72c.05-3.27,.09-6.54,.14-9.81,6.64-.01,13.27-.03,19.91-.03q8.97,0,9.03,8.86c-.01,.33-.02,.66,0,.99-9.69,0-19.38-.01-29.07-.02Z"/><path class="cls-3" d="M93.5,536.74c0-.33,0-.66,0-.99,6.35,.15,12.7,.3,19.04,.45-.03,3.87-.06,7.74-.09,11.6-4.81,1.12-9.67,2.06-14.41,3.42-3.53,1.01-4.56-.36-4.53-3.57,.04-3.64,0-7.28-.02-10.92Z"/><path class="cls-14" d="M118.36,561.81c2.15-1.05,3.56-2.38,5.45-1.42,.7,.35,.62,1.37,.18,1.7-1.55,1.14-3.24,1.04-5.62-.27Z"/><path class="cls-14" d="M129.49,556.84c-.57,.62-.9,1.21-1.39,1.45-.63,.31-1.38,.11-1.18-.78,.12-.51,.7-1,1.2-1.31,.18-.11,.7,.31,1.36,.63Z"/><path class="cls-14" d="M113.48,547.84h2c-.15,.71-.14,1.7-1.21,1.47-.35-.08-.53-.96-.79-1.47Z"/><path class="cls-15" d="M304.51,621.41c-.04-10.14-.08-20.28-.12-30.42,9.07-.12,18.13-.24,27.19-.36,7.95,.06,15.9,.12,23.84,.19,.04,10.64,.09,21.28,.13,31.92-7.95,2-16.07,.36-24.08,1.07-.44-2.69-2.55-2.07-4.26-2.1-7.57-.13-15.14-.2-22.71-.3Z"/><path class="cls-11" d="M331.48,623.81c8.01-.71,16.13,.93,24.08-1.07,.29,.01,.59,.03,.88,.06,0,1.33,0,2.67,0,4h-24.97c0-.99,0-2,.01-3Z"/><path class="cls-14" d="M188.42,253.51c-5.62,.15-11.25,.3-16.87,.45-.42-.08-.84-.15-1.25-.23,.12-14.35,.23-28.71,.35-43.06,.02-2.14,.11-4.29,.17-6.43,8.91-.06,17.82-.13,26.72-.19,.32,.29,.64,.57,.96,.86,1.36,7.5,.98,15.07,.93,22.63-.26,.17-.55,.3-.85,.39-3.4-.22-4.87,1.94-6.19,4.65-3.24,6.64-5.06,13.49-3.95,20.92Z"/><path class="cls-14" d="M257.55,183.95c.01,5.63-.14,11.26,.09,16.87,.13,3.28-1.02,4.28-4.25,4.23-11.25-.17-22.5-.07-33.75-.08-.4-.05-.81-.1-1.21-.15,2.17-6.93-.33-14.07,.93-21.04l-.04-.05,38.22,.21Z"/><path class="cls-8" d="M199.42,183.78c-.32-.63-.63-1.25-.95-1.88,6.67,0,13.33,0,20,.01,.29,.61,.58,1.22,.87,1.83l.04,.05c-6.65,0-13.3,0-19.95-.01Z"/><path class="cls-3" d="M331.59,590.64c-9.06,.12-18.13,.24-27.19,.36-8.32-.06-16.63-.11-24.95-.17-.02-9.35-.04-18.7-.06-28.05h.02c8.41,0,16.83,0,25.24,0,7.45,0,14.91,.16,22.36-.08,3.56-.11,4.53,1.2,4.46,4.59-.15,7.78,.06,15.56,.12,23.34Z"/><path class="cls-12" d="M142.64,283.01c-.04,7.31-.09,14.62-.13,21.93-7.68-.03-15.37-.06-23.05-.09-.1-1.35-.2-2.71-.3-4.06,0-6.28,.01-12.56,.02-18.85,.1-.37,.21-.74,.31-1.11,7.02-.06,14.03-.12,21.05-.19,.29,.75,.88,.93,1.61,.85l.5,1.51Z"/><path class="cls-8" d="M142.14,281.5c-.73,.08-1.32-.1-1.61-.85,.59-.27,1.19-.54,1.78-.81-.06,.56-.11,1.11-.17,1.67Z"/><path class="cls-15" d="M356.44,626.81c0-1.33,0-2.67,0-4,3.67,0,7.33,0,11,.01-.46,3.06-1.78,6.58,3.75,6.05,1.7-.16,4.62-.15,3.57,2.42-.79,1.93-.59,5.74-4.71,5.31-4.19-.43-8.41-.54-12.61-.79,0-.67,0-1.33,0-2,1.02-.16,2.62,.38,2.56-1.3-.04-1.27-1.37-1.63-2.56-1.7-.14-1.38,.45-2.94-.99-4Z"/><path class="cls-14" d="M357.44,630.81c1.2,.07,2.52,.42,2.56,1.7,.06,1.68-1.55,1.14-2.56,1.3,0-1,0-2,0-3Z"/><path class="cls-6" d="M119.46,304.85c7.68,.03,15.37,.06,23.05,.09,.19,2.08-.95,3.16-2.57,4.33-3.73,2.72-6.41,5.77-4.7,11.23,.99,3.16,.24,6.87,.27,10.33-5.34-.32-10.64-1.46-16.03-.97-.13-8.11,.56-16.23-.37-24.32,.11-.24,.23-.47,.36-.69Z"/><path class="cls-2" d="M119.47,329.87c5.39-.49,10.69,.65,16.03,.97,2.69,.04,5.38,.08,8.06,.11-.05,.32-.07,.63-.08,.95-2.22-.16-2.26,2.51-3.96,3.02-1.32-.02-2.65,.08-3.94-.08-4.71-.58-6.9,1.2-5.95,6.1-.03,.66-.16,1.35-.06,1.99,.75,4.75-1.11,6.7-5.97,6.06-2.28-.3-4.64,0-6.97,.04-.08-6.3-.17-12.6-.25-18.89,1.03-.09,2.07-.19,3.1-.28Z"/><path class="cls-8" d="M119.46,304.85c-.13,.22-.25,.46-.36,.69-.96-.02-2.03,.29-2.61-.87,.31-1.69,.7-3.33,2.66-3.89,.1,1.35,.2,2.71,.3,4.06Z"/><path class="cls-11" d="M199.42,183.78c6.65,0,13.3,.01,19.95,.01-1.27,6.97,1.23,14.11-.94,21.04-6.65,.03-13.3,.05-19.95,.08-.32-.29-.64-.57-.96-.86-.06-6.4-.12-12.8-.18-19.21,.69-.36,1.38-.71,2.07-1.07Z"/><path class="cls-3" d="M732.32,418.85c.01,20.29-.09,40.58,.13,60.87,.05,4.25-1.31,5.26-5.37,5.24-30.44-.16-60.87-.19-91.31,.02-4.6,.03-5.72-1.48-5.43-5.71,.34-4.8-.07-9.65,.13-14.46,.13-3.13-1.14-4.06-4.1-3.96-4.98,.17-9.99-.16-14.96,.12-3.81,.21-5.51-.84-5.14-4.97,.34-3.79,.07-7.64,.07-11.47,0-1.84,.19-3.75-1.96-4.68,.67-3.89-1.63-7.62-.24-11.71,.68-2,1.51-6.01-1.29-6.57-3.89-.78-2.5,3.61-2.87,5.49-.89,4.56-4.99,7.87-4.61,12.78-4.13,.31-8.25,.67-12.38,.92-1.47,.09-3.36,.37-4.06-1.21-2.6-5.84-7.25-11.38-3.13-18.43,1.03-1.76-1.91-2.21-1.59-4.26,.51-3.25,.2-6.64,.23-9.97,3.27-2.04,5.94-4.68,7.96-7.96,.3-.07,.6-.15,.9-.22,7.33,.02,14.65,.05,21.98,.07,.07,2.67,.14,5.35,.21,8.02-.03,1.47-.13,2.95-.08,4.42,.27,9.12-2.21,8.82,9.03,8.48l13.98-.08c2.59,.61,1.96,2.72,1.98,4.44,.05,5.14,.22,10.29-.04,15.42-.18,3.59,1.2,4.5,4.6,4.47,12.44-.14,24.88-.02,37.32,0,.04,4.66,.23,9.32,.06,13.97-.11,3.1,1.09,4.05,4.07,3.99,7.31-.16,14.63-.05,21.95-.06,7.01,2.02,14.17,.58,21.26,.81,2.45,.08,2.74-1.94,2.73-3.91-.01-4.15-.09-8.31,.03-12.46,.07-2.53-.84-3.65-3.46-3.55-3.48,.13-6.99-.17-10.46,.08-4.04,.3-5.17-1.46-5.09-5.26,.2-9.3-.05-18.61,.12-27.9,.07-3.92-.91-7.93,.68-11.77,9.02,.01,18.05,.03,27.08,.04,.04,1.97-.02,3.95,.15,5.91,.45,4.99-1.12,10.11,.91,15.01Z"/><path class="cls-13" d="M486.32,483.92c.11,7.56,.21,15.11,.32,22.67-2.05,1.96-4.47,2.4-7.28,2.39-20.61-.07-41.22,0-61.83,.03-.41-.06-.81-.12-1.22-.17,.02-5.63,.03-11.27,.05-16.9,.03-2.74,.06-5.48,.09-8.22,22.65-1.31,45.32-.36,67.98-.75,.63,.32,1.26,.64,1.89,.96Z"/><path class="cls-3" d="M604.34,375.86c.03-7.95,.06-15.9,.09-23.85,8.91-.08,17.82-.16,26.74-.24,.41,.03,.81,.06,1.22,.09l-.05,23.8c-1.34,.06-2.67,.12-4.01,.18-7.66,.01-15.32,.02-22.99,.04h-1Z"/><path class="cls-8" d="M631.16,351.77c-8.91,.08-17.82,.16-26.74,.24-2.23-6.66-.73-13.51-.9-20.26-.06-2.37,2.38-1.83,3.93-1.84,7.99-.04,15.97-.01,23.96,0,.02,.41,.03,.83,.05,1.24-.02,6.87,.5,13.75-.31,20.62Z"/><path class="cls-15" d="M604.34,375.86c.33,0,.67,0,1,0,0,7.65,0,15.3,0,22.95l-.05-.03c-7.33-.02-14.65-.05-21.98-.07,.02-6.31,.17-12.63,0-18.94-.08-3.09,1.09-4.07,4.08-3.98,5.64,.17,11.29,.06,16.94,.07Z"/><path class="cls-8" d="M554.57,398.85c-.06,6.33-.13,12.66-.19,19-3.29-.32-6.58-.6-9.87-.95-3.29-.35-4.28-3.18-4.89-5.58-.8-3.16-.23-6.56-.93-9.87-.44-2.09,1.59-2.57,3.4-2.58,4.16,0,8.31-.01,12.47-.02Z"/><path class="cls-4" d="M582.43,398.93c-2.02,3.29-4.69,5.93-7.96,7.96-.02-2.68-.05-5.36-.07-8.04l8.03,.08Z"/><path class="cls-6" d="M283.2,374.85c.03-6.28,.2-12.56,.04-18.83-.08-3.16,.87-4.69,4.19-4.27,6.45,.82,12.4-.57,17.84-4.16,1.04,1.61,1.33,3.39,1.18,5.27-2.22,5.22-.98,10.7-.9,16.02,.08,4.68-1.11,6.5-6.01,6.11-5.42-.43-10.89-.13-16.34-.14Z"/><path class="cls-5" d="M112.55,536.2c-6.35-.15-12.7-.3-19.04-.45q-.06-8.87-9.03-8.86c-6.64,0-13.28,.02-19.91,.03-2.26-4.54-.6-9.38-1.04-14.07-.19-1.97-.02-3.97-.02-5.96,2.14-4.72,.53-9.69,.97-14.53,.2-2.12,.08-4.28,.11-6.42,.22-.11,.44-.18,.69-.2,9.34,.05,18.68,.09,28.02,.14,.04,6.13,.26,12.26,.07,18.38-.11,3.4,.88,4.76,4.46,4.59,5.45-.26,10.93,.08,16.39-.13,3.24-.12,4.37,.97,4.29,4.25-.18,7.61-.03,15.24-.02,22.85-1.98,.13-3.95,.25-5.93,.38Z"/><path class="cls-6" d="M93.29,485.88c-9.34-.05-18.68-.09-28.02-.14-.16-7.84,.52-15.7-.59-23.52,9.7-.17,19.39-.35,29.09-.52-.16,8.06-.32,16.11-.49,24.17Z"/><path class="cls-12" d="M93.78,461.71c-9.7,.17-19.39,.34-29.09,.52-1.11-4.87,1.11-9.71-.01-14.66-.45-1.98,1.24-4.31,3.33-4.27,8.8,.15,17.65-1.79,26.4,.53-.14,6-.28,12.01-.42,18.01l-.21-.12Z"/><path class="cls-6" d="M93.99,461.83c.14-6,.28-12.01,.42-18.01,.38-.1,.76-.2,1.14-.3,7.31,.11,14.62,.21,21.94,.32,.32,6.01-.85,12.1,.99,18.03-8.16-.01-16.33-.03-24.49-.05Z"/><path class="cls-5" d="M417.53,509.01c20.61-.03,41.22-.11,61.83-.03,2.81,0,5.23-.43,7.28-2.39,16.91,.24,33.84-.61,50.73,.88,.13,10.15,.25,20.29,.38,30.44-.06,6.61-.09,13.22-.21,19.83-.03,1.68,.71,3.83-1.99,4.34-6.3-.1-12.6-.2-18.9-.29-1.59-.02-3.18,.15-3.12,2.24,.24,7.58-.88,15.2,.58,22.75-.04,.91-.08,1.83-.11,2.74-4.15,.04-8.3,.19-12.45,.1-5.91-.14-11.86-1.06-17.7-.56-11.62,.98-23.17,1.01-34.77-.07-2.71-.25-3.58-.99-3.86-3.77-.62-6.13-.98-12.25-.69-18.38,.2-4.3-2.24-5.48-5.59-4.75-4.48,.97-8.94,.64-13.41,.65-20.46,.07-40.93,.2-61.39-.07-4.75-.06-6,1.46-5.74,5.93,.34,5.8,.03,11.64,.04,17.47,0,2.25,.06,4.47-2.99,4.78-7.95-.06-15.9-.12-23.84-.19-.06-7.78-.27-15.57-.12-23.34,.07-3.39-.9-4.7-4.46-4.59-7.45,.24-14.9,.08-22.36,.08-.05-6.31-.1-12.62-.16-18.94,.03-2.65,.06-5.3,.09-7.95,.31-.26,.61-.52,.92-.78,8.19,.1,16.38,.21,24.56,.31,1.97,.12,3.94,.31,5.92,.36,16.84,.4,33.64-1.65,50.48-.86,1.36,1.4,3.11,.86,4.71,.87,6.92,.03,13.83-.4,20.74-.71,5.3-.24,6.55-2.43,6.51-6.84-.06-6.42,.31-12.86-.89-19.23Z"/><path class="cls-3" d="M386.46,534.93c-16.85-.79-33.64,1.26-50.48,.86-1.97-.05-3.94-.24-5.92-.36,1.29-8.51,.36-17.06,.48-25.59,.37-.55,.73-1.1,1.1-1.65,7.32,1.05,14.62-.64,21.93-.16,2.31,.15,2.73-1.28,2.72-3.2-.02-4.33,.03-8.66,.06-12.99,.71,0,1.41,0,2.12,0,0,4.8-.03,9.61,0,14.41,0,1.46-.22,3.49,1.86,3.43,7.37-.23,14.8,1.26,22.1-.77l3.92,.05c.04,8.66,.08,17.32,.12,25.97Z"/><path class="cls-8" d="M330.54,509.85c-.12,8.53,.81,17.08-.48,25.59-8.19-.11-16.38-.21-24.56-.31-.01-6.82,.23-13.65-.12-20.45-.22-4.21,1.5-5.04,5.22-4.91,6.64,.24,13.3,.08,19.95,.09Z"/><path class="cls-8" d="M356.35,491.85c-.02,4.33-.08,8.66-.06,12.99,.01,1.92-.41,3.35-2.72,3.2-7.31-.49-14.61,1.21-21.93,.16-2.32-3.49-1.04-7.4-1.09-11.09-.19-13.29-.08-13.29,13.44-13.29,4.14,0,8.28,.02,12.42,.02-.02,2.67-.04,5.34-.06,8.01Z"/><path class="cls-9" d="M356.35,491.85c.02-2.67,.04-5.34,.06-8.01,.39-.11,.78-.22,1.17-.33,19.62,.07,39.25,.13,58.87,.2-.03,2.74-.06,5.48-.09,8.22-11.64-.03-23.28-.06-34.92-.09-7.66,0-15.31,0-22.97,0-.71,0-1.41,0-2.12,0Z"/><path class="cls-13" d="M631.16,351.77c.81-6.86,.29-13.74,.31-20.62,13.63-.1,27.27-.2,40.9-.3-1.93,6.6-.71,13.37-.99,20.05-7.71,.52-15.5-1.02-23.15,.89-5.28,.02-10.56,.04-15.84,.07-.41-.03-.81-.06-1.22-.09Z"/><path class="cls-2" d="M671.38,350.9c.29-6.69-.94-13.45,.99-20.05,10.33-.05,20.67-.09,31-.14-.06,7.05-.11,14.11-.17,21.16-10.62-.02-21.24-.03-31.86-.05,0-.31,0-.61,.03-.92Z"/><path class="cls-6" d="M305.52,331.16c1.66,.13,3.33,.26,4.99,.39-.87,2.74-1.65,5.54-5,6.32,0-2.24,0-4.47,0-6.71Z"/><path class="cls-12" d="M198.49,204.91c6.65-.03,13.3-.05,19.95-.08,.4,.05,.8,.1,1.21,.14-.09,6.14-.32,12.28-.21,18.42,.06,3.07-.59,4.62-4.08,4.42-5.3-.3-10.62-.2-15.93-.28,.05-7.56,.43-15.13-.93-22.63Z"/><path class="cls-13" d="M143.48,331.9c0-.32,.03-.64,.08-.95,7.66,0,15.33,.09,22.99-.08,3.04-.07,4.14,.96,4.04,4.02-.18,5.32-.03,10.66-.02,15.99-4.7-.01-9.4-.03-14.09-.04-.04-4.62-1.07-8.06-6.62-9.23-4.63-.98-5.3-5.74-6.37-9.7Z"/><path class="cls-12" d="M188.42,253.51c-1.11-7.43,.71-14.28,3.95-20.92,1.33-2.72,2.79-4.87,6.19-4.65,0,6.92-.25,13.86,.1,20.76,.21,4.25-1.34,5.66-5.33,5.13-1.62-.21-3.28-.22-4.91-.31Z"/><path class="cls-3" d="M129.62,340.95c-.95-4.9,1.24-6.68,5.95-6.1,1.3,.16,2.63,.06,3.94,.08,.61,4.55-1.24,6.58-5.91,5.95-1.3-.18-2.66,.03-3.99,.06Z"/><path class="cls-5" d="M671.38,350.9c-.03,.31-.04,.61-.03,.92,0,6.33,.15,12.66-.09,18.97-.15,4.02,1.51,5.23,5.32,5.12,7.48-.22,14.98-.06,22.47-.16,2.08-.03,3.98,.04,5.17,2.08-.01,6.69-.03,13.37-.04,20.06-1.59,3.84-.61,7.85-.68,11.78-.17,9.3,.07,18.61-.12,27.9-.08,3.8,1.05,5.56,5.09,5.26,3.47-.26,6.98,.05,10.46-.08,2.62-.1,3.53,1.02,3.46,3.55-.12,4.15-.05,8.3-.03,12.46,0,1.97-.28,3.99-2.73,3.91-7.09-.24-14.24,1.2-21.26-.81,0-4.63-.17-9.26,.06-13.88,.16-3.34-1.19-4.27-4.34-4.18-7.26,.2-14.54,.12-21.81,.16-12.44-.02-24.88-.15-37.32,0-3.39,.04-4.78-.88-4.6-4.47,.26-5.13,.1-10.28,.04-15.42-.02-1.72,.62-3.83-1.98-4.44-.02-5.13-1.41-10.13-1.08-15.33,.53-8.5,.67-17.02,.97-25.54,0-.98,0-1.95,.01-2.93,1.34-.06,2.67-.12,4.01-.17,4.12,.05,8.25,0,12.36,.2,2.85,.14,3.74-1.06,3.67-3.78-.15-6.76-.11-13.52-.14-20.28,7.66-1.91,15.44-.37,23.15-.89Z"/><path class="cls-3" d="M704.23,377.83c-1.19-2.04-3.09-2.1-5.17-2.08-7.49,.1-14.98-.06-22.47,.16-3.81,.11-5.48-1.1-5.32-5.12,.24-6.32,.08-12.65,.09-18.97,10.62,.02,21.24,.03,31.86,.05,8.39,.01,16.78,.02,25.17,.03,2.1,.27,2.01,1.83,2.01,3.36,0,6.31-.1,12.61,.05,18.92,.07,2.86-1.08,3.75-3.81,3.71-7.47-.12-14.93-.05-22.4-.06Z"/><path class="cls-12" d="M732.32,418.85c-2.03-4.89-.46-10.01-.91-15.01-.18-1.96-.11-3.94-.15-5.91,8.06-.03,16.13-.07,24.19-.1,.07,6.88,.15,13.75,.22,20.63-.11,.45-.22,.91-.33,1.36-7.68-.02-15.39,.43-23.01-.98Z"/><path class="cls-7" d="M755.34,419.83c.11-.45,.22-.91,.33-1.36,9.2,.43,18.39,.45,27.59-.02,.03,7.47,.06,14.94,.09,22.41-8.42,1.59-16.84-.52-25.26-.04-2.65,.15-2.73-1.73-2.73-3.66,0-5.77-.01-11.55-.03-17.32Z"/><path class="cls-5" d="M894.32,349.96c.64,6.95-1,14,.95,20.89-.02,1.94-.05,3.88-.07,5.81-.1,6.66-.2,13.32-.3,19.98-16.6,.08-33.2,.09-49.8,.29-3.35,.04-3.74-1.6-3.73-4.3,.04-13.95-.03-27.89-.07-41.84,.14-.28,.33-.53,.56-.74,17.49-.03,34.97-.06,52.46-.09Z"/><path class="cls-7" d="M810.35,482.84c-2.98,0-5.96,0-8.94,0-9.52,0-9.84,.09-12.51-9.28-1.17-4.11-4.91-7.12-4.56-11.72,7.61,0,15.23,.12,22.84-.07,3.3-.08,4.44,1.12,4.2,4.32-.41,5.57,.75,11.24-1.03,16.74Z"/><path class="cls-7" d="M784.38,537.85c0,8.66-.02,17.33-.03,25.99-6.79,0-13.59-.14-20.37,.05-3.29,.09-4.86-.7-4.68-4.38,.27-5.62,.27-11.27,0-16.89-.17-3.62,.88-5.03,4.7-4.87,6.78,.29,13.58,.1,20.37,.1Z"/><path class="cls-4" d="M595.39,439.84c-.38-4.91,3.72-8.22,4.61-12.78,.37-1.88-1.02-6.27,2.87-5.49,2.79,.56,1.97,4.57,1.29,6.57-1.39,4.09,.91,7.82,.24,11.71-3,0-6,0-9,0Z"/><path class="cls-3" d="M355.43,590.83c3.06-.31,3-2.53,2.99-4.78-.01-5.82,.3-11.66-.04-17.47-.26-4.47,.99-5.99,5.74-5.93,20.46,.26,40.93,.14,61.39,.07,4.47-.02,8.92,.31,13.41-.65,3.35-.72,5.79,.45,5.59,4.75-.29,6.13,.07,12.26,.69,18.38,.28,2.78,1.15,3.52,3.86,3.77,11.6,1.08,23.15,1.05,34.77,.07,5.84-.49,11.79,.43,17.7,.56,4.15,.1,8.3-.05,12.45-.1,.11,4.4,.23,8.8,.34,13.2-6.99,.03-13.98,.18-20.96,.04-3.04-.06-4.14,.98-4.04,4.03,.17,4.99,.02,9.98,0,14.98-8.29,.07-16.57,.14-24.86,.22-11.31,1.66-22.68,1.06-34.04,.83,0-.99,0-1.99-.01-2.98,3.15-.12,6.31-.14,9.45-.38,3.21-.25,4.9-1.54,4.68-5.36-.39-6.8-.3-13.65-.03-20.46,.14-3.7-.98-4.9-4.76-4.85-13.81,.21-27.62,.08-41.43,.08-14.08,0-13.9,0-14.01,14.04-.03,4.16,1.46,5.48,5.19,4.84,7.25-1.24,14.57-.74,21.86-.96,3.28-.09,5,.35,5.41,4.37,.29,2.83-.43,6.5,2.66,8.67v2.98c-.04,.32-.05,.63-.06,.95-11.65,.03-23.32,.52-34.93-.95-3,0-6,0-9,0-2.67,0-5.33,0-8,0-3.67,0-7.33,0-11-.01-.29-.03-.59-.05-.88-.06-.04-10.64-.08-21.28-.13-31.92Z"/><path class="cls-12" d="M430.43,622.81c11.36,.23,22.73,.83,34.04-.83-.01,6.12-.2,12.25,.02,18.36,.13,3.47-1.03,4.55-4.52,4.54-13.54-.04-27.02-1.74-40.57-1.1-.01-6.67-.02-13.35-.04-20.03,0-.32,.02-.63,.06-.95,.68-.02,1.37-.03,2.05-.05,1.97,0,3.94,0,5.91,0,1.02,.01,2.03,.03,3.05,.04Z"/><path class="cls-4" d="M419.37,623.76c.01,6.68,.02,13.35,.04,20.03-9.93,0-19.86-.11-29.79,.08-3.84,.07-5.45-1.2-5.23-5.15,.24-4.29,.05-8.6,.04-12.91,0-1,0-2,0-3,11.61,1.47,23.28,.98,34.93,.95Z"/><path class="cls-13" d="M514.11,586.77c-1.46-7.55-.34-15.17-.58-22.75-.07-2.09,1.53-2.26,3.12-2.24,6.3,.09,12.6,.19,18.9,.29-.05,6.93-.21,13.86-.08,20.79,.06,3.04-1.04,4.06-4.03,3.97-5.77-.17-11.55-.06-17.33-.06Z"/><path class="cls-12" d="M489.34,621.76c.02-4.99,.17-9.99,0-14.98-.11-3.05,1-4.09,4.04-4.03,6.99,.14,13.98,0,20.96-.04,.02,5.13-.05,10.26,.11,15.39,.09,2.8-.98,3.8-3.76,3.75-7.11-.14-14.23-.07-21.35-.09Z"/><path class="cls-15" d="M384.44,622.81c0,1,0,2,0,3-1.11,.23-2.36,.2-3.3,.73-4.41,2.47-5.53,.16-5.7-3.73,3,0,6,0,9,0Z"/><path class="cls-4" d="M304.49,543.85c.05,6.31,.1,12.62,.16,18.94-8.41,0-16.83-.01-25.24-.02,.02-4.82,.31-9.65-.02-14.45-.31-4.56,2.46-5.88,5.76-5.21,6.46,1.3,12.91,.3,19.34,.74Z"/><path class="cls-6" d="M628.32,378.76c-.3,8.51-.43,17.04-.97,25.54-.33,5.2,1.06,10.2,1.08,15.33-4.66,.03-9.32,.05-13.98,.08,0-6.37-3.7-10.17-8.94-12.9-.07-2.67-.14-5.35-.21-8.02l.05,.03c2,.01,4,.04,5.99,.03q11.79,0,12.04-11.89c.07-3.72,.74-7,4.94-8.2Z"/><path class="cls-2" d="M672.28,443.96c7.27-.04,14.54,.04,21.81-.16,3.15-.09,4.51,.84,4.34,4.18-.23,4.62-.06,9.25-.06,13.88-7.32,0-14.64-.1-21.95,.06-2.99,.06-4.19-.89-4.07-3.99,.17-4.65-.02-9.31-.06-13.97Z"/><path class="cls-2" d="M605.51,406.81c5.25,2.73,8.94,6.54,8.94,12.9-11.24,.33-8.76,.63-9.03-8.49-.04-1.47,.05-2.95,.08-4.42Z"/><path class="cls-2" d="M386.46,534.93c-.04-8.66-.08-17.32-.12-25.97,9.99-.04,19.98-.08,29.97-.12,.4,.06,.81,.12,1.22,.17,1.2,6.37,.83,12.81,.89,19.24,.04,4.41-1.21,6.61-6.51,6.84-6.91,.31-13.82,.74-20.74,.71-1.59,0-3.35,.53-4.71-.87Z"/><path class="cls-5" d="M416.31,508.84c-9.99,.04-19.98,.08-29.97,.12-1.31-.01-2.61-.03-3.92-.04-1.34-5.63-.97-11.36-.98-17.07,11.64,.03,23.28,.06,34.92,.09-.02,5.64-.03,11.27-.05,16.9Z"/><path class="cls-9" d="M628.32,378.76c-4.19,1.2-4.86,4.48-4.94,8.2q-.23,11.89-12.04,11.89c-2,0-4-.02-5.99-.03,0-7.65,0-15.3,0-22.95,7.66-.01,15.32-.02,22.99-.04,0,.98-.01,1.95-.01,2.93Z"/><path class="cls-9" d="M648.23,351.8c.03,6.76-.01,13.52,.14,20.28,.06,2.72-.83,3.92-3.67,3.78-4.11-.2-8.24-.14-12.36-.2,.02-7.93,.03-15.87,.05-23.8,5.28-.02,10.56-.04,15.84-.07Z"/><path class="cls-2" d="M381.44,491.84c0,5.71-.36,11.44,.98,17.07-7.3,2.04-14.73,.54-22.1,.77-2.07,.06-1.85-1.97-1.86-3.43-.02-4.8,0-9.61,0-14.41h22.97Z"/><path class="cls-6" d="M419.43,619.83c-3.09-2.17-2.37-5.84-2.66-8.67-.41-4.02-2.13-4.46-5.41-4.37-7.29,.21-14.6-.28-21.86,.96-3.73,.64-5.22-.69-5.19-4.84,.11-14.04-.06-14.04,14.01-14.04,13.81,0,27.62,.12,41.43-.08,3.78-.06,4.9,1.15,4.76,4.85-.26,6.81-.35,13.66,.03,20.46,.22,3.82-1.47,5.11-4.68,5.36-3.14,.24-6.3,.26-9.45,.38-.99,.01-1.98,.02-2.97,.03-2.01,0-4.02,0-6.04-.01-.66,0-1.32-.01-1.99-.02Z"/><path class="cls-4" d="M427.45,619.86c.99-.01,1.98-.02,2.97-.03,0,1,0,1.99,.01,2.98-1.02-.01-2.03-.03-3.05-.04,.02-.97,.04-1.94,.06-2.91Z"/><path class="cls-4" d="M419.43,619.83c.66,0,1.32,.01,1.99,.02,.02,.97,.04,1.94,.06,2.92-.68,.02-1.37,.03-2.05,.05,0-.99,0-1.99,0-2.98Z"/><path class="cls-3" d="M421.48,622.76c-.02-.97-.04-1.94-.06-2.92,2.01,0,4.02,0,6.04,.01-.02,.97-.04,1.94-.06,2.91-1.97,0-3.94,0-5.91,0Z"/></svg>